/* XPM */
static char *img_p_br[] = {
/* columns rows colors chars-per-pixel */
"64 64 179 2 ",
"   c gray20",
".  c #3E3433",
"X  c #373839",
"o  c #3B3E3E",
"O  c #4D3B39",
"+  c #593733",
"@  c #6C3933",
"#  c #5C5C3F",
"$  c #694C39",
"%  c #64513B",
"&  c #6A503F",
"*  c #3F4344",
"=  c #43494A",
"-  c #4A5253",
";  c #4E5758",
":  c #765A44",
">  c #7B5E48",
",  c #586543",
"<  c #546B45",
"1  c #46794A",
"2  c #7D6149",
"3  c #696458",
"4  c #545F60",
"5  c #5C6B6C",
"6  c #617072",
"7  c #647577",
"8  c #687B7D",
"9  c #6A7C7E",
"0  c #803D36",
"q  c #8D3F37",
"w  c #9D463D",
"e  c #BD4438",
"r  c #CD4335",
"t  c #D04435",
"y  c #D34536",
"u  c #D84638",
"i  c #DA4738",
"p  c #DB4A3B",
"a  c #DD4839",
"s  c #DB543F",
"d  c #E0493A",
"f  c #E74C3C",
"g  c #84684F",
"h  c #8E7157",
"j  c #AE6C65",
"k  c #B16F69",
"l  c #CF5C42",
"z  c #D35644",
"x  c #E85543",
"c  c #C46445",
"v  c #C36056",
"b  c #C56258",
"n  c #CC755E",
"m  c #EB6751",
"M  c #ED7159",
"N  c #24A65B",
"B  c #2CAA5F",
"V  c #2FA462",
"C  c #2CAE64",
"Z  c #3CA76D",
"A  c #32AC68",
"S  c #3DA96F",
"D  c #28B162",
"F  c #408B52",
"G  c #739C5D",
"H  c #539C7A",
"J  c #45BC6A",
"K  c #50B467",
"L  c #40A570",
"P  c #42A873",
"I  c #52A27D",
"U  c #53A37D",
"Y  c #53A47E",
"T  c #4BB77F",
"R  c #67A460",
"E  c #7CB77F",
"W  c #39C46D",
"Q  c #2ECC71",
"!  c #33C873",
"~  c #33C973",
"^  c #48CE79",
"/  c #8A8C56",
"(  c #A38557",
")  c #A18366",
"_  c #AA8C6D",
"`  c #B49675",
"'  c #90B173",
"]  c #F18C6F",
"[  c #E99B7A",
"{  c #F39676",
"}  c #5D9880",
"|  c #5D9F83",
" . c #758C8E",
".. c #768D8F",
"X. c #669386",
"o. c #619A85",
"O. c #669987",
"+. c #6C9189",
"@. c #768E90",
"#. c #778E91",
"$. c #788F92",
"%. c #798F92",
"&. c #719790",
"*. c #789092",
"=. c #7A9294",
"-. c #7C9396",
";. c #7C9497",
":. c #7C9597",
">. c #739992",
",. c #7E9799",
"<. c #7F989B",
"1. c #5CA685",
"2. c #4EBA83",
"3. c #62A589",
"4. c #69A38E",
"5. c #64B080",
"6. c #6EAA95",
"7. c #7EA19F",
"8. c #62D181",
"9. c #6FD285",
"0. c #81928F",
"q. c #87958F",
"w. c #949C8F",
"e. c #839490",
"r. c #8D9C96",
"t. c #8E9D97",
"y. c #80999C",
"u. c #819A9D",
"i. c #829B9E",
"p. c #839C9F",
"a. c #99A296",
"s. c #95A49D",
"d. c #9CA69C",
"f. c #B8AD92",
"g. c #BEB092",
"h. c #BFB092",
"j. c #BAB69F",
"k. c #849EA1",
"l. c #9BABA4",
"z. c #A5ADA0",
"x. c #A2AFA5",
"c. c #AAB3A6",
"v. c #BEBBA4",
"b. c #C6A884",
"n. c #D0B18B",
"m. c #C0B294",
"M. c #D7B692",
"N. c #D0BA92",
"B. c #D1BA93",
"V. c #D7BD93",
"C. c #D9BB93",
"Z. c #D0BB98",
"A. c #E8A781",
"S. c #F6A885",
"D. c #F7B18C",
"F. c #C1BFA9",
"G. c #87C191",
"H. c #89C494",
"J. c #E2C49A",
"K. c #EECC9E",
"L. c #F5C299",
"P. c #FAC49B",
"I. c #D5C8A7",
"U. c #D8CCAC",
"Y. c #EBCEA2",
"T. c #FCCDA2",
"R. c #E7D2AC",
"E. c #E8D3AD",
"W. c #EFD7AD",
"Q. c #E4DDA9",
"!. c #F0D2A5",
"~. c #F2D5A7",
"^. c #F5D7A9",
"/. c #FBD6A9",
"(. c #F0D8AE",
"). c #F7DBAF",
"_. c #F1DEAD",
"`. c #F7DCAF",
"'. c #FFE0B1",
/* pixels */
" . . .:.k.k.k.k.k.k.k.u.@. . .@.-.:.<.<.-.-.<.;.;.;.;.;.;.;.y.;.y.-.;.;.y.;.y.-.,.@.@. . .=.;.,.;.;.;.;.y.-.;.-.;.;.y.$.@. . . .",
" .@.u.k.k.k.k.k.k.k.k.k.u.@. . .-.<.-.-.:.<.;.:.;.<.;.u.;.y.-.;.;.;.-.y.-.;.;.;.,.@. . .@.,.;.,.;.<.;.u.;.;.;.y.-.y.;.;.$.@. . .",
" .u.k.k.k.k.k.k.k.k.k.k.k.u. . .*.-.-.-.:.:.:.:.y.;.;.;.;.;.;.,.y.;.y.;.;.-.y.-.=. . . .,.;.;.;.u.;.;.;.y.-.y.;.;.-.;.-.;.$. . .",
"u.k.k.k.k.k.k.k.k.k.k.k.k.k.:. . .-.<.<.:.<.:.<.-.;.;.<.;.y.;.;.-.;.-.;.;.y.;.;.@. . .@.=.,.,.;.;.;.;.<.;.;.-.;.;.y.;.y.;.$. . .",
"k.k.k.k.k.k.k.k.k.k.k.k.k.k.k.*. .*.:.=.-.<.<.=.;.;.-.;.;.y.,.;.;.;.;.;.y.;.y.$. . . .*.,.;.;.;.;.;.y.-.;.;.y.-.y.;.y.;.y.$.$.y.",
"k.k.k.k.k.k.k.k.k.k.k.k.k.k.k.u. . .*.<.-.-.-.<.-.y.y.;.;.-.;.;.y.;.y.,.-.;.$. . . . . .;.;.,.,.;.<.;.;.-.y.;.;.-.;.;.-.;.$.-.k.",
"k.k.k.k.k.k.k.k.k.k.k.k.k.k.k.k.-. . .*.<.-.,.-.;.;.y.;.;.,.;.,.-.;.,.;.;.-.$. . . . . .$.,.,.:.;.=.;.;.;.-.;.-.;.;.-.,.-. .y.k.",
"k.k.k.k.k.k.k.k.k.k.k.k.k.k.k.k.-. . .+.O.Y I I P S Z S L S S S S S S S Z Z Z Z 1.I H } X.;.=.,.;.u.;.u.;.y.;.y.-.y.-.-. . .y.k.",
"k.k.k.k.k.k.k.k.k.k.k.k.k.k.k.k.>.H Z A D D D D D D D D D D D D C D D D D D D D D D D D C Z I >.;.;.;.;.;.;.;.,.;.;.-.@. . .$.k.",
"k.k.k.k.k.k.k.k.k.k.k.k.k.k.k.1.D D C D D D D D D D D D D D D D C D D D D D D D D D D D D D D C I -.u.=.u.,.;.;.y.;.@. . . . .y.",
"u.k.k.k.k.k.k.k.k.k.k.k.k.k.3.D D D D D D D D D D D D D D D D D D D D D D D D D D D D D D D D D C | ;.u.-.;.,.;.-.$. . . . . . .",
"@.k.k.k.k.k.k.k.k.k.k.k.k.k.A D D D D D D D D D D D D D D D D D D D D D D D D D D D D D D D D D D A -.-.u.;.-.-. . . . . . . . .",
" .=.k.k.k.k.k.k.k.k.k.k.k.=.D D D D D D D D D D D D D D D D D D D D D D D D D D D D D D D D D D D D =.,.-.-.-.$. .$.$.$.-.-.$. .",
" . .:.k.k.k.k.k.k.k.k.p. . .D D D D D D D D D D D D D D D D D D D D D D D D D D D D D D D D D D D D  . .$.#. . .$.;.y.y.-.;.,.-.",
"-.@. .,.k.k.k.k.k.k.p.@. . .D D D D D D D D D D D D D D D D D D D D D D D D D D D D D D D D D D D D  . . . .$.$.-.;.;.;.;.,.;.;.",
",.=.@. .,.p.k.k.k.,. . . .$.D D D D D D D D D D D D D D D D D D D D D D D D D D D D D D D D D D D D  . . . .$.;.-.y.;.y.;.;.;.,.",
",.-.;.$.@. .$.$. . . . .*.-.D D D D D D D D D D D D D D D D D D D D D D D D D D D D D D D D D D D D  . . .$.;.;.;.y.-.;.;.;.;.y.",
",.,.,.;.@. . . . . . .-.-.<.D D D D D D D D D D D D D D D D D D D D D D D D D D D D D D D D D D D D  . .$.u.y.;.;.;.y.;.y.-.;.-.",
"=.;.;.;.-.@. . . . .*.<.-.-.D D D D D D D D D D D D D D C F , , , , F B D D D D D D D D D D D D D D  .=.;.;.;.=.;.;.;.;.-.y.;.y.",
";.,.,.;.;.-.@. . . .-.-.<.-.D D D D D D D D D D D D D D , $ $ $ $ $ $ < D D D C D D D D D D D D D C =.;.;.u.;.u.y.;.y.-.;.;.;.-.",
"-.y.-.y.;.;.;.@. . .*.-.,.,.N N N N N N N N N N N N N 1 $ $ $ $ $ $ $ $ 1 N N N N N N N N N N N N N ;.;.,.;.;.;.-.y.-.y.;.;.;.y.",
";.;.;.;.;.,.;.;. . . .<.-.<.N N N N N N N N N N N N N $ $ $ $ $ $ $ $ $ $ N N N N N N N N N N N N N ,.,.,.;.-.y.;.;.;.;.y.-.;.-.",
";.y.-.;.-.y.;.u.-. . .*.<.-.N N N N N N N N N N N N N , $ $ $ $ $ $ $ $ , N N N N N N N N N N N N N ,.=.;.;.;.;.;.y.-.;.-.y.;.y.",
";.-.y.;.;.;.;.;.-.*. . .-.-.V N N N N N N N N N N N N N N N N N N N N N N N N N N N N N N N N N N V ;.,.;.,.,.;.;.-.y.;.;.;.;.-.",
";.;.;.y.;.y.-.y.-.$.@. . .:.o.N N N N N N N N N N N N N N N N N N N N N N N N N N N N N N N N N N X.;.;.;.;.;.;.;.y.-.;.;.;.;.y.",
"y.-.;.-.;.-.;.;.;.-. . . . .:.$ $ $ $ $ $ $ $ $ $ $ $ $ $ $ $ $ $ $ $ $ $ $ $ $ $ $ $ $ $ $ $ $ $ ;.y.;.y.;.y.,.;.-.y.;.y.-.;.-.",
"-.y.;.y.;.y.;.;.-.-. . . . . .$ $ $ $ $ $ $ $ $ $ $ $ $ $ $ $ $ $ $ $ $ $ $ $ $ $ $ $ $ $ $ $ $ $ ,.;.y.;.;.;.;.;.;.;.;.-.y.;.y.",
";.;.;.-.;.-.y.-.;.$. . .w.f.m.$ $ $ $ $ $ $ $ $ $ $ $ $ $ $ $ $ $ $ $ $ $ $ $ $ $ $ $ $ $ $ $ $ $ f.f.a.y.;.,.;.y.-.y.-.;.;.;.-.",
";.y.-.;.;.y.;.y.-. . .e.B.C.V.$ $ $ $ $ $ $ $ $ $ $ $ $ $ $ $ $ $ $ $ $ $ $ $ $ $ $ $ $ $ $ $ $ $ C.C.B.t.,.;.;.-.y.-.y.;.;.;.y.",
";.-.y.;.;.-.-.-.@. .@.f.V.C.V.$ $ $ $ $ $ $ $ $ $ $ $ $ $ $ $ $ $ $ $ $ $ $ $ $ $ $ $ $ $ $ $ $ $ C.V.V.m.;.;.,.;.;.;.;.y.-.;.-.",
";.;.;.;.;.;.;.$. . . .C.V.V.V.$ $ $ $ $ $ $ $ $ $ $ $ $ $ $ $ $ $ $ $ $ $ $ $ $ $ $ $ $ $ $ $ $ $ V.V.V.C.,.-.y.;.y.-.;.-.y.;.y.",
"y.-.y.-.y.-.$.@. . . .C.V.V.V.2 $ $ $ $ $ $ $ $ $ $ $ $ $ $ $ $ $ $ $ $ $ $ $ $ $ $ $ $ $ $ $ $ : V.V.V.C.;.;.;.;.-.y.;.;.;.;.-.",
"=.y.y.=.-.@. . . . .@.f.V.V.C.g $ $ $ $ $ $ $ $ $ $ $ $ $ $ $ $ $ $ $ $ $ $ $ $ $ $ $ $ $ $ $ $ g V.V.V.g.<.,.<.-.-.<.:.:.:.;.;.",
"-.-.-.y.-. . . . .@.@.e.B.V.V.!.J.C.` h $ $ $ $ $ $ $ $ $ $ $ $ $ $ $ $ $ $ $ $ $ $ $ $ g ` V.J.^.V.V.B.t.-.-.-.:.<.:.:.:.<.:.<.",
"y.-.-.$. . . . . . . .@.e.f.M.Y.'.'.'.'.'.C.n._ h h > $ $ $ $ $ $ $ $ $ $ & h h ) b.V.^.'.'.'.'.!.V.g.0.@.=.<.-.-.-.:.:.<.;.;.;.",
":.-.$. . . . . . . .=.-.,.,.@.v.'.'.'.'.'.'.'.'.'.'.'.'.'.'.'.'.`.'.'.'.'.'.'.'.'.'.'.'.'.'.'.'.j. . . . .@.=.-.:.<.:.<.:.;.:.<.",
"-.$. . . . . . . .$.-.y.,.;.;.l.'.'.'.'.'.'.'.'.'.'.'.'.'.'.'.'.'.'.'.'.'.'.'.'.'.'.'.'.'.'.'.'.j. . . . . . .-.y.;.y.;.;.;.;.;.",
"$. . . . . . . .$.y.-.-.;.;.,.s.'.'.'.'.'.'.'.'.'.'.'.'.'.'.'.'.'.'.'.'.'.'.'.'.'.'.'.'.'.'.'.'.s.y.<.:. . . . .$.;.-.;.;.<.u.;.",
" . . . . . . .$.y.=.:.y.;.,.;.=.R.'.'.'.'.'.'.'.'.'.'.'.'.'.'.'.'.'.'.'.'.'.'.'.'.'.'.'.'.'.'.E.k.k.k.k.<. .*. . .@.$.y.;.=.@.@.",
" . . . . . .@.-.=.y.-.-.;.,.4.2.5.T.'.'.'.'.'.'.'.'.'.'.'.'.'.'.'.'.'.'.'.'.'.'.'.'.'.'.'.'.T.E 2.6.k.k.k.<. . . . . . .@. . .@.",
" . . . . . .$.y.:.:.;.;.;.4.Q Q / x M M M M M M ' 8.8.8.8.8.8.8.8.8.8.8.8.8.8.' M M M M M M ( Q Q Q 6.k.k.k.y.#. . . . . . . . .",
" . . . . .$.-.-.<.:.<.,.;.! Q Q l f f f f f f f l W Q Q Q Q Q Q Q Q Q Q Q Q W l f f f f f / Q Q Q Q ! 7.k.k.k.y. . . . . . . . .",
" . . . . .-.y.-.:.:.:.<.2.Q Q J f f f f f f f f f l K ! Q Q Q Q Q Q Q Q Q K l f f f f s G ^ 8.8.Q Q Q 2.k.k.k.k.y.#. . . . . . .",
" . . . .$.y.-.:.<.:.:.:.! Q 9.A.f f f f f f f f f f f c R W Q Q Q Q W R c f f f f f m K.'.'.'.'._.9.! ! k.k.k.k.k.y. . . . . . .",
" . . . .$.-.u.-.-.<.-.:.Q 9.'.{ f f f f f f f f f f f f f f f f f f f f f f f f f f T.'.'.'.'.'.'.'.9.Q k.k.k.k.k.k.$. . . . . .",
" . . . .$.:.:.-.-.<.-.:.! Q.'.{ f f f f f f f f f f f f f f f f f f f f f f f f f f '.'.'.'.'.'.'.'.Q.! k.k.k.k.k.k.k. . . . . .",
" . . . . .-.u.-.-.-.<.-.G.'.'.{ f f f a y y y y t y f f f f f f f f f f f f y y y y '.'.'.'.'.'.'.'.'.H.k.k.k.k.k.k.k. . . . . .",
" . . . . . .-.-.<.-.-.<.v.'.'.{ f f f u r r r r r r f f f f f f f f f f f f r r r r L.'.'.'.'.'.'.'.'.F.k.k.k.k.k.k.y. . . . . .",
" . . . . . . .=.,.-.,.;.z.'.'.{ f f f a r r r r r t f f f f f f f f f f f f r r r r [ '.'.'.'.'.'.'.'.c.k.k.k.k.k.k.@.@. . . . .",
" . . . . . . . .*.,.;.;.s.'.'.D.f f u 0 + + + + @ e f f f f f f f f f f f f a r r r z /.'.'.'.'.'.'.'.l.k.k.k.k.k.=. . . .@.@.@.",
"=. . . . . . . .@.@.;.;.-.(.'.P.f e                 q f f f f f f f d f f f f a y y u M '.'.'.'.'.'.W.k.k.k.k.k.,. . . .,.k.k.k.",
"k.,. . . . . . . . .@.-.;.l.).'.n .                   w b k k j j j j v x f f f f f f f S.'.'.'.'.).x.k.k.k.k.,. . . .,.k.k.k.k.",
"k.k.,. . . . . . . . . .$.$.d.I.3                     X y.-.-.<.@. . . .O w p f f f f f f ] M.Z.U.x.k.k.k.k.,. . . .,.k.k.k.k.k.",
"k.k.k.,. . . . . . . . . . . . .                        8 -.-.,.,.@. .7                         k.k.k.k.k.=. . . .,.k.k.k.k.k.k.",
"k.k.k.k.-. . . . . . . . . . . .                        9 -.-.,.;.;.$.7                         k.k.k.k.=. . . .;.k.k.k.k.k.k.k.",
"k.k.k.k.u. . . . . . . . . . . .4                     - $.y.,.-.,.,.;.=.*                     5 =.;.=.@.@. . . .<.k.k.k.k.k.k.k.",
"k.k.k.k.u. . . . . . . . . . . . .8 4 = o       X ; 6 ;.;.;.;.;.;.;.;.;.$.6 - =         o 4 8  . . . . . . . . .u.k.k.k.k.k.k.k.",
"k.k.k.k.,. . . . . . . . . . . . . . .$.,.-.y.;.-.y.;.-.y.-.y.-.;.,.y.;.y.$. . . . . . . . . . . . . . . . . . .:.k.k.k.k.k.k.k.",
"k.k.k.,. . . . . . . . . . . . . . .$.-.;.;.;.;.;.;.;.y.-.;.;.y.;.;.;.;.y.;.$. . . . . . . . . . . . . . . . . . .,.k.k.k.k.k.k.",
"k.k.,. . . . . . . . . . . . . . . .-.-.;.,.y.-.-.y.;.-.y.;.;.-.u.;.y.;.-.;.;.$. . . . . . . . . . .$.u.;.;.-.$. . .,.k.k.k.k.k.",
"k.-. . . . . . . . . . . . . . . .-.;.y.y.;.y.;.;.-.;.;.;.y.-.y.;.;.;.;.;.-.;.;. . . . . . . . . .$.-.;.;.;.;.$. . . .,.k.k.k.k.",
"*. . . . . . . . . . . . . . . .$.-.;.;.-.;.-.;.;.y.-.y.;.-.;.;.y.-.y.-.;.y.y.;.-. . . . . . . .$.y.-.u.u.;.<.;.=.@. . .=.k.k.k.",
" . . . . .*.,.u.u.-.$. . . . . .-.y.y.;.;.;.y.-.y.;.;.;.;.y.;.;.-.;.;.y.;.;.-.;.;.$. . . . .$.-.u.;.;.;.;.;.,.;.;.;.@. . .@.@.@.",
" . . . .$.u.k.k.k.k.u. . . . .$.;.;.-.;.-.y.;.;.-.;.-.y.;.-.y.-.y.;.;.-.y.-.y.;.;.$. . . . .%.;.=.;.-.u.<.;.;.;.,.;.=. . . . .@."
};
