/* XPM */
static char *img_s[] = {
/* columns rows colors chars-per-pixel */
"64 64 31 1 ",
"  c #627577",
". c #647779",
"X c #667A7C",
"o c #697D7F",
"O c #6B8082",
"+ c #6C8183",
"@ c #6E8385",
"# c #708688",
"$ c #758C8E",
"% c #768E90",
"& c #778E91",
"* c #778F91",
"= c #788F92",
"- c #799093",
"; c #7A9294",
": c #7C9396",
"> c #7C9497",
", c #7C9597",
"< c #7D9598",
"1 c #7F989A",
"2 c #80999B",
"3 c #80999C",
"4 c #819A9D",
"5 c #829C9F",
"6 c #839C9F",
"7 c #849EA1",
"8 c #859FA2",
"9 c #86A0A3",
"0 c #87A2A4",
"q c #88A3A5",
"w c #89A4A6",
/* pixels */
"$$$,77777774$$$%<<<<<<<<<<<<<<<<<<<<<<<<<;$$$;<<<<<<<<<<<<<:$$$$",
"$%47777777775$$$<<<<<<<<<<<<<<<<<<<<<<<<>$$$=<<<<<<<<<<<<<<<:$$$",
"$4777777777774$$=<<<<<<<<<<<<<<<<<<<<<<<;$$$><<<<<<<<<<<<<<<<=$$",
"47777777777777<$$<<,<<<<<<<<<<<<<<<<<<<<=$$%<<<<<<<<<<<<<<<<<=$$",
"777777779000wwwwwwwwww0www<<<<<<<<<<<<wwwwwwwwwwwwwww774<<<<<:$4",
"7777779wwwwwwwww0wwwwwwwww<<<<<<<<<<<<wwwwwwwwwwww0ww00ww6<<<=;7",
"777779ww1#OO        .   . :<<<<<<<<<>;.         .   ++#3ww7,:$47",
"77779ww#                  <<<<<<<<<>:$                  #ww2$$,7",
"77770w;                   <<<<<<<<<;$$.                  :w4$$=7",
"7777wwo                   <<<<<<<<;$$4       .     .     ow7$$$2",
"77770w    $,777;$$$$$$$=:<<<<<<<<=$$<777777774$%:<<<$#    ww$$$$",
"%777ww    7777;$$$$$$$$$%:<<<<<<=$$:7777777777<$$;<<<<    ww$$$$",
"$;77ww    777;$$$$$$$$$$$$=<<<:$$$%777777777777;$$;<,,    ww<;=$",
"$$,7ww    77$$$$$$$$$$$$$$$$$$$$$$%777777777777<$$$%=$   .ww,<<,",
":%$,ww    4%$%$;<<:$$$$$$$$$$$$$$$$477777777777$$$$$$$    ww<<<<",
"::%%0w    %$$%<<<<,;$$$$$$$$$$$$$$$;7777777777;$$$$$$$    ww<<<<",
"<<<%ww.   $$=<<<<<<<=%$$$$$$$$$$$$$$;77777777>$$$$$$$;.   ww<<<<",
"<<<:ww    $;<<<<<<<<<=$$$$$$$$$$$$$$%;7777773$$$$$$$:<    ww<<<<",
"<<<<ww    %<<<<<<<<<<:$$$$$$$$$====%$$:7777:$$$$$$$=<<    0w<<<<",
"<<<<w0   .><<<<<<<<<<>=$$$$$$:<<:4>=%$$=23=$$$$$$$:<<:    w0<<<<",
"<<<<ww.   ;<<<<<<<<<<<;$$$$=,<<<>;>>:%$$$$$$$$$$$=<<<<    ww<<<<",
"<<<<ww    $:<<<<<<<<<<;$$$;<<<<<>4:4>>$$$$$$$$$$=<<<<<   .ww<<<<",
"<<<<ww    $=<<<<<<<<<:$$$:<<<<<<4>>>3::=$$$$$$=%<<<<<<.   ww<<<<",
"<<<<w0   .$$:<<<<<<<;$$$:<<<<<<<;<;4>>::%$$$$$$=<<<<<<    ww<<<<",
"<<<<ww.   $$$<<<<<<=$$=:<<<<<<<<>>4;>:>>>=%$$$=:>:>:>:    ww4>4;",
"<<<<ww    $$$$:<<:=$$$:<<<<<<<<<:4><>4;4<:$$$$%:>3>3>3    ww;<><",
"<<<<<<<<<;$$$$$=$$$$$<<<<<<<<<<<:;<;3>>><<:%$$%33:>>3:>>;<<<<;4;",
"<<<<<<<<<%$$$$$$$$$$<<<<<<<<<<<<:4:4:>:4<>>=$$$=>>:3>>:3<<<<>4><",
"<<<<<<<<:$$$$$$$$$$=<<<<<<<<<<<<3>3>>:>><<<<%$$=33::>>3>>;<;4>4;",
"<<<<<<<>$$$$$$$$$$%<<<<<<<<<<<<<:>:>>3:3<<<<:$$$=>4>:3:>>4>4;<><",
"<<<<<<<=$$$$$$$$$$=<<<<<<<<<<<<<>>3:3>>><<<<:=$$$:;>>>>;4:<:::4;",
"<<<<<<%$$$$$$$$$$$=<<<<<<<<<<<<<:3>>:>:3<<<<>=$$$%:>:4>4>>;4:4>>",
":2=33%$$$$$$$$$$$$%4::>:>:>:>:>:>>3:>:>>4;<;>=$$$$$=>>4>4;>>4:4;",
"::2:=$$$$$$$$$$$$$$=4:4:>3>3>3>3:3>>>3:3><>42=$$$$$%>>::><;4:::<",
":32&$$$$$$=%=%%$$$$%;>>33:>>3:>>>:>:3>>>4;4>=$$$$$$$%:>:4>4>>;4;",
"::%$$$$$$$=>>>>=$$%==>::>>:3>>:3>3>3:>:3><;<%=$$$$$$$$:3;<;<>4><",
":%$$$$$$$=>3>>3>=%$$$=333>3:>>3>3>3>>:>>4;<=$$%=$$$$$$$=>:>>4>4;",
"=$$$==$$=32=:3:>2:=$$$:>:>>>:3:>:>:>>3:3::=%$$$=444:$$$$=:34:>>:",
"$$$$ww    :3>>>:::3=%$%>>:3:>>>:>>3:3>>>4=$$$$=777774$  . ww>:==",
"$$$$w7    :::3>34:2:=$==>3>>:3>3:3>>:>:3=$$$%=77777774    w7%$$%",
"$$$$7w.   3>3:>>;>>3:=%%=2=2=2>>>:>>>3:=%$$$=887777777    ww%$$$",
"$$$$ww    :>>>:34>>:>>=$%=2:2::3>3:3>:=$$$%=7787777777    ww%$$$",
"$$$$ww    >:3>3>:4;4>:=%$$=3::2::3>>:%$$$==77777777777    ww$$$$",
"$$$$ww    >3:>:>:>>>>3=$$$$%=3::>>>:$$$$$=777777777777    ww$$$$",
"$$$$ww    3>>:>;::::3:=%$$$$$=3>>:%$$$$$%4777777777777.   ww$$$$",
"$$$$ww    :>>4>4:4>3::$$$$$$$$$$$$$$$$$$=7777777777777    ww$$$$",
"$$$$ww    >:4;:>4;>>>%$$$$$$$$$$$$$$$$$$>7777777777777    ww$$$$",
"$$=%ww    >4>>:4>>:3=$$$$$$$$$$$$$$$$$$$=7777777777787    w7$$$$",
"$$$$ww    <<<<<<::>=%%$$$$$$$$$$$$$$$$$$$4777777777777    ww=$$$",
"$$$$ww    <><<<<3>:%$$$$$$$$$$$$$$$$$$$$$$477777777777    ww$%=$",
"=$$$ww    :><<<<3:$$$$$$$$$$=$$$$$$$$$$$$$$77777777777    7w>777",
"7:$$ww    %:<<<<=%$$$$$$$===>==%$$$$$$$$$$$%6777777777    ww7777",
"773$ww    $$=::=$$$$$$$%$>:>4;>>%$$$$$$$$$$$=777777777   .ww7777",
"7773w0.   O$$$$$$$$$$$$%>>:3>>:4>=$$$$$$$$$$$%3777777$   .ww7777",
"77777w@       ..          3>4:4><<=$$$                   @ww7777",
"7777ww:                   ::::;><<>:$$                   >w77777",
"77775ww#                 .<<<<<<<<<<;$.                 #ww77777",
"7777,4ww=X .    ..     . .<<<<<<<<<<<;                X%w0777777",
"7772$$4wwwwwwww0wwww0wwww0<<<<<<<<<<>>w0wwwwwwwwwwwwwwwww7777777",
"77<$$$$;40wwwwwwwww7wwwwww<<<<<<<<<<<<wwwwwwwwwwwwwwwww7:$377777",
"7,$$$$$$$$$$$$$$==41<:><<<2:<<<<<<<<<<<>$$$$$$$$$;<<<<<:$$$<7777",
";$$$$$$$$$$$$$$$%>>>>1>1<:;<<<<<<<<<<<<<;$$$$$$$;><<<<<<:%$$;777",
"$$$$$=:44>=$$$$$:<<:1:>><;4<<<<<<<<<<<<<<%$$$$$:<<<<<<<<<<$$$%=$",
"$$$$=777774$$$$=:1>1><<1<4<;<<<<<<<<<<<<<=$$$$;<<<<<<<<<<<>$$$$$"
};
