/* XPM */
static char *img_p_rl[] = {
/* columns rows colors chars-per-pixel */
"64 64 195 2 ",
"   c gray20",
".  c #3E3433",
"X  c #373839",
"o  c #3B3E3E",
"O  c #493634",
"+  c #543734",
"@  c #603935",
"#  c #694C39",
"$  c #69503E",
"%  c #424747",
"&  c #43494A",
"*  c #484F50",
"=  c #4B5454",
"-  c #4F595A",
";  c #515A5C",
":  c #6A5443",
">  c #6B5C4E",
",  c #725540",
"<  c #7B5E48",
"1  c #5A6C47",
"2  c #6D6054",
"3  c #545F60",
"4  c #586667",
"5  c #5D6A6C",
"6  c #6F6C63",
"7  c #607071",
"8  c #617072",
"9  c #647577",
"0  c #687B7D",
"q  c #6A7C7E",
"w  c #717873",
"e  c #757974",
"r  c #8D3F37",
"t  c #984138",
"y  c #AE4439",
"u  c #C5473A",
"i  c #E74C3C",
"p  c #85674F",
"a  c #8E7157",
"s  c #977A5E",
"d  c #B86C49",
"f  c #AD744C",
"g  c #A17C4F",
"h  c #AB6761",
"j  c #B86B64",
"k  c #B5756F",
"l  c #A47975",
"z  c #CF5C42",
"x  c #C8584D",
"c  c #CC5E53",
"v  c #E85543",
"b  c #EA5E4A",
"n  c #DF6F55",
"m  c #EB6751",
"M  c #ED7159",
"N  c #E1795C",
"B  c #2DAE64",
"V  c #2DAF65",
"C  c #32AC67",
"Z  c #3CAC63",
"A  c #28B162",
"S  c #28B262",
"D  c #29B765",
"F  c #29B966",
"G  c #2ABB67",
"H  c #2ABC68",
"J  c #2BBE69",
"K  c #35B56B",
"L  c #3EB675",
"P  c #4F8451",
"I  c #4B8C55",
"U  c #449C5C",
"Y  c #76875D",
"T  c #7E9459",
"R  c #739C5D",
"E  c #4F9E78",
"W  c #589A7E",
"Q  c #5CAC63",
"!  c #45A372",
"~  c #41A772",
"^  c #4AA878",
"/  c #52A17C",
"(  c #53A37D",
")  c #50A87E",
"_  c #48B47B",
"`  c #45B97B",
"'  c #41BE7A",
"]  c #67A460",
"[  c #2BC16B",
"{  c #2CC36C",
"}  c #2CC66E",
"|  c #2DC86F",
" . c #2DCA70",
".. c #2ECC71",
"X. c #38C575",
"o. c #32C872",
"O. c #33C973",
"+. c #3BCD75",
"@. c #3DC178",
"#. c #48CE79",
"$. c #55CF7D",
"%. c #6DC97D",
"&. c #968453",
"*. c #A18366",
"=. c #AA8C6D",
"-. c #B49675",
";. c #BD9F7C",
":. c #9CA970",
">. c #F08367",
",. c #F18C6F",
"<. c #F49F7D",
"1. c #6D8183",
"2. c #718789",
"3. c #748889",
"4. c #748A8B",
"5. c #708F8C",
"6. c #758C8E",
"7. c #629583",
"8. c #669386",
"9. c #679587",
"0. c #639C87",
"q. c #679889",
"w. c #689C8A",
"e. c #699E8B",
"r. c #70908D",
"t. c #768E90",
"y. c #778E90",
"u. c #778F91",
"i. c #788F92",
"p. c #6F9E91",
"a. c #789092",
"s. c #7A9295",
"d. c #7B9396",
"f. c #7C9396",
"g. c #7C9597",
"h. c #739992",
"j. c #789896",
"k. c #7D9598",
"l. c #7D9698",
"z. c #7F989B",
"x. c #54AF83",
"c. c #5BAD87",
"v. c #56B184",
"b. c #59B589",
"n. c #5FB28C",
"m. c #61A488",
"M. c #67BB8E",
"N. c #6DA190",
"B. c #6DA391",
"V. c #74A798",
"C. c #79A199",
"Z. c #5DC489",
"A. c #62D181",
"S. c #6FD285",
"D. c #78CE9C",
"F. c #8B958F",
"G. c #849092",
"H. c #869793",
"J. c #859A9A",
"K. c #80999C",
"L. c #819A9D",
"P. c #829B9E",
"I. c #95A49D",
"U. c #B9BE87",
"Y. c #BAB69F",
"T. c #849EA1",
"R. c #C6A884",
"E. c #D0B18B",
"W. c #D9BB93",
"Q. c #F6A885",
"!. c #F7B18C",
"~. c #F9BB93",
"^. c #89D48D",
"/. c #96D691",
"(. c #B0D899",
"). c #BDD99D",
"_. c #93D8B0",
"`. c #E2C49A",
"'. c #CBC1A3",
"]. c #DDCCA9",
"[. c #CADBA1",
"{. c #D7DCA5",
"}. c #ECCDA2",
"|. c #EFD7AD",
" X c #E4DDA9",
".X c #F5D6A9",
"XX c #FDD6A9",
"oX c #F6DBAE",
"OX c #FFE0B1",
"+X c #AEE1C4",
"@X c #BBE6CD",
"#X c #CAF2DB",
"$X c #E0E7E7",
"%X c #F0F3F3",
"&X c white",
/* pixels */
"6.6.6.g.T.T.T.T.T.T.T.L.t.6.6.t.k.k.k.k.k.k.k.k.k.k.k.k.k.k.k.k.k.k.k.k.k.k.k.k.g.i.i.6.6.i.k.k.k.k.k.k.k.k.k.k.k.k.k.f.i.6.6.6.",
"6.t.L.T.T.T.T.T.T.T.T.T.L.t.6.6.k.k.k.k.k.k.k.k.k.k.k.k.k.k.k.k.k.k.k.k.k.k.k.k.g.y.6.6.i.g.k.k.k.k.k.k.k.k.k.k.k.k.k.k.i.y.6.6.",
"6.L.T.T.T.T.T.T.T.T.T.T.T.L.6.6.i.k.k.k.k.k.k.k.k.k.k.k.k.k.k.k.k.k.k.k.k.k.k.k.a.i.6.i.g.k.k.k.k.k.k.k.k.k.k.k.k.k.k.k.k.6.6.6.",
"L.T.T.T.T.T.T.T.T.T.T.T.T.T.g.6.6.k.k.k.k.k.k.k.k.k.k.k.k.k.k.k.k.k.k.k.k.k.k.k.6.6.6.a.k.k.k.k.k.k.k.k.k.k.k.k.k.k.k.k.k.i.6.6.",
"T.T.T.T.T.T.T.T.T.T.T.T.T.T.T.a.6.t.k.k.l.l.g.g.k.k.k.k.k.k.k.k.k.k.k.k.k.k.k.a.6.6.6.6.k.k.k.k.k.k.k.k.k.k.k.k.k.k.k.k.k.f.y.K.",
"T.T.T.T.T.T.T.T.T.T.T.T.T.T.T.L.6.6.t.k.l.l.l.g.k.k.k.k.k.k.k.k.k.k.k.k.k.k.f.i.6.6.6.i.k.k.k.k.k.k.k.k.k.k.k.k.k.k.k.k.k.a.s.T.",
"T.T.T.T.T.T.T.T.T.T.T.T.T.T.T.T.s.t.i.i.l.g.g.g.k.k.k.k.k.k.k.k.k.k.s.k.k.k.6.6.t.t.6.6.u.z.k.k.k.k.k.k.k.k.k.k.k.k.g.k.s.6.K.T.",
"T.T.T.T.T.T.T.T.T.T.T.T.T.T.T.T.s.6.6.t.t.k.h.w./ ( ( ( ( ( ( ( ( / W x.E E E E e.e.t.6.6.g.k.k.k.k.k.k.k.k.k.k.k.k.g.s.y.i.g.T.",
"T.T.T.T.T.T.T.T.T.T.T.T.T.T.T.T.k.6.6.W ~ C A A A A A A A A A A S S B A A A A A A A B x.t.u.s.k.k.k.k.k.k.k.k.k.k.k.g.y.6.6.y.T.",
"T.T.T.T.T.T.T.T.T.T.T.T.T.T.T.T.9.! A A S S A A A A A A A A A A S S A A A A A A A A A B ^ a.t.s.k.k.k.k.k.k.k.k.k.k.y.6.6.6.6.K.",
"P.T.T.T.T.T.T.T.T.T.T.T.T.T.C.~ A A A A B B A A A A A A A A A A A A A A A A A A A A A A A h.6.t.s.k.k.k.k.k.k.k.k.i.6.6.6.6.6.y.",
"u.T.T.T.T.T.T.T.T.T.T.T.T.B.B S A A A A S S A A A A A A A A A A A A A A A A A A A A A A A ^ k.6.6.k.k.k.k.k.f.s.6.6.6.6.6.6.6.6.",
"6.s.T.T.T.T.T.T.T.T.T.T.m.S B S A A A A A A A A A A A A A A A A A A A A A A A A A A A K Z.M.T.s.6.6.i.k.g.g.f.y.y.i.s.i.i.f.i.i.",
"6.6.g.T.T.T.T.T.T.T.T.N.S S S S A A A A A A A A A A A A A A A A A A A A A A A A A Z.+X&X&X$XT.g.6.6.6.i.y.y.6.6.i.k.k.k.f.k.g.f.",
"s.t.6.l.T.T.T.T.T.T.z.C A A B A A A A A A A A A A A A A A A A A A A A A A A A A _.&X&X&X&X$XT.t.6.6.6.6.6.6.i.i.f.k.k.k.k.k.g.k.",
"l.g.6.6.g.P.T.T.T.z.W A A A A A A A A A A A A A A A A A A A A A A A A A A A A D.&X&X&X&X&X%Xt.6.6.6.6.6.6.y.i.k.k.k.k.k.k.k.k.k.",
"l.l.s.t.6.i.t.i.6.6.Z A A A A A A A A A A A A A A A A A A A A A A A A A S S Z.&X&X&X&X&X&X&X6.6.6.6.6.6.i.s.g.k.k.k.k.k.k.k.k.k.",
"l.l.k.k.t.6.6.6.6.6.V A A A A A A A A A A A A A A A A A A A A A A A A A B S @X&X&X&X&X&X&X&X6.6.6.6.6.6.a.k.g.k.k.k.k.k.k.k.k.k.",
"l.l.g.k.k.6.6.6.6.8.A A A A A A A A A A A A A A A A S S A A A A A A S S A A #X#X#X#X#X#X#X#X0.0.q.t.6.i.k.k.k.k.k.k.k.k.k.k.k.k.",
"l.l.k.k.k.k.t.6.6.7.A A A A A A A A A A A A A A A A S D D F J [ [ [ .... .| ...................... .` m.k.k.k.k.k.k.k.k.k.k.k.k.",
"k.k.k.k.k.k.s.t.6.7.S A A A S S A A A A A D H H {  .....................................................X.c.g.k.k.k.k.k.k.k.k.k.",
"k.k.k.k.k.k.k.f.6.6.B A A A A S D H {  . ...................................................................g.g.k.k.k.k.k.k.k.k.",
"k.k.k.k.k.k.k.k.k.6.C S F H } ..............................................................o. ...........@.k.z.k.k.k.k.k.k.k.k.",
"k.k.k.k.k.k.k.k.k.6.L  .....................................................................o.' ' ' ' v.v.j.k.k.k.k.k.k.k.k.k.k.",
"k.k.k.k.k.k.k.k.k.i._ o...........o.o. .....................$.A.A.A.^./././.(.[.[.[.{.OXOXt.y.g.k.k.k.k.k.k.k.k.k.k.k.k.k.k.k.k.",
"k.k.k.k.k.k.k.k.k.s.6.U Z Z Z Z Z Z I I I P 1 1 1 Y OXOXOXOXOXOXOXOXOXOXOXOXOXOXOXOXOXOXOX6.i.g.k.k.k.k.k.k.k.k.k.k.k.k.k.k.k.k.",
"k.k.k.k.k.k.k.k.g.g.6.# # # # # # # # # # # # # # =.OXOXOXOXOXOXOXOXOXOXOXOXOXOXOXOXOXOXOX6.t.g.k.k.k.k.k.k.k.k.k.k.k.k.k.k.k.k.",
"k.k.k.k.k.k.k.k.g.u.6.# # # # # # # # # # # # # # }.OXOXOXOXOXOX`., # R.OXOXOXOXOXOXOXOXOX6.6.s.k.k.k.k.k.k.k.k.k.k.k.k.k.k.k.k.",
"k.k.k.k.k.k.k.k.s.6.6.# # # # # # # p W.OXOXOXW.-.OXOXOXOXOXOXOXa # # < OXOXOXOXOXOXOXOXOX6.6.y.k.k.k.k.k.k.k.k.k.k.k.k.k.k.k.k.",
"k.k.k.k.k.k.k.f.6.6.6.# # # # # # : }.OXOXOXOXOXOXOXOXOXOXOXOXOX# # # # OXOXOXOXOXOXOXOXOX6.6.6.i.k.k.k.k.k.k.k.k.k.k.k.k.k.k.k.",
"k.k.k.k.k.k.k.i.6.6.6.: # # # # # W.OXOXOXOXOXOXOXOXOXOXOXOXOXOX# # # # OXOXOXOXOXOXOXOXOX6.6.6.y.f.k.k.k.k.k.k.k.k.k.k.k.k.k.k.",
"k.k.k.k.k.k.i.6.6.6.6.> # # # # # OXOXOXOXOXOXOXOXOXOXOXOXOXOXOXs # # p OXOXOXOXOXOXOXOXOX].'.H.6.6.k.k.k.k.k.k.k.k.k.k.k.k.k.k.",
"k.k.k.k.k.a.6.6.6.6.6.> # # # # # OXOXOXOXOXOXOXOXOXOXOXOXOXOXOX.X< # W.OXOXOXOXOXOXOXOXOXOXOX'.6.6.6.l.l.l.l.k.k.k.k.k.k.k.k.k.",
"k.k.k.g.i.6.6.6.6.6.6.6 # # # # # R.OXOXOXOXOXOXOXOXOXOXOXOXOXOXOXOXOXOXOX}.;.s a a $ &.`.OXOXOX6.6.6.6.l.l.g.g.k.k.k.k.k.k.k.k.",
"k.k.g.i.i.6.6.6.6.6.6.6 # # # # # , }.OXOXOXOXOXOXOXOXOXOXOXOXOXOXOXOXOXE.# # # # # # # < OXoXY.6.6.6.6.t.s.l.l.k.k.k.k.k.k.k.k.",
"k.k.i.6.6.6.6.6.6.6.s.e # # # , *.W.OXOXOXOXOXOXOXOXOXOXOXOXOXOXOXOXOXW.# # # # # # # # # w t.t.6.6.6.6.6.6.s.l.k.k.k.k.k.k.k.k.",
"f.y.6.6.6.6.6.6.6.a.k.F.-.-.W.OXOXOXOXOXOXOXOXOXOXOXOXOXOXOXOXOXOXOXOX< # # # # # # # # # 6 t.u.6.6.6.6.6.6.6.s.k.k.k.k.k.k.k.k.",
"i.6.6.6.6.6.6.6.i.k.k.I.OXOXOXOXOXOXOXOXOXOXOXOXOXOXOXOXOXOXOXOXOXOXOX, # # # # # # # # # 6 6.u.z.z.z.l.t.6.6.6.i.k.k.k.k.k.k.s.",
"6.6.6.6.6.6.6.a.k.k.k.k.].OXOXOXOXOXOXOXOXOXOXOXOXOXOXOXOXOXOXOXOXOXOX}.-.a # # # # # $ 2 2.g.T.T.T.T.T.z.u.6.6.t.t.s.k.k.k.i.t.",
"6.6.6.6.6.6.t.k.k.k.k.k.J.|.OXOXOXOXOXOXOXOXOXOXOXOXOXOXOXOXOXOXOXOXOXOXOXOXOXOXOXOX XZ.6.u.T.T.T.T.T.T.T.z.t.6.6.6.6.6.6.6.6.6.",
"6.6.6.6.6.i.i.g.k.k.k.k.k.j M M M M M M M %.A.A.A.A.A.A.A.%.N M :.A.A.A.A.A.A.A.A.A.+...v.T.T.T.T.T.T.T.T.T.L.t.6.6.6.6.6.6.6.6.",
"6.6.6.6.6.6.k.g.k.k.k.k.G.v i i i i i i g ........A././.S.A.R i v ]  . .................o.T.T.T.T.T.T.T.T.T.T.L.6.6.6.6.6.6.6.6.",
"6.6.6.6.i.k.k.k.k.k.k.k.l i i i i i i i Q ....+.(.OXOXOXOXOX Xn i i &. ...................V.T.T.T.T.T.T.T.T.T.T.L.t.6.6.6.6.6.6.",
"6.6.6.6.y.k.k.k.k.k.k.k.j i i i i i i i Q ....).OXOXOXOXOXOXOX~.i i i z R .... ...........n.T.T.T.T.T.T.T.T.T.T.T.L.6.6.6.6.6.6.",
"6.6.6.6.i.g.k.k.k.k.k.k.x i i i i i i i R ..#.OXOXOXOXOXOXOXOXOXi i i i i i f T Q ........b.T.T.T.T.T.T.T.T.T.T.T.T.i.6.6.6.6.6.",
"6.6.6.6.i.g.k.k.k.k.k.k.c i i i i i i i d ..^.OXOXOXOXOXOXOXOXOXi i i i i i i i i i i i i k T.T.T.T.T.T.T.T.T.T.T.T.L.6.6.6.6.6.",
"6.6.6.6.i.i.k.k.k.k.g.g.c i i i i i i i i Q /.OXOXOXOXOXOXOXOX!.i i i i i i i i i i i i i k C.T.T.T.T.T.T.T.T.T.T.T.T.6.6.6.6.6.",
"6.6.6.6.y.6.k.k.k.k.k.g.x i i i i i i i i v U.OXOXOXOXOXOXOXOXM i i i i i i i i i i i i i h g.T.T.T.T.T.T.T.T.T.T.T.K.6.6.6.6.6.",
"6.6.6.6.6.6.6.s.g.g.5 X y i i i i i i i i i ,.OXOXOXOXOXOXOX!.i i i i i i i i i i i i i i t   ; L.T.T.T.T.T.T.T.T.T.a.6.6.6.6.6.",
"6.6.6.6.6.6.6.6.f.8     r i i i i i i i i i v XXOXOXOXOXOXOXb i i i i i i i i i i i i i i @     ; T.T.T.T.T.T.T.T.f.6.6.6.t.t.t.",
"i.6.6.6.6.6.6.6.6.*     + i i i i i i i i i i M XXOXOXOXXX>.i i i i i i i i i i i i i i i O       T.T.T.T.T.T.T.k.6.6.6.k.T.T.T.",
"T.f.6.6.6.6.6.6.6.*       u i i i i i i i i i i m Q.~.<.b i i i i i i i i i i i i i i i t       % T.T.T.T.T.T.k.6.6.6.k.T.T.T.T.",
"T.T.K.y.6.6.6.6.6.9 X     O u i i i i i i i i i i i i i i i i i i i i i i i i i i i i t .       q T.T.T.T.T.k.t.6.6.k.T.T.T.T.T.",
"T.T.T.k.6.6.6.6.6.6.7                   % 6.6.i.g.g.k.k.k.k.k.k.g.t.6.6.6.-                   ; T.T.T.T.T.s.6.6.6.L.T.T.T.T.T.T.",
"T.T.T.T.f.6.6.6.6.6.6.q o               & 6.t.k.k.k.k.k.k.k.k.k.k.k.t.t.6.4                 4 L.T.T.T.T.s.6.6.6.k.T.T.T.T.T.T.T.",
"T.T.T.T.K.y.6.6.6.6.6.6.2.-             ; t.k.k.k.k.k.k.k.k.k.k.k.k.k.u.t.7             o q 6.6.i.k.s.t.6.6.6.6.L.T.T.T.T.T.T.T.",
"T.T.T.T.L.6.6.6.6.6.6.6.6.6.1.= o     * 3.k.k.k.k.k.k.k.k.k.k.k.k.k.k.k.s.t.3       = 9 6.6.6.6.6.6.6.6.6.6.6.6.z.T.T.T.T.T.T.T.",
"T.T.T.T.g.6.6.6.6.6.6.6.6.6.6.6.6.6.6.i.k.k.k.k.k.k.k.k.k.k.k.k.k.k.k.k.l.s.6.6.6.6.6.6.6.6.6.6.6.6.6.6.6.6.6.6.g.T.T.T.T.T.T.T.",
"T.T.T.k.6.6.6.6.6.6.6.6.6.6.6.6.6.6.i.k.k.k.k.k.k.k.k.k.k.k.k.k.k.k.k.k.k.k.i.6.6.6.6.6.6.6.6.6.6.6.6.6.6.6.6.6.6.k.T.T.T.T.T.T.",
"T.T.k.6.6.6.6.6.6.6.6.6.6.6.6.6.6.6.g.k.k.k.k.k.k.k.k.k.k.k.k.k.k.k.k.k.k.k.k.t.6.6.6.6.6.6.6.6.6.6.a.k.k.k.s.6.6.6.z.P.T.T.T.T.",
"T.g.6.6.6.6.6.6.6.6.6.6.6.6.6.6.6.i.k.k.k.k.k.k.k.k.k.k.k.k.k.k.k.k.k.k.k.k.k.f.6.6.6.6.6.6.6.6.6.i.k.k.k.k.k.g.6.6.6.z.T.T.T.T.",
"s.6.6.6.6.6.6.6.6.6.6.6.6.6.6.6.i.k.k.k.k.k.k.k.k.k.k.k.k.k.k.k.k.k.k.k.k.k.k.k.s.6.6.6.6.6.6.6.f.k.k.k.k.k.k.k.g.6.6.6.g.T.T.T.",
"6.6.6.6.t.t.k.k.L.g.t.6.6.6.6.6.f.k.k.k.k.k.k.k.k.k.k.k.k.k.k.k.k.k.k.k.k.k.k.k.k.i.6.6.6.6.6.f.k.k.k.k.k.k.k.k.g.g.6.6.6.u.u.6.",
"6.6.6.6.s.T.T.T.T.T.L.6.6.6.6.6.k.k.k.k.k.k.k.k.k.k.k.k.k.k.k.k.k.k.k.k.k.k.k.k.k.i.6.6.6.6.g.k.k.k.k.k.k.k.k.k.g.g.g.6.6.6.6.6."
};
