/* XPM */
static char *img_pe_ls[] = {
/* columns rows colors chars-per-pixel */
"64 64 182 2 ",
"   c #001A14",
".  c #001B15",
"X  c #001E17",
"o  c #001F18",
"O  c #002119",
"+  c #022319",
"@  c #00221A",
"#  c #00241B",
"$  c #00251B",
"%  c #06241B",
"&  c #00251C",
"*  c #00271D",
"=  c #0F211D",
"-  c #002A1F",
";  c #002C1F",
":  c #052D1E",
">  c #002C20",
",  c #002E21",
"<  c #0C2C23",
"1  c #132823",
"2  c #1F2927",
"3  c #003022",
"4  c #053423",
"5  c #073622",
"6  c #003424",
"7  c #003525",
"8  c #023424",
"9  c #003625",
"0  c #003726",
"q  c #0E3525",
"w  c #003826",
"e  c #0F3628",
"r  c #003B28",
"t  c #003E29",
"y  c #003F29",
"u  c #0F3F2D",
"i  c #1C3727",
"p  c #262D2B",
"a  c #392D23",
"s  c #203426",
"d  c #2C302F",
"f  c #34392A",
"g  c #343B2C",
"h  c gray20",
"j  c #3E3433",
"k  c #413E2E",
"l  c #483B2B",
"z  c #73372B",
"x  c #603935",
"c  c #6B3A35",
"v  c #004029",
"b  c #00422A",
"n  c #07432B",
"m  c #00442C",
"M  c #0A462C",
"N  c #0C492C",
"B  c #0B4D30",
"V  c #0F5734",
"C  c #0F5C37",
"Z  c #2D4534",
"A  c #2F4C3A",
"S  c #11613A",
"D  c #14653B",
"F  c #4E4231",
"G  c #554333",
"H  c #624A37",
"J  c #694C39",
"K  c #146C40",
"L  c #146D41",
"P  c #167545",
"I  c #177745",
"U  c #197845",
"Y  c #177B48",
"T  c #4C4842",
"R  c #725540",
"E  c #7B5E48",
"W  c #5A6C47",
"Q  c #5F6E55",
"!  c #6F7A5F",
"~  c #7F7362",
"^  c #813C2F",
"/  c #813D36",
"(  c #914C3A",
")  c #AD4636",
"_  c #BB4737",
"`  c #BA4539",
"'  c #C5473A",
"]  c #D0483A",
"[  c #E74C3C",
"{  c #85674F",
"}  c #8E7157",
"|  c #977A5E",
" . c #AD744C",
".. c #A17C4F",
"X. c #8A7562",
"o. c #CF5C42",
"O. c #EB6751",
"+. c #ED7159",
"@. c #1B844B",
"#. c #1C8C50",
"$. c #219C58",
"%. c #239D58",
"&. c #22A25B",
"*. c #25A75C",
"=. c #25A75D",
"-. c #25AD61",
";. c #3CAC63",
":. c #28B162",
">. c #28B262",
",. c #28B665",
"<. c #29B966",
"1. c #2ABB67",
"2. c #2BBE69",
"3. c #35B56B",
"4. c #4F8451",
"5. c #4B8C55",
"6. c #76875D",
"7. c #7E9459",
"8. c #739C5D",
"9. c #40A45F",
"0. c #469E6E",
"q. c #7F8568",
"w. c #5CAC63",
"e. c #69AD67",
"r. c #2BC06A",
"t. c #2BC16B",
"y. c #2CC36C",
"u. c #2CC56D",
"i. c #2CC66E",
"p. c #2DC86F",
"a. c #39C46D",
"s. c #2DCA70",
"d. c #2ECC71",
"f. c #3BCD75",
"g. c #48CE79",
"h. c #52C577",
"j. c #55CF7D",
"k. c #6DC97D",
"l. c #968453",
"z. c #998972",
"x. c #A18366",
"c. c #AA8C6D",
"v. c #B39969",
"b. c #B49675",
"n. c #BD9F7C",
"m. c #8FA76C",
"M. c #9CA970",
"N. c #E59472",
"B. c #5DC489",
"V. c #62D181",
"C. c #6FD285",
"Z. c #78CE9C",
"A. c #AFA682",
"S. c #BFB38C",
"D. c #C6A884",
"F. c #D1B787",
"G. c #D0B18B",
"H. c #D9BB93",
"J. c #F6A885",
"K. c #F9BB93",
"L. c #89D48D",
"P. c #96D691",
"I. c #B0D899",
"U. c #BDD99D",
"Y. c #93D8B0",
"T. c #DFC99E",
"R. c #DFCB9F",
"E. c #E2C49A",
"W. c #CADBA1",
"Q. c #D7DCA5",
"!. c #E5CAA1",
"~. c #ECCDA2",
"^. c #E4DDA9",
"/. c #F5D6A9",
"(. c #FDD6A9",
"). c #FFE0B1",
"_. c #BFC8C6",
"`. c #AEE1C4",
"'. c #BBE6CD",
"]. c #CAF2DB",
"[. c #DFE3E2",
"{. c white",
/* pixels */
"- - - 3 3 w 6 6 3 w 6 3 > - - - $ O O O O $ & O O O O & o o > o O O # # o # # o O & > > > # # O # O # o # o # # o # # # > > > > ",
"- - 3 6 6 w 3 w 3 6 w 3 6 > - - O O O $ $ O O o O & O o o > o o O # o # # o o # O & > & & o O # O # # # o # # o o # o # o > > > ",
"; 3 6 6 6 3 w 3 w w 6 6 6 3 - - $ O + O O $ O $ O O & O o o O O # O # O # # # # o > > & O O - O # o o # o # # O # # o # o > > > ",
"3 6 6 6 w 3 6 6 6 3 3 w 6 6 ; - - O O $ O O $ O & & O O o > O & O # O # o o # o > > > & O O O O o # # o # o # & o # # o o o > # ",
"6 6 6 6 6 6 3 6 w v v v m m m m m m m m m m m m m m & o O O o O o # # o # # m m m m m m m m m m m m m m r 6 6 , & & # o o o > > ",
"6 6 6 6 6 6 t m m m m m m m m m m m m m m m m v m m & O O & & o > o # # o # m m m t m m m m m m m m m m m m m m m > # & o > > 4 ",
"6 6 6 6 6 t m m w $ O O                             o O O o o o o o   o . # . .                         & o & 0 m m 6 o O > 6 6 ",
"6 6 6 6 w m m $                             t u D D L D K K K K L L L L L L S L u :                             > m t > > > , 4 ",
"6 6 6 6 v m 3                           D *.:.:.:.:.:.:.:.:.:.:.-.:.:.:.:.:.:.:.:.:.%.U M o         . .           > m 6 > > > > ",
"6 6 6 6 v m X                   X     U :.:.:.:.:.:.:.:.:.:.:.:.:.:.:.:.:.:.:.:.:.:.:.:.:.:.U e                     m t > > > 8 ",
"3 w 6 6 m m         $ > 6 6 6 ; - - n :.:.:.:.:.:.:.:.:.:.:.:.:.:.:.:.:.:.:.:.:.:.:.:.:.:.:.:.:.@.4 # o o .     o   m m # > > > ",
"; 6 6 6 m m         6 6 6 6 > - - - P :.:.:.:.:.:.:.:.:.:.:.:.:.:.:.:.:.:.:.:.:.:.:.:.:.:.:.:.:.-.-.M o # &         m m > > > > ",
"- ; 6 6 m m         6 6 6 ; - - - - 0.B.3.:.:.:.:.:.:.:.:.:.:.:.:.:.:.:.:.:.:.:.:.:.:.:.:.:.:.:.:.:.:.V o o         m m o # > > ",
"- - > 6 m m         6 6 > - - - - > _.{.{.`.B.:.:.:.:.:.:.:.:.:.:.:.:.:.:.:.:.:.:.:.:.:.:.:.:.:.:.:.:.:.M > . .     m m o o o o ",
"O - > 3 m m         3 ; - - - O O & _.{.{.{.{.Y.:.:.:.:.:.:.:.:.:.:.:.:.:.:.:.:.:.:.:.:.:.:.:.:.:.:.:.:.%.>         m m # o o # ",
"O O - - m m         - - - - O O O O [.{.{.{.{.{.Z.:.:.:.:.:.:.:.:.:.:.:.:.:.:.:.:.:.:.:.:.:.:.:.:.:.:.:.:.C         m m # # o # ",
"O O O - m m         > > # o # # o # {.{.{.{.{.{.{.B.:.:.:.:.:.:.:.:.:.:.:.:.:.:.:.:.:.:.:.:.:.:.:.:.:.:.:.@.        m m o O O O ",
"O $ O O m m   X     > o # o o # # o {.{.{.{.{.{.{.'.:.:.:.:.:.:.:.:.:.:.:.:.:.:.:.:.:.:.:.:.:.:.:.:.:.:.:.:.        m m o & O & ",
"O O O $ m m     . . > o o o # u B B ].].].].].].].].:.:.:.:.:.:.:.:.:.:.:.:.:.:.:.:.:.:.:.:.:.:.:.:.:.:.:.:.4       n m O # O O ",
"O $ $ O m t     . . o o S $.d.d.d.d.d.d.s.s.s.s.d.d.d.d.d.d.u.u.t.2.<.<.,.:.:.:.:.:.:.:.:.:.:.:.:.:.:.:.:.-.M       m m # O O & ",
"o $ O & m m X   . . L ,.d.d.d.d.d.d.d.d.d.d.d.d.d.d.d.d.d.d.d.d.d.d.d.d.d.d.s.p.2.<.<.:.:.:.:.:.:.:.:.:.:.:.u       m m O # O # ",
"O O & O m m     . . p.d.d.d.d.d.d.d.d.d.d.d.d.d.d.d.d.d.d.d.d.d.d.d.d.d.d.d.d.d.s.d.d.d.p.u.<.<.:.:.:.:.:.:.        m m # O # O ",
"& O O O m m     . . -.d.d.d.s.d.d.d.d.d.d.d.d.d.d.d.d.d.d.d.s.s.d.d.d.d.d.d.d.d.d.d.d.d.d.d.d.d.s.p.2.<.:.%.        m m # o o # ",
"O O & O m v     . . 8 Y P &.&.&.&.t.d.d.d.d.d.d.d.d.d.d.d.d.s.s.d.d.d.d.d.d.d.d.d.d.d.d.d.d.d.d.s.d.s.d.s.%..       m m # # o # ",
"& & o O m m   . .   > > > o o o O # O ).).Q.W.W.W.I.P.P.P.L.V.V.V.V.s.d.d.d.d.d.d.d.d.d.d.d.d.d.d.d.p.p.p.#.. .     m m # # o # ",
"O O O & m m         > > > o # # & O > ).).).).).).).).).).).).).).).).).).).6.W W W 4.5.5.5.9.;.;.;.;.;.0.> . .     m m # o o # ",
"o & O O O # O # o > > > > > > o & - > ).).).).).).).).).).).).).).).).).).).c.H J J J J J J J J J J J J J o # o o # # o o # # o ",
"O O O & # O # O o o > o # > > > > - - ).).).).).).).).).D.J R E.).).).).).).~.J J J J J J J J J J J J J J # o # # o o # # o # # ",
"& O > o o o O # o > # > > > > > & > > ).).).).).).).).).E J J } ).).).).).).).b.H.).).).H.{ J J J J J J J # o # # O # O # o > o ",
"O O O O o > O o > > > > o > # > - > - ).).).).).).).).).J J J J ).).).).).).).).).).).).)./.J J J J J J J # # o o # O # o # o o ",
"& & o O o o o o > > > > > > # > > > O ).).).).).).).).).J J J J ).).).).).).).).).).).).).).H.J J J J J J o # # # # # O o o > o ",
"O O O & o > > > > > # > > > > > e Q A.).).).).).).).).).{ J J | ).).).).).).).).).).).).).).).J J J J J J # o o # o O O o > o o ",
"# # o o o o > > > # > > > # > > ! ).).).).).).).).).).).H.J E /.).).).).).).).).).).).).).).(.J J J J J G O # O # O # o # # o # ",
"o o # o # > > o > > > > > > > > R.).).E.| R } } | n.~.).).).).).).).).).).).).).).).).).).).D.J J J J J F O O # O # # o o # # o ",
"# o o > > > > > > > > # o > > > q.S.).E J J J J J J J G.).).).).).).).).).).).).).).).).).~.J J J J J J k O O & # o # # o # # o ",
"# # # > > > > > > o > o o o o > > > s J J J J J J J J J H.).).).).).).).).).).).).).).).).).R.x.R J J J f > & O O # # o # # o # ",
"o # > > > > > # > o # # o # o o o > f J J J J J J J J J E ).).).).).).).).).).).).).).).).).).).).H.b.b.Z > & o O # O # o o # o ",
"> > > > > > > > # o # o # # # # o & f J J J J J J J J J R ).).).).).).).).).).).).).).).).).).).).).).).A > > > > O # o # # # # ",
"> > > o m m . . . . o # # o o # # o % l H J J J J J } b.~.).).).).).).).).).).).).).).).).).).).).).).G.8 >         m m o   > > ",
"> > > > m r . . . . o # o # # O o # # > h.^.).).).).).).).).).).).).).).).).).).).).).).).).).(.).).R.M 6 8         m t > > > > ",
"> > > > 0 m . .     O o o o O # # # # P s.f.V.V.V.V.V.V.V.V.V.M.+.+.+.+.v.V.V.V.V.V.V.V.C.+.+.+.+.+.( 4 8 8         m m > > > > ",
"o > > > r m . .     o > o > # O # o & t.s.s.d.d.d.d.d.d.d.d.8.o.[ [ [ [ a.d.d.d.d.d.d.d.d...[ [ [ [ [ e 8 ,         m m > > # > ",
"> > > > m m . .     o > o o o # o o u d.d.d.d.d.d.d.u.t.d.l.[ [ [ [ [  .d.d.f.V.V.V.f.d.d.8.[ [ [ [ [ G 8 8         t m > > > > ",
"> > > o m r . .     o o o > o O > o K s.d.d.d.d.d.d.d.8.o.[ [ [ [ [ [ 7.g.U.).).).).).C.d.w.[ [ [ [ [ z 8 8   .     m m > O > > ",
"> > > > m m . .     o # o # # o # # U d.d.d.d.w.6. .[ [ [ [ [ [ [ [ [ e.^.).).).).).).).P.w.[ [ [ [ [ ) 8 8   . .   m m > > > > ",
"> > # > m m . .     & o # # o # o & z [ [ [ [ [ [ [ [ [ [ [ [ [ [ [ [ F.).).).).).).).).).m.[ [ [ [ [ ) 8 8 . . .   m m # > > o ",
"o > > > m m . .     # o o # o # # o z [ [ [ [ [ [ [ [ [ [ [ [ [ [ [ [ K.).).).).).).).).).N.[ [ [ [ [ ) 8 8     . . m m > > > > ",
"> > > > m r . .     # # o # # o # # z [ [ [ [ [ [ [ [ [ [ [ [ [ [ [ [ J.).).).).).).).).).J.[ [ [ [ [ ) 8 ,       . t r > > # > ",
"> > > > m m .       o o > o # o O O z [ [ [ [ [ [ [ [ [ [ [ [ [ [ [ [ O.).).).).).).).).).K.[ [ [ [ [ ) 8 8         m m > - - - ",
"# > > # m m . .     o > o o # # $ O a [ [ [ [ [ [ [ [ [ [ [ [ [ ] / x x X.).).).).).).).).J.[ [ [ [ [ c 8 8         m m > - - - ",
"> > > > m m         o o # o o # O O p [ [ [ [ [ [ [ [ [ [ [ [ ` h h h h h ~ ).).).).).).).O.[ [ [ [ [ l 8 8         m m 3 6 6 6 ",
", > o > m t         > o o # # o O & & z [ [ [ [ [ [ [ [ [ [ o.k h h h h h h T z.!.).).(.+.[ [ [ [ [ ' e 8 8         m m 6 6 6 6 ",
"0 7 , > t m . . . . o > > o o > > > # 1 / [ [ [ [ [ [ [ [ [ c h h h h h h h h h h j [ [ [ [ [ [ [ ` i 8 8 8         m m 6 6 6 6 ",
"8 7 8 , m m . .   . o > > > > > > O > > - > > > O O O & O & h h h h h h h h h h h h < > > > > 6 8 8 8 8 8 &       X m m 6 6 6 6 ",
"8 8 8 8 t m > .             . .                 X   O O # O d h h h h h h h h h h h O                             O m v 6 6 6 6 ",
"8 8 8 8 r m , o               .                     O O O # 1 h h h h h h h h h h d                               6 v t 6 6 6 6 ",
"8 8 8 8 8 m m #                 . . .       . . . . # # o > o < 2 p d h h h d p =                     X       X $ m m 6 3 6 6 6 ",
"8 8 8 8 , 8 m m > . . .         . . . .     . . . . o o o o o # # O # o # #                               X   > m m t 6 w 6 6 6 ",
"8 8 , , > > 8 m m m m m m m m m m m m m r m m m t m o # o > # o # o # # # o m m m m m m m m m m t m m m v m m m m t 3 6 6 6 6 6 ",
"8 8 > > > > > > 0 m m m m m m m m m m t m m m m m m # o o o o # o # # o # o m m m m m v m m m m m m m m m m v t > > 3 6 6 6 6 6 ",
"8 , > > > > > > o > > # > > > > > o o > o o o o > o > o # # o # O O o > o # # o > > > > > - > > > - O O $ O O O - - > > 6 6 6 6 ",
", > > > > > > # > > > > > > > # > o o o o > o > o o o o o # # o # o o o # o o # o > > O - - > & O O O O O O O & O - - - ; 6 6 6 ",
"> > > > > > , , > > > > > > > > > o @ @ > o # o o # # o # o O # O # o o o > # # $ > - - - ; > O O O O & & O $ O O O - - - - > ; ",
"> > # > > 8 0 8 8 8 > > > > > o @ @ @ @ o o o # # o # # # o # O # O > o o o # o X O > > > & & O & O & O O O O O O $ O - - - - - "
};
