/* XPM */
static char *img_wdr[] = {
/* columns rows colors chars-per-pixel */
"64 64 49 1 ",
"  c #313D3F",
". c #374546",
"X c #3B4A4C",
"o c #3D4D4E",
"O c #405153",
"+ c #415354",
"@ c #45595A",
"# c #475C5D",
"$ c #4C6365",
"% c #586966",
"& c #5C6A66",
"* c #646C63",
"= c #6C6F62",
"- c #677068",
"; c #64726C",
": c #6C756A",
"> c #757564",
", c #727568",
"< c #797F76",
"1 c #916132",
"2 c #926232",
"3 c #9B6836",
"4 c #9C6935",
"5 c #AA733C",
"6 c #AD753D",
"7 c #B2783E",
"8 c #B77B40",
"9 c #B87C40",
"0 c #BB7F41",
"q c #7B857C",
"w c #BD8042",
"e c #B88146",
"r c #B98147",
"t c #B6844D",
"y c #AC8557",
"u c #A8865C",
"i c #AE8859",
"p c #94876C",
"a c #94886D",
"s c #A88B66",
"d c #A08F72",
"f c #788681",
"g c #758C8E",
"h c #798C8A",
"j c #768E90",
"k c #789092",
"l c #7A9295",
"z c #8B9B95",
"x c #849EA1",
/* pixels */
"ggghpuyewwwwwwww000www000www9eewwwwwwwww0wwwwwwww+O$$$$$$$*:fjjg",
"gkaewwwwwwwwwwww09wwww09wwwwt8wwwwwwwwww00wwww00w+O$$$$$$$$$$>gg",
"xdww876555555555555585558888555555555555555565556  XXXXXXXO#$$-l",
"zww7555555555555555555553383555555555555555555555  XXXXXXXXXO$$j",
"sw85555555555555555555558383883855555555555555555  XXXXXXXXXX@$;",
"iw65555555555555555555553838838355555555555555555  XXXXXXXXXXX$$",
"tw65553211111122111111111111111111111122111111111  XXXXXXXXXXX$$",
"ww55552211111222111111111111111111111112111111111  XXXXXXXXXXX$$",
"0055551111111111111111111111111111111111111111111  XXXXXXXXXXX$$",
"0055551111111111111111111111111111111111111111111  XXXXXXXXXXX$$",
"0w55551111111111111111111111111111111111111111111  XXXXXXXXXXX$$",
"ww55551111111111111111111111111111111111111111111  XXXXXXXXXXX$$",
"ww65551111111111111111111111111111111111111111111  XXXXXXXXXXX$$",
"ww55551111111111111111111111111111111111111111111  XXXXXXXXXXX$$",
"w055551111111111111111111111111111111111111111111  XXXXXXXXXXX$$",
"w055551111111111111111111111111111111111111111111  ...........O+",
"ww55551111111111111111111111111111111111111111111  ...........OO",
"ww55551111111111111111111111111111111111111111111  XXXXXXXXXXX$$",
"ww65551111111111111111111111111111111111111111111  XXXXXXXXXXX$$",
"ww55551111111111111111111111111111111111111111111  XXXXXXXXXXX$$",
"w055551111111111111111111111111111111111111111111  XXXXXXXXXXX$$",
"w055551111111111111111111111111111111111111111111  XXXXXXXXXXX$$",
"ww55551111111111111111111111111111111111111111111  XXXXXXXXXXX$$",
"ww55551111111111111111111111111111111111111111111  XXXXXXXXXXX$$",
"ww66551111111111111111111111111111111111111111111  XXXXXXXXXXX$$",
"ww55551111111111111111111111111111111111111111111  XXXXXXXXXXX$$",
"0055551111111111111111111111111111111111111111111  XXXXXXXXXXX$$",
"w055551111111111111111111111111111111111111111111  XXXXXXXXXXX$$",
"ww55551111111111111111111111111111111111111111111  XXXXXXXXXXX$$",
"ww55551111111111111111111111111111111111111111111  XXXXXXXXXXX$$",
"ww85551111111111111111111111111111111111111111111  XXXXXXXXXXX$$",
"ww55551111111111111111111111111111111111111111111  XXXXXXXXXXX$$",
"0055551111111111111111111111112211111111111111111  XXXXXXXXXXX$$",
"0955551111111111111111111111111211111111111111111  XXXXXXXXXXX$$",
"0055555555555555555555555555555565555555555555555  XXXXXXXXXXX$$",
"ww55555555555555555555555555555555555555555555555  XXXXXXXXXXX$$",
"ww96555555555555555565555555555555565555555555555  XXXXXXXXXXX$$",
"ww88695555556955555566555555665555565555565555565  XXXXXXXXXXX$$",
"0990wwww0090ww00ww00wwwww000ww0000wwww00wwww0www0  XXXXXXXXXXX$$",
"08880wwww0000000w000wwwww000www0w0wwwww0wwwwww000  XXXXXXXXXXX$$",
"0038383855555555665555555555555436555555555555556  XXXXXXXXXXX$$",
"0088838355555555665555555555555446555555555555556  XXXXXXXXXXX$$",
"0w93833855555555555555555555555435555555555555555  XXXXXXXXXXX$$",
"0w88383855555555555555555555555435555555555555555  XXXXXXXXXXX$$",
"8855855555555555555555555555555336555555555555555  XXXXXXXXXXX$$",
"t855555555555555555555555555555335555555555555555  XXXXXXXXXXX$$",
"9e55555555555555555555555555555345555555555555555  XXXXXXXXXXX$$",
"0e55555555555555555555555555555345555555555555555  ...........OO",
"w095983838555555555555555555555335555555555555565  ...........OO",
"++                                                 XXXXXXXXXXX$$",
"oo                                                 XXXXXXXXXXX$$",
"$$XXXXXX.XXXXXX..XXXXXXXXXXXXXXXXXXXXXXXXXXXXXX..  XXXXXXXXXXX$$",
"$$XXXXXXXXXXXXX..XXXXXXXXXXXXXXXXXXXXXXXXXXXXXX..  XXXXXXXXXXX$$",
"$$XXXXXXXXXXXXX..XXXXXXXXXXXXXXXXXXXXXXXXXXXXXX..  XXXXXXXXXXX$$",
"$$oXXXXXXXXXXXX..XXXXXXXXXXXXXXXXXXXXXXXXXXXXXX..  XXXXXXXXXXX$$",
"$$XXXXXXXXXXXXX..XXXXXXXXXXXXXXXXXXXXXXXXXXXXXX..  XXXXXXXXXXX$$",
"$$XXXXXXXXXXXXX..XXXXXXXXXXXXXXXXXXXXXXXXXXXXXX..  XXXXXXXXXXX$$",
"$$oXXXXXXXXXXXX..XXXXXXXXXXXXXXXXXXXXXXXXXXXXXX..  XXXXXXXXXXX$$",
";$oXXXXXXXXXXXX..XXXXXXXXXXXXXXXXXXXXXXXXXXXXXX..  XXXXXXXXXXX$$",
":$@XXXXXXXXXXXX..XXXXXXXXXXXXXXXXXXXXXXXXXXXXXX..  XXXXXXXXXX@$%",
"q$$+XXXXXXXXXXX..XXXXXXXXXXXXXXXXXXXXXXXXXXXXXX..  XXXXXXoXX+$$f",
"j,$$@oXXXXXXXXX.XoXXXXXXXXXXXXXXXXXXXXXXXXXXXXXX.  XXXXXXoX#$$&j",
"gg=$$$$$$$$$$$$o+$$$$$$$$$$$$$$$$$$$$$$$$$$$$$$+++o$$$$$$$$$$&jg",
"ggg<;$$$$$$$$$$oX$$$$$$$$$$$$$$$$$$$$$$$$$$$$$$o+o+$$$$$$$$%<ggg"
};
