/* XPM */
static char *img_wdl[] = {
/* columns rows colors chars-per-pixel */
"64 64 43 1 ",
"  c #313D3F",
". c #374546",
"X c #3B4A4C",
"o c #3D4D4E",
"O c #405153",
"+ c #415354",
"@ c #45595A",
"# c #475C5D",
"$ c #4C6365",
"% c #586966",
"& c #636C62",
"* c #696F63",
"= c #697065",
"- c #6B7368",
"; c #6B736A",
": c #787867",
"> c #707669",
", c #707C76",
"< c #916132",
"1 c #956433",
"2 c #9C6935",
"3 c #AA733C",
"4 c #AB733C",
"5 c #B77B40",
"6 c #B97D40",
"7 c #BB7F41",
"8 c #7C847B",
"9 c #BD8042",
"0 c #B98247",
"q c #B6844D",
"w c #9D8563",
"e c #94876C",
"r c #968A6F",
"t c #AA8A60",
"y c #738785",
"u c #758C8E",
"i c #758D8F",
"p c #7C8D89",
"a c #768E90",
"s c #789092",
"d c #7A9295",
"f c #849087",
"g c #849EA1",
/* pixels */
"uuuy;&$$$$$$$++79999997779997779997709997099099999q97777qttrpuuu",
"us>$$$$$$$$$$o+9950599709999767099747999749999955999557790557wuu",
"g;$$#+oXXXXXX  43333444444443333474343473333425252553333555577es",
"p$$+XXXXXXXXX  433334444444433337234347233337525252533335252579g",
"=$@XXXXXXXXXX  444434444443333334444424333334444525333335252555f",
"$$oXXXXXXXXXX  444434444443333334444273433333444252533332525529t",
"$$XXXXXXXXXXX  <<<<<1<<<1<<<<<<<11<<<<<<<<<<<<<<<<<<<<<<<<52259q",
"$$XXXXXXXXXXX  <<<<<<<<<1<<<<<<<<<<<<<<<<<<<<<<<<<<<<<<<<<255599",
"$$XXXXXXXXXXX  <<<<<<<<<<<<<<<<<<<<<<<<<<<<<<<<<<<<<<<<<<<252355",
"$$XXXXXXXXXXX  <<<<<<<<<<<<<<<<<<<<<<<<<<<<<<<<<<<<<<<<<<<525377",
"$$XXXXXXXXXXX  <<<<<<<<<<<<<<<<<<<<<<<<<<<<<<<<<<<<<<<<<<<55257q",
"$$XXXXXXXXXXX  <<<<<<<<<<<<<<<<<<<<<<<<<<<<<<<<<<<<<<<<<<<525577",
"$$XXXXXXXXXXX  <<<<<<<<<<<<<<<<<<<<<<<<<<<<<<<<<<<<<<<<<<<333355",
"$$XXXXXXXXXXX  <<<<<<<<<<<<<<<<<<<<<<<<<<<<<<<<<<<<<<<<<<<333377",
"$$XXXXXXXXXXX  <<<<<<<<<<<<<<<<<<<<<<<<<<<<<<<<<<<<<<<<<<<333577",
"+o...........  <<<<<<<<<<<<<<<<<<<<<<<<<<<<<<<<<<<<<<<<<<<333577",
"o+...........  <<<<<<<<<<<<<<<<<<<<<<<<<<<<<<<<<<<<<<<<<<<333355",
"$$XXXXXXXXXXX  <<<<<<<<<<<<<<<<<<<<<<<<<<<<<<<<<<<<<<<<<<<333377",
"$$oXXXXXXXXXX  <<<<<<<<<<<<<<<<<<<<<<<<<<<<<<<<<<<<<<<<<<<333577",
"$$XXXXXXXXXXX  <<<<<<<<<<<<<<<<<<<<<<<<<<<<<<<<<<<<<<<<<<<333577",
"$$XXXXXXXXXXX  <<<<<<<<<<<<<<<<<<<<<<<<<<<<<<<<<<<<<<<<<<<333355",
"$$XXXXXXXXXXX  <<<<<<<<<<<<<<<<<<<<<<<<<<<<<<<<<<<<<<<<<<<333377",
"$$XXXXXXXXXXX  <<<<<<<<<<<<<<<<<<<<<<<<<<<<<<<<<<<<<<<<<<<332577",
"$$XXXXXXXXXXX  <<<<<<<<<<<<<<<<<<<<<<<<<<<<<<<<<<<<<<<<<<<335577",
"$$XXXXXXXXXXX  <<<<<<<<<<<<<<<<<<<<<<<<<<<<<<<<<<<<<<<<<<<333355",
"$$XXXXXXXXXXX  <<<<<<<<<<<<<<<<<<<<<<<<<<<<<<<<<<<<<<<<<<<333377",
"$$XXXXXXXXXXX  <<<<<<<<<<<<<<<<<<<<<<<<<<<<<<<<<<<<<<<<<<<333577",
"$$XXXXXXXXXXX  <<<<<<<<<<<<<<<<<<<<<<<<<<<<<<<<<<<<<<<<<<<33357q",
"$$XXXXXXXXXXX  <<<<<<<<<<<<<<<<<<<<<<<<<<<<<<<<<<<<<<<<<<<523355",
"$$XXXXXXXXXXX  <<<<<<<<<<<<<<<<<<<<<<<<<<<<<<<<<<<<<<<<<<<353375",
"$$XXXXXXXXXXX  <<<<<<<<<<<<<<<<<<<<<<<<<<<<<<<<<<<<<<<<<<<525577",
"$$XXXXXXXXXXX  <<<<<<<<<<<<<<<<<<<<<<<<<<<<<<<<<<<<<<<<<<<2525q7",
"$$XXXXXXXXXXX  <<<<<<<<<<<<<<<<<<<<<<<<<<<<<<<<<<<<<<<<<<<333355",
"$$XXXXXXXXXXX  <<<<<<<<1<<<<<<<<<<<<<<<<<<<<<<<<<<<<<<<<<<333377",
"$$XXXXXXXXXXX  3444452523333252533333333535233333333333333332577",
"$$XXXXXXXXXXX  3444445253333525233333333252533333333333333335577",
"$$XXXXXXXXXXX  3433352523333552552553333525233333333333333352555",
"$$XXXXXXXXXXX  5443356253333555225253333552533353355335533355577",
"$$XXXXXXXXXXX  577559977775577755799775599q75577577757775577777q",
"$$XXXXXXXXXXX  57755007t755577t5770q7775907777555777577777755577",
"$$XXXXXXXXXXX  3553333333333335<25253333333333333333333353333357",
"$$XXXXXXXXXXX  3353333333333335125523333333333333333333333333377",
"$$XXXXXXXXXXX  3333333335352333<<3253333333333333333333333332577",
"$$XXXXXXXXXXX  3333333332525333<23333333333333333333333333335577",
"$$XXXXXXXXXXX  3333333335252255225333333333333333333333333333355",
"$$XXXXXXXXXXX  33333333325255252<3333333333333333333333333333377",
"$$XXXXXXXXXXX  3333333335225251123333333333333333333333333333577",
"oo...........  33333333325525551253333333333333333333333333335q7",
"ooXX.........  5544444444444525<<4444434243441943333525252626249",
"$$XXXXXXXXXXX                                 .               o#",
"$$XXXXXXXXXXX                                                 ++",
"$$XXXXXXXXXXX   .XXXXXXXXXX.XXXX..O.OOXXXOXX.XX. XXXXXXXooXXXo$$",
"$$XXXXXXXXXXX  ..XXXXXXXXXXXXXXXO.O.XXXXXXXXXXX..XXXXXXXXXXXXX$$",
"$$XXXXXXXXXXX  ..XXXXXXXXXXXXXXX.OO.XXXXXXXXXXX..XXXXXXXXXXXXX$$",
"$$XXXXXXXXXXX  ..XXXXXXXXXXXXXXX.O.OXXXXXXXXXXX..XXXXXXXXXXXXX$$",
"$$XXXXXXXXXXX  ..XXXXXXXXXXXXXXX..O.XXXXXXXXXXX..XXXXXXXXXXXXX$$",
"$$XXXXXXXXXXX  ..XXXXXXXXXXXXXXXO..O..O.XXXXXXX..XXXXXXXXXXXXX$$",
"$$XXXXXXXXXXX  ..XXXXXXXXXXXXXXX.OO..O.OXXXXXXX..XXXXXXXXXXXXo$$",
"$$oXXXXXXXXXX  ..XXXXXXXXXXXXX.XO..O.OO.XXXXXXX..XXXXXXXXXXXoo$%",
"%$#XXXXXXXXXX  ..XXXXXXXXXXXXXO..OO.O.O.XXXXXXX..XXXXXXXXXXXoo$8",
",$$oXXXXXXXXX  ..XXXXXXXXXXXO.OO.OO...O.XXXXXXoX.XXXXXXXXXXXo$$f",
"a%$$#ooXXXXXX  ..XXXXXXXXXXX.O..O..OO..OXXXXXXoo.XXXXXXXXXX@$$:s",
"ii%$$$$$$$$$$@ooO$$$$$$$$$$$$$$$#$$$$$$$$$$$$$$oo$$$$$$$$$$$$;da",
"iad,$$$$$$$$$oo@O$$$$$$$$$$$$$$$$$$$$$$$$$$$$$$oo$$$$$$$$$$=8iii"
};
