/* XPM */
static char *img_p_lr[] = {
/* columns rows colors chars-per-pixel */
"64 64 190 2 ",
"   c gray20",
".  c #3E3433",
"X  c #373939",
"o  c #3B3E3E",
"O  c #493634",
"+  c #603935",
"@  c #6B3A35",
"#  c #694C39",
"$  c #69503E",
"%  c #414546",
"&  c #43494A",
"*  c #4B5454",
"=  c #4C5556",
"-  c #4E5758",
";  c #535D5F",
":  c #6D594B",
">  c #725540",
",  c #7B5E48",
"<  c #6D5E50",
"1  c #5A6C47",
"2  c #6E6155",
"3  c #6D6459",
"4  c #586465",
"5  c #6F6C63",
"6  c #706E65",
"7  c #616F71",
"8  c #647477",
"9  c #667678",
"0  c #687B7D",
"q  c #6B7E7F",
"w  c #717873",
"e  c #8D3F37",
"r  c #BA4539",
"t  c #C5473A",
"y  c #DB543F",
"u  c #E74C3C",
"i  c #85674F",
"p  c #8E7157",
"a  c #977A5E",
"s  c #B86C49",
"d  c #A17C4F",
"f  c #A8645D",
"g  c #BB6F68",
"h  c #B2716A",
"j  c #A97F7B",
"k  c #CF5C42",
"l  c #C95A4E",
"z  c #E85543",
"x  c #EA5E4A",
"c  c #CE6155",
"v  c #EB6751",
"b  c #ED7159",
"n  c #E1795C",
"m  c #C37369",
"M  c #2DAE64",
"N  c #3CAC63",
"B  c #33AD68",
"V  c #34AE69",
"C  c #28B162",
"Z  c #28B262",
"A  c #29B765",
"S  c #29B966",
"D  c #2ABC68",
"F  c #2BBE69",
"G  c #35B56B",
"H  c #3BBF76",
"J  c #4F8451",
"K  c #4B8C55",
"L  c #449C5C",
"P  c #76875D",
"I  c #739C5D",
"U  c #40A45F",
"Y  c #4F9E78",
"T  c #589A7D",
"R  c #5CAC63",
"E  c #45A373",
"W  c #42A772",
"Q  c #49A878",
"!  c #53A37D",
"~  c #41BE7A",
"^  c #46BB7D",
"/  c #67A460",
"(  c #2CC36C",
")  c #2CC56D",
"_  c #2CC66E",
"`  c #2DC86F",
"'  c #2DCA70",
"]  c #2ECC71",
"[  c #38C575",
"{  c #33C873",
"}  c #3BCD75",
"|  c #48CE79",
" . c #5ACC7E",
".. c #6DC97D",
"X. c #968453",
"o. c #A18366",
"O. c #AA8C6D",
"+. c #B49675",
"@. c #BD9F7C",
"#. c #9CA970",
"$. c #F08367",
"%. c #F18C6F",
"&. c #F49F7D",
"*. c #5D9881",
"=. c #5D9F83",
"-. c #718789",
";. c #71888A",
":. c #74898C",
">. c #758C8E",
",. c #768D8F",
"<. c #669386",
"1. c #649784",
"2. c #689C8A",
"3. c #6C998C",
"4. c #6D9B8E",
"5. c #6A9F8D",
"6. c #70908D",
"7. c #71908D",
"8. c #768E90",
"9. c #778E90",
"0. c #778F91",
"q. c #788F92",
"w. c #798F92",
"e. c #789092",
"r. c #799093",
"t. c #7D9291",
"y. c #7A9295",
"u. c #7B9295",
"i. c #7B9396",
"p. c #7C9396",
"a. c #7C9497",
"s. c #7C9597",
"d. c #739992",
"f. c #749B92",
"g. c #789896",
"h. c #7D9598",
"j. c #7E9799",
"k. c #7F989B",
"l. c #59AB85",
"z. c #5BAD87",
"x. c #5FA989",
"c. c #55B083",
"v. c #69A38E",
"b. c #63B68A",
"n. c #6EA091",
"m. c #5DC489",
"M. c #62D181",
"N. c #6FD285",
"B. c #78CE9C",
"V. c #858E88",
"C. c #8E9D96",
"Z. c #80999C",
"A. c #819A9D",
"S. c #829B9E",
"D. c #839C9F",
"F. c #8A999B",
"G. c #B9BE87",
"H. c #A8AC9B",
"J. c #B1B19D",
"K. c #BAB69F",
"L. c #849EA1",
"P. c #8BA3A3",
"I. c #C6A884",
"U. c #D0B18B",
"Y. c #D9BB93",
"T. c #F6A885",
"R. c #F7B18C",
"E. c #F9BB93",
"W. c #89D48D",
"Q. c #96D691",
"!. c #B0D899",
"~. c #BDD99D",
"^. c #93D8B0",
"/. c #E2C49A",
"(. c #D5C7A7",
"). c #DCCBA8",
"_. c #CADBA1",
"`. c #D7DCA5",
"'. c #ECCDA2",
"]. c #E4DDA9",
"[. c #F5D6A9",
"{. c #FDD6A9",
"}. c #F0D8AE",
"|. c #FFE0B1",
" X c #AEE1C4",
".X c #BBE6CD",
"XX c #CAF2DB",
"oX c #DCE2E3",
"OX c #EFF2F2",
"+X c white",
/* pixels */
">.>.>.s.L.L.L.L.L.L.L.A.8.>.>.8.j.a.a.a.j.a.a.A.i.A.i.a.a.a.A.a.A.i.p.a.A.a.A.i.i.w.>.>.>.i.a.a.j.j.a.a.Z.p.a.p.a.a.Z.w.8.>.>.>.",
">.8.A.L.L.L.L.L.L.L.L.L.A.8.>.>.a.a.j.a.k.a.a.i.a.a.A.a.i.A.i.a.a.a.i.A.i.p.a.p.j.>.>.>.w.a.j.a.a.a.a.Z.a.a.a.Z.p.Z.a.a.w.8.>.>.",
">.A.L.L.L.L.L.L.L.L.L.L.L.A.>.>.w.a.j.j.a.A.p.A.a.p.i.p.a.a.a.j.A.a.A.a.p.i.A.i.i.>.8.8.a.j.a.a.Z.a.a.a.Z.p.Z.a.a.p.a.p.a.w.>.>.",
"A.L.L.L.L.L.L.L.L.L.L.L.L.L.s.>.8.p.i.p.a.a.a.a.A.i.A.a.a.k.a.a.i.a.i.p.a.A.a.p.8.>.8.8.j.a.a.j.a.a.a.Z.a.a.p.a.a.Z.a.Z.a.w.>.>.",
"L.L.L.L.L.L.L.L.L.L.L.L.L.L.L.e.>.8.s.j.a.j.j.a.i.p.i.j.a.j.j.a.a.j.i.j.A.a.A.w.8.:.8.w.s.j.s.j.a.a.Z.p.a.a.Z.p.a.a.a.j.a.p.>.Z.",
"L.L.L.L.L.L.L.L.L.L.L.L.L.L.L.A.>.>.w.s.a.a.a.a.A.a.j.a.a.a.a.a.a.a.j.a.i.p.w.>.:.8.:.8.j.i.j.s.a.Z.a.a.p.Z.a.a.a.Z.a.a.j.w.i.L.",
"L.L.L.L.L.L.L.L.L.L.L.L.L.L.L.L.i.8.>.e.j.a.j.j.i.j.p.j.j.a.a.j.j.a.j.j.a.p.8.>.8.:.8.>.8.j.s.j.a.p.a.p.a.p.a.p.Z.a.a.a.i.>.Z.L.",
"L.L.L.L.L.L.L.L.L.L.L.L.L.L.L.L.i.>.>.>.i.a.2.2.T ! ! ! ! ! ! ! Y l.! ! T Y Y Y 5.d.8.8.8.i.s.a.a.Z.a.Z.a.Z.a.Z.a.a.a.p.8.>.j.L.",
"L.L.L.L.L.L.L.L.L.L.L.L.L.L.L.L.s.>.:.>.Y M C C C C C C C C C C Z C C C C C C C C C B Q *.:.a.a.a.j.i.j.j.a.a.j.Z.a.p.w.>.>.w.L.",
"L.L.L.L.L.L.L.L.L.L.L.L.L.L.L.L.0.>.>.W Z Z C C C C C C C C C C Z M C C C C C C C C C C C C E 3.a.a.j.a.a.a.j.i.a.p.8.>.>.>.>.j.",
"A.L.L.L.L.L.L.L.L.L.L.L.L.L.L.i.>.7.<.C Z C C C C C C C C C C C C C C C C C C C C C C C C C C C E d.a.j.a.j.p.j.a.8.>.>.>.>.>.8.",
"w.L.L.L.L.L.L.L.L.L.L.L.L.L.i.>.;.;.Y C Z M C C C C C C C C C C C C C C C C C C C C C C C C C C Z M 3.j.a.a.j.i.w.>.>.>.>.>.>.>.",
">.i.L.L.L.L.L.L.L.L.L.L.A.i.>.>.>.>.b.m.G C C C C C C C C C C C C C C C C C C C C C C C C C C C Z Z M =.p.j.i.8.>.8.w.a.w.a.w.w.",
">.>.i.L.L.L.L.L.L.L.L.L.8.>.>.>.>.>.oX+X+X Xm.C C C C C C C C C C C C C C C C C C C C C C C C C Z Z C C 1.8.:.8.w.i.A.a.a.a.p.i.",
"s.>.>.j.L.L.L.L.L.L.A.8.>.>.>.i.k.a.oX+X+X+X+X^.C C C C C C C C C C C C C C C C C C C C C C C C C C C C B >.8.w.a.a.i.a.a.k.p.a.",
"j.i.>.>.j.D.L.L.L.j.>.>.>.w.s.s.a.j.OX+X+X+X+X+XB.C C C C C C C C C C C C C C C C C C C C C C C C C C C M T w.p.A.a.A.a.a.a.a.j.",
"p.j.a.w.>.w.>.w.>.>.>.>.i.i.a.j.a.a.+X+X+X+X+X+X+Xm.Z M C C C C C C C C C C C C C C C C C C C C C C C C C V A.A.i.p.p.p.a.j.a.a.",
"j.s.j.a.8.>.>.>.>.>.>.i.a.j.a.j.a.j.+X+X+X+X+X+X+X.XZ Z C C C C C C C C C C C C C C C C C C C C C C C C C C A.p.i.Z.Z.p.a.a.a.j.",
"p.i.i.a.p.8.>.>.>.>.8.a.j.a.a.n.n.v.XXXXXXXXXXXXXXXXZ M C C C C C C C C C C C C C C C C C C M C C C C C C C 4.a.p.p.p.p.a.a.a.j.",
"j.j.j.a.j.p.8.>.>.>.i.k.x.^ ] ] ] ] ] ] ] ] ] ] ] ] ' ] ] ] ) ) D D D A A C C C C C C C C C Z Z C C C C C C 3.a.Z.p.Z.p.a.Z.a.a.",
"p.i.a.i.i.a.a.8.>.>.l.[ ] ] ] ] ] ] ] ] ] ] ] ] ] ] ] ] ] ] ] ] ] ] ] ] ] ] ] ) D D S C Z Z Z Z C C C C C C 3.a.a.p.a.p.Z.a.Z.a.",
"a.A.a.A.j.i.a.a.>.>.' ] ] ] ] ' ] ] ] ] ] ] ] ] ] ] ] ] ] ] ] ] ] ] ] ] ] ] ] ] ] ] ] ] ` ) S S C C C C C C j.a.a.Z.a.Z.a.a.a.a.",
"A.i.a.a.a.i.a.j.i.:.[ ' ] ] { ' ] ] ] ] ] ] ] ] ] ] ] ] ] ] ] ] ] ] ] ] ] ] ] ] ] ] ] ] ] ] ] ] ' _ ( S C B a.a.Z.p.a.a.a.p.Z.p.",
"a.p.i.A.a.A.a.a.j.>.>.c.c.~ ~ ~ H { ] ] ] ] ] ] ] ] ] ] ] ] ] ' ] ] ] ] ] ] ] ] ] ] ] ] ] ] ] ] ' ] ' ] ) [ a.j.a.a.p.Z.a.Z.a.a.",
"A.a.A.i.a.A.i.A.i.w.8.w.>.s.s.j.j.s.j.|.|.`._._._.!.Q.Q.Q.W.M.M.M.m.] ] ] ] ] ] ] ] ] ] ] ] ] ] ] ` ` ` ` l.Z.w.Z.p.a.a.Z.a.Z.p.",
"i.p.a.p.p.i.p.a.p.w.>.>.>.>.p.p.a.i.8.|.|.|.|.|.|.|.|.|.|.|.|.|.|.|.|.|.|.|.P 1 1 1 J K K K U N G N N N L w.Z.Z.a.a.p.Z.p.a.a.a.",
"p.i.A.i.a.A.a.p.i.w.>.>.>.>.>.w.8.>.8.|.|.|.|.|.|.|.|.|.|.|.|.|.|.|.|.|.|.|.O.# # # # # # # # # # # # # $ s.Z.w.Z.a.Z.a.a.p.Z.p.",
"a.A.a.p.p.i.A.p.s.w.>.>.>.>.>.>.>.>.>.|.|.|.|.|.|.|.|.|.I.# > /.|.|.|.|.|.|.'.# # # # # # # # # # # # # # g.w.Z.p.a.p.a.a.Z.a.a.",
"A.i.p.a.A.i.a.A.p.8.>.>.>.>.>.>.>.>.>.|.|.|.|.|.|.|.|.|., # # p |.|.|.|.|.|.|.+.Y.|.|.|.Y.i # # # # # # # Z.w.Z.a.p.a.p.Z.a.Z.p.",
"a.p.i.A.a.p.a.p.>.w.>.>.>.>.>.>.>.>.>.|.|.|.|.|.|.|.|.|.# # # # |.|.|.|.|.|.|.|.|.|.|.|.|.'.$ # # # # # # w.Z.w.a.Z.a.Z.p.a.a.a.",
"A.a.A.a.A.a.A.8.>.>.>.>.>.>.>.>.>.>.w.|.|.|.|.|.|.|.|.|.# # # # |.|.|.|.|.|.|.|.|.|.|.|.|.|.Y.# # # # # # Z.a.p.Z.p.a.a.a.p.Z.p.",
"i.p.i.p.i.p.8.>.>.>.>.>.>.>.>.>.w.H.(.|.|.|.|.|.|.|.|.|.i # # a |.|.|.|.|.|.|.|.|.|.|.|.|.|.|.# # # # # $ Z.a.Z.a.a.p.Z.a.Z.a.a.",
"A.a.k.j.p.8.>.>.>.>.>.>.>.>.>.>.J.|.|.|.|.|.|.|.|.|.|.|.Y.# , [.|.|.|.|.|.|.|.|.|.|.|.|.|.|.|.# # # # # : j.a.j.a.a.a.k.s.Z.s.s.",
"i.a.p.p.w.>.>.>.>.>.>.>.>.>.>.>.}.|.|./.a > p p a @.'.|.|.|.|.|.|.|.|.|.|.|.|.|.|.|.|.|.|.|.@.# # # # # < a.j.s.a.j.a.a.s.s.Z.s.",
"a.a.s.w.8.w.>.>.>.>.>.8.8.w.>.>.K.).|., # # # # # # # U.|.|.|.|.|.|.|.|.|.|.|.|.|.|.|.|.|./.$ $ # # # # 2 a.j.s.a.a.j.k.p.s.u.s.",
"i.A.>.>.>.>.>.>.>.>.w.A.p.i.a.w.>.8.w # # # # # # # # # Y.|.|.|.|.|.|.|.|.|.|.|.|.|.|.|.|.|.Y.o.$ # # # 6 :.s.Z.j.a.a.a.Z.p.Z.p.",
"p.w.>.>.>.>.>.>.>.w.a.A.p.a.A.a.i.8.5 # # # # # # # # # , |.|.|.|.|.|.|.|.|.|.|.|.|.|.|.|.|.|.|.|.Y.+.+.V.7.>.t.j.i.s.i.p.A.p.p.",
"8.>.>.>.>.>.>.>.w.p.a.i.i.A.i.p.j.i.6 # # # # # # # # # > |.|.|.|.|.|.|.|.|.|.|.|.|.|.|.|.|.|.|.|.|.|.|.C.7.>.>.w.A.p.A.s.p.p.s.",
">.>.>.>.>.>.>.8.i.A.a.A.p.a.p.i.i.j.w.< # # # # # # p +.'.|.|.|.|.|.|.|.|.|.|.|.|.|.|.|.|.|.|.|.|.|.|.].S.>.>.>.8.8.w.i.p.s.w.8.",
">.>.>.>.>.>.w.a.a.a.a.i.i.A.a.A.j.j.j.g. .].|.|.|.|.|.|.|.|.|.|.|.|.|.|.|.|.|.|.|.|.|.|.|.|.|.|.|.|.].P.D.D.>.>.>.>.>.>.w.>.>.>.",
">.>.>.>.>.8.w.p.p.a.A.a.A.i.p.a.a.a.j.c.' } M.M.M.M.M.M.M.M.M.#.b n .. . ... . . . ...$.b b b b b b m L.L.L.Z.8.>.>.>.>.>.>.>.>.",
">.>.>.>.>.8.A.p.i.A.i.p.a.p.i.A.a.k.j.{ ' ] ] ] ] ] ] ] ] ] / k u I  .N.Q.Q. .} } ] } X.u u u u u u u F.L.L.L.A.>.>.>.>.>.>.>.>.",
">.>.>.>.>.a.p.j.a.a.a.i.A.a.A.a.a.i.d.] ] ] ] ] ] ] ' ' ] X.u u n ].|.|.|.|.|.!.} ] ] R u u u u u u u j L.L.L.L.Z.8.>.>.>.>.>.>.",
">.>.>.>.8.a.k.i.i.A.a.A.i.p.i.p.a.A.z.] ] ] ] ] ] ] ] I k u u u /.|.|.|.|.|.|.|.~.] ] R u u u u u u u g L.L.L.L.L.A.>.>.>.>.>.>.",
">.>.>.>.w.a.A.p.a.a.A.a.a.a.a.a.a.j.c.] ] ] ] R X.d u u u u u u |.|.|.|.|.|.|.|.|.| ` I u u u u u u u c L.L.L.L.L.L.p.>.>.>.>.>.",
">.>.>.>.w.a.a.a.i.A.i.a.a.k.a.k.j.j.h u u u u u u u u u u u u u |.|.|.|.|.|.|.|.|.W.( s u u u u u u u c L.L.L.L.L.L.A.>.>.>.>.>.",
">.>.>.>.w.w.A.i.a.a.a.a.k.a.a.a.j.j.h u u u u u u u u u u u u u R.|.|.|.|.|.|.|.|.Q./ u u u u u u u u c L.L.L.L.L.L.L.>.>.>.>.>.",
">.>.>.>.8.8.p.a.i.A.a.k.a.a.j.i.i.:.f u u u u u u u u u u u u u b |.|.|.|.|.|.|.|.!.y u u u u u u u u l L.L.L.L.L.L.Z.>.>.>.>.>.",
">.>.>.>.>.>.>.a.k.s.a.a.a.a.a.0.;   e u u u u u u u u u u u u u u R.|.|.|.|.|.|.|.%.u u u u u u u u u r X 7 L.L.L.L.w.>.>.>.>.>.",
">.>.>.>.>.>.>.>.a.a.a.k.a.k.j.-     + u u u u u u u u u u u u u u x |.|.|.|.|.|.{.z u u u u u u u u u e     8 L.L.p.>.>.>.8.8.8.",
"w.>.>.>.>.>.8.:.>.>.a.a.a.a.a.      O u u u u u u u u u u u u u u u $.{.|.|.|.{.b u u u u u u u u u u @     = L.p.>.>.>.j.L.L.L.",
"L.p.>.>.:.8.:.8.>.>.8.a.a.k.a.%       e u u u u u u u u u u u u u u u x &.E.T.v u u u u u u u u u u t .     = j.>.>.>.j.L.L.L.L.",
"L.L.j.8.:.w.8.:.>.>.>.>.e.e.s.8       O e u u u u u u u u u u u u u u u u u u u u u u u u u u u u t O     X q >.>.>.j.L.L.L.L.L.",
"L.L.L.Z.8.-.:.8.>.>.>.>.>.>.>.>.*       .           4 i.a.a.i.A.k.>.>.>.>.>.>.>.>.>.>.&                   8 >.>.>.j.L.L.L.L.L.L.",
"L.L.L.L.p.:.8.:.>.>.>.>.>.>.>.>.>.4                 4 A.A.a.A.a.a.a.e.>.>.>.>.>.>.>.>.&               X 8 >.>.>.p.L.L.L.L.L.L.L.",
"L.L.L.L.Z.8.:.8.>.>.>.>.>.>.>.>.>.>.0 o             8 p.i.a.i.p.j.k.a.a.>.>.>.>.>.>.>.=             - -.>.>.>.>.k.L.L.L.L.L.L.L.",
"L.L.L.L.A.>.>.>.>.>.>.>.>.>.>.>.>.>.>.>.9 -       4 i.A.i.A.i.A.a.a.k.a.e.>.>.>.8.:.8.;.*     o = q >.>.>.>.>.>.A.L.L.L.L.L.L.L.",
"L.L.L.D.s.>.>.>.>.>.>.>.>.>.>.>.>.>.>.8.p.p.i.A.A.a.p.a.p.a.p.a.a.j.a.a.a.a.>.>.:.8.:.>.>.>.>.>.8.8.:.8.>.>.>.>.a.L.L.L.L.L.L.L.",
"L.L.L.k.>.>.>.>.>.>.>.>.>.>.>.>.>.>.8.a.A.i.k.a.i.p.i.p.a.A.i.p.a.a.j.j.p.s.w.>.8.:.8.:.>.>.>.>.:.8.8.w.>.>.w.8.>.j.L.L.L.L.L.L.",
"L.L.k.>.>.>.>.>.>.>.>.>.>.>.>.>.>.w.a.a.i.j.a.a.A.a.A.a.p.i.A.a.j.a.a.a.s.s.s.e.:.8.:.8.>.>.>.>.8.:.w.a.p.p.w.8.>.>.j.L.L.L.L.L.",
"L.i.>.>.>.>.>.>.>.>.>.>.>.>.>.>.8.w.a.a.a.p.a.p.i.A.i.p.i.p.a.p.i.A.i.A.A.s.A.i.8.>.>.:.>.>.>.>.:.i.p.j.j.a.a.a.>.>.:.j.L.L.L.L.",
"s.>.>.>.>.>.>.>.>.>.>.>.>.>.>.>.w.i.A.p.A.i.A.i.p.a.A.a.A.a.A.i.p.a.p.a.i.p.p.p.w.w.:.8.>.>.>.>.p.p.j.i.a.a.j.a.i.8.>.>.i.L.L.L.",
">.>.>.>.>.>.j.A.Z.p.e.>.>.>.>.>.w.A.a.p.i.p.a.A.a.p.i.p.i.p.i.A.a.A.i.p.i.A.j.k.a.8.>.>.>.>.8.p.a.a.a.j.a.j.i.j.j.i.8.>.>.>.8.8.",
">.>.>.>.p.A.L.L.L.L.Z.>.>.>.>.w.p.i.A.i.A.a.p.i.A.i.A.a.A.a.p.a.p.i.A.a.a.a.a.i.a.w.>.>.>.>.i.a.j.j.a.a.a.j.a.i.j.j.j.>.>.>.>.>."
};
