/* XPM */
static char *img_wl[] = {
/* columns rows colors chars-per-pixel */
"64 64 53 1 ",
"  c #313D3F",
". c #374546",
"X c #3B4A4C",
"o c #3D4D4E",
"O c #405153",
"+ c #415354",
"@ c #45595A",
"# c #475C5D",
"$ c #4C6365",
"% c #656C61",
"& c #696E62",
"* c #6C6F62",
"= c #6E7165",
"- c #757564",
"; c #787867",
": c #727568",
"> c #727668",
", c #797F76",
"< c #916132",
"1 c #956433",
"2 c #9C6935",
"3 c #AA733C",
"4 c #AB733C",
"5 c #AD753D",
"6 c #AE763D",
"7 c #B3793F",
"8 c #B47A3F",
"9 c #B77B40",
"0 c #B97D40",
"q c #7C847B",
"w c #7B857C",
"e c #BD8042",
"r c #B98247",
"t c #B4824C",
"y c #B6844D",
"u c #AC8557",
"i c #A8865C",
"p c #AE8859",
"a c #AA895F",
"s c #9D8563",
"d c #94876C",
"f c #968A6F",
"g c #99937D",
"h c #A88B66",
"j c #7E8B85",
"k c #758C8E",
"l c #798C8A",
"z c #768E90",
"x c #789092",
"c c #7A9295",
"v c #849087",
"b c #8B9B95",
"n c #849EA1",
/* pixels */
"kkkw:%$$$$$$$OOeeeeeeeeeeeeeeeeeeeeeeeeeeeeeeeeeeeeeeeeeeyphbnxk",
"kk-$$$$$$$$$$OOeeeeeeeeeeeeeeeeeeeeeeeeeeeeeeeeeeeeeeeeeeeeeefxk",
"k*$$#OoXXXXXX  3333333335e0333333333333333333333333333333458eefk",
",$$+XXXXXXXXX  3333333337e73333333333333333333333333333333548erl",
"&$@XXXXXXXXXX  3333333330e4433333333333333333333333333333344380f",
"$$oXXXXXXXXXX  333333333ee4433333333333333333333333333333334380i",
"$$XXXXXXXXXXX  333333333ee3433<<<<<<<<<<<<<<<<<<<<<<<<<<<24445ep",
"$$XXXXXXXXXXX  333333333ee4433<<<<<<<<<<<<<<<<<<<<<<<<<<<<4444er",
"$$XXXXXXXXXXX  333333333ee3333<<<<<<<<<<<<<<<<<<<<<<<<<<<<33330e",
"$$XXXXXXXXXXX  333333333ee3333<<<<<<<<<<<<<<<<<<<<<<<<<<<<3333ee",
"$$XXXXXXXXXXX  333333333ee3333<<<<<<<<<<<<<<<<<<<<<<<<<<<<3333ee",
"$$XXXXXXXXXXX  333333333ee3333<<<<<<<<<<<<<<<<<<<<<<<<<<<<3333ee",
"$$XXXXXXXXXXX  333333333ee3333<<<<<<<<<<<<<<<<<<<<<<<<<<<<3333ee",
"$$XXXXXXXXXXX  333333333ee3333<<<<<<<<<<<<<<<<<<<<<<<<<<<<3333ee",
"$$XXXXXXXXXXX  333333333ee3333<<<<<<<<<<<<<<<<<<<<<<<<<<<<3333ee",
"OO...........  333333333ee3333<<<<<<<<<<<<<<<<<<<<<<<<<<<<3333ee",
"OO...........  333333333ee3333<<<<<<<<<<<<<<<<<<<<<<<<<<<<3333ee",
"$$XXXXXXXXXXX  333333333ee3333<<<<<<<<<<<<<<<<<<<<<<<<<<<<3333ee",
"$$XXXXXXXXXXX  333333333ee3333<<<<<<<<<<<<<<<<<<<<<<<<<<<<3333ee",
"$$XXXXXXXXXXX  333333333ee3333<<<<<<<<<<<<<<<<<<<<<<<<<<<<3333ee",
"$$XXXXXXXXXXX  333333333ee3333<<<<<<<<<<<<<<<<<<<<<<<<<<<<3333ee",
"$$XXXXXXXXXXX  333333333ee3333<<<<<<<<<<<<<<<<<<<<<<<<<<<<3333ee",
"$$XXXXXXXXXXX  333333333ee3333<<<<<<<<<<<<<<<<<<<<<<<<<<<<3333ee",
"$$XXXXXXXXXXX  333333333ee3333<<<<<<<<<<<<<<<<<<<<<<<<<<<<3333ee",
"$$XXXXXXXXXXX  333333333ee3333<<<<<<<<<<<<<<<<<<<<<<<<<<<<3333ee",
"$$XXXXXXXXXXX  333333333ee3333<<<<<<<<<<<<<<<<<<<<<<<<<<<<3333ee",
"$$XXXXXXXXXXX  333333333ee3333<<<<<<<<<<<<<<<<<<<<<<<<<<<<3333ee",
"$$XXXXXXXXXXX  333333333ee3333<<<<<<<<<<<<<<<<<<<<<<<<<<<<3333ee",
"$$XXXXXXXXXXX  333333333ee3333<<<<<<<<<<<<<<<<<<<<<<<<<<<<3333ee",
"$$XXXXXXXXXXX  333333333ee3333<<<<<<<<<<<<<<<<<<<<<<<<<<<<3333ee",
"$$XXXXXXXXXXX  333333333ee3333<<<<<<<<<<<<<<<<<<<<<<<<<<<<3333ee",
"$$XXXXXXXXXXX  222222222ee3333<<<<<<<<<<<<<<<<<<<<<<<<<<<<3333ee",
"$$XXXXXXXXXXX  222222222ee3333<<<<<<<<<<<<<<<<<<<<<<<<<<<<3333ee",
"$$XXXXXXXXXXX  333333333ee3333<<<<<<<<<<<<<<<<<<<<<<<<<<<<3333ee",
"$$XXXXXXXXXXX  333333333ee3333<<<<<<<<<<<<<<<<<<<<<<<<<<<<3333ee",
"$$XXXXXXXXXXX  333333333ee3333<<<<<<<<<<<<<<<<<<<<<<<<<<<<3333ee",
"$$XXXXXXXXXXX  333333333ee3333<<<<<<<<<<<<<<<<<<<<<<<<<<<<3333ee",
"$$XXXXXXXXXXX  333333333ee3333<<<<<<<<<<<<<<<<<<<<<<<<<<<<3333ee",
"$$XXXXXXXXXXX  333333333ee3333<<<<<<<<<<<<<<<<<<<<<<<<<<<<3333ee",
"$$XXXXXXXXXXX  333333333ee3333<<<<<<<<<<<<<<<<<<<<<<<<<<<<3333ee",
"$$XXXXXXXXXXX  333333333ee3333<<<<<<<<<<<<<<<<<<<<<<<<<<<<3333ee",
"$$XXXXXXXXXXX  333333333ee3333<<<<<<<<<<<<<<<<<<<<<<<<<<<<3333ee",
"$$XXXXXXXXXXX  333333333ee3333<<<<<<<<<<<<<<<<<<<<<<<<<<<<3333ee",
"$$XXXXXXXXXXX  333333333ee3333<<<<<<<<<<<<<<<<<<<<<<<<<<<<3333ee",
"$$XXXXXXXXXXX  333333333ee3333<<<<<<<<<<<<<<<<<<<<<<<<<<<<3333ee",
"$$XXXXXXXXXXX  333333333ee3333<<<<<<<<<<<<<<<<<<<<<<<<<<<<3333ee",
"$$XXXXXXXXXXX  333333333ee3333<<<<<<<<<<<<<<<<<<<<<<<<<<<<3333ee",
"O+...........  333333333ee3333<<<<<<<<<<<<<<<<<<<<<<<<<<<<3333ee",
"OO...........  333333333ee3333<<<<<<<<<<<<<<<<<<<<<<<<<<<<3333ee",
"$$XXXXXXXXXXX  333333333ee3333<<<<<<<<<<<<<<<<<<<<<<<<<<<<3333ee",
"$$XXXXXXXXXXX  333333333ee3333<<<<<<<<<<<<<<<<<<<<<<<<<<<<3333ee",
"$$XXXXXXXXXXX  333333333ee3333<<<<<<<<<<<<<<<<<<<<<<<<<<<<3333ee",
"$$XXXXXXXXXXX  333333333ee3333<<<<<<<<<<<<<<<<<<<<<<<<<<<<3333ee",
"$$XXXXXXXXXXX  333333333ee3333<<<<<<<<<<<<<<<<<<<<<<<<<<<<3333ee",
"$$XXXXXXXXXXX  333333333ee3333<<<<<<<<<<<<<<<<<<<<<<<<<<<<3333ee",
"$$XXXXXXXXXXX  333333333ee3333<<<<<<<<<<<<<<<<<<<<<<<<<<<<3333ee",
"$$XXXXXXXXXXX  333333333ee3333<<<<<<<<<<<<<<<<<<<<<<<<<<<<3333er",
"$$XXXXXXXXXXX  333333333ee3333<<<<<<<<<<<<<<<<<<<<<<<<<<<13335ep",
"$$oXXXXXXXXXX  333333333ee333333333333333333333333333333333368eh",
":$@XXXXXXXXXX  333333333ee3333333333333333333333333333333333588f",
"q$$XXXXXXXXXX  3333333338e83333333333333333344443333333334455eev",
"k*$$#OoXXXXXX  3333333355e8333333333333333334444333345333550eesk",
"kz;$$$$$$$$$$OO0eeeeeeeeee0eeeeeeeeeeeeeeeee0eeeeereeeee0eeetdkk",
"kkxv:%$$$$$$$++eeeeeeeeeeeeeeeeeeeeeeeeeeeeeeeeeeeeeeeeeeypvbxkk"
};
