/* XPM */
static char *img_pe_rs[] = {
/* columns rows colors chars-per-pixel */
"64 64 182 2 ",
"   c #001A14",
".  c #001B15",
"X  c #001F18",
"o  c #002119",
"O  c #00221A",
"+  c #00251B",
"@  c #00271D",
"#  c #0E241B",
"$  c #0F211D",
"%  c #09251E",
"&  c #002A1F",
"*  c #002C1F",
"=  c #1C2A1F",
"-  c #002C20",
";  c #002E21",
":  c #062C20",
">  c #0C2C23",
",  c #0F2E23",
"<  c #132823",
"1  c #1C2B27",
"2  c #003022",
"3  c #003323",
"4  c #073622",
"5  c #003424",
"6  c #003525",
"7  c #003625",
"8  c #003826",
"9  c #003B28",
"0  c #003E29",
"q  c #003F29",
"w  c #1C3727",
"e  c #2B2A20",
"r  c #262D2B",
"t  c #273125",
"y  c #343A2B",
"u  c #393A2A",
"i  c #2F3131",
"p  c #2D3F31",
"a  c gray20",
"s  c #3E3433",
"d  c #563126",
"f  c #73372B",
"g  c #603935",
"h  c #6B3A35",
"j  c #0A4027",
"k  c #004029",
"l  c #00442C",
"z  c #05442C",
"x  c #074A2E",
"c  c #08482E",
"v  c #0C492C",
"b  c #085032",
"n  c #0A5333",
"m  c #0B5333",
"M  c #0F5C37",
"N  c #2F4636",
"B  c #0F623A",
"V  c #11613A",
"C  c #14653B",
"Z  c #146A3E",
"A  c #4E4432",
"S  c #5B4735",
"D  c #624A37",
"F  c #694C39",
"G  c #734030",
"H  c #146C40",
"J  c #146D41",
"K  c #147645",
"L  c #167A47",
"P  c #197845",
"I  c #177D48",
"U  c #4C4842",
"Y  c #725540",
"T  c #7B5E48",
"R  c #5A6C47",
"E  c #7F7362",
"W  c #81392C",
"Q  c #813C2F",
"!  c #813D36",
"~  c #9E3F31",
"^  c #814030",
"/  c #914536",
"(  c #AD4234",
")  c #BB4335",
"_  c #BA4539",
"`  c #C5473A",
"'  c #D0483A",
"]  c #DB543F",
"[  c #E74C3C",
"{  c #85674F",
"}  c #8E7157",
"|  c #977A5E",
" . c #AD744C",
".. c #A17C4F",
"X. c #8A7562",
"o. c #CF5C42",
"O. c #EB6751",
"+. c #ED7159",
"@. c #EE7A60",
"#. c #17804A",
"$. c #1B874D",
"%. c #1C8F52",
"&. c #1F9855",
"*. c #239F59",
"=. c #22A25B",
"-. c #25A75C",
";. c #25A85D",
":. c #25AB60",
">. c #3CAC63",
",. c #28B162",
"<. c #28B262",
"1. c #29B765",
"2. c #29B966",
"3. c #2ABB67",
"4. c #2BBE69",
"5. c #35B56B",
"6. c #4F8451",
"7. c #4B8C55",
"8. c #449C5C",
"9. c #76875D",
"0. c #7E9459",
"q. c #739C5D",
"w. c #7F8568",
"e. c #46A06F",
"r. c #5CAC63",
"t. c #67A460",
"y. c #69AD67",
"u. c #2BC26B",
"i. c #2CC36C",
"p. c #2CC66E",
"a. c #2DC86F",
"s. c #39C46D",
"d. c #2DCA70",
"f. c #2ECC71",
"g. c #3BCD75",
"h. c #48CE79",
"j. c #52C677",
"k. c #55CF7D",
"l. c #6DC97D",
"z. c #968453",
"x. c #998972",
"c. c #9F9C7A",
"v. c #A18366",
"b. c #AA8C6D",
"n. c #B39969",
"m. c #B49675",
"M. c #BD9F7C",
"N. c #8FA76C",
"B. c #9CA970",
"V. c #E59472",
"C. c #F49F7D",
"Z. c #5DC489",
"A. c #62D181",
"S. c #6FD285",
"D. c #78CE9C",
"F. c #BFB18B",
"G. c #C6A884",
"H. c #D0B18B",
"J. c #D9BB93",
"K. c #F6A885",
"L. c #F9BB93",
"P. c #89D48D",
"I. c #96D691",
"U. c #B0D899",
"Y. c #BDD99D",
"T. c #93D8B0",
"R. c #DFC89D",
"E. c #E2C49A",
"W. c #CADBA1",
"Q. c #D7DCA5",
"!. c #E5CAA1",
"~. c #ECCDA2",
"^. c #E4DDA9",
"/. c #F5D6A9",
"(. c #FDD6A9",
"). c #FFE0B1",
"_. c #BFCCC8",
"`. c #AEE1C4",
"'. c #BBE6CD",
"]. c #CAF2DB",
"[. c #DFE6E4",
"{. c white",
/* pixels */
"& & & 2 2 8 5 5 2 8 5 2 - & & & o O O O O O O O O O O O O O O O O O O O O O O O o + & & & + O O O O O O O O O O O O O @ - - - @ ",
"& & 2 5 5 8 2 8 2 5 8 2 5 - & & o o O O O O O O O O O O O O O O O O O O O O O O o & & & @ o O O O O O O O O O O O O O O o - - - ",
"* 2 5 5 5 2 8 2 8 8 5 5 5 2 & & o o o o O O O O O O O O O O O O O O O O O O O O o & & & o o o o O O O O O O O O O O O O X - @ - ",
"2 5 5 5 8 2 5 5 5 2 2 8 5 5 * & - @ o @ O O O O O O O O O O O O O O O O O O O O @ & & - o + o o O O O O O O O o O O O O X X @ - ",
"5 5 5 5 5 5 2 5 8 k k k l l l l l l l l l l l l l l O O O O O O O O O O O O z z l l l l l l l l l l l l 0 9 9 - & o @ o o o - ; ",
"5 5 5 5 5 5 0 l l l l l l l l l l l l l l l l l l l O o O O O o O O O O O O z z l l l l l l l k l l l k z z l k z - o o O @ - 8 ",
"5 5 5 5 5 0 l l 8 + o o                   .         O o O O O X O O o O O O   . . .     . .     . .     o X @ 5 z z 5 o @ - ; 8 ",
"5 5 5 5 8 l l +                             : 4 C C H Z H C H H Z J C Z J J C C j 4       .     . .             @ z 0 - @ - - 5 ",
"5 5 5 5 k l 2                     . o v P =.,.,.,.,.,.,.,.,.,.,.<.,.,.,.,.,.,.,.,.,.-.C . .         . .           - l 0 - @ - 5 ",
"5 5 5 5 k l .                   4 P ,.,.<.<.,.,.,.,.,.,.,.,.,.,.<.,.,.,.,.,.,.,.,.,.,.,.P           .             o l k - - - - ",
"5 5 5 5 l l         + - 5 5 z $.,.,.,.,.<.,.,.,.,.,.,.,.,.,.,.,.,.,.,.,.,.,.,.,.,.,.,.,.<.x & & O o o o . X         k l @ - - - ",
"* 5 8 5 l l         5 5 5 n ;.<.,.,.,.,.,.,.,.,.,.,.,.,.,.,.,.,.,.,.,.,.,.,.,.,.,.,.,.,.<.L - - - o o @ o O         l l - - @ - ",
"* - 5 2 l l .       5 - B <.<.<.,.,.,.,.,.,.,.,.,.,.,.,.,.,.,.,.,.,.,.,.,.,.,.,.,.,.,.5.Z.e.5 - - - o X X O     .   l l X @ @ - ",
"* - * 5 l l . .     8 m <.<.<.<.,.,.,.,.,.,.,.,.,.,.,.,.,.,.,.,.,.,.,.,.,.,.,.,.,.Z.`.{.{._.5 - - - - @ @ O .   .   l l X o o X ",
"o & - - l l         - =.,.,.<.,.,.,.,.,.,.,.,.,.,.,.,.,.,.,.,.,.,.,.,.,.,.,.,.,.T.{.{.{.{._.2 - @ - - - - -         l l O O o o ",
"o o & - l k         M ,.,.,.,.,.,.,.,.,.,.,.,.,.,.,.,.,.,.,.,.,.,.,.,.,.,.,.,.D.{.{.{.{.{.[.- - - - @ - - -         l l O O O O ",
"o o O & l l     . . $.1.,.,.,.,.,.,.,.,.,.,.,.,.<.<.<.<.<.,.,.,.,.,.<.<.<.,.Z.{.{.{.{.{.{.{.- - - - O - - X         l l @ O O O ",
"o + O O l l . . . . ,.,.,.,.,.,.,.,.,.,.,.,.,.,.<.:.<.<.,.,.,.,.,.,.,.<.,.,.'.{.{.{.{.{.{.{.- - @ - - - - O   .     l l X o O O ",
"o O O O l l     . 4 ,.,.,.,.,.,.,.,.,.,.,.,.,.,.<.<.<.<.,.,.,.,.,.,.<.<.,.,.].].].].].].].].n n c - - X O X         0 l O O O O ",
"O O O O l k     . 4 ,.,.,.,.,.,.,.,.,.,.,.,.,.,.<.<.<.2.1.2.4.4.p.i.f.f.p.f.f.f.f.f.f.f.f.a.f.f.a.a.&.V O X         l l O O O O ",
"O O O O l l . .   4 2.,.,.,.,.,.<.<.,.,.,.1.2.4.a.a.f.f.f.f.f.f.f.f.f.f.f.f.f.f.f.f.f.f.f.f.f.f.f.f.f.f.1.J     . . l l O O O O ",
"O O O O l l   .     ,.,.,.,.,.,.1.2.u.f.f.f.f.f.f.f.f.f.f.f.f.f.f.f.f.f.f.f.f.f.f.f.f.f.f.f.f.f.f.f.f.f.f.a.    .   l l O O O O ",
"O O O O l l         *.,.1.4.i.f.f.f.f.f.f.f.f.f.f.f.f.f.f.f.f.f.f.f.f.f.f.f.f.f.f.f.f.f.f.f.f.f.f.f.f.f.f.:..       l l O O O O ",
"O O O o l k         *.a.f.f.f.f.f.f.f.f.f.f.f.f.f.f.f.f.f.f.f.f.f.f.f.f.f.f.f.f.f.f.f.f.f.f.u.=.=.=.=.P P - .       l l O O O O ",
"O O O O l l   .     %.f.f.f.f.f.f.a.a.f.a.f.f.f.f.f.f.f.f.f.k.A.A.A.P.I.I.I.U.W.W.W.Q.).).- @ X O O O O o o . .     l l O O O O ",
"O O O O l l . .     5 8.>.>.>.>.>.e.7.7.7.6.R R R 9.).).).).).).).).).).).).).).).).).).).- - O O O O O o O .       l l O O O O ",
"O O O O O O O O o X - F F F F F F F F F F F F F F b.).).).).).).).).).).).).).).).).).).).- O X O O O O O O O O O o O O O O O O ",
"O O O O O O O O o @ - F F F F F F F F F F F F F F ~.).).).).).).E.Y F G.).).).).).).).).).- - X O O O O O O O O o o O O O O O O ",
"O O O O O O o o @ - - F F F F F F F { J.).).).J.n.).).).).).).).} F F T ).).).).).).).).).- - o O o O O O O O O O O O O O O O O ",
"O O O O O O o o @ - @ F F F F F F F ~.).).).).).).).).).).).).).F F F F ).).).).).).).).).@ - - @ o O O O O O O O O O O O O O O ",
"O O O O O O O @ @ @ - S F F F F F R.).).).).).).).).).).).).).).F F F F ).).).).).).).).).O @ - - X O O O O O O O O O O O O O O ",
"O O O O O O & - - - - A F F F F F ).).).).).).).).).).).).).).).| F F { ).).).).).).).).).F.c.N - - @ O O O O O O O O O O O O O ",
"O O O O X o - @ @ * - A F F F F F ).).).).).).).).).).).).).).)./.T F J.).).).).).).).).).).).c.- - + X O O O O O O O O O O O O ",
"O O O O @ @ - - - * & y F F F F F G.).).).).).).).).).).).).).).).).).).).~.M.| } } Y | E.).).).- - - - o X O O O O O O O O O O ",
"O O X @ - - @ - - @ 2 y F F F F F Y ~.).).).).).).).).).).).).).).).).).H.F F F F F F F T )./.w.- - - - - o o o O O O O O O O O ",
"O O o @ - - - - - - : t F F F F v.J.).).).).).).).).).).).).).).).).).J.F F F F F F F F F w - - - - - o - - o X O O O O O O O O ",
"O O - - - - @ @ @ & o p m.m.J.).).).).).).).).).).).).).).).).).).).).T F F F F F F F F F y * * o - - - - - & o O O O O O O O O ",
"- - - - & - - - o o o N ).).).).).).).).).).).).).).).).).).).).).).).Y F F F F F F F F F y - * 2 - 5 - + - - - O O O o O O O O ",
"- - @ - z z       . o o F.).).).).).).).).).).).).).).).).).).).).).).~.m.} F F F F F D d 5 * 5 5 5 5 5 - -       . z z X o O - ",
"- - O - z z       . O O , R.).).).).).).).).).).).).).).).).).).).).).).).).).).).).^.j.5 2 5 5 5 5 5 5 5 5     . . z z - - - - ",
"- O - - 0 l   .     o o o / +.+.+.+.+.l.l.l.k.A.A.A.A.n.+.+.+.+.B.A.A.A.A.A.A.A.A.A.g.f.I 5 5 5 5 5 5 5 5 5         z z - & - - ",
"- - O - k l   .     o o # [ [ [ [ [ | f.f.f.f.f.f.f.f.s.[ [ [ [ o.t.f.s.f.f.f.f.f.f.f.f.i.5 5 5 5 5 5 5 5 5         z z - - - @ ",
"- O - - z z     . . o + d [ [ [ [ [ q.f.f.f.g.A.A.g.f.f. .[ [ [ [ [ z.f.f.f.f.f.f.f.f.f.f.n 5 5 5 5 5 5 5 5         z z - - - o ",
"- - - - z z     . . o o W [ [ [ [ [ r.f.S.W.).).).).Y.h.0.[ [ [ [ [ [ o.q.f.f.f.f.f.f.f.a.K 5 5 5 5 5 5 5 5         z z O - - - ",
"- - O - z z         o o ( [ [ [ [ [ r.I.).).).).).).).^.y.[ [ [ [ [ [ [ [ [  .0.r.f.f.f.f.I 5 5 5 5 5 5 5 5         l l - - - O ",
"- - - - z z         o o ( [ [ [ [ [ N.).).).).).).).).).H.[ [ [ [ [ [ [ [ [ [ [ [ [ [ [ [ h 5 5 5 5 5 5 5 5         l l - - - - ",
"o - - - z z     . . @ o ( [ [ [ [ [ V.).).).).).).).).).L.[ [ [ [ [ [ [ [ [ [ [ [ [ [ [ [ G 4 5 5 5 5 5 5 5         l l - - - - ",
"- - - - z z     . . o * ( [ [ [ [ [ K.).).).).).).).).).K.[ [ [ [ [ [ [ [ [ [ [ [ [ [ [ [ G 5 5 5 5 5 5 5 5         0 9 - - O - ",
"- - - - z z         O O ~ [ [ [ [ [ L.).).).).).).).).).O.[ [ [ [ [ [ [ [ [ [ [ [ [ [ [ [ h 5 5 5 5 5 5 5 5         z z - - - - ",
"- O O - z z         O O f [ [ [ [ [ K.(.).).).).).).).X.g g ! ' [ [ [ [ [ [ [ [ [ [ [ [ [ u 5 5 5 5 5 5 5 5         z z - - - O ",
"- - - - z z         X X e [ [ [ [ [ O.).).).).).).).E i a a a a _ [ [ [ [ [ [ [ [ [ [ [ [ t 5 5 5 5 5 5 5 5         z z - 5 5 5 ",
"- - - - z z         - O O _ [ [ [ [ [ @.(.).).!.x.U a a a a a a d ` [ [ [ [ [ [ [ [ [ [ ^ 8 5 5 5 5 5 5 5 5         z z 5 5 5 5 ",
"5 - ; - z z         - @ - 1 ) [ [ [ [ [ [ [ s a i a a a a a a a i h ] [ [ [ [ [ [ [ [ Q : ; 5 5 5 5 5 5 5 5       X z z 5 5 5 5 ",
"8 5 6 - z z .       X * - - & o - : - - - > a a a a a a a a a a i a 2 - & & & & - * & & - - ; 5 5 5 5 5 8 O         z z 5 5 5 5 ",
"5 8 5 5 0 z O                             o a a a a a a a a a a a i - - & &                                       o z 0 5 5 5 5 ",
"8 ; 8 5 9 z 5                               r a a a a a a a a a a < . o & &                                       5 z 9 5 5 5 5 ",
"5 5 5 2 5 l z +                 .             $ r i a a a i i 1 > o X X - -   .             .           . . .   O z l 5 8 5 5 5 ",
"5 5 5 5 2 5 z z -   .           .                 . O O X - o O X o - X X X   .   .         . .           . X - z z 0 5 5 5 5 5 ",
"5 5 2 2 - - 5 z z z z z z z z z l l l l z z z z k l O O X o O O X X X X X - k l z z z z 0 z z z l l z z l z l l z 9 5 5 5 5 5 5 ",
"5 5 - - - - - - 9 z z z z z z z l l l l z z z z l l O O O O O O - X - X X X l l z z z z z z z z l l z z z z l 5 - - - 5 5 5 5 5 ",
"5 - - - - - & @ - - - @ - - @ - - X X O O O O O X O O O O O O O O O O O X X X o - - - O @ - - - - @ o o O O O O - - - - 5 5 5 5 ",
"2 * - - - - & * @ @ - - & - @ - - O O O O O O O O O O O O O O O O O O O - X O o X - - - - - @ - X o O O O O O O X O @ - - 5 5 5 ",
"- - - + - - - 5 - - - - @ - - - O O O O O O O O O O O O O O O O O O O O O O O O O - - - - @ - X O O O O O O O O O O - - - - - - ",
"o - - - - 5 5 5 5 5 - - - - - o O O O O O O O O O O O O O O O O O O O O O O O O X O @ @ - - @ O O O O O O O O O O O X - O - - - "
};
