/* XPM */
static char *img_ps_ls[] = {
/* columns rows colors chars-per-pixel */
"64 64 210 2 ",
"   c gray20",
".  c #353636",
"X  c #3E3433",
"o  c #373839",
"O  c #3C3F3F",
"+  c #603935",
"@  c #6B3A35",
"#  c #694C39",
"$  c #69503E",
"%  c #3F4344",
"&  c #4C4842",
"*  c #444B4C",
"=  c #535D5F",
"-  c #6A5443",
";  c #6B5C4E",
":  c #725540",
">  c #7B5E48",
",  c #5A6C47",
"<  c #6D6054",
"1  c #536061",
"2  c #566466",
"3  c #5E7976",
"4  c #5B7D75",
"5  c #6F6C63",
"6  c #6F6D64",
"7  c #7F7362",
"8  c #617072",
"9  c #627577",
"0  c #647577",
"q  c #647779",
"w  c #667A7C",
"e  c #697D7F",
"r  c #717873",
"t  c #757974",
"y  c #813D36",
"u  c #BA4539",
"i  c #C5473A",
"p  c #D0483A",
"a  c #DB543F",
"s  c #E74C3C",
"d  c #85674F",
"f  c #8E7157",
"g  c #977A5E",
"h  c #AD744C",
"j  c #A17C4F",
"k  c #B4675F",
"l  c #8A7562",
"z  c #B86B64",
"x  c #BB6F67",
"c  c #B2716A",
"v  c #B5756F",
"b  c #A47975",
"n  c #CF5C42",
"m  c #D2584C",
"M  c #D3594D",
"N  c #CC5E53",
"B  c #C56359",
"V  c #EB6751",
"C  c #ED7159",
"Z  c #EE7A60",
"A  c #3E9A6A",
"S  c #2BAC62",
"D  c #2FA964",
"F  c #2DAE64",
"G  c #32AC67",
"H  c #3CAC63",
"J  c #28B162",
"K  c #28B262",
"L  c #29B765",
"P  c #29B966",
"I  c #2ABB67",
"U  c #2ABC68",
"Y  c #2BBE69",
"T  c #35B56B",
"R  c #3EB675",
"E  c #4F8451",
"W  c #4B8C55",
"Q  c #449C5C",
"!  c #76875D",
"~  c #7E9459",
"^  c #739C5D",
"/  c #45936D",
"(  c #578073",
")  c #548472",
"_  c #508870",
"`  c #4F9E78",
"'  c #589A7E",
"]  c #5CAC63",
"[  c #41A772",
"{  c #52A17C",
"}  c #53A37D",
"|  c #50A87E",
" . c #48B47B",
".. c #45B97B",
"X. c #41BE7A",
"o. c #67A460",
"O. c #69AD67",
"+. c #2BC06A",
"@. c #2CC36C",
"#. c #2CC56D",
"$. c #2DC86F",
"%. c #39C46D",
"&. c #2ECC71",
"*. c #38C575",
"=. c #32C872",
"-. c #3BCD75",
";. c #3DC178",
":. c #48CE79",
">. c #59CC7E",
",. c #6DC97D",
"<. c #968453",
"1. c #998972",
"2. c #A18366",
"3. c #AA8C6D",
"4. c #B39969",
"5. c #B49675",
"6. c #BD9F7C",
"7. c #8FA76C",
"8. c #9CA970",
"9. c #E59472",
"0. c #6B8082",
"q. c #6C8183",
"w. c #6F8385",
"e. c #708688",
"r. c #72888B",
"t. c #758C8E",
"y. c #758D8F",
"u. c #7E8B8B",
"i. c #639C87",
"p. c #679889",
"a. c #70908D",
"s. c #768E90",
"d. c #778E91",
"f. c #778F91",
"g. c #788F92",
"h. c #6F9E91",
"j. c #789092",
"k. c #7A9294",
"l. c #7C9396",
"z. c #7C9497",
"x. c #7C9597",
"c. c #789896",
"v. c #7D9598",
"b. c #7F979A",
"n. c #7F989A",
"m. c #7F989B",
"M. c #54AF83",
"N. c #5BAD87",
"B. c #56B184",
"V. c #59B589",
"C. c #5FB28C",
"Z. c #61A488",
"A. c #67BB8E",
"S. c #6DA391",
"D. c #74A798",
"F. c #79A199",
"G. c #5DC489",
"H. c #62D181",
"J. c #6FD285",
"K. c #78CE9C",
"L. c #878889",
"P. c #918887",
"I. c #9C8A88",
"U. c #8B958F",
"Y. c #849092",
"T. c #869793",
"R. c #80999B",
"E. c #859A9A",
"W. c #80999C",
"Q. c #819A9D",
"!. c #829C9F",
"~. c #839C9F",
"^. c #909494",
"/. c #95A49D",
"(. c #BAB69F",
"). c #849EA1",
"_. c #859FA2",
"`. c #86A0A3",
"'. c #87A2A4",
"]. c #88A3A5",
"[. c #89A4A6",
"{. c #C6A884",
"}. c #D0B18B",
"|. c #D9BB93",
" X c #F6A885",
".X c #F9BB93",
"XX c #89D48D",
"oX c #96D691",
"OX c #B0D899",
"+X c #BDD99D",
"@X c #93D8B0",
"#X c #E2C49A",
"$X c #CBC1A3",
"%X c #DDCCA9",
"&X c #CADBA1",
"*X c #D7DCA5",
"=X c #E5CAA1",
"-X c #ECCDA2",
";X c #EFD7AD",
":X c #E4DDA9",
">X c #F5D6A9",
",X c #FDD6A9",
"<X c #F6DBAE",
"1X c #FFE0B1",
"2X c #AEE1C4",
"3X c #BBE6CD",
"4X c #CAF2DB",
"5X c #E0E7E7",
"6X c #F0F3F3",
"7X c white",
/* pixels */
"t.t.t.x.).).).).).).).Q.t.t.t.s.v.n.k.m.k.b.v.v.v.v.v.v.v.v.v.v.v.v.v.v.v.v.v.v.v.g.s.t.t.k.b.l.l.l.b.v.b.z.b.b.z.z.b.k.s.t.t.t.",
"t.s.Q.).).).).).).).).).!.t.t.t.k.n.m.k.k.b.v.v.v.v.v.v.v.v.v.v.v.v.v.v.v.v.v.v.v.t.t.t.g.v.l.l.b.v.b.z.k.b.z.z.z.b.z.z.k.t.t.t.",
"t.Q.).).).).).).).).).).).Q.t.t.f.v.v.v.b.k.m.v.v.v.v.v.v.v.v.v.v.v.v.v.v.v.v.v.k.s.s.s.l.v.k.R.z.b.z.z.b.v.b.l.z.z.b.b.z.s.t.t.",
"Q.).).).).).).).).).).).).).v.t.t.v.n.v.v.v.v.v.v.v.v.v.v.v.v.v.v.v.v.v.v.v.v.v.s.t.t.s.W.l.W.l.z.z.z.b.k.b.l.b.b.z.z.z.v.k.t.t.",
").).).).).).).).`.'.'.'.[.[.[.[.[.[.[.[.[.[.[.[.[.'.v.v.v.v.v.v.v.v.v.v.v.v.[.[.[.[.[.[.[.[.[.[.'.[.[.[._.'.).).b.z.b.v.l.k.s.Q.",
").).).).).).`.[.[.[.[.[.[.[.[.[.[.[.[.[.[.[.[.[.[.[.v.v.v.v.z.v.v.v.v.v.v.v.[.[.[.[.[.[.[.[.[.'.[.[.[.[.'.[.'.[.'.).z.l.v.g.k.).",
").).).).).`.[.[.n.e.0.0.9 9 9 9 9 9 9 9 9 9 8 9 9 9 b.b.v.Q.z.n.v.v.Q.k.v.k.9 9 9 9 9 9 9 9 9 9 9 9 9 9 q.q.e.m.[.[.).v.k.t.m.).",
").).).).`.[.[.e.9 9 9 9 9 9 9 9 9 9 9 9 9 9 4 ) / / { { { { { { } { } { { ` / / ) ) 9 9 9 9 9 9 9 9 9 9 9 9 9 9 e.[.[.v.s.s.b.).",
").).).).'.[.k.9 9 9 9 9 9 9 9 9 3 8 3 _ A D J J J J J J J J J J K K S J J J J J J J S / 9 9 9 9 9 9 9 9 9 9 9 9 9 k.[.Q.s.t.s.).",
").).).).[.[.e 9 9 9 9 9 9 9 9 9 4 A K K K K J J J J J J J J J J K K J J J J J J J J J J A 8 9 9 9 9 9 q 9 9 9 9 9 e [._.s.t.t.Q.",
"Q.).).).'.[.9 9 9 9 t.x.).).F.[ J J J J J J J J J J J J J J J J J J J J J J J J J J J J J h.s.s.k.v.b.v.s.e.9 9 9 9 [.[.t.t.t.s.",
"k.).).).[.[.9 9 9 9 ).).).S.F K J J J J J J J J J J J J J J J J J J J J J J J J J J J J J M.v.s.s.k.l.l.b.l.9 9 9 9 [.[.t.t.t.t.",
"t.k.).).[.[.9 9 9 9 ).).Z.K S K J J J J J J J J J J J J J J J J J J J J J J J J J J K T G.A.).k.s.t.g.l.z.z.9 9 9 9 [.[.k.k.g.s.",
"t.t.k.).[.[.9 9 9 9 ).S.K K K K J J J J J J J J J J J J J J J J J J J J J J J J J G.2X7X7X5X).k.t.t.s.g.s.s.9 9 9 9 [.[.z.v.l.l.",
"l.s.s.v.[.[.9 9 9 9 m.G J J K K J J J J J J J J J J J J J J J J J J J J J J J J @X7X7X7X7X5X).s.t.t.t.t.t.t.9 9 9 9 [.[.z.z.l.b.",
"v.k.s.s.[.'.9 9 9 9 ' J J J J J J J J J J J J J J J J J J J J J J J J J J J J K.7X7X7X7X7X6Xk.t.t.t.t.t.s.s.9 9 9 9 [.'.b.b.z.v.",
"W.k.l.s.[.[.9 9 9 9 H J J J J J J J J J J J J J K K K J J J K J J J J J J J G.7X7X7X7X7X7X7Xt.s.t.t.t.t.t.k.9 9 9 9 [.[.v.l.l.W.",
"l.R.b.k.[.[.9 9 9 3 S J J J J J J J J J J J J J K K K J J J K K J J J J J S 3X7X7X7X7X7X7X7Xt.s.t.t.t.t.k.l.9 9 9 9 [.[.l.W.l.l.",
"v.l.R.b.[.[.9 9 9 4 J J J J J J J J J J J J J J K K K K J K K K J J J J J J 4X4X4X4X4X4X4X4Xi.i.p.s.t.g.k.W.9 9 9 9 [.[.b.v.b.l.",
"k.W.l.l.[.[.9 9 9 ) J J J J J J J J J J J J J J K K K P L P Y +.#.@.&.&.&.&.&.&.&.&.&.&.&.&.&.&.&.&...Z.v.R.9 9 9 9 [.[.z.l.b.v.",
"b.z.z.z.[.[.9 9 9 ) J J J J J J J J J J J L U Y $.$.&.&.&.&.&.&.&.&.&.&.&.&.&.&.&.&.&.&.&.&.&.&.&.&.&.&.*.N.9 9 9 9 [.[.z.z.b.z.",
"z.z.b.b.[.[.9 9 9 9 J J J J J J L U @.$.&.&.&.&.&.&.&.&.&.&.&.&.&.&.&.&.&.&.&.&.&.&.&.&.&.&.&.&.&.&.&.&.&.&.9 9 9 9 [.[.b.z.b.z.",
"z.b.z.z.[.[.9 9 9 9 G J L U @.&.&.&.&.&.&.&.&.&.&.&.&.&.&.&.&.&.&.&.&.&.&.&.&.&.&.&.&.&.&.&.&.&.&.&.&.&.&.;.9 9 9 9 [.[.z.b.z.z.",
"z.z.b.z.[.[.9 9 9 9 R &.&.&.&.&.&.&.&.&.&.&.&.&.&.&.&.&.&.&.&.&.&.&.&.&.&.&.&.&.&.&.&.&.&.&.=.X.X.X.X.M.B.c.9 9 9 9 [.'.z.z.z.b.",
"b.b.z.z.[.[.9 9 9 9  .&.&.&.&.&.&.$.=.&.&.&.&.&.&.&.&.&.&.&.G.G.H.H.XXoXoXoXOX&X&X&X*X1X1Xt.s.l.b.z.z.z.z.z.9 9 9 9 [.[.b.z.z.b.",
"z.z.z.b.[.[.9 9 9 9 s.Q H H H H H H W W W E , , , ! 1X1X1X1X1X1X1X1X1X1X1X1X1X1X1X1X1X1X1Xt.g.b.z.z.b.b.b.b.9 9 9 9 [.'.v.b.z.z.",
"z.z.z.b.z.z.b.z.v.k.s.# # # # # # # # # # # # # # 3.1X1X1X1X1X1X1X1X1X1X1X1X1X1X1X1X1X1X1Xt.s.l.z.b.z.z.z.z.z.z.b.z.z.z.b.z.b.z.",
"b.b.z.z.b.z.z.z.l.s.t.# # # # # # # # # # # # # # -X1X1X1X1X1X1X#X: # {.1X1X1X1X1X1X1X1X1Xt.t.s.z.z.b.z.z.b.b.z.v.b.b.z.z.z.b.z.",
"z.z.b.z.z.b.z.b.k.s.t.# # # # # # # d |.1X1X1X|.5.1X1X1X1X1X1X1Xf # # > 1X1X1X1X1X1X1X1X1Xt.s.s.b.z.z.b.z.b.z.z.z.b.b.z.z.z.b.z.",
"z.b.z.z.z.z.z.z.s.s.t.# # # # # # : -X1X1X1X1X1X1X1X1X1X1X1X1X1X# # # # 1X1X1X1X1X1X1X1X1Xt.t.t.g.b.z.z.z.b.z.b.z.z.z.z.b.z.b.z.",
"z.z.b.b.b.b.z.s.s.t.t.- # # # # # |.1X1X1X1X1X1X1X1X1X1X1X1X1X1X# # # # 1X1X1X1X1X1X1X1X1Xs.t.t.s.k.b.z.z.z.b.z.b.z.z.b.z.b.z.z.",
"b.z.z.z.z.z.s.s.t.t.t.; # # # # # 1X1X1X1X1X1X1X1X1X1X1X1X1X1X1Xg # # d 1X1X1X1X1X1X1X1X1X%X$XT.s.s.k.z.b.z.z.z.b.z.z.b.z.z.z.b.",
"b.k.b.l.v.s.t.t.t.t.t.; # # # # # 1X1X1X1X1X1X1X1X1X1X1X1X1X1X1X>X> # |.1X1X1X1X1X1X1X1X1X1X1X$Xt.t.t.c.Q.l.l.l.b.v.v.v.v.v.v.v.",
"l.b.l.b.g.t.t.t.t.t.t.5 # # # # # {.1X1X1X1X1X1X1X1X1X1X1X1X1X1X1X1X1X1X1X-X6.g f f : g #X1X1X1Xt.t.t.t.k.v.b.v.v.z.v.v.v.v.v.v.",
"b.v.l.g.s.s.t.t.t.t.s.5 # # # # # : -X1X1X1X1X1X1X1X1X1X1X1X1X1X1X1X1X1X}.# # # # # # # > 1X<X(.t.t.t.t.s.k.l.l.v.v.v.v.v.v.v.v.",
"b.z.g.t.t.t.t.t.t.t.k.t # # # : 2.|.1X1X1X1X1X1X1X1X1X1X1X1X1X1X1X1X1X|.# # # # # # # # # r t.t.t.t.t.t.t.s.k.R.v.v.v.v.v.v.v.v.",
"k.s.s.t.t.t.t.t.t.g.b.U.5.5.|.1X1X1X1X1X1X1X1X1X1X1X1X1X1X1X1X1X1X1X1X> # # # # # # # # # 6 t.t.t.t.t.t.t.t.t.k.b.z.z.v.v.v.v.v.",
"s.s.t.t.s.s.t.t.s.b.l./.1X1X1X1X1X1X1X1X1X1X1X1X1X1X1X1X1X1X1X1X1X1X1X: # # # # # # # # # 6 t.s.v.Q.R.W.t.t.t.s.g.z.b.b.v.v.z.v.",
"t.t.t.t.[.[.9 9 9 9 b.l.%X1X1X1X1X1X1X1X1X1X1X1X1X1X1X1X1X1X1X1X1X1X1X-X5.f # # # # # $ < e.k.).).).).).v.s.9 9 9 9 [.[.l.l.s.s.",
"t.t.t.t.[.[.9 9 9 9 k.b.E.;X1X1X1X1X1X1X1X1X1X1X1X1X1X1X1X1X1X1X1X1X1X1X1X1X1X1X1X1X:X>.t.l.).).).).).).).Q.9 9 9 9 '.[.s.t.t.s.",
"t.t.t.t.'.[.9 9 9 9 b.b.z.x C C C C C ,.H.H.H.H.H.H.H.4.C C C C 8.H.H.H.H.H.H.H.H.H.-.&.M.).).).).).).).).).9 9 9 9 [.[.s.t.t.t.",
"t.t.t.t.'.[.9 9 9 9 v.z.Y.s s s s s j &.&.&.&.&.&.&.&.%.s s s s n o.=.=.&.&.&.&.&.&.&.&.$.).).).).).).).).).9 9 9 9 [.[.s.t.t.t.",
"t.t.t.t.[.[.9 9 9 9 l.W.b s s s s s ^ &.&.&.-.H.H.-.&.&.h s s s s s <.$.&.&.&.&.&.&.&.&.&.D.).).).).).).).).9 9 9 9 [.[.t.t.t.t.",
"t.t.t.t.[.[.9 9 9 9 l.l.z s s s s s ] &.J.&X1X1X1X1X+X:.~ s s s s s s n ^ &.&.&.&.&.&.&.$.A.).).).).).).).).9 9 9 9 [.[.t.t.t.t.",
"t.t.t.t.[.[.9 9 9 9 v.l.N s s s s s ] oX1X1X1X1X1X1X1X:XO.s s s s s s s s s h ~ ] &.&.&.&.V.).).).).).).).).9 9 9 9 [.[.t.t.t.t.",
"t.t.t.t.[.[.9 9 9 9 l.W.N s s s s s 7.1X1X1X1X1X1X1X1X1X}.s s s s s s s s s s s s s s s s v ).).).).).).).).9 9 9 9 [.[.t.t.t.t.",
"t.t.t.t.[.[.9 9 9 9 R.v.N s s s s s 9.1X1X1X1X1X1X1X1X1X.Xs s s s s s s s s s s s s s s s v ).).).).).).).).9 9 9 9 [.[.t.t.t.t.",
"t.t.s.s.[.[.9 9 9 9 k.v.N s s s s s  X1X1X1X1X1X1X1X1X1X Xs s s s s s s s s s s s s s s s v ).).).).).).).).9 9 9 9 '.'.t.t.t.t.",
"t.t.t.t.[.[.9 9 9 9 l.l.B s s s s s .X1X1X1X1X1X1X1X1X1XV s s s s s s s s s s s s s s s s v ).).).).).).).).9 9 9 9 [.[.s.t.t.t.",
"t.t.t.t.[.[.9 9 9 9 v.l.c s s s s s  X,X1X1X1X1X1X1X1Xl + + y p s s s s s s s s s s s s s I.).).).).).).).).9 9 9 9 [.[.s.s.s.s.",
"k.t.t.t.[.[.9 9 9 9 v.R.P.s s s s s V 1X1X1X1X1X1X1X7           u s s s s s s s s s s s s ^.).).).).).).).).9 9 9 9 [.[.b.).).).",
").z.t.t.[.[.9 9 9 9 s.k.W.M s s s s s Z ,X1X1X=X1.&             X i s s s s s s s s s s x ).).).).).).).).).9 9 9 9 [.[.).).).).",
").).W.t.[.'.9 9 9 9 t.t.s.L.m s s s s s s s X                     @ s s s s s s s s s k u.).).).).).).).).).9 9 9 9 [.[.).).).).",
").).).v.[.[.q 9 9 9 e t.s.t.t.t.t.t.t.t.s.9                         t.t.t.t.t.t.t.t.t.t.t.s.Q.).).).).).).r.9 9 9 9 [.[.).).).).",
").).).).[.[.e 9 9 9 9 9 9 9 9 9 9 9 9 9 9 2                       o s.s.t.t.9 9 9 9 8 9 9 9 9 9 9 9 9 9 9 9 9 9 9 q.[.'.).).).).",
").).).).'.'.W.9 9 9 9 9 9 9 9 9 9 9 9 9 9 9 % .                   8 W.s.s.s.9 9 9 9 9 9 9 9 9 9 9 9 9 9 9 9 9 9 9 b.[.).).).).).",
").).).).Q.[.[.e.9 9 9 9 9 9 9 9 9 9 9 9 9 9 9 = * o         O = q.l.z.z.s.s.q 8 9 9 9 9 9 9 9 9 9 9 9 9 9 9 9 9 e.[.[.).).).).).",
").).).).v.Q.[.[.s.w 9 9 9 9 9 9 9 9 9 9 9 9 9 9 8 9 v.l.m.z.v.l.l.v.v.m.Q.g.9 9 9 q 9 9 9 9 9 q 9 9 9 9 9 9 w s.[.[._.).).).).).",
").).).m.t.t.Q.[.[.[.[.[.[.[.[.[.[.[.[.[.[.[.[.[.[.[.z.m.l.v.z.m.Q.l.Q.z.m.v.[.[.[.[.[.'.[.[.[.[.[.[.[.[.[.[.[.[.[.).).).).).).).",
").).v.t.t.t.t.k.).[.[.[.[.[.[.[.[.[.[.[.[.[.[.[.[.[.v.l.m.z.v.l.l.v.l.v.v.v.[.[.[.[.[.[.'.[.[.[.[.[.[.[.[.[.[.).k.s.v.).).).).).",
").k.t.t.t.t.t.t.t.t.t.t.s.t.t.t.s.l.v.v.v.v.v.v.v.v.v.v.z.m.l.m.l.v.l.v.z.v.k.v.s.s.t.t.t.t.t.t.s.g.W.l.v.v.v.k.t.t.t.l.).).).).",
"k.t.t.t.t.t.t.t.t.t.t.t.t.t.t.t.s.v.z.z.v.v.v.v.v.v.v.v.v.l.v.z.Q.k.Q.k.z.m.m.v.s.s.t.t.t.t.t.s.k.v.b.l.v.v.v.v.v.t.t.t.k.).).).",
"t.t.t.t.t.g.v.Q.Q.l.s.t.t.t.t.t.v.v.v.v.v.v.v.v.v.v.v.v.z.m.v.l.z.z.l.Q.l.v.v.k.v.s.t.t.t.t.s.k.v.v.v.l.Q.l.R.k.v.k.t.t.t.t.g.s.",
"t.t.t.t.k.Q.).).).).Q.t.t.t.t.g.v.v.v.v.v.v.v.v.v.v.v.v.v.l.m.l.m.z.v.k.Q.k.Q.v.l.g.t.t.t.t.k.v.v.z.v.b.k.v.l.v.v.W.R.t.t.t.t.s."
};
