/* XPM */
static char *img_p_bl[] = {
/* columns rows colors chars-per-pixel */
"64 64 181 2 ",
"   c gray20",
".  c #3E3433",
"X  c #373839",
"o  c #3B3E3E",
"O  c #4E3B3A",
"+  c #593733",
"@  c #6C3933",
"#  c #5C5C3F",
"$  c #694C39",
"%  c #64513B",
"&  c #6A503F",
"*  c #43494A",
"=  c #4A5253",
"-  c #4B5454",
";  c #4E5758",
":  c #765A44",
">  c #7B5E48",
",  c #586543",
"<  c #546B45",
"1  c #46794A",
"2  c #7D6149",
"3  c #6A6559",
"4  c #545F60",
"5  c #5C6B6C",
"6  c #617072",
"7  c #647577",
"8  c #687B7D",
"9  c #6A7C7E",
"0  c #803D36",
"q  c #8D3F37",
"w  c #9C463D",
"e  c #BA4539",
"r  c #BD4438",
"t  c #CD4335",
"y  c #D04435",
"u  c #D34536",
"i  c #D84638",
"p  c #DA4738",
"a  c #D0483A",
"s  c #DD4839",
"d  c #DB543F",
"f  c #E0493A",
"g  c #E74C3C",
"h  c #84684F",
"j  c #8E7157",
"k  c #A17C4F",
"l  c #AE6C65",
"z  c #B16F69",
"x  c #CF5C42",
"c  c #D35644",
"v  c #E05041",
"b  c #E85543",
"n  c #C46445",
"m  c #C36056",
"M  c #CB6C57",
"N  c #EB6751",
"B  c #ED7159",
"V  c #EC7960",
"C  c #EE7A60",
"Z  c #24A65B",
"A  c #2CAA5F",
"S  c #2FA462",
"D  c #2CAE64",
"F  c #3CA76D",
"G  c #32AC68",
"H  c #3DA96F",
"J  c #28B162",
"K  c #408B52",
"L  c #739C5D",
"P  c #539C7A",
"I  c #45BC6A",
"U  c #50B467",
"Y  c #40A570",
"T  c #42A873",
"R  c #52A27D",
"E  c #53A37D",
"W  c #53A47E",
"Q  c #4BB77F",
"!  c #67A460",
"~  c #39C46D",
"^  c #2ECC71",
"/  c #33C873",
"(  c #33C973",
")  c #48CE79",
"_  c #8A8C56",
"`  c #A38557",
"'  c #A18366",
"]  c #AA8C6D",
"[  c #B49675",
"{  c #88AF7B",
"}  c #90B173",
"|  c #E48B6B",
" . c #F18C6F",
".. c #E99B7A",
"X. c #F39676",
"o. c #5D9880",
"O. c #5D9F83",
"+. c #758C8E",
"@. c #768D8F",
"#. c #669386",
"$. c #619A85",
"%. c #669987",
"&. c #6C9189",
"*. c #768E90",
"=. c #778E91",
"-. c #788F92",
";. c #798F92",
":. c #719790",
">. c #789092",
",. c #7A9294",
"<. c #7C9396",
"1. c #7C9497",
"2. c #7C9597",
"3. c #739992",
"4. c #789896",
"5. c #7E9799",
"6. c #7F989B",
"7. c #5CA685",
"8. c #4EBA83",
"9. c #62A589",
"0. c #69A38E",
"q. c #64B080",
"w. c #6EAA95",
"e. c #7EA19F",
"r. c #62D181",
"t. c #6FD285",
"y. c #81928F",
"u. c #87958F",
"i. c #949C8F",
"p. c #8D9C96",
"a. c #8E9D97",
"s. c #80999C",
"d. c #819A9D",
"f. c #829B9E",
"g. c #839C9F",
"h. c #99A296",
"j. c #95A49D",
"k. c #9CA69C",
"l. c #B8AD92",
"z. c #BEB092",
"x. c #BFB092",
"c. c #BAB69F",
"v. c #849EA1",
"b. c #9BABA4",
"n. c #A5ADA0",
"m. c #A2AFA5",
"M. c #AAB3A6",
"N. c #B3B3A0",
"B. c #BEBBA4",
"V. c #C6A884",
"C. c #D0B18B",
"Z. c #C0B294",
"A. c #CFBA97",
"S. c #D7B692",
"D. c #D1BA93",
"F. c #D7BD93",
"G. c #D9BB93",
"H. c #F6A885",
"J. c #C1BFA9",
"K. c #87C191",
"L. c #89C494",
"P. c #E2C49A",
"I. c #EECC9E",
"U. c #F5C299",
"Y. c #D5C8A7",
"T. c #D8CCAC",
"R. c #EBCEA2",
"E. c #FCCDA2",
"W. c #E7D2AC",
"Q. c #E8D3AD",
"!. c #EFD7AD",
"~. c #E4DDA9",
"^. c #F0D2A5",
"/. c #F2D5A7",
"(. c #F5D7A9",
"). c #FBD6A9",
"_. c #F0D8AE",
"`. c #F7DBAF",
"'. c #F1DEAD",
"]. c #F7DCAF",
"[. c #FFE0B1",
/* pixels */
"+.+.+.2.v.v.v.v.v.v.v.d.*.+.+.*.1.1.5.5.1.1.d.,.1.1.1.1.1.1.s.1.s.<.1.1.s.1.s.<.6.+.*.+.+.,.1.5.1.1.1.1.6.5.<.<.1.1.6.-.-.*.*.+.",
"+.*.d.v.v.v.v.v.v.v.v.v.d.*.+.+.1.5.1.1.<.d.1.1.1.d.<.s.1.s.<.1.1.1.<.s.<.1.1.1.1.*.+.+.>.6.1.5.1.6.1.6.1.1.<.6.5.6.<.<.-.-.+.+.",
"+.d.v.v.v.v.v.v.v.v.v.v.v.d.+.+.-.1.<.5.1.,.5.1.s.1.1.1.1.1.1.5.s.1.s.1.1.<.s.<.,.+.+.+.1.1.1.1.6.5.1.1.6.<.6.1.<.<.1.5.<.-.+.+.",
"d.v.v.v.v.v.v.v.v.v.v.v.v.v.2.+.+.<.5.5.1.d.<.6.<.1.<.s.1.s.1.1.<.1.<.1.1.s.1.1.*.+.+.*.1.5.5.1.<.,.5.6.<.<.5.1.<.6.1.6.<.*.+.+.",
"v.v.v.v.v.v.v.v.v.v.v.v.v.v.v.>.+.-.<.<.2.5.6.,.1.1.<.1.1.s.5.1.1.1.1.1.s.1.s.-.+.+.+.>.5.1.1.1.1.1.6.<.1.1.6.<.s.1.s.1.6.-.-.6.",
"v.v.v.v.v.v.v.v.v.v.v.v.v.v.v.d.+.+.-.5.<.<.2.5.<.s.s.1.1.<.1.1.s.1.s.5.<.1.-.+.+.+.+.+.1.1.5.5.5.6.<.<.5.6.<.<.1.1.1.1.<.-.1.v.",
"v.v.v.v.v.v.v.v.v.v.v.v.v.v.v.v.<.+.*.-.5.2.5.1.1.1.s.1.1.5.1.5.<.1.5.1.1.<.-.+.+.+.+.+.-.5.5.1.<.1.1.5.<.<.1.5.1.1.1.6.,.+.v.v.",
"v.v.v.v.v.v.v.v.v.v.v.v.v.v.v.v.2.+.+.&.%.R R R T H F H Y H H H H H H H F F F F 7.W P o.#.1.,.5.<.6.1.6.<.6.1.6.1.s.1.-.*.*.1.v.",
"v.v.v.v.v.v.v.v.v.v.v.v.v.v.v.v.3.P F G J J J J J J J J J J J J D J J J J J J J J J J J D F R 3.1.1.1.1.1.1.<.5.1.1.<.*.+.+.=.v.",
"v.v.v.v.v.v.v.v.v.v.v.v.v.v.v.7.J J D J J J J J J J J J J J J J D J J J J J J J J J J J J J J D R <.s.<.s.5.1.<.s.1.=.+.+.+.+.s.",
"d.v.v.v.v.v.v.v.v.v.v.v.v.v.9.J J J J J J J J J J J J J J J J J J J J J J J J J J J J J J J J J D O.1.s.1.1.s.<.<.=.+.+.+.+.+.+.",
"*.v.v.v.v.v.v.v.v.v.v.v.v.v.G J J J J J J J J J J J J J J J J J J J J J J J J J J J J J J J J J D G 1.<.s.1.1.<.+.+.+.+.+.+.+.+.",
"+.,.v.v.v.v.v.v.v.v.v.v.v.,.J J J J J J J J J J J J J J J J J J J J J J J J J J J J J J J J J J J J >.6.<.<.<.-.+.=.-.-.<.<.-.+.",
"+.+.2.v.v.v.v.v.v.v.v.g.+.+.J J J J J J J J J J J J J J J J J J J J J J J J J J J J J J J J J J J J +.+.-.@.+.+.-.1.s.s.1.1.5.<.",
"<.*.+.5.v.v.v.v.v.v.g.*.+.+.J J J J J J J J J J J J J J J J J J J J J J J J J J J J J J J J J J J J +.+.+.+.=.-.1.1.1.1.1.5.1.1.",
"5.,.*.+.5.g.v.v.v.5.+.+.+.-.J J J J J J J J J J J J J J J J J J J J J J J J J J J J J J J J J J J J +.+.+.=.-.1.<.s.1.s.1.1.1.5.",
"5.<.1.-.*.+.-.-.+.+.+.+.-.1.J J J J J J J J J J J J J J J J J J J J J J J J J J J J J J J J J J J J +.+.+.-.1.1.1.s.<.1.1.1.1.s.",
"5.5.5.1.*.+.+.+.+.+.+.<.1.5.J J J J J J J J J J J J J J J J J J J J J J J J J J J J J J J J J J J J +.+.-.d.s.1.1.1.s.1.s.<.1.<.",
",.1.1.1.<.*.+.+.+.+.-.5.1.1.J J J J J J J J J J J J J J S K , , , , K A J J J J J J J J J J J J J J +.>.1.1.1.,.1.1.1.1.<.s.1.s.",
"1.5.5.1.1.<.*.+.+.+.<.1.5.1.J J J J J J J J J J J J J D < $ $ $ $ $ $ < J J J D J J J J J J J J J D >.5.1.d.1.d.s.1.s.<.1.1.1.<.",
"<.s.<.s.1.1.1.*.+.+.,.1.5.5.Z Z Z Z Z Z Z Z Z Z Z Z Z 1 $ $ $ $ $ $ $ $ 1 Z Z Z Z Z Z Z Z Z Z Z Z Z 2.<.5.2.1.1.<.s.<.s.1.1.1.s.",
"1.1.1.1.1.5.1.1.+.+.+.5.1.5.Z Z Z Z Z Z Z Z Z Z Z Z Z $ $ $ $ $ $ $ $ $ $ Z Z Z Z Z Z Z Z Z Z Z Z Z 5.s.5.<.1.s.1.1.1.1.s.<.1.<.",
"1.s.<.1.<.s.1.d.<.+.+.-.5.1.Z Z Z Z Z Z Z Z Z Z Z Z Z , $ $ $ $ $ $ $ $ , Z Z Z Z Z Z Z Z Z Z Z Z Z 6.>.2.5.,.1.1.s.<.1.<.s.1.s.",
"1.<.s.1.1.1.1.1.1.-.+.+.<.1.S Z Z Z Z Z Z Z Z Z Z Z Z Z Z Z Z Z Z Z Z Z Z Z Z Z Z Z Z Z Z Z Z Z Z S 2.5.<.5.5.1.1.<.s.1.1.1.1.<.",
"1.1.1.s.1.s.<.s.<.-.*.+.+.5.$.Z Z Z Z Z Z Z Z Z Z Z Z Z Z Z Z Z Z Z Z Z Z Z Z Z Z Z Z Z Z Z Z Z Z #.1.1.1.1.1.1.1.s.<.1.1.1.1.s.",
"s.<.1.<.1.<.1.1.1.<.+.+.+.+.,.$ $ $ $ $ $ $ $ $ $ $ $ $ $ $ $ $ $ $ $ $ $ $ $ $ $ $ $ $ $ $ $ $ $ 1.s.1.s.1.s.5.1.<.s.1.s.<.1.<.",
"<.s.1.s.1.s.1.1.<.<.+.+.+.+.+.$ $ $ $ $ $ $ $ $ $ $ $ $ $ $ $ $ $ $ $ $ $ $ $ $ $ $ $ $ $ $ $ $ $ 5.1.s.1.1.1.1.1.1.1.1.<.s.1.s.",
"1.1.1.<.1.<.s.<.1.-.+.+.i.l.Z.$ $ $ $ $ $ $ $ $ $ $ $ $ $ $ $ $ $ $ $ $ $ $ $ $ $ $ $ $ $ $ $ $ $ l.l.h.s.1.5.1.s.<.s.<.1.1.1.<.",
"1.s.<.1.1.s.1.s.<.+.+.u.D.F.F.$ $ $ $ $ $ $ $ $ $ $ $ $ $ $ $ $ $ $ $ $ $ $ $ $ $ $ $ $ $ $ $ $ $ G.G.D.a.5.1.1.<.s.<.s.1.1.1.s.",
"1.<.s.1.1.<.<.<.*.+.*.l.F.F.F.$ $ $ $ $ $ $ $ $ $ $ $ $ $ $ $ $ $ $ $ $ $ $ $ $ $ $ $ $ $ $ $ $ $ G.F.F.Z.1.1.5.1.1.1.1.s.<.1.<.",
"1.1.1.1.1.1.1.-.+.+.+.G.F.F.F.$ $ $ $ $ $ $ $ $ $ $ $ $ $ $ $ $ $ $ $ $ $ $ $ $ $ $ $ $ $ $ $ $ $ F.F.F.G.5.<.s.1.s.<.1.<.s.1.s.",
"s.<.s.<.s.<.-.*.+.+.+.G.F.F.F.2 $ $ $ $ $ $ $ $ $ $ $ $ $ $ $ $ $ $ $ $ $ $ $ $ $ $ $ $ $ $ $ $ : F.F.F.G.1.1.1.1.<.s.1.1.1.1.<.",
"d.<.s.<.<.-.+.+.+.+.+.Z.F.F.F.h $ $ $ $ $ $ $ $ $ $ $ $ $ $ $ $ $ $ $ $ $ $ $ $ $ $ $ $ $ $ $ $ h F.F.F.z.6.5.5.1.1.6.1.1.2.2.2.",
"<.<.<.<.-.+.+.+.+.+.+.u.A.F.F./.P.G.[ j $ $ $ $ $ $ $ $ $ $ $ $ $ $ $ $ $ $ $ $ $ $ $ $ h [ F.P.(.F.F.D.p.1.1.1.1.6.1.1.1.6.2.s.",
"<.2.s.*.*.@.+.+.+.+.+.+.,.Z.F.R.[.[.[.[.[.G.C.] j j > $ $ $ $ $ $ $ $ $ $ & j j ' V.F.(.[.[.[.[.^.F.z.y.*.,.6.1.1.1.1.1.s.2.2.<.",
"<.d.*.+.+.+.+.+.+.+.>.5.2.2.1.N.[.[.[.[.[.[.[.[.[.[.[.[.[.[.[.[.].[.[.[.[.[.[.[.[.[.[.[.[.[.[.[.c.+.+.+.+.*.>.1.1.6.1.6.<.<.2.s.",
"<.-.+.+.+.+.+.+.+.*.s.,.1.5.1.k.[.[.[.[.[.[.[.[.[.[.[.[.[.[.[.[.[.[.[.[.[.[.[.[.[.[.[.[.[.[.[.[.c.+.+.+.+.+.+.1.s.1.s.1.2.,.5.,.",
"*.+.+.+.+.+.+.+.>.s.s.2.5.1.1.j.[.[.[.[.[.[.[.[.[.[.[.[.[.[.[.[.[.[.[.[.[.[.[.[.[.[.[.[.[.[.[.[.j.s.6.2.+.+.+.+.-.1.<.<.<.d.d.1.",
"+.+.+.+.+.+.@.*.2.<.,.2.1.6.,.,.W.[.[.[.[.[.[.[.[.[.[.[.[.[.[.[.[.[.[.[.[.[.[.[.[.[.[.[.[.[.[.Q.v.v.v.v.6.+.>.+.+.*.-.s.1.<.*.*.",
"+.+.+.+.+.+.@.<.s.<.s.2.6.1.0.8.q.E.[.[.[.[.[.[.[.[.[.[.[.[.[.[.[.[.[.[.[.[.[.[.[.[.[.[.[.[.E.{ 8.w.v.v.v.6.+.+.+.+.+.+.*.+.+.+.",
"+.+.+.+.+.+.<.<.1.6.5.6.1.:.^ ^ ^ ` B B B B B B } r.r.r.r.r.r.r.r.r.r.r.r.r.r.} B B B B B B b k ^ ^ w.v.v.v.s.*.+.+.+.+.+.+.+.+.",
"+.+.+.+.+.-.s.<.1.1.<.<.4.( ^ ^ ^ ^ _ g g g g g x ~ ( ^ ^ ^ ^ ^ ^ ^ ^ ^ ^ ^ ~ x g g g g g g g g I ^ ( 6.v.v.v.s.+.+.+.+.+.+.+.+.",
"+.+.+.+.-.2.<.<.<.6.1.<.8.^ ^ ^ r.r.) L d g g g g x U / ^ ^ ^ ^ ^ ^ ^ ^ ^ U x g g g g g g g g g L ^ ^ 8.v.v.v.v.s.-.+.+.+.+.+.+.",
"+.+.+.+.-.<.<.5.<.5.6.<./ ^ t.'.[.[.[.[.I.N g g g g g n ! ~ ^ ^ ^ ^ ~ ! n g g g g g g g g g g g | t./ / v.v.v.v.v.s.+.+.+.+.+.+.",
"+.+.+.+.-.d.<.<.1.1.5.d.^ t.[.[.[.[.[.[.[.E.g g g g g g g g g g g g g g g g g g g g g g g g g g B [.t.^ v.v.v.v.v.v.-.+.+.+.+.+.",
"+.+.+.+.-.<.d.<.5.,.1.1.( ~.[.[.[.[.[.[.[.[.g g g g g g g g g g g g g g g g g g g g g g g g g g B [.~.( v.v.v.v.v.v.v.+.+.+.+.+.",
"+.+.+.+.+.<.,.5.5.5.<.2.K.[.[.[.[.[.[.[.[.[.t u u u g g g g g g g g g g g g u u u u u u s g g g B [.[.L.v.v.v.v.v.v.v.+.+.+.+.+.",
"+.+.+.+.+.+.1.,.<.2.5.5.B.[.[.[.[.[.[.[.[.U.t t t t g g g g g g g g g g g g t t t t t t p g g g B [.].Y.v.v.v.v.v.v.s.+.+.+.+.+.",
"+.+.+.+.+.+.+.<.1.5.1.5.n.[.[.[.[.[.[.[.[...t t t y g g g g g g g g g g g g y t t t t t s g g g V [.[.M.v.v.v.v.v.v.*.*.+.+.+.+.",
"+.+.+.+.+.+.+.+.,.1.1.5.j.[.[.[.[.[.[.[.).c t t t s g g g g g g g g g g g g r @ + + + + 0 a g g ..[.[.b.v.v.v.v.v.-.+.+.+.*.*.*.",
",.+.+.+.+.+.+.+.+.-.<.1.<._.[.[.[.[.[.[.V i y y f g g g g g g g g g g g g q                 e g E.[.!.v.v.v.v.v.5.+.+.+.5.v.v.v.",
"v.5.+.+.+.+.+.+.+.+.*.,.<.b.`.[.[.[.[.H.g g g g g g g v m z z l l l l m w                   . M [.`.m.v.v.v.v.5.*.+.+.5.v.v.v.v.",
"v.v.5.+.+.+.+.+.+.+.+.+.-.-.k.Y.D.S. .g g g g g g g q O 1.1.s.<.+.+.+.+.                      3 T.m.v.v.v.v.5.+.+.+.5.v.v.v.v.v.",
"v.v.v.5.+.+.+.+.+.+.+.+.+.+.+.+.                        8 s.1.1.1.-.+.7                         v.v.v.v.v.,.+.+.+.5.v.v.v.v.v.v.",
"v.v.v.v.1.+.+.+.+.+.+.+.+.+.+.+.                        8 1.1.<.1.1.-.7                         v.v.v.v.,.+.+.+.<.v.v.v.v.v.v.v.",
"v.v.v.v.d.+.+.+.+.+.+.+.+.+.+.+.4                     - -.s.1.s.5.5.<.<.*                     5 ,.1.,.*.*.*.+.+.6.v.v.v.v.v.v.v.",
"v.v.v.v.d.+.+.+.+.+.+.+.+.+.+.+.+.8 4 * o       X ; 6 1.1.1.1.1.1.1.s.<.-.6 - *         o 4 8 +.+.+.+.+.+.+.+.+.d.v.v.v.v.v.v.v.",
"v.v.v.v.2.+.+.+.+.+.+.+.+.+.+.+.+.+.+.-.5.<.s.1.<.s.1.<.s.<.s.<.<.s.1.1.5.-.+.+.+.+.+.+.+.+.+.+.+.+.+.+.+.+.+.+.<.v.v.v.v.v.v.v.",
"v.v.v.5.+.+.+.+.+.+.+.+.+.+.+.+.+.+.-.<.1.1.1.1.1.1.1.s.<.1.1.s.1.<.1.<.<.<.-.+.+.+.+.+.+.+.+.+.+.+.*.*.+.+.*.+.*.5.v.v.v.v.v.v.",
"v.v.5.+.+.+.+.+.+.+.+.+.+.+.+.+.+.+.<.<.1.5.s.<.<.s.1.<.s.1.1.<.1.s.1.s.5.s.1.-.+.+.+.+.+.+.+.+.+.+.-.6.<.<.<.-.+.+.5.v.v.v.v.v.",
"v.<.+.+.+.+.+.+.+.+.+.+.+.+.+.+.+.<.1.s.s.1.s.1.1.<.1.1.1.s.<.s.1.1.1.1.<.<.1.1.+.+.+.+.+.+.+.+.+.-.1.1.1.1.1.-.+.+.+.5.v.v.v.v.",
",.+.+.+.+.+.+.+.+.+.+.+.+.+.+.+.-.<.1.1.<.1.<.1.1.s.<.s.1.<.1.1.s.<.s.<.1.s.s.1.<.+.+.+.+.+.+.+.*.s.1.s.6.1.6.5.,.*.+.+.,.v.v.v.",
"+.+.+.+.+.-.5.d.s.<.-.*.+.+.+.+.<.s.s.1.1.1.s.<.s.1.1.1.1.s.1.1.<.1.1.s.1.1.<.1.1.-.+.+.+.+.-.<.s.1.1.1.1.1.5.1.<.<.*.+.+.*.*.*.",
"+.+.+.+.-.d.v.v.v.v.d.+.+.+.+.-.1.1.<.1.<.s.1.1.<.1.<.s.1.<.s.<.s.1.1.<.s.<.s.1.1.-.+.+.+.+.-.1.1.1.1.s.6.1.1.<.6.<.,.+.+.+.+.*."
};
