/* XPM */
static char *img_pe_bs[] = {
/* columns rows colors chars-per-pixel */
"64 64 163 2 ",
"   c #001A14",
".  c #001B15",
"X  c #001E17",
"o  c #001F18",
"O  c #091E19",
"+  c #002119",
"@  c #00221A",
"#  c #03231B",
"$  c #00241B",
"%  c #00251B",
"&  c #00271D",
"*  c #002A1F",
"=  c #002C1F",
"-  c #052D1E",
";  c #0C2620",
":  c #002C20",
">  c #002E21",
",  c #0C2C23",
"<  c #132320",
"1  c #192623",
"2  c #132823",
"3  c #1F2927",
"4  c #003022",
"5  c #073622",
"6  c #003424",
"7  c #003525",
"8  c #003625",
"9  c #003726",
"0  c #003826",
"q  c #003927",
"w  c #003B28",
"e  c #023D29",
"r  c #003E29",
"t  c #003F29",
"y  c #1A3C2D",
"u  c #262D2B",
"i  c #2C2F2F",
"p  c #2F3130",
"a  c #283F30",
"s  c gray20",
"d  c #463432",
"f  c #73382B",
"g  c #733B2E",
"h  c #004029",
"j  c #00422A",
"k  c #00442C",
"l  c #0B4A2E",
"z  c #0C492C",
"x  c #0B4D30",
"c  c #1F4734",
"v  c #0F5231",
"b  c #0F5734",
"n  c #0B5A37",
"m  c #115C35",
"M  c #284534",
"N  c #2F4636",
"B  c #2F543E",
"V  c #0F633B",
"C  c #14653B",
"Z  c #624937",
"A  c #694C39",
"S  c #64513B",
"D  c #3F5240",
"F  c #3F5F47",
"G  c #435842",
"H  c #4F5D49",
"J  c #725540",
"K  c #765A44",
"L  c #7B5E48",
"P  c #625E51",
"I  c #6E5F51",
"U  c #586543",
"Y  c #546B45",
"T  c #46794A",
"R  c #4F6A50",
"E  c #7D6149",
"W  c #6F775D",
"Q  c #8D3F37",
"!  c #9E3F31",
"~  c #9E4133",
"^  c #AE4439",
"/  c #BA4539",
"(  c #CD4335",
")  c #D14436",
"_  c #D84638",
"`  c #DA4738",
"'  c #D8493A",
"]  c #DD4839",
"[  c #E0493A",
"{  c #E54B3B",
"}  c #E74C3C",
"|  c #85674F",
" . c #84684F",
".. c #8E7157",
"X. c #A17C4F",
"o. c #CF5C42",
"O. c #E85543",
"+. c #C46445",
"@. c #ED7159",
"#. c #E37860",
"$. c #EE7A60",
"%. c #1B8149",
"&. c #1E8B4E",
"*. c #1E8D50",
"=. c #1E8F51",
"-. c #1F9552",
";. c #1C9354",
":. c #358551",
">. c #239D58",
",. c #239E58",
"<. c #23A059",
"1. c #24A65B",
"2. c #25A75C",
"3. c #2CAA5F",
"4. c #28B162",
"5. c #408B52",
"6. c #7F8165",
"7. c #7F8568",
"8. c #7F8A6A",
"9. c #6F9B64",
"0. c #45BC6A",
"q. c #50B467",
"w. c #67A460",
"e. c #60A26C",
"r. c #2BC16B",
"t. c #2BC26B",
"y. c #39C46D",
"u. c #2ECC71",
"i. c #8A8C56",
"p. c #938C6D",
"a. c #938E6F",
"s. c #AA8C6D",
"d. c #A19675",
"f. c #A19776",
"g. c #A19876",
"h. c #B49675",
"j. c #90B173",
"k. c #E48B6B",
"l. c #F39676",
"z. c #62D181",
"x. c #6FD285",
"c. c #AFA581",
"v. c #AFAA84",
"b. c #C6A884",
"n. c #C9B38B",
"m. c #C9B48B",
"M. c #CFBC94",
"N. c #D7BD93",
"B. c #D9BB93",
"V. c #E8A781",
"C. c #F7B18C",
"Z. c #DFC89D",
"A. c #DFCB9F",
"S. c #E2C49A",
"D. c #EBCEA2",
"F. c #FCCDA2",
"G. c #EFD4A7",
"H. c #E4DDA9",
"J. c #F0D2A5",
"K. c #F2D5A7",
"L. c #F5D6A9",
"P. c #F5D7A9",
"I. c #FFE0B1",
/* pixels */
"* * * 4 4 0 6 6 4 0 6 4 : * * * + + + % + % + + $ $ o $ o o : o + + o $ $ o $ $ $ $ : : : o o $ $ o : o : o o o o o $ : : : : : ",
"* * 4 6 6 0 4 0 4 6 0 4 6 : * * + + % + + o & . o $ $ o o : o o + $ $ o o $ $ o . : : : $ o $ o o $ o o o o o : o $ o $ o : o : ",
"= 4 6 6 6 4 0 4 0 0 6 6 6 4 * * * + + # & + & & o $ $ o o o $ o $ + $ $ $ o o $ o : : : o o $ $ o o : o : o $ $ $ $ o $ o $ : : ",
"4 6 6 6 0 4 6 6 6 4 4 0 6 6 = * : + + # o + + o $ $ o $ o : o $ + $ o $ $ $ o $ $ : : $ $ $ o $ o : o o o $ o o o $ $ o o o : : ",
"6 6 6 6 6 6 4 6 0 h h h k k k k k k k k k k k k k k + o & o o $ o o o o o $ k k k k k k k k k k k k k k q q 7 : : o : o $ o : > ",
"6 6 6 6 6 6 r k k k k k k k k k k h k k k k k k k k & o & + $ o o : o : $ o k k k k k k k k k k k k k e k k k k e > o $ o : > 7 ",
"6 6 6 6 6 r k k 0 % + +             . . . . + .   o # + o + o $ $ o o o . : . .                 . . .   o o : 7 k k 7 o o : > 7 ",
"6 6 6 6 0 k k %                   . . - r C C C C >.=.=.*.*.=.=.*.*.*.*.*.*.*.*.C C C z 5   . . . .     . .     : k e : : > : 7 ",
"6 6 6 6 h k 4                   $ m C 3.4.4.4.4.4.4.4.4.4.4.4.4.4.4.4.4.4.4.4.4.4.4.4.4.2.*.C ,     .             > k w : : : : ",
"6 6 6 6 h h +                 v 1.4.4.4.4.4.4.4.4.4.4.4.4.4.4.4.4.4.4.4.4.4.4.4.4.4.4.4.4.4.4.2.C . .           . . k e : : : > ",
"4 6 6 6 k k         % : 6 6 V 4.4.4.4.4.4.4.4.4.4.4.4.4.4.4.4.4.4.4.4.4.4.4.4.4.4.4.4.4.4.4.4.4.4.b $ o . o     .   k k $ : : : ",
"* 0 0 6 k k         6 6 6 6 <.4.4.4.4.4.4.4.4.4.4.4.4.4.4.4.4.4.4.4.4.4.4.4.4.4.4.4.4.4.4.4.4.4.4.>.o $ & o         k k : : : : ",
"* = 6 6 k k       . 6 6 6 = 4.4.4.4.4.4.4.4.4.4.4.4.4.4.4.4.4.4.4.4.4.4.4.4.4.4.4.4.4.4.4.4.4.4.4.4.$ o o o .       k k o $ : : ",
"* * : 6 k k       . 6 4 * * 4.4.4.4.4.4.4.4.4.4.4.4.4.4.4.4.4.4.4.4.4.4.4.4.4.4.4.4.4.4.4.4.4.4.4.4.: : : o .     o k k o o o o ",
"+ * = 4 k k         6 = * * 4.4.4.4.4.4.4.4.4.4.4.4.4.4.4.4.4.4.4.4.4.4.4.4.4.4.4.4.4.4.4.4.4.4.4.4.: : : :         k k : o o o ",
"+ + * * k k         * * * % 4.4.4.4.4.4.4.4.4.4.4.4.4.4.4.4.4.4.4.4.4.4.4.4.4.4.4.4.4.4.4.4.4.4.4.3.: : : :         k e o o o : ",
"% + + & k k         : : $ o 4.4.4.4.4.4.4.4.4.4.4.4.4.4.4.4.4.4.4.4.4.4.4.4.4.4.4.4.4.4.4.4.4.4.4.4.: : : o .       k k o $ o $ ",
"+ + % + k k         : o o $ 4.4.4.4.4.4.4.4.4.4.4.4.4.4.4.4.4.4.4.4.4.4.4.4.4.4.4.4.4.4.4.4.4.4.4.4.: : o : . .     k k o $ : o ",
"% + + % k k         & $ $ $ 4.4.4.4.4.4.4.4.4.4.4.4.4.4.3.5.U U U U :.3.4.4.4.4.4.4.4.4.4.4.4.4.4.4.$ o $ o         k k o o o o ",
"+ + % + k k         $ o o $ 4.4.4.4.4.4.4.4.4.4.4.4.4.4.Y A A A A A A Y 4.4.4.4.4.4.4.4.4.4.4.4.4.4.: o o o         k k : o : o ",
"+ & o & k k         $ $ $ o 1.1.1.1.1.1.1.1.1.1.1.1.1.T A A A A A A A A T 1.1.1.1.1.1.1.1.1.1.1.1.1.o $ o $     . . k k o $ $ o ",
"o + + + k k         & o $ $ 1.1.1.1.1.1.1.1.1.1.1.1.1.A A A A A A A A A A 1.1.1.1.1.1.1.1.1.1.1.1.1.$ $ o $     . . k k o o $ $ ",
"& . & o k k         : $ o $ 1.1.1.1.1.1.1.1.1.1.1.1.>.U A A A A A A A A U >.1.1.1.1.1.1.1.1.1.1.1.1.o o $ o .   . . k k $ o o $ ",
"+ & + + k k         : : $ o ;.1.1.1.1.1.1.1.1.1.1.1.1.1.1.1.1.1.1.1.1.2.1.1.1.1.1.1.1.1.1.1.1.1.1.-.o $ o :         k k o $ $ o ",
"+ $ $ o k k   . .   : : & o x 1.1.1.1.1.1.1.1.1.1.1.1.1.1.1.1.1.1.1.1.1.1.1.1.1.2.2.2.2.2.1.1.1.2.l o o : o . .     k k : o $ o ",
"$ o o $ k k         : : : : o Z A A A A A A A A A A A A A A A A A A A A A A A A A A A A A A A A A o o : . o . .     k k o o $ $ ",
"$ $ $ $ $ $ $ + o o : $ : : : A A A A A A A A A A A A A A A A A A A A A A A A A A A A A A A A A A o o o : o o o o o : o $ o o $ ",
"o o $ o o $ + $ $ o : : G a.d.A A A A A A A A A A A A A A A A A A A A A A A A A A A A A A A A A A f.p.G o o : o o $ o o o $ $ o ",
"$ o o : o o o o : : : a n.B.N.A A A A A A A A A A A A A A A A A A A A A A A A A A A A A A A A A A B.B.n.a o o o @ @ @ o $ $ o $ ",
"$ $ o o + o o o o : : d.B.B.B.A A A A A A A A A A A A A A A A A A A A A A A A A A A A A A A A A A B.N.B.f.o : o @ @ @ o $ o o $ ",
"o : o : + $ + : : : : B.B.N.N.A A A A A A A A A A A A A A A A A A A A A A A A A A A A A A A A A A N.N.N.B.: @ @ @ @ : o : o $ o ",
"$ o o o $ + : : : : : B.N.N.N.L A A A A A A A A A A A A A A A A A A A A A A A A A A A A A A A A K N.N.N.B.@ @ @ @ @ o o o o o : ",
"o $ o o o o : : $ : : d.N.N.B.| A A A A A A A A A A A A A A A A A A A A A A A A A A A A A A A A  .N.N.N.d.+ + $ + $ $ $ o $ $ o ",
"$ $ o o $ : : : : : : M n.M.B.L.S.B.h...A A A A A A A A A A A A A A A A A A A A A A A A | h.B.S.L.N.N.n.a o $ + $ + o $ $ o o $ ",
"o $ o : : : : o : : : : y d.B.D.I.I.I.I.I.B.n.s.....L A A A S A A A A A A J ....p.b.B.K.L.I.I.I.D.B.g.y : o & + + $ o o $ $ $ $ ",
"o $ o : : : : : $ : $ o o : o W I.I.I.I.I.I.I.I.I.I.I.I.I.I.I.I.I.I.I.I.I.I.I.I.I.I.I.I.I.I.I.I.a.: : : : : o + $ + $ $ o o $ o ",
"$ : : : : : : : : : o o o o o G I.I.I.I.I.I.I.I.I.I.I.I.I.I.I.I.I.I.I.I.I.I.I.I.I.I.I.I.I.I.I.I.6.: : : : & & o o : o : $ $ o $ ",
": : : o : : : $ o o $ o : o : a I.I.I.I.I.I.I.I.I.I.I.I.I.I.I.I.I.I.I.I.I.I.I.I.I.I.I.I.I.I.I.I.c : 7 : : : : : o o o + o $ $ o ",
": : : : k k   . . . $ o o $ o $ M.I.I.I.I.I.I.I.I.I.I.I.I.I.I.I.I.I.I.I.I.I.I.I.I.I.I.I.I.I.I.B.6 6 6 6 : &         k k o   : : ",
": : $ : k k   . . . o $ $ $ x >.:.F.I.I.I.I.I.I.I.I.I.I.I.I.I.I.I.I.I.I.I.I.I.I.I.I.I.I.I.I.F.9.;.n 6 6 6 7     . . k r : : : : ",
"$ : : o e k . .     $ $ o x u.u.i.O.@.@.@.@.@.@.j.x.z.z.z.z.z.z.z.z.z.z.z.z.z.j.@.@.@.@.@.@.O.X.u.u.n 6 6 6     .   k k : : : : ",
": : : : k k . .     o $ 5 4.u.u.o.O.} } } } } } o.4.u.u.u.u.u.u.u.u.u.u.u.u.y.o.O.[ { { } } } } 0.u.r.e 6 >         k k : : : : ",
": : : : k k . .     $ $ =.u.u.0.{ { } } } } } } { o.q.u.u.u.u.u.u.u.u.u.u.q.o.} } } } } } } } } 9.u.u.;.6 6         h k : $ $ : ",
"o : : $ k e . . . . o o 4.u.x.V.{ O.} } } } } } { { O.o.w.y.u.u.u.u.y.w.o.} } } } } } } } } } } k.x.u.r.6 6         k k : : : : ",
": : : : k k . .     o $ u.x.I.l.} } } } } } } } } } } } } } } } O.[ } } } } } } } } } } } } } } @.I.x.u.4 7     . . k k : : : : ",
": : $ : k k . .     $ o 4.H.I.l.} } } { } } } } { { } } } } } } { O.} } } } } } } } } } } } } } @.I.H.t.7 7     .   k k : + $ : ",
"$ : : : k k . .     o o 9.I.I.l.} } } ] ) ) ) ) _ ) } } } } } } { } } } } } ) ) ) ) ) ) [ } } } @.I.I.e.7 7     . . k k : : : : ",
": : : : k e   . . . $ : 7.I.I.l.} } } _ ) ( ( ) ( ( } } } } } } } } } } } } ( ( ) ( ) ( ` } } } @.I.I.8.7 >         r r : o : : ",
": : : : k k         o o H I.I.l.} } } [ ( ( ( ( ( ( { } } } } } } } } } } } ) ( ( ( ( ( ] } } } $.I.I.R 6 6         k k : * * * ",
"o : : $ k k o       : o N I.I.C.} } } { ) ( ( ( ( ] } } } } } } } } } } } } ] ( ( ( ( ) } } } } l.I.I.D 6 6         k k * * : * ",
": : : : k k         o o o Z.I.F.} } } { { ] ) _ [ { } } { } { O.} } } } } } } ] ) ) ` { } } } } F.I.A.6 6 6         k k : 6 6 6 ",
"> : $ : k h         : o o D J.I.#.} } O.{ { { } { O.{ ] ~ f f g g g g ~ ' } } } } { } } } } } @.I.G.F 6 6 4         k k 6 6 6 6 ",
"7 > : : r k         : : : o D c.P ^ { { { { { O.} } Q d   . o o : : : & d Q } } } } } } { } / I v.F 6 6 6 6         k k 6 6 6 6 ",
"7 q 7 : k k . .       : : : : : s s s s s s s s s s s s ; $ : o + & : , s s s s s s s s s s s s 6 6 6 6 7 *         k k 6 6 6 6 ",
"7 > 7 7 h k : .                 s s s s s s s s s s s s ; $ o o o $ & , s s s s s s s s s s s s .                 + k r 6 6 6 6 ",
"7 7 7 7 r k > .                 1 s s s s s s s s s s u o o : o $ $ o $ i s s s s s s s s s s < .               . 6 k r 6 6 6 6 ",
"6 6 6 6 6 k h :                 . O 1 u p s s s p 3 2 o $ $ o $ o $ $ o & 2 u u s s s s p 1 O                   * r k 0 6 6 6 6 ",
"6 6 6 6 : 6 k k : . o           . . . . . . . . . . $ $ o o $ $ o $ o $ $ $                                   : k k w 6 6 6 6 6 ",
"6 6 : : : : 6 r e k k k k k r k k k k k w k k k k k o $ $ o $ o $ $ o $ o & h k k k k r k k k k k k k k k k k k k w 6 6 6 6 6 6 ",
"6 6 7 : : : : : w k k k k k k k k k k e k k k k k k $ o $ $ o $ o $ $ o + + k k k k k r k k k k k k k k k k k w 4 * 4 6 6 6 6 6 ",
"6 4 : : : : : : + : : $ : : : : : o o : o o o o o o o o + $ + $ o o + o & o & + : : : : : & & : : * + + % + + + * * = : 6 0 6 4 ",
": : : : : : : & : : : : : : : : : o o o o : o : : o $ $ $ + $ o o : o & o + & o o : : : : : : : + + + + + % + & + * * * : 4 6 0 ",
": : : : : : : : : : : : : : $ : : o @ @ @ @ o o $ o o $ + $ o o : o o + & o o + o : : : & : * o + + & o + + + + + + * * * * = * ",
": : : + : 6 6 7 7 7 : : : $ : : @ @ @ @ @ @ o : o $ $ o $ + o : o o & o + + o & o + : : + : & + & o & + + + % + % + + * * * * * "
};
