/* XPM */
static char *img_el[] = {
/* columns rows colors chars-per-pixel */
"64 64 34 1 ",
"  c #2678A8",
". c #758C8E",
"X c #768E90",
"o c #6E9099",
"O c #789092",
"+ c #7A9295",
"@ c #569BBE",
"# c #5A9AB9",
"$ c #6793A4",
"% c #7498A1",
"& c #709EAF",
"* c #7BA0A9",
"= c #2F95D0",
"- c #3096D1",
"; c #3298D3",
": c #3399D5",
"> c #349AD6",
", c #359CD7",
"< c #389FDB",
"1 c #39A0DD",
"2 c #3BA3DF",
"3 c #3FA8E5",
"4 c #539EC4",
"5 c #539EC5",
"6 c #5CA2C5",
"7 c #51A0CB",
"8 c #52A2CD",
"9 c #58A3CA",
"0 c #59A4CC",
"q c #4EA3D1",
"w c #48A7DC",
"e c #50A6D3",
"r c #60A1C1",
"t c #849EA1",
/* pixels */
"...%r0ee333333333333333333333333333333333333333333333333qq8#oO..",
".Xr3333333333333333333333333333333333333333333333333333333333#..",
".6331,::;===============================================::,133@.",
"&33,========================================================,33$",
"031=========================================================-139",
"w3:=========================================================-;3w",
"33===========================================================-33",
"33===========================================================-33",
"33============================================================33",
"33============================================================33",
"33========                                            ========33",
"33========                                            ========33",
"33========                                            ========33",
"33========                                            ========33",
"33========                                            ========33",
"33========     ====                          ====     ========33",
"33========     ====                          ====     ========33",
"33========     ====                          ====     ========33",
"33========     ====                          ====     ========33",
"33========                                            ========33",
"33========                                            ========33",
"33========                                            ========33",
"33========                                            ========33",
"33========                                            ========33",
"33========                                            ========33",
"33========                                            ========33",
"33========                                            ========33",
"33========                                            ========33",
"33========                                            ========33",
"33========                                            ========33",
"33========                                            ========33",
"33========                                            ========33",
"33========                                            ========33",
"33========                                            ========33",
"33========                                            ========33",
"33========                                            ========33",
"33========                                            ========33",
"33========                                            ========33",
"33========                                            ========33",
"33========                                            ========33",
"33========                                            ========33",
"33========                                            ========33",
"33========                                            ========33",
"33========                                            ========33",
"33========                                            ========33",
"33========     ====                          ====     ========33",
"33========     ====                          ====     ========33",
"33========     ====                          ====     ========33",
"33========     ====                          ====     ========33",
"33========                                            ========33",
"33========                                            ========33",
"33========                                            ========33",
"33========                                            ========33",
"33========                                            ========33",
"33============================================================33",
"33============================================================33",
"33============================================================33",
"33-==========================================================-33",
"e3,=========================================================->3e",
"631=========================================================-136",
"*33,--======================================================>33*",
"+@33,;===================================================--1336t",
"..433333333333333333333333333333333333333333333333333333333337O.",
"...$43333333333333333333333333333333333333333333333333333337$..."
};
