/* XPM */
static char *img_p_fr[] = {
/* columns rows colors chars-per-pixel */
"64 64 185 2 ",
"   c gray20",
".  c #3E3433",
"X  c #373839",
"o  c #3B3E3E",
"O  c #4B3A3A",
"+  c #603935",
"@  c #763C36",
"#  c #694C39",
"$  c #43494A",
"%  c #4A5253",
"&  c #4B5454",
"*  c #4E5758",
"=  c #725540",
"-  c #7B5E48",
";  c #6A6559",
":  c #545F60",
">  c #5C6B6C",
",  c #617072",
"<  c #647577",
"1  c #687B7D",
"2  c #6A7C7E",
"3  c #813D36",
"4  c #BA4539",
"5  c #CD4335",
"6  c #CE4335",
"7  c #C24639",
"8  c #C8473A",
"9  c #D14436",
"0  c #D34536",
"q  c #D64637",
"w  c #DA4738",
"e  c #D0483A",
"r  c #DD4839",
"t  c #E34A3B",
"y  c #E74C3C",
"u  c #B35C53",
"i  c #85674F",
"p  c #8E7157",
"a  c #A17C4F",
"s  c #A16761",
"d  c #A46A65",
"f  c #CF5C42",
"g  c #E85543",
"h  c #C46445",
"j  c #CB6C57",
"k  c #EB6751",
"l  c #ED7159",
"z  c #EE7A60",
"x  c #2CAE64",
"c  c #32AC67",
"v  c #3CA76D",
"b  c #32AC68",
"n  c #3DA96F",
"m  c #28B162",
"M  c #29B664",
"N  c #29B765",
"B  c #2ABB67",
"V  c #2BBE69",
"C  c #35B56B",
"Z  c #739C5D",
"A  c #539C7A",
"S  c #45BC6A",
"D  c #50B467",
"F  c #40A570",
"G  c #52A27D",
"H  c #53A37D",
"J  c #42BA75",
"K  c #4BB77F",
"L  c #50BF7F",
"P  c #67A460",
"I  c #39C46D",
"U  c #2ECC71",
"Y  c #38C575",
"T  c #33C873",
"R  c #33C973",
"E  c #48CE79",
"W  c #8A8C56",
"Q  c #A38557",
"!  c #A18366",
"~  c #A68B6B",
"^  c #AA8C6D",
"/  c #B49675",
"(  c #B49976",
")  c #BD9F7C",
"_  c #88AF7B",
"`  c #90B173",
"'  c #E48B6B",
"]  c #F18C6F",
"[  c #F39676",
"{  c #5D9880",
"}  c #5D9F83",
"|  c #758C8E",
" . c #758D8F",
".. c #768D8F",
"X. c #669386",
"o. c #669987",
"O. c #6C9189",
"+. c #768E90",
"@. c #778E91",
"#. c #788F92",
"$. c #798F92",
"%. c #769593",
"&. c #789092",
"*. c #7A9294",
"=. c #7A9295",
"-. c #7C9396",
";. c #7C9497",
":. c #7C9597",
">. c #739992",
",. c #789896",
"<. c #7D9698",
"1. c #7E9799",
"2. c #7F989B",
"3. c #4EBA83",
"4. c #62A589",
"5. c #64A68C",
"6. c #69A38E",
"7. c #64B080",
"8. c #6EAA95",
"9. c #7EA19F",
"0. c #62D181",
"q. c #6FD285",
"w. c #78CE9C",
"e. c #81928F",
"r. c #87958F",
"t. c #949C8F",
"y. c #8D9C96",
"u. c #80999C",
"i. c #819A9D",
"p. c #839C9F",
"a. c #8FA29E",
"s. c #99A296",
"d. c #9CA69C",
"f. c #B8AD92",
"g. c #BEB092",
"h. c #BAB095",
"j. c #BAB69F",
"k. c #849EA1",
"l. c #9BABA4",
"z. c #A5ADA0",
"x. c #A2AFA5",
"c. c #AAB3A6",
"v. c #BCB8A2",
"b. c #BEBBA4",
"n. c #C6A884",
"m. c #D0B18B",
"M. c #C0B294",
"N. c #D7B692",
"B. c #D1BA93",
"V. c #D7BD93",
"C. c #D9BB93",
"Z. c #F6A885",
"A. c #87C191",
"S. c #89C494",
"D. c #E1C59A",
"F. c #E2C49A",
"G. c #E6CA9E",
"H. c #FAC49B",
"J. c #D5C8A7",
"K. c #D8CCAC",
"L. c #E8CCA0",
"P. c #ECCDA2",
"I. c #FCCDA2",
"U. c #E7D2AC",
"Y. c #E8D3AD",
"T. c #EFD7AD",
"R. c #E4DDA9",
"E. c #F2D5A7",
"W. c #F5D6A9",
"Q. c #F5D7A9",
"!. c #FDD6A9",
"~. c #F0D8AE",
"^. c #F7DBAF",
"/. c #F1DEAD",
"(. c #F7DCAF",
"). c #FADBAD",
"_. c #FCDDAF",
"`. c #FFE0B1",
"'. c #AEE1C4",
"]. c #BBE6CD",
"[. c #C9EBD7",
"{. c #D6F0E1",
"}. c #E4F5EB",
"|. c #F1FAF5",
" X c white",
/* pixels */
"| | | :.k.k.k.k.k.k.k.i.+.| | +.;.;.i.;.i.*.;.;.u.;.u.-.;.;.;.;.;.u.-.;.;.;.;.u.;.&.| | | *.2.:.-.*.1.;.u.-.;.-.;.;.u.#.+.| | | ",
"| +.i.k.k.k.k.k.k.k.k.k.i.+.| | ;.1.-.;.;.;.-.u.-.;.;.;.u.;.u.;.;.;.u.;.u.-.;.-.;.| | | &.2.*.:.1.1.1.;.;.;.;.u.-.u.;.;.#.+.| | ",
"| i.k.k.k.k.k.k.k.k.k.k.k.i.| | #.;.;.1.i.;.u.;.;.-.u.-.1.;.;.;.;.;.;.;.-.u.;.u.*.| +.+.2.:.1.2.2.;.;.;.u.-.u.;.;.-.;.-.;.#.| | ",
"i.k.k.k.k.k.k.k.k.k.k.k.k.k.:.| +.;.;.;.-.;.-.;.;.u.;.;.;.;.1.1.u.-.u.-.;.;.;.-.| | | &.:.:.:.*.;.;.;.i.;.;.-.;.;.u.;.u.;.#.| | ",
"k.k.k.k.k.k.k.k.k.k.k.k.k.k.k.&.| +.-.;.1.1.-.1.u.-.-.;.;.u.;.;.;.;.;.1.;.;.;.#.| | | +.;.2.2.*.;.;.i.-.;.;.u.-.u.;.u.;.u.#.#.u.",
"k.k.k.k.k.k.k.k.k.k.k.k.k.k.k.i.| | #.1.*.-.1.:.;.;.u.;.;.-.1.;.;.i.;.;.u.-.#.#.| +.|  .;.*.:.:.;.i.;.;.*.i.;.;.-.;.;.-.;.#.-.k.",
"k.k.k.k.k.k.k.k.k.k.k.k.k.k.k.k.*.+.+.#.1.;.:.1.u.;.u.;.;.1.1.1.u.-.1.;.-.-.#.| +.| | +.*.;.*.2.;.;.;.*.;.-.;.-.;.;.-.1.-.| u.k.",
"k.k.k.k.k.k.k.k.k.k.k.k.k.k.k.k.1.| | O.o.G G G F n v n F n v n n n n n v v v v } G A { X.;.1.:.;.2.;.i.;.i.;.u.-.u.-.-.| | u.k.",
"k.k.k.k.k.k.k.k.k.k.k.k.k.k.k.k.%.A n c m m m m m m m m m m m m x m m m m m m m m m m m x v G >.;.;.;.;.;.;.;.1.;.;.-.+.| | #.k.",
"k.k.k.k.k.k.k.k.k.k.k.k.k.k.k.4.x m x m m m m m m m m m m m m m x m m m m m m m m m m m m m m x G -.i.*.i.1.;.;.u.;.+.| | | | u.",
"i.k.k.k.k.k.k.k.k.k.k.k.k.k.4.m m m m m m m m m m m m m m m m m m m m m m m m m m m m m m m m m x } ;.i.-.;.1.;.-.#.| | | | | | ",
"+.k.k.k.k.k.k.k.k.k.k.k.k.k.b m m m m m m m m m m m m m m m m m m m m m m m m m m m m m m m m m m b -.-.i.;.-.-.| | | | | | | | ",
"| *.k.k.k.k.k.k.k.k.k.k.k.*.m m m m m m m m m m m m m m m m m m m m m m m m m m m m m m m m m m m m *.1.-.-.-.#.| #.#.#.-.-.#.| ",
"| | :.k.k.k.k.k.k.k.k.p.| | m m m m m m m m m m m m m C w.].[.[.[.[.].w.m m m m m m m m m m m m m m | | #.@.| | #.;.u.u.-.;.1.-.",
"-.+.| 1.k.k.k.k.k.k.p.+.| | m m m m m m m m m m m m w.}. X X X X X X X X{.L m m m m m m m m m m m m | | | | #.#.-.;.;.;.;.1.;.;.",
"1.*.+.| 1.p.k.k.k.1.| | | #.m m m m m m m m m m m L |. X X X X X X X X X X}.L m m m m m m m m m m m | | | | #.;.-.u.;.u.;.;.;.1.",
"1.-.;.#.+.| #.#.| | | | &.:.m m m m m m m m m m J |. X X X X X X X X X X X X{.C m m m m m m m m m m | | #.#.1.u.;.;.;.u.-.u.-.;.",
"1.1.1.;.+.| | | | | | -.-.u.m m m m m m m m m m '. X X X X X X X X X X X X X X'.m m m m m m m m m m | | #.;.-.;.u.;.;.-.;.;.u.;.",
"*.;.;.;.-.+.| | | | #.:.:.:.m m m x m m m m m m |. X X X X X X X X X X X X X X|.m m m m m m x m m m | *.u.;.u.;.;.u.;.u.;.;.-.;.",
";.1.1.;.;.-.+.| | ..&.:.1.-.m m M M B M M V V V V V V V V V V V V V V V V V V V V V V B M M M M m x *.;.;.;.;.;.;.;.;.;.u.-.u.;.",
"-.u.-.u.;.;.;.+.| | *.2.1.:.U U U U U U U U U U U U U U U U U U U U U U U U U U U U U U U U U U U U ;.1.;.;.u.-.;.;.;.;.-.u.-.;.",
";.;.;.;.;.1.;.;.| | +.:.:.2.U U U U U U U U U U U U U U U U U U U U U U U U U U U U U U U U U U U U ;.1.;.1.;.;.u.-.u.-.;.;.u.;.",
";.u.-.;.-.u.;.i.&.| | &.1.:.U U U U U U U U U U U U U U U U U U U U U U U U U U U U U U U U U U U U 1.*.;.;.1.1.-.;.;.u.;.;.-.;.",
";.-.u.;.;.;.;.;.2.&.| | &.:.Y R U U U U U U U U U U U U U U U U U U U U U U U U U U U U U U U U U Y 1.1.1.;.;.;.u.;.;.-.u.-.u.;.",
";.;.;.u.;.u.-.u.-.#.+.| | :.5.R U U U U U U U U U U U U U U U U U U U U U U U U U U U U U U U U U 6.i.;.;.;.;.1.-.;.;.u.-.u.-.;.",
"u.-.;.-.;.-.;.;.;.-.| | | | :.# # # P.`.`.`.`.`.`.`.`.`.`.`.`.`.`.`.`.`.`.`.`.`.`.`.`.`.`.`.! # # ;.;.;.;.u.;.;.u.;.;.-.;.;.u.;.",
"-.u.;.u.;.u.;.;.-.-.| | ....| # # ^ `.`.`.`.`.`.`.`.`.`.`.`.`.`.`.`.`.`.`.`.`.`.`.`.`.`.`.`.L.# # ;.i.;.u.;.1.;.-.u.-.u.;.;.-.;.",
";.;.;.-.;.-.u.-.;.#.| | t.f.f.# i W.`.`.`.F.p p F.`.`.`.`.`.`.`.`.`.`.`.`.`.`.F.p p C.`.`.`.`./ # M.f.s.;.;.;.;.;.;.;.;.u.-.u.;.",
";.u.-.;.;.u.;.u.-.| | r.B.V.V.- F.`.`.`.`.p # # p `.`.`.`.`.`.`.`.`.`.`.`.`.`.p # # p `.`.`.`.`.i V.V.B.y.;.1.1.;.;.;.;.-.u.-.;.",
";.-.u.;.;.-.-.-.+.| +.f.V.V.V.W.`.`.`.`.`.# # # # `.`.`.`.`.`.`.`.`.`.`.`.`.`.# # # # `.`.`.`.`.W.V.V.V.M.1.;.;.u.-.u.-.;.;.u.;.",
";.;.;.;.;.;.;.#.| | | C.V.V.V.`.`.`.`.`.`.# # # # `.`.`.`.`.`.`.`.`.`.`.`.`.`.# # # # `.`.`.`.`.`.V.V.V.C.;.;.;.-.;.;.u.;.;.-.;.",
"u.-.u.-.u.-.#.+.| | | C.V.V.V.`.`.`.`.`.`.i # # i `.`.`.`.`.L.F.F.G._.`.`.`.`.i # # i `.`.`.`.`.`.V.V.V.C.-.u.-.u.;.;.-.u.-.u.;.",
";.;.1.-.:.#.| | | | | M.V.V.C.).`.`.`.`.`.D.= = F.`.`.`.`.P.V.V.V.V.L.`.`.`.`.F.= # C.`.`.`.`.`.W.V.V.V.g.1.1.1.;.;.1.;.;.;.;.2.",
"i.-.1.1.#.| | | | | | r.B.V.V.E.`.`.`.`.`.`.`.`.`.`.`.P.) V.V.V.V.V.V.) F.`.`.`.`.`.`.`.`.`.`.`.Q.V.V.B.y.1.*.1.;.1.2.;.2.;.;.;.",
"-.;.-.#.#.| | | | | | ..*.M.V.T.`.`.`.`.`.`.`.`.`.`.m.# # ~ C.C.V.V.( # # m.`.`.`.`.`.`.`.`.`.`.E.V.g.e.+.*.*.1.;.;.;.;.;.i.;.i.",
"i.;.#.| | | | | | | ..u.:.-.#.v.`.`.`.`.`.`.`.`.`.C.# # # # # # # # # # # # n.`.`.`.`.`.`.`.`.`.v.| | | | +.*.1.2.;.2.;.;.;.;.*.",
"*.#.| | | | | | | -.-.u.;.1.;.d.`.`.`.`.`.`.`.`.`.- # # # # # # # # # # # # = `.`.`.`.`.`.`.`.`.j.| | | | | | &.u.;.u.;.;.;.;.u.",
"| | | | | | | | #.-.-.-.;.1.;.l.`.`.`.`.`.`.`.`.`.# # # # # # # # # # # # # = `.`.`.`.`.`.`.`.`.a.1.2.1.| | | | #.;.-.-.u.-.u.#.",
"| | | | | | | #.i.-.1.:.*.1.1.&.Y.`.`.`.`.`.`.`.`.P.( p # # # # # # # # p / L.`.`.`.`.`.`.`.`.U.k.k.k.k.2.| | +.| +.#.u.;.;.#.| ",
"| | | | | | | -.-.:.1.-.1.;.6.3.7.I.`.`.`.`.`.`.`.`.`.`.`.`.`.`.`.`.`.`.`.`.`.`.`.`.`.`.`.`.I._ 3.8.k.k.k.p.+.| | | | | +.| | | ",
"| | | | | | #.1.2.;.;.;.;.6.U U U Q l l l l l l ` 0.0.0.0.0.0.0.0.0.0.0.0.0.0.` l l l l l l g a U U 8.k.k.k.u.+.| | | | | | | | ",
"| | | | | #.;.;.;.;.;.2.,.Y U U U U W y y y y y f I U U U U U U U U U U U U I f y y y y y y y y S U R 2.k.k.k.u.| | | | | | | | ",
"| | | | | -.i.-.2.;.;.;.3.U U U 0.0.E Z g y y y y f D U U U U U U U U U U D f y y y y y y y y y Z U U 3.k.k.k.k.u.#.| | | | | | ",
"| | | | #.u.;.;.;.;.1.1.R U q./.`.`.`.`.L.k y y y y y h P I U U U U I P h y y y y y y y y y y y ' q.U Y k.k.k.k.k.u.| | | | | | ",
"| | | | #.;.u.-.;.1.;.1.U q.`.`.`.`.`.`.`.I.y y y y y y y y y y y y y y y y y y y y y y y y y y l `.q.U k.k.k.k.k.k.#.| | | | | ",
"| | | | #.;.;.;.1.;.1.*.R R.`.`.`.`.`.`.`.`.y y y y y y y y y y y y y y y y y y y y y y y y y y l `.R.R k.k.k.k.k.k.k.| | | | | ",
"| | | | | -.u.-.;.1.;.;.A.`.`.`.`.`.`.`.`.`.y y y y y y y w 9 9 0 0 w t y y y y y y y y y y y y l `.`.S.k.k.k.k.k.k.k.| | | | | ",
"| | | | | | -.;.1.;.1.;.b.`.`.`.`.`.`.`.`.H.y y y y y w 5 5 5 5 5 5 5 5 w y y y y y y y y y y y l (.(.J.k.k.k.k.k.k.u.| | | | | ",
"| | | | | | | *.1.;.;.;.z.`.`.`.`.`.`.`.`.Z.y y y y r 5 5 5 5 5 6 6 5 5 9 r y y y y y y y y y y z `.`.c.k.k.k.k.k.k.+.+.| | | | ",
"| | | | | | | | *.;.1.;.l._.`.`.`.`.`.`.!.g y y y t 5 5 5 5 5 5 6 9 5 9 5 5 7 @ + + + + 3 e y y [ `.`.l.k.k.k.k.k.*.| | | +.+.+.",
"*.| | | | | | | +.#.-.;.;.~.`.`.`.`.`.`.z y y y y 5 9 5 5 9 5 5 6 6 0 5 5 @                 4 y I.`.~.k.k.k.k.k.;.| | | 1.k.k.k.",
"k.1.| | | | | | | | +.*.;.d.^.`.`.`.`.Z.y y y y r 5 5 8 u d d s s s d u 3                   . j `.(.l.k.k.k.k.;.+.+.| 1.k.k.k.k.",
"k.k.1.| | | | | | | | | #.#.d.J.B.N.] y y y y y 0 9 3 O -.;.;.u.| +.| |                       ; K.x.k.k.k.k.1.| | | 1.k.k.k.k.k.",
"k.k.k.1.| | | | | | | | | | | +.                        1 1.;.-.$.$.| <                         k.k.k.k.k.*.| | | 1.k.k.k.k.k.k.",
"k.k.k.k.-.| | | | | | | | | | |                         2 ;.u.u.1.;.#.<                         k.k.k.k.*.| | | ;.k.k.k.k.k.k.k.",
"k.k.k.k.i.| | | | | | | | | | | :                     % #.;.-.-.;.;.1.#.$                     > *.2.;.+.+.+.| | 2.k.k.k.k.k.k.k.",
"k.k.k.k.i.| | | | | | | | | | | | 1 : $ o       X * , ;.u.;.u.;.;.u.-.;.#., & $         o : 1 | | | | | | | | | 2.k.k.k.k.k.k.k.",
"k.k.k.k.;.| | | | | | | | | | | | | | #.;.;.-.u.;.-.u.;.-.;.-.;.;.;.u.;.u.#.| | | | | | | | | | | | | | | | | | 1.k.k.k.k.k.k.k.",
"k.k.k.1.| | | | | | | | | | | | | | | -.u.;.u.;.;.u.u.-.;.;.u.-.;.;.;.;.-.u.#.| | | | | | | | | | | +.+.| | | | | 1.k.k.k.k.k.k.",
"k.k.1.| | | | | | | | | | | | | | | -.u.-.;.-.;.;.-.;.;.-.u.;.;.u.-.u.-.-.;.-.#.| | | | | | | | | | *.;.;.;.;.+.| | 1.k.k.k.k.k.",
"k.*.+.| | | | | | | | | | | | | | #.u.;.-.u.-.u.;.;.;.u.u.-.;.-.u.;.u.;.1.u.-.-.| | | | | | | | | -.;.;.;.2.;.;.| | | 1.k.k.k.k.",
"*.| | | | | | | | | | | | | | | #.-.;.;.;.;.;.;.u.-.;.-.;.;.;.u.-.;.-.;.-.;.1.;.*.| | | | | | | #.;.;.1.;.;.;.;.*.+.| | *.k.k.k.",
"| | | | | #.1.i.i.;.+.| | | | | #.u.-.u.;.u.-.;.-.u.;.u.u.-.u.;.;.;.u.-.u.;.;.;.;.#.| | | | | -.;.u.;.u.;.2.;.1.1.*.+.| | +.+.+.",
"| | | | *.i.k.k.k.k.i.| | | | #.u.;.;.;.;.-.u.;.;.;.;.-.;.;.-.;.-.u.;.;.-.;.;.u.;.#.| | | | -.;.;.;.;.;.;.1.;.;.;.1.*.| | | | +."
};
