/* XPM */
static char *img_p_fl[] = {
/* columns rows colors chars-per-pixel */
"64 64 189 2 ",
"   c gray20",
".  c #373839",
"X  c #3B3E3E",
"o  c #4A3A39",
"O  c #603935",
"+  c #763C36",
"@  c #694C39",
"#  c #6A503F",
"$  c #3F4344",
"%  c #43494A",
"&  c #4B5454",
"*  c #725540",
"=  c #7B5E48",
"-  c #696458",
";  c #545F60",
":  c #5C6B6C",
">  c #617072",
",  c #647577",
"<  c #687B7D",
"1  c #6A7C7E",
"2  c #803B34",
"3  c #8E4139",
"4  c #BA4539",
"5  c #CD4335",
"6  c #C24639",
"7  c #C7473A",
"8  c #D14436",
"9  c #D34536",
"0  c #D64637",
"q  c #DA4738",
"w  c #DD4839",
"e  c #DB543F",
"r  c #E34A3B",
"t  c #E74C3C",
"y  c #B15A51",
"u  c #B35C53",
"i  c #85674F",
"p  c #8E7157",
"a  c #A16761",
"s  c #A36A64",
"d  c #A46A65",
"f  c #CF5C42",
"g  c #E85543",
"h  c #EA5E4A",
"j  c #C46445",
"k  c #CC755E",
"l  c #EB6751",
"z  c #ED7159",
"x  c #EE7A60",
"c  c #2CAE64",
"v  c #32AC67",
"b  c #3CA76D",
"n  c #32AC68",
"m  c #3DA96F",
"M  c #28B162",
"N  c #29B664",
"B  c #29B765",
"V  c #2ABB67",
"C  c #2BBE69",
"Z  c #35B56B",
"A  c #739C5D",
"S  c #539C7A",
"D  c #45BC6A",
"F  c #50B467",
"G  c #40A570",
"H  c #52A27D",
"J  c #53A37D",
"K  c #42BA75",
"L  c #4BB77F",
"P  c #50BF7F",
"I  c #67A460",
"U  c #7CB77F",
"Y  c #39C46D",
"T  c #2ECC71",
"R  c #38C575",
"E  c #33C873",
"W  c #33C973",
"Q  c #48CE79",
"!  c #8A8C56",
"~  c #A38557",
"^  c #A18366",
"/  c #A68B6B",
"(  c #AA8C6D",
")  c #B49675",
"_  c #B49976",
"`  c #BD9F7C",
"'  c #90B173",
"]  c #F18C6F",
"[  c #F39676",
"{  c #F49F7D",
"}  c #5D9880",
"|  c #5D9F83",
" . c #758C8E",
".. c #768D8F",
"X. c #669386",
"o. c #669987",
"O. c #6C9189",
"+. c #768E90",
"@. c #778E91",
"#. c #788F92",
"$. c #798F92",
"%. c #719790",
"&. c #789092",
"*. c #7A9294",
"=. c #7C9396",
"-. c #7C9497",
";. c #7C9597",
":. c #739992",
">. c #789896",
",. c #7E9799",
"<. c #7F989B",
"1. c #5CA685",
"2. c #4EBA83",
"3. c #62A589",
"4. c #64A68C",
"5. c #69A38E",
"6. c #64B080",
"7. c #6EAA95",
"8. c #7EA19F",
"9. c #62D181",
"0. c #6FD285",
"q. c #78CE9C",
"w. c #87958F",
"e. c #949C8F",
"r. c #839490",
"t. c #8D9C96",
"y. c #80999C",
"u. c #819A9D",
"i. c #839C9F",
"p. c #8FA29E",
"a. c #99A296",
"s. c #95A49D",
"d. c #9CA69C",
"f. c #B8AD92",
"g. c #BEB092",
"h. c #BFB092",
"j. c #BAB095",
"k. c #BAB69F",
"l. c #849EA1",
"z. c #9BABA4",
"x. c #A5ADA0",
"c. c #A2AFA5",
"v. c #AAB3A6",
"b. c #BEBBA4",
"n. c #C6A884",
"m. c #D0B18B",
"M. c #C0B294",
"N. c #D7B692",
"B. c #D0BA92",
"V. c #D1BA93",
"C. c #D7BD93",
"Z. c #D9BB93",
"A. c #D0BB98",
"S. c #E8A781",
"D. c #F6A885",
"F. c #F7B18C",
"G. c #87C191",
"H. c #89C494",
"J. c #E1C59A",
"K. c #E2C49A",
"L. c #E6CA9E",
"P. c #EECC9E",
"I. c #FAC49B",
"U. c #D5C8A7",
"Y. c #D8CCAC",
"T. c #E8CCA0",
"R. c #ECCDA2",
"E. c #FCCDA2",
"W. c #E7D2AC",
"Q. c #E4DDA9",
"!. c #F0D2A5",
"~. c #F2D5A7",
"^. c #F5D6A9",
"/. c #F5D7A9",
"(. c #FDD6A9",
"). c #F0D8AE",
"_. c #F7DBAF",
"`. c #F1DEAD",
"'. c #F7DCAF",
"]. c #FADBAD",
"[. c #FCDDAF",
"{. c #FFE0B1",
"}. c #AEE1C4",
"|. c #BBE6CD",
" X c #C9EBD7",
".X c #D6F0E1",
"XX c #E4F5EB",
"oX c #F1FAF5",
"OX c white",
/* pixels */
" . . .;.l.l.l.l.l.l.l.u.+. . .+.-.-.u.-.u.*.-.-.y.-.y.=.-.-.-.-.-.y.=.-.-.-.-.y.-.&. . . .*.-.-.,.,.-.-.=.-.-.-.-.y.=.#.#. . . .",
" .+.u.l.l.l.l.l.l.l.l.l.u.+. . .-.,.=.-.-.-.=.y.=.-.-.-.y.-.y.-.-.-.y.-.y.=.-.=.,. . . .+.,.,.-.-.-.-.,.y.-.y.=.-.=.y.-.#.+. . .",
" .u.l.l.l.l.l.l.l.l.l.l.l.u. . .#.-.-.,.u.-.y.-.-.=.y.=.,.-.-.-.-.-.-.-.=.y.-.y.-. . . .,.,.-.-.-.<.-.<.=.-.=.y.-.-.-.-.-.#. . .",
"u.l.l.l.l.l.l.l.l.l.l.l.l.l.;. .+.-.-.-.=.-.=.-.-.y.-.-.-.-.,.,.y.=.y.=.-.-.-.=. . . .&.,.-.-.,.-.-.-.-.y.-.-.-.y.=.y.=.,.#. . .",
"l.l.l.l.l.l.l.l.l.l.l.l.l.l.l.&. .+.=.-.,.,.=.,.y.=.=.-.-.y.-.-.-.-.-.,.-.-.-.#. . . .&.-.<.<.*.-.u.=.-.-.u.=.-.-.y.,.-.-.=.#.y.",
"l.l.l.l.l.l.l.l.l.l.l.l.l.l.l.u. . .#.,.*.=.,.;.-.-.y.-.-.=.,.-.-.u.-.-.y.=.#.#. . . . .-.*.;.;.-.-.<.-.-.*.u.-.-.-.-.-.-.#.=.l.",
"l.l.l.l.l.l.l.l.l.l.l.l.l.l.l.l.*.+.+.#.,.-.;.,.y.-.y.-.-.,.,.,.y.=.,.-.=.=.#. . . . .+.*.-.*.<.-.-.-.-.-.-.-.-.-.y.=.,.=. .y.l.",
"l.l.l.l.l.l.l.l.l.l.l.l.l.l.l.l.,. . .O.o.H H H G m b m G m b m m m m m b b b b 1.H S } X.-.,.;.<.-.u.-.u.=.u.*.-.-.=.=. . .,.l.",
"l.l.l.l.l.l.l.l.l.l.l.l.l.l.l.l.%.S m v M M M M M M M M M M M M c M M M M M M M M M M M c b H :.-.-.-.-.-.-.=.,.-.y.=. . . .#.l.",
"l.l.l.l.l.l.l.l.l.l.l.l.l.l.l.1.c M c M M M M M M M M M M M M M c M M M M M M M M M M M M M M c H =.y.=.y.,.-.=.-.=.#. . . . .y.",
"u.l.l.l.l.l.l.l.l.l.l.l.l.l.3.M M M M M M M M M M M M M M M M M M M M M M M M M M M M M M M M M c | -.y.-.-.y.=.-.+. . . . . . .",
"+.l.l.l.l.l.l.l.l.l.l.l.l.l.n M M M M M M M M M M M M M M M M M M M M M M M M M M M M M M M M M M n -.=.y.-.-.=.#. . . . . . . .",
" .*.l.l.l.l.l.l.l.l.l.l.l.*.M M M M M M M M M M M M M M M M M M M M M M M M M M M M M M M M M M M M *.,.=.-.=.#. . .=.#.=.=.#. .",
" . .;.l.l.l.l.l.l.l.l.i. . .M M M M M M M M M M M M M Z q.|. X X X X|.q.M M M M M M M M M M M M M M  . .#. . . .#.y.-.-.=.-.-.=.",
"=.+. .,.l.l.l.l.l.l.i.+. . .M M M M M M M M M M M M q.XXOXOXOXOXOXOXOXOX.XP M M M M M M M M M M M M  . . . .#.#.-.y.y.-.y.-.,.-.",
",.*.+. .,.i.l.l.l.,. . . .#.M M M M M M M M M M M P oXOXOXOXOXOXOXOXOXOXOXXXP M M M M M M M M M M M  . . .+.#.-.-.=.-.-.-.-.,.-.",
",.=.-.#.+. .#.#. . . .&.&.;.M M M M M M M M M M K oXOXOXOXOXOXOXOXOXOXOXOXOX.XZ M M M M M M M M M M  . .#.#.,.y.-.-.-.y.=.y.=.-.",
",.,.,.-.+. . . . . . .&.=.,.M M M M M M M M M M }.OXOXOXOXOXOXOXOXOXOXOXOXOXOX}.M M M M M M M M M M  . .#.-.-.-.y.-.-.=.-.-.y.-.",
"*.-.-.-.=.+. . . . .#.=.;.,.c M M c M M M M M M oXOXOXOXOXOXOXOXOXOXOXOXOXOXOXoXM M M M M M c M M M  .*.u.-.u.-.-.y.-.y.-.-.=.-.",
"-.,.,.-.-.=.+. . .#.&.;.,.=.M M N B B B B C C C C C C C C C C C C C C C C C C C C C C V N N N N M c *.-.-.-.*.-.-.-.-.-.y.=.y.-.",
"=.y.=.y.-.-.-.+. . .*.<.<.;.T T T T T T T T T T T T T T T T T T T T T T T T T T T T T T T T T T T T =.,.-.-.<.-.-.-.-.-.=.y.=.-.",
"-.-.-.-.-.,.-.-. . .+.;.;.<.T T T T T T T T T T T T T T T T T T T T T T T T T T T T T T T T T T T T =.,.-.,.-.-.y.=.y.=.-.-.y.-.",
"-.y.=.-.=.y.-.u.&. . .&.,.;.T T T T T T T T T T T T T T T T T T T T T T T T T T T T T T T T T T T T ,.=.-.-.,.,.=.-.-.y.-.-.=.-.",
"-.=.y.-.-.-.-.-.<.+. . .&.,.R T T T T T T T T T T T T T T T T T T T T T T T T T T T T T T T T T T R ,.,.,.-.-.-.y.-.-.=.y.=.y.-.",
"-.-.-.y.-.y.=.y.=.#.+. . .;.4.W T T T T T T T T T T T T T T T T T T T T T T T T T T T T T T T T T 5.u.-.-.-.-.,.=.-.-.y.=.y.=.-.",
"y.=.-.=.-.=.-.-.-.=. . . . .;.@ @ @ R.{.{.{.{.{.{.{.{.{.{.{.{.{.{.{.{.{.{.{.{.{.{.{.{.{.{.{.^ @ @ -.-.-.-.y.-.-.y.-.-.=.-.-.y.-.",
"=.y.-.y.-.y.-.-.=.=. . . . . .@ @ ( {.{.{.{.{.{.{.{.{.{.{.{.{.{.{.{.{.{.{.{.{.{.{.{.{.{.{.{.T.@ @ -.u.-.y.-.,.-.=.y.=.y.-.-.=.-.",
"-.-.-.=.-.=.y.=.-.#. . .e.f.g.@ i ~.{.{.{.J.p p J.{.{.{.{.{.{.{.{.{.{.{.{.{.{.K.p p Z.{.{.{.{.) @ M.f.a.-.-.-.-.-.-.-.-.y.=.y.-.",
"-.y.=.-.-.y.-.y.=. . .r.V.Z.C.= J.{.{.{.{.p @ @ p {.{.{.{.{.{.{.{.{.{.{.{.{.{.p @ @ p {.{.{.{.{.i C.C.V.t.-.,.,.-.-.-.-.=.y.=.-.",
"-.=.y.-.-.=.=.=.+. .+.f.C.Z.C./.{.{.{.{.{.@ @ @ @ {.{.{.{.{.{.{.{.{.{.{.{.{.{.@ @ @ @ {.{.{.{.{.^.C.C.C.M.,.-.-.y.=.y.=.-.-.y.-.",
"-.-.-.-.-.-.-.#. . . .Z.C.C.C.{.{.{.{.{.{.@ @ @ @ {.{.{.{.{.{.{.{.{.{.{.{.{.{.@ @ @ @ {.{.{.{.{.{.C.C.C.Z.-.-.-.=.-.-.y.-.-.=.-.",
"y.=.y.=.y.=.#.+. . . .Z.C.C.C.{.{.{.{.{.{.i @ @ i {.{.{.{.{.T.K.J.L.[.{.{.{.{.i @ @ i {.{.{.{.{.{.C.C.C.Z.=.y.=.y.-.-.=.y.=.y.-.",
"-.,.,.=.=.#. . . . . .f.C.C.C.].{.{.{.{.{.J.* * J.{.{.{.{.!.C.C.C.C.T.{.{.{.{.K.* @ Z.{.{.{.{.{.^.C.C.C.g.<.;.;.<.;.-.-.<.-.<.-.",
"-.-.-.,.=. . . . . .+.w.V.C.C.~.{.{.{.{.{.{.{.{.{.{.{.R.` C.C.C.C.C.C.` K.{.{.{.{.{.{.{.{.{.{.{.^.C.C.V.t.;.-.;.-.*.-.<.,.-.-.-.",
"u.=.=.#. . . . . . . ...r.f.Z.!.{.{.{.{.{.{.{.{.{.{.m.@ @ / Z.Z.C.C._ @ @ m.{.{.{.{.{.{.{.{.{.{.~.C.g.w.+.*.<.-.<.-.<.-.-.-.<.,.",
"-.=.#. . . . . . . .#.y.,.y.*.b.{.{.{.{.{.{.{.{.{.Z.@ @ @ @ @ @ @ @ @ @ @ @ n.{.{.{.{.{.{.{.{.{.k. . . . .+.*.-.-.-.-.-.-.<.-.-.",
"-.#. . . . . . . .#.=.u.-.,.-.d.{.{.{.{.{.{.{.{.{.= @ @ @ @ @ @ @ @ @ @ @ @ * {.{.{.{.{.{.{.{.{.k. . . . . . .*.y.-.y.-.<.-.u.*.",
"#. . . . . . . .#.u.=.=.,.,.-.s.{.{.{.{.{.{.{.{.{.* @ @ @ @ @ @ @ @ @ @ @ @ * {.{.{.{.{.{.{.{.{.p.,.<.-.+. . . .#.-.-.-.-.-.-.-.",
" . . . . . . .#.,.=.=.u.,.*.,.:.W.{.{.{.{.{.{.{.{.R.) p @ @ @ @ @ @ @ @ p ) T.{.{.{.{.{.{.{.{.W.l.l.l.l.<.&. . . .+.#.y.-.-.$.+.",
" . . . . . .+.=.-.,.=.*.-.,.5.L 6.E.{.{.{.{.{.{.{.{.{.'.{.{.{.{.{.{.{.{.{.{.{.{.{.{.{.{.{.{.E.U 2.7.l.l.l.<.+. . . . . . . . .+.",
" . . . . . .#.,.-.u.-.<.=.%.T T ! g z z z z z z ' 9.9.9.9.9.9.9.9.9.9.9.9.9.9.' z z z z z z ~ T T T 7.l.l.l.y.+. . . . . . . . .",
" . . . . .#.-.-.-.-.-.-.;.E T T f t t t t t t t f Y T T T T T T T T T T T T Y f t t t t t ! T T T T W <.l.l.l.y. . . . . . . . .",
" . . . . .*.u.=.-.<.*.,.2.T T Y t t t t t t t t t f F T T T T T T T T T T F f t t t t e A Q 9.9.T T T 2.l.l.l.l.y.#. . . . . . .",
" . . . .#.u.-.=.-.-.u.,.E T 0.{ t t t t t t t t t t t j I Y T T T T Y I j t t t t t l P.{.{.{.{.`.0.T R l.l.l.l.l.y. . . . . . .",
" . . . .#.-.u.=.r.;.;.=.T 0.{.[ t t t t t t t t t t t t t t t t t t t t t t t t t t E.{.{.{.{.{.{.{.0.T l.l.l.l.l.l.#. . . . . .",
" . . . .#.-.-.-.;.;.,.;.E Q.{.[ t t t t t t t t t t t t t t t t t t t t t t t t t t {.{.{.{.{.{.{.{.Q.W l.l.l.l.l.l.l. . . . . .",
" . . . . .=.u.*.;.;.y.;.p.{.{.[ t t t t t t t t t t t t r q 9 9 9 9 w r t t t t t t {.{.{.{.{.{.{.{.{.H.l.l.l.l.l.l.l. . . . . .",
" . . . . . .=.-.;.y.;.7.b.{.{.[ t t t t t t t t t t t q 5 5 5 5 5 5 5 5 q t t t t t I.{.{.{.{.{.{.'.'.U.l.l.l.l.l.l.y. . . . . .",
" . . . . . . .*.,.-.-.-.x.{.{.[ t t t t t t t t t t w 5 5 5 5 5 5 5 5 5 5 w t t t t { {.{.{.{.{.{.{.{.v.l.l.l.l.l.l.&. . . . . .",
" . . . . . . . .*.-.,.-.z.{.{.F.r r q 2 O O O O + 6 5 5 5 5 5 5 5 5 5 5 5 5 t t t t h (.{.{.{.{.{.{.{.z.l.l.l.l.l.-. . . .&.&. .",
"*. . . . . . . .+.#.=.-.*.).{.I.t 4                 2 5 5 5 5 5 5 5 5 5 5 5 8 t t t t x {.{.{.{.{.{.).l.l.l.l.l.-. . . .;.l.l.l.",
"l.,. . . . . . . . .+.*.-.d._.{.k o                 . 2 y d d a a a a y 7 5 5 w t t t t D.{.{.{.{.'.z.l.l.l.l.-. . . .<.l.l.l.l.",
"l.l.,. . . . . . . . . .$.+.d.U.-                     . r.y.-.y.+. . . .o 2 5 0 t t t t t ] N.A.Y.c.l.l.l.l.-.+. . .<.l.l.l.l.l.",
"l.l.l.,. . . . . . . . .+. .+.+.                        1 -.-.=.-.#. .,                         l.l.l.l.l.*. . . .;.l.l.l.l.l.l.",
"l.l.l.l.=. . . . . . . . . . . .                        1 y.-.y.-.,.#.,                         l.l.l.l.-. . . .;.l.l.l.l.l.l.l.",
"l.l.l.l.u. . . . . . . . . . . .;                     & $.-.-.-.-.-.,.#.$                     : *.<.-.+. . . . .<.l.l.l.l.l.l.l.",
"l.l.l.l.y. . . . . . . . . . . . .< ; % X       . & > -.-.-.-.-.,.-.-.y.#.> & %         X ; <  . . . . . . . . .<.l.l.l.l.l.l.l.",
"l.l.l.l.-. . . . . . . . . . . . . . .#.-.-.=.y.y.y.-.=.y.=.y.=.y.-.-.-.-.#.+.+. . . . . . . . . . . . . . . . .;.l.l.l.l.l.l.l.",
"l.l.l.,. . . . . . . . . . . . . . . .=.y.-.y.-.=.-.-.y.=.-.-.y.=.y.=.y.y.-.#. . . . . . . . . . . .+.+. . . . .&.;.l.l.l.l.l.l.",
"l.l.,. . . . . . . . . . . . . . . .=.y.=.-.=.-.y.-.-.=.y.-.-.=.-.-.-.-.=.-.=.#. . . . . . . . . . .*.-.-.-.,.+. . .<.l.l.l.l.l.",
"l.*.+. . . . . . . . . . . . . . .#.y.-.-.-.-.-.=.y.=.-.-.y.=.y.-.-.-.-.-.=.-.-. . . . . . . . . .=.-.-.-.<.-.-. . . .;.l.l.l.l.",
"*. . . . . . . . . . . . . . . .#.y.=.=.y.=.y.=.-.-.y.-.-.=.-.-.y.=.y.=.-.y.y.-.*. . . . . . . .#.-.-.,.-.-.-.-.&.&. . .*.l.l.l.",
" . . . .+.#.,.u.y.-.+. . . . . .=.-.-.-.=.-.-.y.-.-.=.-.-.y.-.-.=.-.-.y.-.-.=.-.-.#. . . . . .=.-.y.-.y.*.<.;.<.;.;. . . .&.&. .",
" . . . .*.u.l.l.l.l.y. . . . .#.-.=.y.=.y.-.-.=.y.=.y.-.-.=.y.=.y.-.-.=.y.=.y.-.-.#. . . . .=.-.-.-.-.-.;.<.*.*.;.<.;. . . . . ."
};
