/* XPM */
static char *img_wul[] = {
/* columns rows colors chars-per-pixel */
"64 64 56 1 ",
"  c #313D3F",
". c #374546",
"X c #3B4A4C",
"o c #3D4D4E",
"O c #405153",
"+ c #415354",
"@ c #45595A",
"# c #475C5D",
"$ c #4C6364",
"% c #4C6365",
"& c #586966",
"* c #5D6B65",
"= c #656C61",
"- c #646C63",
"; c #696E62",
": c #6C6F62",
"> c #677068",
", c #64726C",
"< c #6C756A",
"1 c #757564",
"2 c #727568",
"3 c #797F76",
"4 c #916132",
"5 c #9B6836",
"6 c #9C6935",
"7 c #AA733C",
"8 c #AB733C",
"9 c #AD753D",
"0 c #B1773E",
"q c #B2783E",
"w c #B3793F",
"e c #B77B40",
"r c #B87C40",
"t c #B97D40",
"y c #BB7F41",
"u c #768078",
"i c #76847F",
"p c #7B857C",
"a c #BD8042",
"s c #B88146",
"d c #B98147",
"f c #B6844D",
"g c #AC8557",
"h c #A8865C",
"j c #AE8859",
"k c #94886D",
"l c #A88B66",
"z c #A08F72",
"x c #788681",
"c c #758C8E",
"v c #798C8A",
"b c #768E90",
"n c #789092",
"m c #7A9295",
"M c #8B9B95",
"N c #849EA1",
/* pixels */
"cccu&%%%%%%%%+o+o%%%%%%%%%%%%%%%%%%%%%%%%%%%%%%o@%%%%%%%%%%;3bbc",
"cb*%%%%%%%%%%+++o$%%%%%%%%%%%%%%%%%%%%%%%%%%%%%oo%%%%%%%%%%%%;cc",
"b*%%#ooXXXXXX  ..XXXoXXXXXXXXXXXXXXXXXXXXXXXXXX..XooXXXXXXo@%%1c",
"i%%+XXXXXXXXX  ..XXXooXXXXXXXXXXXXXXXXXXXXXXXXX..XXXXXXXXXXXo%%p",
"&%@XXXXXXXXXX  ..XXXXXXXXXXXXXXXXXXXXXXXXXXXXXX..XXXXXXXXXXXo#%2",
"%%oXXXXXXXXXX  ..XXXXXXXXXXXXXXXXXXXXXXXXXXXXXX..XXXXXXXXXXXXo%;",
"%%XXXXXXXXXXX  ..XXXXXXXXXXXXXXXXXXXXXXXXXXXXXX..XXXXXXXXXXXoo%%",
"%%XXXXXXXXXXX  ..XXXXXXXXXXXXXXXXXXXXXXXXXXXXXX..XXXXXXXXXXXXo%%",
"%%XXXXXXXXXXX  ..XXXXXXXXXXXXXXXXXXXXXXXXXXXXXX..XXXXXXXXXXXXX%%",
"%%XXXXXXXXXXX  ..XXXXXXXXXXXXXXXXXXXXXXXXXXXXXX..XXXXXXXXXXXXX%%",
"%%XXXXXXXXXXX  ..XXXXXXXXXXXXXXXXXXXXXXXXXXXXXX..XXXXXXXXXXXXX%%",
"%%XXXXXXXXXXX  ..XXXXXXXXXXXXXXXXXXXXXXXXXXXXXX..XXXXXXXXXXXXX%%",
"%%XXXXXXXXXXX  ..XXXXXXXXXXXXXXXXXXXXXXXXXXXXXX..XXXXXXXXXXXXX%%",
"%%XXXXXXXXXXX                                                 oo",
"%%XXXXXXXXXXX                                                 +o",
"+o...........  7777777777777777657777777777777777777777777777edd",
"+O...........  77777777777777776577777777777777777777777777777yy",
"%%XXXXXXXXXXX  77777777777777776577777777777777777777777777777yy",
"%%XXXXXXXXXXX  77777777777777776587777777777777777777777777777aa",
"%%XXXXXXXXXXX  7777777777777777658777777777777777777777777777eaa",
"%%XXXXXXXXXXX  77777777777778885588877777777777777777777e5e577yy",
"%%XXXXXXXXXXX  777777777777788856888777777777777777777775e5e77yy",
"%%XXXXXXXXXXX  77777777777778875678877777777777777777777eee55eyy",
"%%XXXXXXXXXXX  e7777777777778895677777777777777777777777e5e5eeay",
"%%XXXXXXXXXXX  yyyyyyyyaaaaayddyaaaaaaaaaaaaaaaaaaaaaaaaeedyeeey",
"%%XXXXXXXXXXX  yyyyyyeaaaaaafeyyaaaaaaaaaaaaaaaaaaaaaaaatfttyyyd",
"%%XXXXXXXXXXX  777e77777eeee7777777777777777777777777777e777qyaa",
"%%XXXXXXXXXXX  77777777755e577777777777777777777777777775e7777aa",
"%%XXXXXXXXXXX  777777777e5e5ee5e777777777777777777777777777777ya",
"%%XXXXXXXXXXX  7777777775e5ee5e5777777777777777777777777777777aa",
"%%XXXXXXXXXXX  44444444444444444444444444444444444444444447777aa",
"%%XXXXXXXXXXX  44444444444444444444444444444444444444444447777aa",
"%$XXXXXXXXXXX  44444444444444444444444444444444444444444447777aa",
"%$XXXXXXXXXXX  44444444444444444444444444444444444444444447777aa",
"%%XXXXXXXXXXX  44444444444444444444444444444444444444444447777aa",
"%%XXXXXXXXXXX  44444444444444444444444444444444444444444447777aa",
"%%XXXXXXXXXXX  44444444444444444444444444444444444444444447777aa",
"%%XXXXXXXXXXX  44444444444444444444444444444444444444444447777aa",
"%%XXXXXXXXXXX  44444444444444444444444444444444444444444447777aa",
"%%XXXXXXXXXXX  44444444444444444444444444444444444444444447777aa",
"%%XXXXXXXXXXX  44444444444444444444444444444444444444444447777aa",
"%%XXXXXXXXXXX  44444444444444444444444444444444444444444447777aa",
"%%XXXXXXXXXXX  44444444444444444444444444444444444444444447777aa",
"%%XXXXXXXXXXX  44444444444444444444444444444444444444444447777aa",
"%%XXXXXXXXXXX  44444444444444444444444444444444444444444447777aa",
"%%XXXXXXXXXXX  44444444444444444444444444444444444444444447777aa",
"%%XXXXXXXXXXX  44444444444444444444444444444444444444444447777aa",
"oo...........  44444444444444444444444444444444444444444447777aa",
"@oX..........  44444444444444444444444444444444444444444447777aa",
"%%XoXXXXXXXXX  44444444444444444444444444444444444444444447777aa",
"%%XXXXXXXXXXX  44444444444444444444444444444444444444444447777aa",
"%%XXXXXXXXXXX  44444444444444444444444444444444444444444447777aa",
"%%XXXXXXXXXXX  44444444444444444444444444444444444444444447777aa",
"%%XXXXXXXXXXX  44444444444444444444444444444444444444444447777aa",
"%%XXXXXXXXXXX  44444444444444444444444444444444444444444447777aa",
"%%XXXXXXXXXXX  44444444444444444444444444444444444444444447777aa",
"%%XXXXXXXXXXX  44444444444444444444444444444444444444444447777aa",
"%%XoXXXXXXXXX  44444444444444444444444444444444444444444467779af",
"%%ooXXXXXXXXX  77777777777777777777777777777777777777777777789aj",
",%@XXXXXXXXXX  7777777777777777777777777777777777777777777778wal",
"b%%ooXXXXXXoX  777777777777777777777777777777777777777778878waaM",
"m,%%#oXXXXXoX  77777777777777777777777777777777777777777899yaazN",
"cc2%%%%%%%%%%@oaaaaaaaaaaaaaaaaaaaaaaaaaaaaaaaaaaaaaaaaaaayysknb",
"ccbx<-%%%%%%%ooaaaaaaaaaaaaaaaaaaaaaaaaaaaaaaaaaaaaaaaaasjhkvccc"
};
