/* XPM */
static char *img_ps_bs[] = {
/* columns rows colors chars-per-pixel */
"64 64 176 2 ",
"   c gray20",
".  c #353636",
"X  c #383B3B",
"o  c #4D3B39",
"O  c #694C39",
"+  c #6A503F",
"@  c #3F4344",
"#  c #444B4C",
"$  c #4A5253",
"%  c #4A5455",
"&  c #505C5E",
"*  c #765A44",
"=  c #7B5E48",
"-  c #586543",
";  c #546B45",
":  c #46794A",
">  c #7D6149",
",  c #696458",
"<  c #766659",
"1  c #59686A",
"2  c #5E7976",
"3  c #5B7D75",
"4  c #617072",
"5  c #627577",
"6  c #647577",
"7  c #647779",
"8  c #667A7C",
"9  c #697D7F",
"0  c #6A7C7E",
"q  c #8D3F37",
"w  c #AE4439",
"e  c #BA4539",
"r  c #CD4335",
"t  c #D34536",
"y  c #D84638",
"u  c #DA4738",
"i  c #DD4839",
"p  c #E0493A",
"a  c #E54B3B",
"s  c #E74C3C",
"d  c #85674F",
"f  c #84684F",
"g  c #8E7157",
"h  c #A17C4F",
"j  c #AE6C65",
"k  c #B06F68",
"l  c #CF5C42",
"z  c #DF5041",
"x  c #E05041",
"c  c #E85543",
"v  c #C46445",
"b  c #C36056",
"n  c #C56258",
"m  c #ED7159",
"M  c #E37860",
"N  c #EE7A60",
"B  c #24A65B",
"V  c #2CAA5F",
"C  c #3A9E68",
"Z  c #2FA462",
"A  c #2BAC62",
"S  c #37A167",
"D  c #3BA76D",
"F  c #32AC68",
"G  c #3DA96F",
"H  c #28B162",
"J  c #408B52",
"K  c #739C5D",
"L  c #4C8B6F",
"P  c #488F6D",
"I  c #45936D",
"U  c #548472",
"Y  c #508870",
"T  c #45BC6A",
"R  c #50B467",
"E  c #4BB77F",
"W  c #67A460",
"Q  c #39C46D",
"!  c #2ECC71",
"~  c #33C873",
"^  c #8A8C56",
"/  c #A18366",
"(  c #AA8C6D",
")  c #B49675",
"_  c #88AF7B",
"`  c #90B173",
"'  c #E48B6B",
"]  c #F39676",
"[  c #5D9F83",
"{  c #6B8082",
"}  c #6C8183",
"|  c #708688",
" . c #758C8E",
".. c #619A85",
"X. c #768E90",
"o. c #778F91",
"O. c #788F92",
"+. c #798F92",
"@. c #789092",
"#. c #799193",
"$. c #7A9294",
"%. c #7C9396",
"&. c #7C9497",
"*. c #7C9597",
"=. c #7D9598",
"-. c #7D9698",
";. c #7F979A",
":. c #7F989A",
">. c #7F989B",
",. c #4EBA83",
"<. c #62A589",
"1. c #69A38E",
"2. c #64B080",
"3. c #6EAA95",
"4. c #7EA19F",
"5. c #62D181",
"6. c #6FD285",
"7. c #81928F",
"8. c #87958F",
"9. c #949C8F",
"0. c #839490",
"q. c #8D9C96",
"w. c #8E9D97",
"e. c #80999B",
"r. c #80999C",
"t. c #819A9D",
"y. c #829C9F",
"u. c #839C9F",
"i. c #8FA29E",
"p. c #99A296",
"a. c #95A49D",
"s. c #9CA69C",
"d. c #9DA89E",
"f. c #B8AD92",
"g. c #BEB092",
"h. c #BFB092",
"j. c #BAB69F",
"k. c #849EA1",
"l. c #859FA2",
"z. c #86A0A3",
"x. c #87A2A4",
"c. c #88A3A5",
"v. c #89A4A6",
"b. c #9BABA4",
"n. c #A5ADA0",
"m. c #A2AFA5",
"M. c #AAB3A6",
"N. c #B3B3A0",
"B. c #BEBBA4",
"V. c #C6A884",
"C. c #D0B18B",
"Z. c #C0B294",
"A. c #D0BA92",
"S. c #D1BA93",
"D. c #D7BD93",
"F. c #D9BB93",
"G. c #F7B18C",
"H. c #C1BFA9",
"J. c #89C494",
"K. c #E2C49A",
"L. c #FAC49B",
"P. c #D5C8A7",
"I. c #D8CCAC",
"U. c #EBCEA2",
"Y. c #FCCDA2",
"T. c #E7D2AC",
"R. c #E8D3AD",
"E. c #EFD7AD",
"W. c #E4DDA9",
"Q. c #F0D2A5",
"!. c #F2D5A7",
"~. c #F5D6A9",
"^. c #F0D8AE",
"/. c #F7DBAF",
"(. c #F7DCAF",
"). c #FFE0B1",
/* pixels */
" . . .*.k.k.k.k.k.k.k.t. . . .X.&.-.%.%.%.;.&.&.;.;.&.&.&.;.&.&.&.;.&.&.;.;.&.&.%.O.X. . .O.-.&.;.;.&.&.$.;.%.%.;.-.&.$.X.X. . .",
" .X.t.k.k.k.k.k.k.k.k.k.y. . . .&.-.-.;.&.-.;.&.&.&.&.;.&.;.&.;.&.&.;.&.&.&.&.;.;.X. . .O.;.;.%.&.&.&.;.;.;.;.%.;.&.&.;.$.X. . .",
" .t.k.k.k.k.k.k.k.k.k.k.k.t. . .X.>.$.:.;.;.&.&.&.&.&.;.&.&.;.&.;.;.&.&.&.&.&.;.O.X.X.X.$.;.%.%.&.&.&.;.;.$.;.%.&.&.&.&.&.X. . .",
"t.k.k.k.k.k.k.k.k.k.k.k.k.k.-. . .&.:.:.&.&.&.;.;.;.&.&.;.&.&.&.&.&.&.;.;.;.&.&.X. .X.X.;.%.-.;.;.;.&.&.%.;.%.-.&.;.;.&.;.O. . .",
"k.k.k.k.k.k.k.k.z.x.x.x.v.v.v.v.v.v.v.v.v.v.v.c.x.x.&.;.&.&.&.;.&.;.;.&.&.&.x.v.v.v.v.v.v.v.v.c.c.c.v.v.l.x.l.k.;.&.;.&.&.$.X.t.",
"k.k.k.k.k.k.z.v.v.v.v.v.v.v.v.v.v.v.v.v.v.v.v.c.v.v.-.;.&.;.&.;.&.&.&.&.&.;.v.v.v.v.v.v.v.v.v.c.v.c.v.v.c.c.x.v.x.k.&.&.&.O.$.k.",
"k.k.k.k.k.z.v.v.:.| { { 5 5 5 5 5 5 5 5 5 5 5 5 5 5 ;.%.&.;.&.&.;.&.&.;.;.$.5 5 5 5 5 5 5 5 5 5 5 5 5 5 } } | >.c.v.k.&.O.X.;.l.",
"k.k.k.k.z.v.v.| 5 5 5 5 5 5 5 5 5 5 5 3 U I I I C S G G G G G G G G G G G D S S I I I Y 3 5 5 2 5 5 5 5 5 5 5 5 | v.v.;.X.X.;.k.",
"k.k.k.k.x.v.$.5 5 5 5 5 5 5 5 5 2 I C Z H H H H H H H H H H H H H H H H H H H H H H H H A C I 3 5 5 5 5 5 5 5 5 5 $.v.t.X. .X.k.",
"k.k.k.k.c.v.9 5 5 5 5 5 5 5 5 L A H A H H H H H H H H H H H H H H H H H H H H H H H H H H H H A I 5 5 5 5 5 5 5 5 9 v.l.X. .X.r.",
"t.k.k.k.c.v.5 5 5 5  .*.k.k.<.H H H H H H H H H H H H H H H H H H H H H H H H H H H H H H H H H A [ ;.$.X.| 5 5 5 5 v.v. . . . .",
"@.k.k.k.v.v.5 5 5 5 k.k.k.k.F H H H H H H H H H H H H H H H H H H H H H H H H H H H H H H H H H H F %.;.%.%.5 5 5 5 v.v. . . . .",
" .$.k.k.v.v.5 5 5 5 k.k.y.$.H H H H H H H H H H H H H H H H H H H H H H H H H H H H H H H H H H H H $.;.&.;.5 5 5 5 v.v.%.$.O.X.",
" . .%.k.v.v.5 5 5 5 k.k. . .H H H H H H H H H H H H H H H H H H H H H H H H H H H H H H H H H H H H X.X.X. .5 5 5 5 v.v.-.%.;.%.",
"*.X. .-.v.v.5 5 5 5 t.X. . .H H H H H H H H H H H H H H H H H H H H H H H H H H H H H H H H H H H H  . .X. .5 5 5 5 v.v.%.;.%.%.",
"e.$.X. .v.v.5 5 5 5 X. . .X.H H H H H H H H H H H H H H H H H H H H H H H H H H H H H H H H H H H H  . .X.X.5 5 5 5 v.v.-.%.%.;.",
"e.+.%.X.c.v.5 5 5 5  .X.$.%.H H H H H H H H H H H H H H H H H H H H H H H H H H H H H H H H H H H H  . .X.$.5 5 5 5 v.v.;.;.-.&.",
"%.e.;.$.v.v.5 5 5 5  .$.%.e.H H H H H H H H H H H H H H H H H A H H H H H H H H H H H H H H H H H H  . .O.;.5 5 5 5 v.v.%.%.&.;.",
"-.%.e.;.v.v.5 5 5 5 X.-.%.-.H H H H H H H H H H H H H H A J - - - - J A H H H H H H H H H H H H H H  .X.&.&.5 5 5 5 x.v.&.&.&.;.",
"$.r.%.%.v.v.5 5 5 5 $.-.;.%.H H H H H H H H H H H H H H ; O O O O O O ; H H H A H H H H H H H A H H O.;.;.&.5 5 5 5 v.v.;.;.&.&.",
";.&.&.&.v.v.5 5 5 5 $.%.-.-.B B B B B B B B B B B B B : O O O O O O O O : B B B B B B B B B B B B B &.&.;.&.5 5 5 5 v.v.&.&.&.;.",
"&.&.;.;.v.v.5 5 5 5  .e.*.-.B B B B B B B B B B B B B O O O O O O O O O O B B B B B B B B B B B B B ;.-.;.&.5 5 5 5 v.v.&.;.&.&.",
"&.;.%.-.v.v.5 5 5 5  .X.*.e.B B B B B B B B B B B B B - O O O O O O O O - B B B B B B B B B B B B B ;.%.&.&.5 5 5 5 v.v.;.&.;.&.",
"&.&.;.%.v.v.5 5 5 5  . .*.%.S B B B B B B B B B B B B B B B B B B B B B B B B B B B B B B B B B B Z %.;.&.;.5 5 5 5 v.x.&.&.;.&.",
";.;.&.&.v.v.7 5 5 5 X.X. .e...B B B B B B B B B B B B B B B B B B B B B B B B B B B B B B B B B B [ -.-.%.%.5 5 5 5 v.v.;.;.&.&.",
"&.&.&.;.v.v.5 5 5 5  .X. . .#.O O O O O O O O O O O O O O O O O O O O O O O O O O O O O O O O O O ;.%.&.;.;.5 5 5 5 v.v.&.&.&.;.",
"&.&.&.;.&.&.;.&.%.O. . .X.X. .O O O O O O O O O O O O O O O O O O O O O O O O O O O O O O O O O O &.;.;.-.%.%.%.;.&.&.&.&.&.&.;.",
";.;.&.&.;.&.&.&.;.X. . .9.f.f.O O O O O O O O O O O O O O O O O O O O O O O O O O O O O O O O O O g.f.p.%.;.r.%.&.;.;.&.;.;.&.&.",
"&.&.;.&.&.;.&.;.$.X. .0.S.F.D.O O O O O O O O O O O O O O O O O O O O O O O O O O O O O O O O O O D.D.S.w.r.%.%.;.&.&.&.&.&.&.;.",
"&.;.&.&.&.&.&.&.X.X. .f.D.F.D.O O O O O O O O O O O O O O O O O O O O O O O O O O O O O O O O O O F.D.D.f.;.-.r.&.&.;.;.&.;.&.&.",
"&.&.;.;.;.;.&.X. . . .F.D.D.D.O O O O O O O O O O O O O O O O O O O O O O O O O O O O O O O O O O D.D.D.D.&.&.&.&.;.&.&.;.&.;.&.",
";.&.&.&.&.&.X.X. . . .F.D.D.D.> O O O O O O O O O O O O O O O O O O O O O O O O O O O O O O O O * D.D.D.D.&.;.;.&.&.;.&.&.&.;.&.",
"r.%.%.%.-.X. . . . . .Z.D.D.F.f O O O O O O O O O O O O O O O O O O O O O O O O O O O O O O O O d D.D.D.f.r.e.e.%.%.;.%.;.%.;.%.",
"%.%.r.%.$. . . . . . .0.A.D.D.!.K.F.) g O O O O O O O O O O O O O O O O O O O O O O O O d ) F.K.~.D.D.S.q.-.%.%.-.-.%.%.%.;.%.;.",
"%.r.e.X.X. . . . . . . .0.f.F.U.).).).).).F.C.( g g = O O O O O O O O O O * g g / V.F.~.).).).).Q.F.f.7.X.$.-.-.%.%.-.r.&.;.;.&.",
"%.%.X. . . . . . . .$.-.-.-.$.N.).).).).).).).).).).).).).).).).).).).)./.).).).).).).).).).).).j. . .X. .X.$.-.e.%.-.%.&.&.&.;.",
"%.O.X. . . . . . .$.e.%.-.-.%.s.).).).).).).).).).).).).).).).).).).).).).).).).).).).).).).).).j. . . . . . .$.;.%.%.-.;.;.&.&.",
"O.X. . . .X. . .+.-.-.-.%.-.;.b.).).).).).).).).).).).).).).).).).).).).).).).).).).).).).).).).a.e.>.$.X. . . .$.-.-.;.&.&.;.&.",
" . . . .v.v.5 5 5 5 $.r.%.-.-.-.T.).).).).).).).).).).).).).).).).).).).).).).).).).).).).).).R.k.k.k.k.>. .5 5 5 5 v.v.;.O.O.X.",
" . . . .c.c.5 5 5 5 -.%.-.-.1.,.2.Y.).).).).).).).).).).).).).).).).).).).).).).).).).).).).Y._ ,.3.k.k.x.>.5 5 5 5 v.l.X. . .X.",
" . . . .x.v.7 5 5 5 *.%.r.1.! ! ^ c m m m m m m ` 5.5.5.5.5.5.5.5.5.5.5.5.5.5.` m m m m m m c h ! ! 3.k.k.k.5 5 5 5 v.v.X. . . .",
" . . . .x.x.5 5 5 5 %.-.*.~ ! ! l a s s s s s s l Q ! ! ! ! ! ! ! ! ! ! ! ! Q l s s s s s s s s T ! ~ 4.k.k.5 5 5 5 v.v.X.X. . .",
" . . . .v.c.5 5 5 5 &.&.E ! ! Q s s s s s s s s s l R ! ! ! ! ! ! ! ! ! ~ R l s s s s s s s s s K ! ! ,.k.k.5 5 5 5 x.v. . . . .",
" . . . .v.c.5 5 5 5 :.-.~ ! 6.] s s s s s s s s s x a l W Q ! ! ! ! Q W v s s s s s s s s s s s ' 6.! ~ k.k.5 5 5 5 v.v. . . . .",
" . . . .v.v.7 5 5 5 -.:.! 6.).] s s s s s s s s s s s s s s s s a a s s s s s s s s s s s s s s m ).6.! k.k.5 5 5 5 v.v. . . . .",
" . . . .v.v.5 5 5 5 -.&.~ W.).] s s s s s s s s s s s s s s s s s x s s s s s s s s s s s s s s m ).W.~ k.k.5 5 5 5 v.v. . . . .",
" . . . .v.c.5 5 5 5 &.-.a.).).] s s s i t t t t t t s s s s s s s s s s s s t t t t t t i s s s m ).).J.k.k.5 5 5 5 v.v. . . . .",
" . .X.X.v.c.5 5 5 5 &.3.B.).).] s s s u r r r r r r s s s s s s s s s s s s r r r r r r u s s s m ).).H.k.k.5 5 5 5 v.l. . . . .",
" . . . .v.v.6 5 5 5 O.r.n.).).] s s s p t r r r r r s s s s s s s s s s s s t r r r r r i s s s N ).).M.k.k.5 5 5 5 v.v.X. . . .",
" . . . .v.v.5 5 5 5 e.%.a.).).G.s s s s t r r r r u s s s s s s s s s s s s y r r r r r s s s s ] ).).b.k.k.5 5 5 5 v.v.X.X.X. .",
"O.X. . .v.v.5 5 5 5 r.r.-.E.).L.s s s s a y t t p s s s s s s a s s s s s s s p t t u a s s s s Y.).^.k.k.k.5 5 5 5 x.v.-.k.k.k.",
"k.-. . .v.c.5 5 5 5  .O.%.s./.).M s s s s s s s s s s x n k k k j j j b x s s s s s s s s s s m )./.m.k.k.k.5 5 5 5 x.v.k.k.k.k.",
"k.k.-.X.c.c.5 5 5 5  . .X.$.s.P., w s s s x a a s s q o %.%.&.&.X. . . .o q a a s s s s a a e < I.m.k.k.k.k.5 5 5 5 v.v.k.k.k.k.",
"k.k.k.r.c.c.7 5 5 5 }  .X. . . .                        0 r.t.-.%.+. .7                         k.k.k.k.k.X.5 5 5 5 v.v.k.k.k.k.",
"k.k.k.k.c.c.} 5 5 5 5 5 5 5 5 5                         0 %.%.%.%.r.+.6                         5 5 5 5 5 5 5 5 5 | v.x.k.k.k.k.",
"k.k.k.k.l.c.r.5 5 5 5 5 5 5 5 5 %                     $ +.%.t.%.%.%.-.+.#                     & 5 5 5 5 5 5 5 5 5 %.x.x.k.k.k.k.",
"k.k.k.k.k.v.v.| 5 5 5 5 5 5 5 5 5 1 % # .       . # 4 &.&.&.&.;.r.%.&.;.O.4 # #         X % 1 5 5 5 5 5 5 5 5 5 | v.v.l.k.k.k.k.",
"k.k.k.k.%.t.v.c.X.8 5 5 5 5 5 5 5 5 5 5 5 5 5 5 5 5 &.;.;.;.&.&.;.%.&.;.;.O.5 4 5 5 5 5 5 5 5 5 5 5 5 5 5 5 8 O.v.v.l.k.k.k.k.k.",
"k.k.k.r. . .t.c.c.c.c.v.v.v.v.v.v.v.v.v.c.v.v.v.v.v.&.&.&.&.;.&.%.%.%.&.&.;.x.c.v.v.v.v.v.v.v.v.v.v.v.v.c.c.c.v.v.k.k.k.k.k.k.k.",
"k.k.-. . . . .$.k.c.v.v.v.v.v.v.v.v.v.v.c.v.v.v.v.v.;.&.&.;.&.&.%.;.;.-.;.;.v.v.v.v.v.x.v.v.v.v.v.v.v.v.v.v.x.k.$.X.;.k.k.k.k.k.",
"k.$. . . . . . . . . . .X. . . .X.$.&.&.&.&.&.;.;.;.&.&.&.&.;.;.;.&.&.&.O.;.%.&.X. . . . . . .X.O.$.&.;.%.;.&.$. . .X.-.k.k.k.k.",
"$. . . . .X. . . . . . .X. . . .X.&.&.;.;.;.&.&.&.&.&.;.;.&.&.&.&.&.;.;.;.%.&.;.O. . . . . . .X.$.;.;.$.-.&.;.&.%. . . .$.k.k.k.",
" . . . . .X.r.t.t.%.X. . . . . .$.;.&.;.&.&.;.&.&.&.&.;.;.&.&.&.&.;.&.&.;.&.;.&.;.X. . . . .X.#.&.&.&.;.%.;.%.;.%.%.X. . . .X.X.",
" . . . .+.t.k.k.k.k.r. . . . .+.&.;.&.&.&.;.&.&.;.;.&.&.&.&.;.;.&.&.;.&.&.&.;.&.&.X. . . . .$.&.;.;.&.&.;.%.;.%.-.-.%. . . .X.X."
};
