/* XPM */
static char *img_ps_rs[] = {
/* columns rows colors chars-per-pixel */
"64 64 207 2 ",
"   c gray20",
".  c #353636",
"X  c #3E3433",
"o  c #3C3F3F",
"O  c #603935",
"+  c #6B3A35",
"@  c #694C39",
"#  c #69503E",
"$  c #3F4344",
"%  c #4C4842",
"&  c #454B4C",
"*  c #535D5F",
"=  c #6D594B",
"-  c #725540",
";  c #7B5E48",
":  c #6D5E50",
">  c #5A6C47",
",  c #6E6155",
"<  c #6D6459",
"1  c #536061",
"2  c #566466",
"3  c #5E7976",
"4  c #5B7D75",
"5  c #6F6C63",
"6  c #706E65",
"7  c #7F7362",
"8  c #617072",
"9  c #627577",
"0  c #647577",
"q  c #647779",
"w  c #667A7C",
"e  c #697D7F",
"r  c #717873",
"t  c #813D36",
"y  c #BA4539",
"u  c #C5473A",
"i  c #D0483A",
"p  c #E74C3C",
"a  c #85674F",
"s  c #8E7157",
"d  c #977A5E",
"f  c #AD744C",
"g  c #A17C4F",
"h  c #B4675F",
"j  c #8A7562",
"k  c #BB6F68",
"l  c #B2716A",
"z  c #B5756F",
"x  c #A97F7B",
"c  c #CF5C42",
"v  c #D45B4E",
"b  c #CE6155",
"n  c #EB6751",
"m  c #ED7159",
"M  c #C37369",
"N  c #EE7A60",
"B  c #3E9A6A",
"V  c #2BAC62",
"C  c #2FA964",
"Z  c #3CAC63",
"A  c #33AD68",
"S  c #28B162",
"D  c #28B262",
"F  c #29B765",
"G  c #29B966",
"H  c #2ABB67",
"J  c #2BBE69",
"K  c #35B56B",
"L  c #3BBF76",
"P  c #4F8451",
"I  c #4B8C55",
"U  c #76875D",
"Y  c #7E9459",
"T  c #739C5D",
"R  c #40A45F",
"E  c #45936D",
"W  c #548472",
"Q  c #508870",
"!  c #4F9E78",
"~  c #589A7D",
"^  c #5CAC63",
"/  c #42A772",
"(  c #52A17C",
")  c #53A37D",
"_  c #52AC7F",
"`  c #40B877",
"'  c #41BE7A",
"]  c #46BB7D",
"[  c #67A460",
"{  c #69AD67",
"}  c #2BC16B",
"|  c #2CC36C",
" . c #2CC56D",
".. c #2CC66E",
"X. c #2DC86F",
"o. c #39C46D",
"O. c #2DCA70",
"+. c #2ECC71",
"@. c #38C575",
"#. c #33C873",
"$. c #3BCD75",
"%. c #48CE79",
"&. c #55CF7D",
"*. c #5ACC7E",
"=. c #6DC97D",
"-. c #968453",
";. c #998972",
":. c #A18366",
">. c #AA8C6D",
",. c #B39969",
"<. c #B49675",
"1. c #BD9F7C",
"2. c #8FA76C",
"3. c #9CA970",
"4. c #E59472",
"5. c #F49F7D",
"6. c #5D9F83",
"7. c #6B8082",
"8. c #6C8183",
"9. c #6E8385",
"0. c #6F8385",
"q. c #708688",
"w. c #72888B",
"e. c #758C8E",
"r. c #768D8F",
"t. c #7C8889",
"y. c #669386",
"u. c #649784",
"i. c #689C8A",
"p. c #70908D",
"a. c #768E90",
"s. c #778E91",
"d. c #778F91",
"f. c #788F92",
"g. c #7C9092",
"h. c #7A9294",
"j. c #7B9295",
"k. c #7B9396",
"l. c #7C9497",
"z. c #7C9597",
"x. c #739992",
"c. c #7D9598",
"v. c #7F989A",
"b. c #7F989B",
"n. c #59AB85",
"m. c #5BAD87",
"M. c #5FA989",
"N. c #55B083",
"B. c #56B184",
"V. c #69A38E",
"C. c #63B68A",
"Z. c #6EA091",
"A. c #5DC489",
"S. c #62D181",
"D. c #6FD285",
"F. c #78CE9C",
"G. c #848585",
"H. c #858E88",
"J. c #968280",
"K. c #8E9D96",
"L. c #80999B",
"P. c #819A9D",
"I. c #829C9F",
"U. c #839C9F",
"Y. c #8A999B",
"T. c #909494",
"R. c #A38481",
"E. c #A8AC9B",
"W. c #B1B19D",
"Q. c #BAB69F",
"!. c #849EA1",
"~. c #859FA2",
"^. c #86A0A3",
"/. c #87A2A4",
"(. c #88A3A5",
"). c #89A4A6",
"_. c #C6A884",
"`. c #D1B787",
"'. c #D0B18B",
"]. c #D9BB93",
"[. c #F6A885",
"{. c #F9BB93",
"}. c #89D48D",
"|. c #96D691",
" X c #B0D899",
".X c #BDD99D",
"XX c #93D8B0",
"oX c #E2C49A",
"OX c #D5C7A7",
"+X c #DCCBA8",
"@X c #CADBA1",
"#X c #D7DCA5",
"$X c #E5CAA1",
"%X c #ECCDA2",
"&X c #E0D0AC",
"*X c #EED6AC",
"=X c #E4DDA9",
"-X c #F5D6A9",
";X c #FDD6A9",
":X c #F0D8AE",
">X c #FFE0B1",
",X c #AEE1C4",
"<X c #BBE6CD",
"1X c #CAF2DB",
"2X c #DCE2E3",
"3X c #EFF2F2",
"4X c white",
/* pixels */
"e.e.e.z.!.!.!.!.!.!.!.P.e.e.e.a.c.c.c.c.c.c.c.c.c.c.c.c.c.c.c.c.c.c.c.c.c.c.c.c.c.f.a.e.e.f.c.c.c.c.c.c.c.c.c.c.c.c.c.j.e.e.e.e.",
"e.a.P.!.!.!.!.!.!.!.!.!.I.e.e.e.c.c.c.c.c.c.c.c.c.c.c.c.c.c.c.c.c.c.c.c.c.c.c.c.c.f.e.e.f.c.c.c.c.c.c.c.c.c.c.c.c.c.c.c.h.e.e.e.",
"e.P.!.!.!.!.!.!.!.!.!.!.!.P.e.e.f.c.c.c.c.c.c.c.c.c.c.c.c.c.c.c.c.c.c.c.c.c.c.c.f.a.a.a.c.c.c.c.c.c.c.c.c.c.c.c.c.c.c.c.c.f.e.e.",
"P.!.!.!.!.!.!.!.!.!.!.!.!.!.c.e.a.c.c.c.c.c.c.c.c.c.c.c.c.c.c.c.c.c.c.c.c.c.c.c.a.a.w.f.c.c.c.c.c.c.c.c.c.c.c.c.c.c.c.c.c.h.e.e.",
"!.!.!.!.!.!.!.!.^./././.).).).).(.).).).).(.(.(.(.(.c.c.c.c.c.c.c.c.c.c.c.c.(.(.).).).).).).(.(.(.(.).).~.~.!.!.c.c.c.c.c.f.e.P.",
"!.!.!.!.!.!.^.).).).).).).).).).(.(.).).).(.(./.).(.c.c.c.c.c.c.c.c.c.c.c.c.).).(.(.).).).).)./.).).(.(.).).(.(.(.U.c.c.c.f.j.!.",
"!.!.!.!.!.^.).).v.q.7.7.9 9 9 9 9 9 9 9 q q 9 9 q 9 c.j.c.c.c.c.c.c.c.c.c.j.q 9 0 3 9 9 q 0 9 9 q 9 9 9 8.7.q.L.(.(.!.c.j.e.P.!.",
"!.!.!.!.^.).).q.9 9 9 9 9 9 9 9 9 9 9 3 0 0 W W E E ! n.( ) ) ) ! n.! n.! ! E E W 3 9 9 9 3 9 9 9 9 9 9 q 0 9 9 q.(.(.L.a.e.c.!.",
"!.!.!.!.!.).h.9 9 9 9 9 9 9 9 9 9 9 9 9 E V S S S S S S S S S S V V D D S S S S S S C B Q 3 9 3 9 9 9 9 9 9 9 9 q j.).P.a.e.h.!.",
"!.!.!.!.).).e 9 9 9 9 9 9 9 9 9 9 3 9 B S D S S S S S S S S S S D D D D S S S S S S S S S S B 4 9 9 9 9 9 9 9 9 q e ).!.e.e.e.c.",
"!.!.!.!.).).9 9 9 9 e.z.!.!.!.h.e.e.y.D S S S S S S S S S S S S S S D S S S S S S S S S S S S S / x.c.c.a.q.9 9 0 9 (.).e.e.e.a.",
"a.!.!.!.).).9 3 9 9 !.!.!.!.h.e.e.e.! D S S S S S S S S S S S S S S S S S S S S S S S S S S S S D C i.c.c.c.9 9 0 0 ).).e.e.e.e.",
"a.h.!.!.).).9 0 9 9 !.!.!.h.e.e.e.e.C.A.K S S S S S S S S S S S S S S S S S S S S S S S S S S S D D D 6.c.c.0 9 9 9 ).).h.h.h.e.",
"e.e.h.!.).).0 0 9 9 !.!.e.e.e.e.e.e.2X4X4X,XA.S S S S S S S S S S S S S S S S S S S S S S S S S D D V D u.a.3 9 9 9 ).).c.c.c.c.",
"j.a.a.c.).).9 9 9 9 P.a.e.a.e.h.c.c.2X4X4X4X4XXXS S S S S S D D S S S S S S S S S S S S S S S S S S D D A e.9 9 9 9 (.).c.c.c.c.",
"c.h.a.a./.).9 9 9 9 a.e.e.a.c.c.z.l.3X4X4X4X4X4XF.S S S D D D V S S S S S S S S S S S S S S S S S D D D V ~ 9 9 9 9 (.(.c.c.c.c.",
"c.c.c.a.(.).0 0 9 9 a.a.f.c.c.c.c.c.4X4X4X4X4X4X4XA.D D V D D D S S S S D D D D S S S S F S S V S S S S S B 0 0 3 q ).).c.c.c.c.",
"c.c.c.c.(.).0 0 9 9 e.h.c.c.c.c.c.c.4X4X4X4X4X4X4X<XD D D D D D S S S S D D V D S S S S D S S S S S S S S S 3 0 3 0 ).).c.c.c.c.",
"c.c.c.c.).).3 9 0 3 a.c.c.z.z.Z.Z.V.1X1X1X1X1X1X1X1XD D D D D D S S S S D S D D S S S S D S S F S S S S S S 4 9 0 0 ).).c.c.c.c.",
"c.c.c.c.).(.9 9 0 0 h.c.V.' O.O.+.+.+.+.+.+.+.+.+.+.O.+.O.+. . .} J F F F D D D S S S S S S S S S S S S S V W 9 3 0 ).).c.c.c.c.",
"c.c.c.c.).).9 9 9 9 n.#.+.+.+.#.+.+.+.+.+.+.+.+.+.+.+.+.+.+.+.+.O.+.+.+.+.+.O. .J G G D S S S V S S S S S S W 9 9 9 ).).c.c.c.c.",
"c.c.c.c.).).9 9 9 9 +.+.+.+.+.O.+.+.+.+.+.+.+.+.+.+.+.+.+.+.+.+.+.+.+.+.+.+.+.+.O.O.+.O.X...G G S S S S S S 3 0 9 3 ).).c.c.c.c.",
"c.c.c.c.).).9 9 9 9 L X.+.+.X.#.+.+.+.+.+.+.+.+.+.+.+.+.+.+.+.+.+.+.+.+.+.+.+.+.+.+.+.+.+.+.+.+.O...J G S A 0 0 9 9 ).).c.c.c.c.",
"c.c.c.c.).).9 9 9 9 p.N.N.' ' ' L #.+.+.+.+.+.+.+.+.+.+.+.+.+.+.+.+.+.+.+.+.+.+.+.+.+.+.+.+.+.+.O.O.O.+.O.L 0 0 9 9 ).).c.c.c.c.",
"c.c.c.c.).).9 9 9 9 a.a.a.f.c.L.c.c.c.>X>X#X@X@X@X X|.|.|.}.S.S.S.A.+.+.+.+.+.+.O.O.O.O.+.+.O.O.O.O.X.#.O.N.9 9 9 9 ).).c.c.c.c.",
"c.c.c.c.(./.9 9 9 9 e.e.e.e.f.P.c.h.a.>X>X>X>X>X>X>X>X>X>X>X>X>X>X>X>X>X>X>XU > > > P I I I Z Z Z Z Z Z Z l.9 9 9 9 ).).c.c.c.c.",
"c.c.c.c.c.c.c.c.c.f.e.e.e.e.a.a.a.e.a.>X>X>X>X>X>X>X>X>X>X>X>X>X>X>X>X>X>X>X>.@ @ @ @ @ @ @ @ @ - @ @ @ @ j.c.c.c.c.c.c.c.c.c.c.",
"c.c.c.c.c.c.c.c.c.a.e.e.e.e.e.e.e.e.e.>X>X>X>X>X>X>X>X>X_.@ # oX>X>X>X>X>X>X%X@ @ @ @ @ @ @ @ @ @ @ @ @ @ j.c.c.c.c.c.c.c.c.c.c.",
"c.c.c.c.c.c.c.c.c.e.e.e.e.e.e.e.e.e.e.>X>X>X>X>X>X>X>X>X; @ @ s >X>X>X>X>X>X>X<.].>X>X>X].a @ @ @ @ @ @ @ c.c.c.c.c.c.c.c.c.c.c.",
"c.c.c.c.c.c.c.c.a.e.e.e.e.e.e.e.e.e.e.>X>X>X>X>X>X>X>X>X@ @ @ @ >X>X>X>X>X>X>X>X>X>X>X>X>X$X- @ @ @ @ @ @ c.c.c.c.c.c.c.c.c.c.c.",
"c.c.c.c.c.c.c.a.e.e.e.e.e.e.e.e.e.e.f.>X>X>X>X>X>X>X>X>X@ @ @ @ >X>X>X>X>X>X>X>X>X>X>X>X>X>X].@ @ @ @ @ @ c.c.c.c.c.c.c.c.c.c.c.",
"c.c.c.c.c.c.f.a.e.e.e.e.e.e.e.e.h.E.OX>X>X>X>X>X>X>X>X>Xa @ @ d >X>X>X>X>X>X>X>X>X>X>X>X>X>X>X@ @ @ @ @ @ c.c.c.c.c.c.c.c.c.c.c.",
"c.c.c.c.c.f.e.e.e.e.e.e.e.e.e.e.W.>X>X>X>X>X>X>X>X>X>X>X].@ ; -X>X>X>X>X>X>X>X>X>X>X>X>X>X>X>X# # @ @ @ = c.c.c.c.c.c.c.c.c.c.c.",
"c.c.c.c.f.e.e.e.e.e.e.e.e.e.e.e.*X>X>XoXd - s s d 1.%X>X>X>X>X>X>X>X>X>X>X>X>X>X>X>X>X>X>X>X1.@ @ @ @ @ : z.c.c.c.c.c.c.c.c.c.c.",
"c.c.c.f.a.e.e.e.e.e.e.a.a.a.a.e.Q.+X>X; @ @ @ @ @ @ @ '.>X>X>X>X>X>X>X>X>X>X>X>X>X>X>X>X>X%X# @ @ @ @ @ , h.z.z.c.c.c.c.c.c.c.c.",
"c.c.f.e.e.e.e.e.e.e.f.c.c.c.j.f.e.a.r @ @ @ @ @ @ @ @ @ ].>X>X>X>X>X>X>X>X>X>X>X>X>X>X>X>X>X].:.# @ @ @ 6 e.z.z.c.c.c.c.c.c.c.c.",
"j.f.e.e.e.e.e.e.e.h.c.c.c.c.c.c.h.f.5 @ @ @ @ @ @ @ @ @ ; >X>X>X>X>X>X>X>X>X>X>X>X>X>X>X>X>X>X>X>X].<.<.H.p.e.h.c.c.c.c.c.c.c.c.",
"f.e.e.e.e.a.e.e.f.c.c.c.c.c.c.c.c.c.6 @ @ @ @ @ @ @ @ @ - >X>X>X>X>X>X>X>X>X>X>X>X>X>X>X>X>X>X>X>X>X>X>XK.e.e.e.h.c.c.c.c.c.c.c.",
"e.e.e.e.).).9 9 9 9 c.c.c.c.c.c.c.c.f., @ @ @ @ @ @ s <.%X>X>X>X>X>X>X>X>X>X>X>X>X>X>X>X>X>X>X>X>X>X>X=XL.p.q 9 0 0 ).).c.c.h.e.",
"e.e.e.e.).(.9 9 9 9 c.c.c.c.c.c.c.c.c.z.*.=X>X>X>X>X>X>X>X>X>X>X>X>X>X>X>X>X>X>X>X>X>X>X>X>X>X>X>X>X:X).!.L.0 0 3 0 (.(.e.e.e.e.",
"e.e.e.e.(.(.q 0 9 9 c.c.c.c.c.c.c.c.c.N.+.$.S.S.S.S.S.S.S.S.S.3.m m m m ,.*.=.*.S.S.S.S.=.m m m m m M !.!.!.9 9 9 9 ).).a.a.w.a.",
"e.e.e.e.(.(.9 9 9 9 c.c.c.c.c.c.c.c.c.#.+.+.+.+.+.+.+.+.+.+.[ c p p p p o.+.+.+.+.+.+.+.$.-.p p p p p Y.!.!.9 9 9 9 ).).w.a.e.e.",
"e.e.e.e.(.(.9 9 9 9 c.c.c.c.c.c.c.c.Z.+.+.+.+.+.+.+.#.O.+.-.p p p p p f +.+.$.*.S.*.%.+.+.[ p p p p p x !.!.9 9 9 9 ).).e.e.e.e.",
"e.e.e.e.).(.9 9 9 9 c.c.c.c.c.c.c.c.m.+.+.+.+.+.+.+.+.T c p p p p p p Y %..X>X>X>X>X>XD.+.^ p p p p p k !.!.9 9 9 9 ).).e.e.e.e.",
"e.e.e.e.).).q 0 9 9 c.c.c.c.c.c.c.c.N.+.+.+.+.^ Y f p p p p p p p p p { =X>X>X>X>X>X>X>X|.^ p p p p p b !.!.9 9 9 9 ).).e.e.e.e.",
"e.e.e.e.).).0 0 9 9 c.c.c.c.c.c.c.c.l p p p p p p p p p p p p p p p p `.>X>X>X>X>X>X>X>X>X2.p p p p p b !.!.9 9 9 9 ).).e.e.e.e.",
"e.e.e.e.).).0 3 0 3 c.c.c.c.c.c.c.c.l p p p p p p p p p p p p p p p p oX>X>X>X>X>X>X>X>X>X4.p p p p p b !.!.9 9 9 9 ).).e.e.e.e.",
"e.e.e.a.).(.9 9 0 q c.c.c.c.c.c.c.c.l p p p p p p p p p p p p p p p p [.>X>X>X>X>X>X>X>X>X[.p p p p p b !.!.9 9 9 9 ).(.e.e.e.e.",
"e.e.e.e.).).9 9 9 9 c.c.c.c.c.c.c.c.l p p p p p p p p p p p p p p p p n >X>X>X>X>X>X>X>X>X{.p p p p p b !.!.9 9 9 9 ).).a.e.e.e.",
"e.e.e.e.).).9 9 9 9 c.j.c.c.c.c.c.c.J.p p p p p p p p p p p p p i t O O j >X>X>X>X>X>X>X>X5.p p p p p z !.!.9 9 9 9 ).).e.a.f.a.",
"f.e.e.e.).).9 9 9 9 z.L.c.c.c.c.c.c.G.p p p p p p p p p p p p y           7 >X>X>X>X>X>X>Xn p p p p p R.!.!.9 9 9 9 ).).z.!.!.!.",
"!.c.e.e.).).9 9 9 9 p.z.c.c.c.c.j.e.e.h p p p p p p p p p p u X             % ;.$X>X>X;XN p p p p p v Y.!.!.9 9 9 9 ).).!.!.!.!.",
"!.!.c.f.).).9 9 9 9 e.e.f.f.f.j.e.e.e.t.k p p p p p p p p p +                     X p p p p p p p v T.!.!.!.9 9 0 0 ).).!.!.!.!.",
"!.!.!.c.).).9 9 9 9 8.e.f.e.e.f.e.e.e.e.q.e.e.a.c.c.c.c.c.c.                        0 e.a.a.P.!.!.!.!.!.!.w.9 9 0 q ).(.!.!.!.!.",
"!.!.!.!.(.).8.0 9 9 9 9 9 9 9 9 9 9 9 9 9 9 9 9 9 9 c.c.c.c..                       2 9 9 9 9 9 9 9 9 9 9 9 9 9 0 8.).(.!.!.!.!.",
"!.!.!.!.^.).z.0 9 9 9 9 9 9 9 9 9 9 9 9 9 9 9 9 9 9 c.c.c.c.8                     $ 9 9 9 9 9 9 9 9 9 9 9 9 9 9 9 c.(.!.!.!.!.!.",
"!.!.!.!.I.(.).q.9 9 9 9 9 9 9 9 9 9 9 9 9 9 9 9 9 9 c.c.c.c.c.8.* & o       . & 1 9 9 9 9 9 9 9 9 9 9 9 9 9 9 9 w.).).!.!.!.!.!.",
"!.!.!.!.z.P.).).a.w 9 0 9 9 9 9 9 q 9 9 9 9 9 9 9 q c.c.c.c.c.c.c.c.c.c.c.f.9 9 9 0 9 9 9 9 9 9 9 9 9 9 9 9 w a.).).(.!.!.!.!.!.",
"!.!.!.L.e.e.P.).(.(.(.).).).).).).).).).(.).).).(.).c.c.c.c.c.c.c.c.c.c.c.c.).).).).).(.).).).).).).).).).).).).).!.!.!.!.!.!.!.",
"!.!.c.e.e.e.e.h.!.(.).).).).).).).).).).).).).).).).c.c.c.c.c.c.c.c.c.c.c.c.).).).).).(.).).).).).).).).).).(.!.d.p.c.^.!.!.!.!.",
"!.j.e.e.e.e.e.e.e.e.e.e.a.e.e.e.e.f.c.c.c.c.c.c.c.c.c.c.c.c.c.c.c.c.c.c.c.c.c.c.a.e.e.e.e.e.e.e.a.j.c.c.c.c.c.h.e.e.e.c.!.!.!.!.",
"h.e.e.e.e.e.e.e.e.e.e.e.e.e.e.e.f.c.c.c.c.c.c.c.c.c.c.c.c.c.c.c.c.c.c.c.c.c.c.c.f.e.e.e.e.e.e.a.f.c.c.c.c.c.c.c.h.a.e.e.h.!.!.!.",
"e.e.e.e.e.f.c.P.P.j.a.e.e.e.e.e.c.c.c.c.c.c.c.c.c.c.c.c.c.c.c.c.c.c.c.c.c.c.c.c.c.a.e.e.e.e.a.j.c.c.c.c.c.c.c.c.c.c.a.e.e.a.f.a.",
"e.e.e.e.f.!.!.!.!.!.P.a.e.e.e.a.c.c.c.c.c.c.c.c.c.c.c.c.c.c.c.c.c.c.c.c.c.c.c.c.c.f.e.e.e.e.h.c.c.c.c.c.c.c.c.c.c.c.h.e.e.e.e.a."
};
