/* XPM */
static char *img_wu[] = {
/* columns rows colors chars-per-pixel */
"64 64 55 1 ",
"  c #313D3F",
". c #374546",
"X c #3B4A4C",
"o c #3D4D4E",
"O c #415354",
"+ c #45595A",
"@ c #475C5D",
"# c #4C6365",
"$ c #656C61",
"% c #696F63",
"& c #6E7165",
"* c #757564",
"= c #787867",
"- c #727668",
"; c #916132",
": c #926232",
"> c #956433",
", c #9B6836",
"< c #9C6935",
"1 c #AA733C",
"2 c #AB733C",
"3 c #AD753D",
"4 c #AE763D",
"5 c #B1773E",
"6 c #B2783E",
"7 c #B47A3F",
"8 c #B77B40",
"9 c #B87C40",
"0 c #B97D40",
"q c #BB7F41",
"w c #7C847B",
"e c #BD8042",
"r c #B88146",
"t c #B98147",
"y c #B98247",
"u c #B4824C",
"i c #B6844D",
"p c #AC8557",
"a c #A8865C",
"s c #AE8859",
"d c #9D8563",
"f c #94876C",
"g c #94886D",
"h c #968A6F",
"j c #99937D",
"k c #AA8A60",
"l c #A88B66",
"z c #7E8B85",
"x c #758C8E",
"c c #798C8A",
"v c #768E90",
"b c #7A9295",
"n c #849087",
"m c #8B9B95",
"M c #849EA1",
/* pixels */
"xxxw%##########oO##############################OO##########&wxxx",
"xv&############Oo##############################oo############$xx",
"x=##+oXXXXXXXXX..XXXoXXXXXXXXXXXXXXXXXXXXXXXXXX..XooXXXXXXo+##*x",
"n##OXXXXXXXXXXX..XXXXXXXXXXXXXXXXXXXXXXXXXXXXXX..XXXXXXXXXXXo##w",
"-#@XXXXXXXXXXXX..XXXXXXXXXXXXXXXXXXXXXXXXXXXXXX..XXXXXXXXXXXo@#-",
"$#OXXXXXXXXXXXX..XXXXXXXXXXXXXXXXXXXXXXXXXXXXXX..XXXXXXXXXXXXo#$",
"##oXXXXXXXXXXXX..XXXXXXXXXXXXXXXXXXXXXXXXXXXXXX..XXXXXXXXXXXXo##",
"##XXXXXXXXXXXXX..XXXXXXXXXXXXXXXXXXXXXXXXXXXXXX..XXXXXXXXXXXXo##",
"##XXXXXXXXXXXXX..XXXXXXXXXXXXXXXXXXXXXXXXXXXXXX..XXXXXXXXXXXXX##",
"##XXXXXXXXXXXXX..XXXXXXXXXXXXXXXXXXXXXXXXXXXXXX..XXXXXXXXXXXXX##",
"##XXXXXXXXXXXXX..XXXXXXXXXXXXXXXXXXXXXXXXXXXXXX..XXXXXXXXXXXXX##",
"##XXXXXXXXXXXXX..XXXXXXXXXXXXXXXXXXXXXXXXXXXXXX..XXXXXXXXXXXXX##",
"##ooXXXXXXXXXXX..XXXXXXXXXXXXXXXXXXXXXXXXXXXXXX..XXXXXXXXXXXXX##",
"oo                                                            oo",
"oo                                                           .OO",
"u818122222222222111111111111111<,11111111111111111111111111118ee",
"ee11111111111111111111111111111<>1111111111111111111111111111177",
"ee11111111111111111111111111111,,11111111111111111111111111111qq",
"ee81111111111111111111111111111,,81111111111111111111111111113ee",
"ee11111111111111111111111111111,,,1111111111111811111111111117ee",
"e011111111111111111111111111111,,111111111118,8,1111111111111100",
"e811111111111111111111111111111,,811111111118,,811111111111111qq",
"ee11111111111111111111111111111,>11111111111,8,711111111111113ye",
"ee11111111111111111111111111111,,111111111110<7711111111111113ee",
"ee88eeeeeeeeeeeeeeeeeeeeeeeeeeeeuyeeeeeee8eeeeeeee0eeee0qqqq777e",
"ee08eeeeeeeeeeeeeeeeeeeeeeeeeeeeeeeeeeeee8eeeee8eee8eee8eqq7eqee",
"ee88211111111111111111111111111111111111111178,,71118211711177qe",
"ey1111111111111111111111111111111111111111117,8811111111311167ee",
"ee11111111111111111111111111111111121111111111111111111111113277",
"ee111122111111111111111111111111111211111111111111112211111132qe",
"ee1111:;;;;;;;;;;;;;;;;;;;;;;;;;;;;;;;::;;;;;;;;;;;;;;;;::1111qe",
"ee1111::;;;;;;;;;;;;;;;;;;;;;;;;;;;;;;;:;;;;;;;;;;;;;;;;::1110ee",
"e01111;;;;;;;;;;;;;;;;;;;;;;;;;;;;;;;;;;;;;;;;;;;;;;;;;;;;11110e",
"ee1111;;;;;;;;;;;;;;;;;;;;;;;;;;;;;;;;;;;;;;;;;;;;;;;;;;;;1111ee",
"ee1111;;;;;;;;;;;;;;;;;;;;;;;;;;;;;;;;;;;;;;;;;;;;;;;;;;;;1111ee",
"ee1111;;;;;;;;;;;;;;;;;;;;;;;;;;;;;;;;;;;;;;;;;;;;;;;;;;;;1111ee",
"ee1311;;;;;;;;;;;;;;;;;;;;;;;;;;;;;;;;;;;;;;;;;;;;;;;;;;;:1111ee",
"ee1111;;;;;;;;;;;;;;;;;;;;;;;;;;;;;;;;;;;;;;;;;;;;;;;;;;;:1111ee",
"e01111;;;;;;;;;;;;;;;;;;;;;;;;;;;;;;;;;;;;;;;;;;;;;;;;;;;;1111ee",
"ee1111;;;;;;;;;;;;;;;;;;;;;;;;;;;;;;;;;;;;;;;;;;;;;;;;;;;;1111ee",
"ee1111::;;;;;;;;;;;;;;;;;;;;;;;;;;;;;;;;;;;;;;;;;;;;;;;;;;11110e",
"ee1111;;;;;;;;;;;;;;;;;;;;;;;;;;;;;;;;;;;;;;;;;;;;;;;;;;;;1111ee",
"ee3111;;;;;;;;;;;;;;;;;;;;;;;;;;;;;;;;;;;;;;;;;;;;;;;;;;;;2111ee",
"ee3111;;;;;;;;;;;;;;;;;;;;;;;;;;;;;;;;;;;;;;;;;;;;;;;;;;;;2111ee",
"0r1111;;;;;;;;;;;;;;;;;;;;;;;;;;;;;;;;;;;;;;;;;;;;;;;;;;;;1111ee",
"q01111;;;;;;;;;;;;;;;;;;;;;;;;;;;;;;;;;;;;;;;;;;;;;;;;;;;;1111ee",
"ee1111;;;;;;;;;;;;;;;;;;;;;;;;;;;;;;;;;;;;;;;;;;;;;;;;;;;;1111ee",
"ee1111;;;;;;;;;;;;;;;;;;;;;;;;;;;;;;;;;;;;;;;;;;;;;;;;;;;;1111ee",
"ee7311;;;;;;;;;;;;;;;;;;;;;;;;;;;;;;;;;;;;;;;;;;;;;;;;;;;;1111ee",
"ee1111;;;;;;;;;;;;;;;;;;;;;;;;;;;;;;;;;;;;;;;;;;;;;;;;;;;;1111ee",
"qq1111;;;;;;;;;;;;;;;;;;;;;;;;;;;;;;;;;;;;;;;;;;;;;;;;;;;;1111ee",
"q71111;;;;;;;;;;;;;;;;;;;;;;;;;;;;;;;;;;;;;;;;;;;;;;;;;;;;1111ee",
"qe1111;;;;;;;;;;;;;;;;;;;;;;;;;;;;;;;;;;;;;;;;;;;;;;;;;;;;1111ee",
"ee1111;;;;;;;;;;;;;;;;;;;;;;;;;;;;;;;;;;;;;;;;;;;;;;;;;;;;1111ee",
"ee7111:;;;;;;;;;;;;;;;;;;;;;;;;;;;;;;;;;;;;;;;;;;;;;;;;;;;1111ee",
"ee4311::;;;;;;;;;;;;;;;;;;;;;;;;;;;;;;;;;;;;;;;;;;;;;;;;;;1111ee",
"8u228,;;;;;;;;;;;;;;;;;;;;;;;;::;;;;;;;;:;;;;;;;;;;;;;::;;1113ee",
"u828,8;;;;;;;;;;;:;;;;;;;;;;;;;:;;;;;;;;::;;;;;;;;;;;::;;,1111ei",
"le8,888,111111111111111111111111111111111111111111111111111113es",
"je8,8,9,111111111111111111111111111111111111111111111111111118el",
"Mue29,9800<71111111111111111111111111111111111111111211111118eem",
"bfee998,<<771111331111111111111111111111111111111111221111780ehM",
"xxdeeeqq9qeeee7qeeeee0eeeeeeeeeeeeeeeeeeeeeeeeeeeee0eeeeeeeetgbv",
"xxvzhksuqqeeeqqqeeeeeeeeeeeeeeeeeeeeeee8eeeeeeeeeeeeeeeeypagcxvv"
};
