/* XPM */
static char *img_wr[] = {
/* columns rows colors chars-per-pixel */
"64 64 52 1 ",
"  c #313D3F",
". c #374546",
"X c #3B4A4C",
"o c #3D4D4E",
"O c #45595A",
"+ c #475C5D",
"@ c #4C6365",
"# c #656C61",
"$ c #696F63",
"% c #6E7165",
"& c #787867",
"* c #727568",
"= c #727668",
"- c #916132",
"; c #926232",
": c #956433",
"> c #9B6836",
", c #9C6935",
"< c #AA733C",
"1 c #AB733C",
"2 c #AD753D",
"3 c #AE763D",
"4 c #B1773E",
"5 c #B47A3F",
"6 c #B77B40",
"7 c #B87C40",
"8 c #7B857C",
"9 c #BD8042",
"0 c #B88146",
"q c #B98247",
"w c #B4824C",
"e c #B6844D",
"r c #AC8557",
"t c #A8865C",
"y c #AE8859",
"u c #AA895F",
"i c #9D8563",
"p c #94876C",
"a c #94886D",
"s c #968A6F",
"d c #99937D",
"f c #A88B66",
"g c #7E8B85",
"h c #758C8E",
"j c #758D8F",
"k c #798C8A",
"l c #768E90",
"z c #789092",
"x c #7A9295",
"c c #849087",
"v c #8B9B95",
"b c #849EA1",
/* pixels */
"hhxbdue999999999999999999999999999999999999999999oo@@@@@@@#=clll",
"hhpw999999999999999999999999999999999999999999999oO@@@@@@@@@@&lh",
"hi9952<<<11<<<<<<<<<<<<<<<<<<<<<<<<<1791<<<<<<<<< .XXXXXXXo+@@%h",
"g992<<<<1111<<<<<<<<<<<<<<<<<<<<<<<<<496<<<<<<<<<  XXXXXXXoXo@@8",
"s952<<<<<<<<<<<<<<<<<<<<<<<<<<<<<<<<<199<<<<<<<<<  XXXXXXXXXXO@$",
"u94<<<<<<<<<<<<<<<<<<<<<<<<<<<<<<<<<<<99<<<<<<<<<  XXXXXXXXXXo@@",
"y92<<<:---------------------------<<<<99<<<<<<<<<  XXXXXXXXXXX@@",
"q92<<<----------------------------<<<<99<<<<<<<<<  XXXXXXXXXXX@@",
"99<<<<----------------------------<<<<99<<<<<<<<<  XXXXXXXXXXX@@",
"99<<<<----------------------------<<<<99<<<<<<<<<  XXXXXXXXXXX@@",
"99<<<<----------------------------<<<<99<<<<<<<<<  XXXXXXXXXXX@@",
"99<<<<----------------------------<<<<99<<<<<<<<<  XXXXXXXXXXX@@",
"99<<<<----------------------------<<<<99<<<<<<<<<  XXXXXXXXXXX@@",
"99<<<<----------------------------<<<<99<<<<<<<<<  XXXXXXXXXXX@@",
"99<<<<----------------------------<<<<99<<<<<<<<<  XXXXXXXXXoo@@",
"99<<<<----------------------------<<<<99<<<<<<<<<  ..........Xoo",
"99<<<<----------------------------<<<<99<<<<<<<<<  ...........oo",
"99<<<<----------------------------<<<<99<<<<<<<<<  XXXXXXXXXXX@@",
"99<<<<----------------------------<<<<99<<<<<<<<<  XXXXXXXXXoo@@",
"99<<<<----------------------------<<<<99<<<<<<<<<  XXXXXXXXXoo@@",
"99<<<<----------------------------<<1199<<<<<<<<<  XXXXXXXXXXX@@",
"99<<<<----------------------------<<1199<<<<<<<<<  XXXXXXXXXXX@@",
"99<<<<----------------------------<<117q<<<<<<<<<  XXXXXXXXXXX@@",
"99<<<<----------------------------<<1296<<<<<<<<<  XXXXXXXXXXX@@",
"99<<<<----------------------------<<<<99<<<<<<<<6  XXXXXXXXXXX@@",
"99<<<<----------------------------<<<<99<<<<<<<<>  XXXXXXXXXXX@@",
"99<<<<----------------------------<<<<99<<<<<<<<6  XXXXXXXXXXX@@",
"99<<<<----------------------------<<<<99<<<<<<<<<  XXXXXXXXXXX@@",
"99<<<<----------------------------<<<<99<<<<<<<<<  .XXXXXXXXXX@@",
"99<<<<----------------------------<<<<99<<<<<<<<<  XXXXXXXXXXX@@",
"99<<<<----------------------------<<<<996<>6<<6<6  XXXXXXXXXXX@@",
"99<<<<----------------------------<<<<99>>>>>:>:-  XXXXXXXXXXX@@",
"99<<<<----------------------------<<<<99>>>>>,,,,  XXXXXXXXXXX@@",
"95<<<<----------------------------<<<<99<<<<<<<<<  XXXXXXXXXXX@@",
"99<<<<----------------------------<<<<99<<<<<<<<<  XXXXXXXXXXX@@",
"99<<<<----------------------------<<<<99<<<<<<<<<  XXXXXXXXXXX@@",
"9922<<----------------------------<<<<99<<<<<<<<<  XXXXXXXXXXX@@",
"99<2<<----------------------------<<<<99<<<<<<<<<  XXXXXXXXXXX@@",
"99<<<<----------------------------<<<<99<<<<<<<<<  XXXXXXXXXXX@@",
"95<<<<----------------------------<<<<99<<<<<<<<<  XXXXXXXXXXX@@",
"99<<<<----------------------------<<<<99<<<<<<<<< .XXXXXXXXXXX@@",
"99<<<<----------------------------<<<<99<<<<<<<<<  XXXXXXXXXXX@@",
"992<<<----------------------------<<<<99<<<<<<<<<  .XXXXXXXXXX@@",
"9922<<----------------------------<<<<99<<<<<<<<< .XXXXXXXXXXX@@",
"99<<<<----------------------------<<<<99<<<<<<<<<  .XXXXXXXXXX@@",
"95<<<<----------------------------<<<<99<<<<<<<<<  XXXXXXXXXXX@@",
"99<<<<----------------------------<<<<99<<<<<<<<<  XXXXXXXXXXX@@",
"99<<<<----------------------------<<<<99<<<<<<<<<  ..........Xoo",
"9922<<----------------------------<<2299<<<<<<<<<  ...........oo",
"99<2<<----------------------------<<<299<<<<<<<<<  XXXXXXXXXXX@@",
"99<<<<----------------------------<<<<99<<<<<<<<<  XXXXXXXXXXo@@",
"95<<<<----------------------------<<<<99<<<<<<<<<  XXXXXXXXXXo@@",
"99<<<<----------------------------<<<<59<<<<<<<<<  XXXXXXXXXXX@@",
"99<<<<----------------------------<<<<99<<<<<<<<<  XXXXXXXXXXX@@",
"992<<<----------------------------<<2<99<<<<<<<<<  XXXXXXXXXXX@@",
"9922<<----------------------------<<2295<<<<<<<<<  XXXXXXXXXXX@@",
"q9<<<<----------------------------<<<<59<<<<<<<<<  XXXXXXXXXXX@@",
"r92<<<,---------------------------<<<<99<<<<<<<<<  XXXXXXXXXXX@@",
"t951<<<<<<<<<<<<<<<<<<<<<<<<<<<<<<<<2299<<<<<<<<<  XXXXXXXXXXX@@",
"p95<<<<<<<<<<<<<<<<<<<<<<<<<<<<<<<<<<299<<<<<<<<2  XXXXXXXXXXO@%",
"kq9442<<<<22<<<<2<<<<<22<<<<<<<<<<11<555<1<<<<<<<  XXXXXXoXXo@@8",
"hp995411<<<2<<<<22<<<<<2<<<<24<<<<12<594<2<<<<22<  XXXXXXoX+@@%j",
"hzs99999599999599999599999599999599999999999q999qoo@@@@@@@@@@=jj",
"hzbvfye999999999999999999999999999999999999999999Oo@@@@@@@#%8hhj"
};
