/* XPM */
static char *img_pe_fs[] = {
/* columns rows colors chars-per-pixel */
"64 64 169 2 ",
"   c #001A14",
".  c #001B15",
"X  c #001E17",
"o  c #001F18",
"O  c #091E19",
"+  c #002119",
"@  c #03231B",
"#  c #00241B",
"$  c #00251B",
"%  c #00251C",
"&  c #002A1F",
"*  c #002C1F",
"=  c #052D1E",
"-  c #0C2620",
";  c #002C20",
":  c #002E21",
">  c #002F21",
",  c #0C2C23",
"<  c #132320",
"1  c #192623",
"2  c #132823",
"3  c #1F2927",
"4  c #003022",
"5  c #073622",
"6  c #003424",
"7  c #003525",
"8  c #003625",
"9  c #003726",
"0  c #003826",
"q  c #003B28",
"w  c #023D29",
"e  c #003E29",
"r  c #003F29",
"t  c #1A3C2D",
"y  c #232E2B",
"u  c #262D2B",
"i  c #2C2F2F",
"p  c #2F3130",
"a  c #283F30",
"s  c gray20",
"d  c #433332",
"f  c #663428",
"g  c #66362A",
"h  c #0A4027",
"j  c #004029",
"k  c #00442C",
"l  c #0C492C",
"z  c #0B4D30",
"x  c #1F4734",
"c  c #0E5635",
"v  c #0B5A37",
"b  c #115C35",
"n  c #284534",
"m  c #2F4636",
"M  c #0F633B",
"N  c #14653B",
"B  c #624937",
"V  c #694C39",
"C  c #3F5240",
"Z  c #3F5F47",
"A  c #435842",
"S  c #4F5D49",
"D  c #725540",
"F  c #7B5E48",
"G  c #4F6A50",
"H  c #8C392C",
"J  c #803B34",
"K  c #C04033",
"L  c #CD4335",
"P  c #CE4335",
"I  c #D14436",
"U  c #D34536",
"Y  c #D64637",
"T  c #DA4738",
"R  c #DD4839",
"E  c #DB543F",
"W  c #E34A3B",
"Q  c #E74C3C",
"!  c #85674F",
"~  c #8E7157",
"^  c #CF5C42",
"/  c #EA5E4A",
"(  c #C46445",
")  c #EB6751",
"_  c #ED7159",
"`  c #EE7A60",
"'  c #1B8149",
"]  c #1E8B4E",
"[  c #1E8D50",
"{  c #1C9354",
"}  c #358551",
"|  c #239D58",
" . c #23A059",
".. c #25A75C",
"X. c #28B162",
"o. c #28B665",
"O. c #2ABB67",
"+. c #2BBE69",
"@. c #35B56B",
"#. c #739C5D",
"$. c #7F8568",
"%. c #7F8A6A",
"&. c #609D69",
"*. c #50B467",
"=. c #42BA75",
"-. c #50BF7F",
";. c #67A460",
":. c #63A368",
">. c #60A26C",
",. c #2BC16B",
"<. c #39C46D",
"1. c #2ECC71",
"2. c #48CE79",
"3. c #8A8C56",
"4. c #A38557",
"5. c #938C6D",
"6. c #938E6F",
"7. c #A18366",
"8. c #A68B6B",
"9. c #AA8C6D",
"0. c #A19675",
"q. c #A19776",
"w. c #A19876",
"e. c #B49675",
"r. c #B49976",
"t. c #BD9F7C",
"y. c #90B173",
"u. c #F18C6F",
"i. c #62D181",
"p. c #6FD285",
"a. c #78CE9C",
"s. c #AFA581",
"d. c #AFAA84",
"f. c #C6A884",
"g. c #C9B38B",
"h. c #C9B48B",
"j. c #D0B18B",
"k. c #C8B490",
"l. c #CFBC94",
"z. c #D7B692",
"x. c #D7BD93",
"c. c #D9BB93",
"v. c #F6A885",
"b. c #DFC89D",
"n. c #DFCB9F",
"m. c #E2C49A",
"M. c #E6CA9E",
"N. c #EECC9E",
"B. c #FAC49B",
"V. c #E8CCA0",
"C. c #ECCDA2",
"Z. c #FCCDA2",
"A. c #EFD4A7",
"S. c #E4DDA9",
"D. c #F2D5A7",
"F. c #F5D6A9",
"G. c #F5D7A9",
"H. c #FDD6A9",
"J. c #F1DEAD",
"K. c #FADBAD",
"L. c #FCDDAF",
"P. c #FFE0B1",
"I. c #AEE1C4",
"U. c #BBE6CD",
"Y. c #C9EBD7",
"T. c #D6F0E1",
"R. c #E4F5EB",
"E. c #F1FAF5",
"W. c white",
/* pixels */
"& & & 4 4 0 6 6 4 0 6 4 ; & & & + $ + % + % o + % + % + o ; o ; o o @ o ; o @ @ + % & & & $ % + $ % + + + % + o + % ; o ; ; ; ; ",
"& & 4 6 6 0 4 0 4 6 0 4 6 ; & & $ + + + $ + % + + + % + o o o o + o @ o o o ; o + & & & % + + % o + % + + + + % + + o o o ; ; ; ",
"* 4 6 6 6 4 0 4 0 0 6 6 6 4 & & % + + + o + + + % + o + o ; % + + o o o ; o o o $ & ; & + + $ + + % + + + % @ % + + % o o ; ; + ",
"4 6 6 6 0 4 6 6 6 4 4 0 6 6 * & & + % + + % + % + + + % % + + + ; o ; o o @ @ o % & & % + $ + + + + o % o % o + % + o ; o + ; ; ",
"6 6 6 6 6 6 4 6 0 j j j k k k k k k k k k k k k k k o + % + % + o o o o o @ k k k k k k k k k k k k k k 0 0 q ; % % % @ o o ; ; ",
"6 6 6 6 6 6 e k k k k k k k k k k k k k k k k j k k % + + + + o o ; o ; o @ k k k j k k k k k e k k k k k k k k k ; o + o ; ; 6 ",
"6 6 6 6 6 e k k 0 $ + +               . . .     . + % + % + + % @ @ o o o ;             . .             % o % 6 k k ; % % ; ; 6 ",
"6 6 6 6 0 k k $                       = h N N N N | [ [ [ [ [ [ [ [ [ [ ] [ ] [ N N N l 5 .                     % k e ; ; ; ; q ",
"6 6 6 6 j k 4                   = b ' | X.X.X.X.X.X.X.X.X.X.X.X.X.X.X.X.X.X.X.X.X.X.X.X...] N &                   ; k 6 ; % ; 6 ",
"6 6 6 6 j k +                 b ..X.X.X.X.X.X.X.X.X.X.X.X.X.X.X.X.X.X.X.X.X.X.X.X.X.X.X.X.X.X...N     .         . + k j ; ; ; 4 ",
"6 6 6 6 k k         $ ; 6 6 M X.X.X.X.X.X.X.X.X.X.X.X.X.X.X.X.X.X.X.X.X.X.X.X.X.X.X.X.X.X.X.X.X.X.c % o o .     .   k k ; ; ; ; ",
"* 6 6 6 k k         6 6 6 6  .X.X.X.X.X.X.X.X.X.X.X.X.X.X.X.X.X.X.X.X.X.X.X.X.X.X.X.X.X.X.X.X.X.X.| + + % +     . . k k % ; % ; ",
"& * 6 6 k k         6 6 6 6 X.X.X.X.X.X.X.X.X.X.X.X.X.X.X.X.X.X.X.X.X.X.X.X.X.X.X.X.X.X.X.X.X.X.X.X.% % o $         k k % + % ; ",
"& & 4 6 k k         6 4 & & X.X.X.X.X.X.X.X.X.X.X.X.X.@.a.U.Y.Y.Y.Y.U.a.X.X.X.X.X.X.X.X.X.X.X.X.X.X.; ; $ %         k k o % + + ",
"$ $ & 4 k k         6 * & & X.X.X.X.X.X.X.X.X.X.X.X.a.R.W.W.W.W.W.W.W.W.T.-.X.X.X.X.X.X.X.X.X.X.X.X.% ; ; ;         k k + o + % ",
"+ + & & k k         & & & $ X.X.X.X.X.X.X.X.X.X.X.-.E.W.W.W.W.W.W.W.W.W.W.R.-.X.X.X.X.X.X.X.X.X.X.X.; ; ; ;         k k % % + + ",
"+ + + % k k . .     ; ; % + X.X.X.X.X.X.X.X.X.X.=.E.W.W.W.W.W.W.W.W.W.W.W.W.T.@.X.X.X.X.X.X.X.X.X.X.% ; ; o         k k o + + % ",
"+ $ % + k k . .     % % + + X.X.X.X.X.X.X.X.X.X.I.W.W.W.W.W.W.W.W.W.W.W.W.W.W.I.X.X.X.X.X.X.X.X.X.X.; ; ; +         k k o % + o ",
"+ + + + k k .       % + + + X.X.X.X.X.X.X.X.X.X.E.W.W.W.W.W.W.W.W.W.W.W.W.W.W.E.X.X.X.X.X.X.X.X.X.X.$ + % +         k k o o % o ",
"+ $ $ + k j         % + % + X.X.o.o.o.o.o.+.+.+.+.+.+.+.+.+.+.+.+.+.+.+.+.+.+.+.+.+.+.O.o.o.o.o.X.X.% + o +         k k o ; o % ",
"+ % + + k k . .     % $ + $ 1.1.1.1.1.1.1.1.1.1.1.1.1.1.1.1.1.1.1.1.1.1.1.1.1.1.1.1.1.1.1.1.1.1.1.1.+ + % o     .   k k ; o ; o ",
"$ + % + k k   .     % o + + 1.1.1.1.1.1.1.1.1.1.1.1.1.1.1.1.1.1.1.1.1.1.1.1.1.1.1.1.1.1.1.1.1.1.1.1.$ o % +     .   k k o o o o ",
"o + + $ k k         ; % + % 1.1.1.1.1.1.1.1.1.1.1.1.1.1.1.1.1.1.1.1.1.1.1.1.1.1.1.1.1.1.1.1.1.1.1.1.+ % o $ .   .   k k ; o + + ",
"+ % % + k j         ; ; + + o.1.1.1.1.1.1.1.1.1.1.1.1.1.1.1.1.1.1.1.1.1.1.1.1.1.1.1.1.1.1.1.1.1.1.o.% o % o         k e o o o ; ",
"+ + + % k k   .     ; ; % + c 1.1.1.1.1.1.1.1.1.1.1.1.1.1.1.1.1.1.1.1.1.1.1.1.1.1.1.1.1.1.1.1.1.1.c ; + + +         k k ; o @ o ",
"+ % + o k k . .     ; ; ; % $ B V V C.P.P.P.P.P.P.P.P.P.P.P.P.P.P.P.P.P.P.P.P.P.P.P.P.P.P.P.7.V V o o + % o   o     k k o o o ; ",
"+ + % + o o o ; o o ; % ; ; ; V V 9.P.P.P.P.P.P.P.P.P.P.P.P.P.P.P.P.P.P.P.P.P.P.P.P.P.P.P.P.C.V V o o o o + + + + o ; o @ o o o ",
"% % + + ; o o o ; o ; ; A 6.q.V ! G.P.P.P.m.~ ~ m.P.P.P.P.P.P.P.P.P.P.P.P.P.P.m.~ ~ c.P.P.P.P.e.V q.6.A o % $ o o % o o @ o o ; ",
"o + + + ; o o @ o ; ; n g.z.x.F m.P.P.P.P.~ V V ~ P.P.P.P.P.P.P.P.P.P.P.P.P.P.~ V V ~ P.P.P.P.P.! x.x.k.a o + % @ o ; o o o o @ ",
"+ % + % o o o o ; ; ; q.c.c.x.G.P.P.P.P.P.V V V V P.P.P.P.P.P.P.P.P.P.P.P.P.P.V V V V P.P.P.P.P.G.c.x.x.q.% % o @ o o @ ; o o @ ",
"+ + + + ; o ; ; ; ; ; z.x.x.x.P.P.P.P.P.P.V V V V P.P.P.P.P.P.P.P.P.P.P.P.P.P.V V V V P.P.P.P.P.P.x.x.x.z.@ @ @ o ; o @ o @ ; o ",
"+ % % o o o o ; ; @ ; z.x.x.x.P.P.P.P.P.P.! V V ! P.P.P.P.P.V.m.m.M.L.P.P.P.P.! V V ! P.P.P.P.P.L.x.x.x.z.; o o o o o o ; @ o o ",
"o ; + o o o ; ; ; $ ; q.x.x.z.K.P.P.P.P.P.m.D D m.P.P.P.P.A.x.x.x.x.V.P.P.P.P.m.D V c.P.P.P.P.P.G.x.x.x.q.+ + + + $ + + % % o + ",
"o + @ o o ; ; ; ; ; ; n g.x.x.G.P.P.P.P.P.P.P.P.P.P.P.C.t.x.x.x.x.x.x.t.m.P.P.P.P.P.P.P.P.P.P.P.G.x.x.g.n + + + + + + $ + + o % ",
"o @ o ; ; ; ; o ; ; ; ; t q.c.A.P.P.P.P.P.P.P.P.P.P.j.V V 8.z.x.x.x.r.V V g.P.P.P.P.P.P.P.P.P.P.D.x.w.t & + + + $ + $ + o % % o ",
"o @ o ; ; ; ; ; ; + % o % + % $.P.P.P.P.P.P.P.P.P.c.V V V V V V V V V V V V f.P.P.P.P.P.P.P.P.P.$.& ; ; & & $ + + + + $ + + + $ ",
"; o ; ; ; ; ; ; ; % + + o @ @ C P.P.P.P.P.P.P.P.P.! V V V V V V V V V V V V D P.P.P.P.P.P.P.P.P.$.& ; & & & & $ ; o ; o % o $ + ",
"; ; ; ; ; ; ; % + o + % o o o m P.P.P.P.P.P.P.P.P.V V V V V V V V V V V V V D P.P.P.P.P.P.P.P.P.x 4 4 4 & & & & o o o o o % % + ",
"; @ ; @ k k         + % o ; o @ l.P.P.P.P.P.P.P.P.V.e.~ V V V V V V V V ~ e.C.P.P.P.P.P.P.P.P.l.6 4 6 6 4 ; .       k k o + ; ; ",
"; ; ; ; k k       o + o @ @ z [ } Z.P.P.P.P.P.P.P.P.P.P.P.P.P.P.P.P.P.P.P.P.P.P.P.P.P.P.P.P.Z.:.{ v 0 4 6 4         k k ; + ; ; ",
"; ; ; @ e k         o ; o z 1.1.1.4._ _ _ _ _ _ y.i.i.i.i.i.i.i.i.i.i.i.i.i.i.y._ _ _ _ _ _ 4.1.1.1.v 9 6 6         k k ; ; ; ; ",
"; @ ; ; k k . .     o o ; +.1.1.1.1.3.Q Q Q Q Q ^ <.1.1.1.1.1.1.1.1.1.1.1.1.<.^ Q Q Q Q Q 3.1.1.1.1.,.w 6 6         k k ; ; ; ; ",
"; ; ; @ k k .       o o [ 1.1.1.i.i.2.#.^ Q Q Q Q ^ *.1.1.1.1.1.1.1.1.1.1.*.^ Q Q Q Q E #.2.i.i.1.1.1.{ 6 6         e k ; ; ; + ",
"; @ ; ; k e         ; o +.1.p.J.P.P.P.P.N.) Q Q Q Q Q ( ;.<.1.1.1.1.<.;.( Q Q Q Q Q ) N.P.P.P.P.J.p.1.+.6 6         k k ; ; ; ; ",
"; ; ; ; k k . .     + ; 1.p.P.P.P.P.P.P.P.Z.Q Q Q Q Q Q Q Q Q Q Q Q Q Q Q Q Q Q Q Q Z.P.P.P.P.P.P.P.p.1.6 6         k k @ ; @ ; ",
"; @ ; ; k k . . . . o o +.S.P.P.P.P.P.P.P.P.Q Q Q Q Q Q Q Q Q Q Q Q Q Q Q Q Q Q Q Q P.P.P.P.P.P.P.P.S.,.6 6     o   k k ; ; ; ; ",
"; @ ; ; k k     . . ; ; &.P.P.P.P.P.P.P.P.P.Q Q Q Q Q W W T I I U U T W Q Q Q Q Q Q P.P.P.P.P.P.P.P.P.>.9 6         k k ; @ ; @ ",
"; ; ; ; k e     .   o 6 F P.P.P.P.P.P.P.P.B.Q Q Q Q Q T P I L L L L L L T Q Q Q Q Q B.P.P.P.P.P.P.P.P.%.6 ;         e e ; ; ; ; ",
"; ; ; ; k k         @ o S P.P.P.P.P.P.P.P.v.Q Q Q Q T I L L L L L L L L L R Q Q Q Q v.P.P.P.P.P.P.P.P.G 6 6         k k ; % ; ; ",
"@ ; ; @ k k         o % m P.P.P.P.P.P.P.Z./ Q Q Q W L I L L L L L L L L L I W Q Q W / H.P.P.P.P.P.P.P.C 6 6 .       k k ; ; ; ; ",
"; ; ; ; k k         o o % b.P.P.P.P.L.P.` W W Q Q I L L I L L L L L L L L L U Q Q Q Q ` P.P.P.P.P.P.n.6 6 6         k k ; 6 > 6 ",
"; ; ; @ k k         ; % @ C A.P.P.P.P.v./ W W Q W L I K H g g g g g g H K L L R Q Q Q Q v.P.P.P.P.A.Z 6 6 6         k k 6 6 6 6 ",
"6 6 ; ; k k         ; % % @ C s.j.z.u.W Q Q W / L L J d O o % o % ; ; % d J L Y Q Q Q Q Q u.z.k.d.Z 6 6 6 6       o k k 6 6 6 6 ",
"6 6 9 ; k k .       o ; ; ; ; ; s s s s s p p s i s s s - o + o @ % ; , s s s s s s s s s s s s 6 6 6 6 6 @         k k 6 6 6 6 ",
"9 9 6 6 w k %                   s s s s s s s s s s s s - o % % % + % , p s s s s s s s s s s s . .               + k e 6 6 6 6 ",
"6 > 9 6 q k 6                   1 s s s s s s s s s s u + % + + + + + % i s s s s s s s s s s < . .       .       > k q 6 6 6 6 ",
"6 6 6 6 6 k k %                   O 1 u p s s s i y 2 @ o ; @ o % o + % + , y u s s s s p 1 O             . .   % k e 6 9 6 6 6 ",
"6 6 6 6 4 0 k k ; . .                             o o @ o o @ o + $ + $ % %                               . . ; k k e 6 6 6 6 6 ",
"6 6 6 ; ; ; 6 k k k k k k k k k k k k k e k k k e k o o o @ ; o + + % o + o e k k k k k k k k k k k k k k k k k k q > 6 6 6 6 6 ",
"6 6 ; $ ; ; ; ; 0 k k k k k k k k k k k k k k k k k o ; o @ o @ % o o % + $ k k k k k e k k k k k k k k k k k q 6 ; > 9 6 6 6 6 ",
"6 4 ; ; % ; ; ; ; ; % ; ; % ; ; ; o o @ @ @ o ; ; o ; o o ; o @ o ; + + % % o + ; ; ; ; % ; % ; % % + + % + + + ; % ; ; 6 6 6 6 ",
"; ; ; ; ; ; ; % % ; ; ; ; ; % ; ; o o o o o o o o o o o o o o o o o % $ + + o % o ; + ; ; ; ; ; + % + % + @ + % o ; ; ; 4 6 6 6 ",
"$ ; ; % ; ; 4 6 ; ; ; ; % ; ; ; o ; o @ ; o @ @ ; o @ o o ; o ; o ; % o o % % o $ ; % ; ; ; % % % + $ + % + + + o + % ; ; ; ; ; ",
"; ; ; ; ; 6 6 6 6 6 ; ; ; ; ; % o o ; @ o o o o o o o ; + o o o o o o % + + + $ o % ; ; ; % + $ + % + + + + % + % + o ; % ; % ; "
};
