/* XPM */
static char *img_c[] = {
/* columns rows colors chars-per-pixel */
"64 64 59 1 ",
"  c #BE821E",
". c #B98226",
"X c #B3832E",
"o c #B4832E",
"O c #A9853D",
"+ c #C9810E",
"@ c #CB820E",
"# c #CE840E",
"$ c #D0860E",
"% c #D3870F",
"& c #D6890F",
"* c #D88B0F",
"= c #DB8C0F",
"- c #C38116",
"; c #C48116",
": c #DE8E10",
"> c #E09010",
", c #E39110",
"< c #E59310",
"1 c #EB9611",
"2 c #ED9811",
"3 c #F09A11",
"4 c #F39C12",
"5 c #9F864E",
"6 c #998756",
"7 c #94885E",
"8 c #A48545",
"9 c #AC8841",
"0 c #A18951",
"q c #8F8966",
"w c #8A896E",
"e c #988C62",
"r c #998D64",
"t c #848A76",
"y c #808B7E",
"u c #898F7B",
"i c #7A8C86",
"p c #758C8E",
"a c #768D8F",
"s c #7D8F89",
"d c #768E90",
"f c #778E90",
"g c #778E91",
"h c #788F92",
"j c #789092",
"k c #7A9295",
"l c #7B9396",
"z c #7C9396",
"x c #7C9497",
"c c #7C9597",
"v c #7D9698",
"b c #7E9799",
"n c #7F989B",
"m c #82948F",
"M c #80999C",
"N c #819A9D",
"B c #829B9E",
"V c #839C9F",
"C c #849EA1",
/* pixels */
"pppcCCCCCCCNdppdxNlNlzxNlNlzxNlNlzxNlNlzxhpppzzxNxNlzxNxNlzzpppp",
"pdNCCCCCCCCCNdppxzzxNxzlzxNxzlzxNxzlzxNxbppphxlNlzxzlNlzxzlNzppp",
"pNCCCCCCCCCCCNpphbNxlNlNxzlzxNxzlNlNxzlzzpphxxNxzlNlzxzlNxNxzdpp",
"NCCCCCCCCCCCCCcppzlxzxzxNlNxzlNlzxzxNlNxppphbxzzxNxzlNxNlzlzxlpp",
"CCCCCCCCCCCCCCCjpdxbxzxzlzxNlzxNxzxzlNlhpppdbxxxNlzxNlzxlNbxbzpN",
"CCCCCCCCCCCCCCCNpphxNlNzNxzlNxzlxMxMzxzdppppxxbbxzlNxzlNxxxxxhzC",
"CCCCCCCCCCCCCCCCzpphlzxNlNlNlNlNMzxxxzpppppphNbzNxNxNxNxxNxblpNC",
"CCCCCCCCCCCCCCCCbpppzxxbzxzxzxzxxxbxzpphNbhppllblzlzlzlzzlzlppbC",
"CCCCCCCCCCCCCCCCzpppphxxlNlNbxlbMxMhppxCCCCNppbbMxMxMxMxxNzppphC",
"CCCCCCCCCCCCCCCChppppphzzxxxxzbbzxhppNCCCCCCNpplzxzxzxzxzldppppM",
"NCCCCCCCCCCCCCClpppppppdxxlxxNzzMhhpMNCCCCCCCNppzxMzxxMzzhpppppp",
"hCCCCCCCCCCCCClpppppppppdxNxxlbzhppzCCCCCCCCCCbppzxxzMzldppppppp",
"plCCCCCCCCCCNlpppppppppppphxczhppppCCCCCCCCCCCClpphbzMhfpphhzzhp",
"pplCCCCCCCCVdppppppppppppppdpphppphCCCCCCCCCCCCbpppfdpfphMMxxbxz",
"zppbCCCCCCNhppplzzhhpppppppppppppppMCCCCCCCCCCCpppppppdhxMxMxxxb",
"bcppbVCCCbppphccMzMhppppppppppppppphCCCCCCCCCCzpppppffhxzzxxMbxx",
"cbxhphphpppphxxMzxxMhppppppppppppppplCCCCCCCCzppppppflxxxMzxxxxM",
"bzbxdpppppplxbxxMxxzxdppppppppppppppplCCCCCCbppppppphzxbxzMxMzxz",
"cblxzdpppphbxxbMzMzMMzpppppw0oooXXX5wphCCCCbppppppphxMxxxxxxzMxM",
"zbblczhpppzzbxxxxxxxzxhppq-@+++++@+++ rdMbhppppppfhbxzMzMzMzxxxz",
"zlzlzlldpphbzMzMxxxbzzht ++@::11,,,>$@@ tpppppppphxMzxxMzMzMxxxM",
"xNxNbbxzpphzxxxxxMxxxMe@@%14444444444,&+@7pppppphMxzMxxzxxxxMzxz",
"NlxxxxxbzpphxMzxMxbxbu++:44444444444444:++tppppdzMzMzMzMxMzxzMxM",
"xzlNxNxxzhppzzMxxxxxu;+:4444444444444444:+-tpppzxxxxxxxxxzMxxxxz",
"NxNlxMzMzzfpfzxxMMxh.+&444441=%%&&&144444&+.pppbzMzMzMzMxMzxxxxM",
"lzxzxzxxxhppppzbxhh6+$44444&++++@@++$14444@@6pdzxxxxxxxxxzMxMzxz",
"zlNlxMxxMhpppppdppf +,4444$+++++@+;+@@4444,+ ppbxMzxxMzxxxxxzMxM",
"xNxzxzMzzhppppppppq+$4444=++++%,>&@@@+:4444$@qpzxzMxxzMxMzMzxxxz",
"NlzxNlxMzpppppppppO+:4441+++++1441++@++1444:+OphxxMzzxxxzMzMxxxM",
"xzlNxzxzfppppppppp.+1444*+++++4444++@+@&4441+.ppzxxxMxMzxxxxMzxz",
"NxNxNxNdpppppppppp++4444$+++++4444+++++@4444++pppzMzzxzMxMzxzMxM",
"lzlzlzdppppppppppp++4444++++++4444+++++@4444++ppppzxMxxxxzMxxxxz",
"hMxxxhpppppppppppp++4444++++++4444++++++4444@@pppppccbllcbNlxlxx",
"MhMMxppppppppppppp++4444++++++4444+++++@4444++pppppplbcbblxxxNlN",
"Mhxgppppppppgpppppo+1444&+++++4444@++++&444<+XppppppplbcbbxxNxxx",
"MMhpppppppzxnxxgppO+:444,+++++2441@++@@,444:+OpppppppplcllxnlxlN",
"hhpppppppgMxMzxzhhe+%4444$++++=42&+@++@4444%@7ppppddppplMxMxxlxx",
"ppppppppgnxxxxxMmzs;+14444++++++@++@+@14441+-ipjnnncpppphxzzxNMx",
"pppppppgxzMzMzMxnxx0+%44442&++++@@@@&24444%+5plNCCCCnddppfhMxldf",
"pppppppxxMxxxxzxxknm;+:44444,%+++@$<44444:+-ilCCCCCCCndpppppfppp",
"pppppphMMzxzxxMzxMxxr++,4444444444444444<++7lCCCCCCCCCMfpppppppp",
"ppppphhMxxxMzMxxxxMxx9++%44444444444444&++OlCCCCCCCCCCCMpppppppp",
"pppppMMMMzMxxzxzxxxxMx0++%134444444441&+@5jCCCCCCCCCCCCCnhpppppp",
"ppppphMhxxzxxMxMMhMxhxxw+++%<444442<&++-wjCCCCCCCCCCCCCCCMpppppp",
"ppppgmzMMzxzCxCxMhMMMxgpi8++++++@+++++8ipNCCCCCCCCCCCCCCCChppppp",
"ppppgMzzxxxMhxhxmMhhMhppppm5.++++++.5ypplCCCCCCCCCCCCCCCCCCppppp",
"pppppzChMzMxxxCkzzMMMgppppppppppppppppppcCCCCCCCCCCCCCCCCCCppppp",
"ppppppzzxxzxzMzzhChMppppppppppppppppppppjCCCCCCCCCCCCCCCCCMppppp",
"ppppppphknzxxxnxxnxzpppppppppppppppppppppMCCCCCCCCCCCCCCCChppppp",
"pppppppphxxxnxMxknxppppppppppppppppppppppfMCCCCCCCCCCCCCClpppfdp",
"zpppppppphxnxxxxnxpppppppppppppppppppppppppCCCCCCCCCCCCCzpppbCCC",
"CzpppppppppxMxMxxgppppppppgzxhhppppppppppppfCCCCCCCCCCCbpppbCCCC",
"CCnpppppppppphhxpppppppppxxMxxxMhppppppppppphMCCCCCCCCbppfbCCCCC",
"CCCnppppppppppppppppppppxxxxMxxhzhppppppppppphMCCCCCClpppbCCCCCC",
"CCCCxppppppppppppppppphzxxMMxMxMbzhppppppppppppMCCCClppplCCCCCCC",
"CCCCCpppppppppppppppphzhxxxxxxxxxbxlpppppppppppphxxfppppnCCCCCCC",
"CCCCMppppppppppppppphxzCMxMxCxBhxbxxzffpppppppppppppppppMCCCCCCC",
"CCCCxppppppppppppppgzMzkxxhxkxmMxxzMxhppppppppppppppppppxCCCCCCC",
"CCCxppppppppppppppgxzChCxxMxxxBhMxMxxxffppppppppppfpppfpfbCCCCCC",
"CCMpppppppppppppppzxzzzzxMxxxMhMzxzxxbkfppppppppppxxxlxdppbCCCCC",
"CxpppppppppppppppzzxMhMMxxxxBMhhMxMxxxxxfppppppppzxxxxbxpppbCCCC",
"xpppppppppppppppghzMMMhhxMxMhMMMxxxxMxxMhppppppphxxMbxxxlppplCCC",
"ppppphxMMxgpppppzCMhhMMMMxxxMhMxxxMxMxxxMpppppfxMxxxbxllblfppffp",
"pppphCCCCCCpppphzzmMhMhMhMhMxMhxxMxxhxxMxhpppphxxxxMxxbblblppppp"
};
