/* XPM */
static char *img_p_ll[] = {
/* columns rows colors chars-per-pixel */
"64 64 186 2 ",
"   c gray20",
".  c #3E3433",
"X  c #373939",
"o  c #3B3E3E",
"O  c #493634",
"+  c #603935",
"@  c #6B3A35",
"#  c #694C39",
"$  c #69503E",
"%  c #414546",
"&  c #43494A",
"*  c #484F50",
"=  c #4B5454",
"-  c #4C5556",
";  c #4E5758",
":  c #535D5F",
">  c #6D594B",
",  c #725540",
"<  c #7B5E48",
"1  c #6D5E50",
"2  c #5A6C47",
"3  c #6E6155",
"4  c #6D6459",
"5  c #586465",
"6  c #586566",
"7  c #6F6C63",
"8  c #616F71",
"9  c #647477",
"0  c #667678",
"q  c #687B7D",
"w  c #717873",
"e  c #8D3F37",
"r  c #BA4539",
"t  c #C5473A",
"y  c #DB543F",
"u  c #E74C3C",
"i  c #85674F",
"p  c #8E7157",
"a  c #977A5E",
"s  c #B86C49",
"d  c #AD744C",
"f  c #A8645D",
"g  c #BB6F68",
"h  c #B2716A",
"j  c #A97F7B",
"k  c #CF5C42",
"l  c #C95A4E",
"z  c #E85543",
"x  c #EA5E4A",
"c  c #CE6155",
"v  c #ED7159",
"b  c #C37369",
"n  c #EE7A60",
"m  c #2DAE64",
"M  c #3CAC63",
"N  c #33AD68",
"B  c #34AE69",
"V  c #28B162",
"C  c #28B262",
"Z  c #29B765",
"A  c #29B966",
"S  c #2ABC68",
"D  c #2BBE69",
"F  c #35B56B",
"G  c #3BBF76",
"H  c #4F8451",
"J  c #4B8C55",
"K  c #449C5C",
"L  c #76875D",
"P  c #739C5D",
"I  c #40A45F",
"U  c #4F9E78",
"Y  c #589A7D",
"T  c #5CAC63",
"R  c #50B467",
"E  c #45A373",
"W  c #42A772",
"Q  c #49A878",
"!  c #53A37D",
"~  c #41BE7A",
"^  c #46BB7D",
"/  c #67A460",
"(  c #2CC36C",
")  c #2CC56D",
"_  c #2CC66E",
"`  c #2DC86F",
"'  c #2DCA70",
"]  c #2ECC71",
"[  c #38C575",
"{  c #33C873",
"}  c #3BCD75",
"|  c #48CE79",
" . c #5ACC7E",
".. c #6DC97D",
"X. c #968453",
"o. c #A18366",
"O. c #AA8C6D",
"+. c #B49675",
"@. c #BD9F7C",
"#. c #9CA970",
"$. c #84B977",
"%. c #CA8963",
"&. c #F08367",
"*. c #F39676",
"=. c #F49F7D",
"-. c #5D9881",
";. c #5D9F83",
":. c #6D8183",
">. c #718789",
",. c #71888A",
"<. c #74898C",
"1. c #758C8E",
"2. c #669386",
"3. c #649784",
"4. c #689C8A",
"5. c #6C998C",
"6. c #6D9B8E",
"7. c #6A9F8D",
"8. c #70908D",
"9. c #71908D",
"0. c #768E90",
"q. c #778E90",
"w. c #778F91",
"e. c #788F92",
"r. c #798F92",
"t. c #789092",
"y. c #799093",
"u. c #7A9295",
"i. c #7B9295",
"p. c #7B9396",
"a. c #7C9396",
"s. c #7C9497",
"d. c #7C9597",
"f. c #739992",
"g. c #789896",
"h. c #7D9598",
"j. c #7E9799",
"k. c #7F989B",
"l. c #59AB85",
"z. c #5BAD87",
"x. c #5FA989",
"c. c #55B083",
"v. c #56B184",
"b. c #69A38E",
"n. c #63B68A",
"m. c #6EA091",
"M. c #5DC489",
"N. c #62D181",
"B. c #78CE9C",
"V. c #858E88",
"C. c #8E9D96",
"Z. c #80999C",
"A. c #819A9D",
"S. c #839C9F",
"D. c #8A999B",
"F. c #A8AC9B",
"G. c #B1B19D",
"H. c #BAB69F",
"J. c #849EA1",
"K. c #8BA3A3",
"L. c #C6A884",
"P. c #D0B18B",
"I. c #D9BB93",
"U. c #89D48D",
"Y. c #96D691",
"T. c #B0D899",
"R. c #93D8B0",
"E. c #E2C49A",
"W. c #FAC49B",
"Q. c #D5C7A7",
"!. c #DCCBA8",
"~. c #CADBA1",
"^. c #D7DCA5",
"/. c #ECCDA2",
"(. c #E4DDA9",
"). c #F5D6A9",
"_. c #FDD6A9",
"`. c #F0D8AE",
"'. c #F1DEAD",
"]. c #FFE0B1",
"[. c #AEE1C4",
"{. c #BBE6CD",
"}. c #CAF2DB",
"|. c #DCE2E3",
" X c #EFF2F2",
".X c white",
/* pixels */
"1.1.1.d.J.J.J.J.J.J.J.A.0.1.1.0.j.s.s.s.j.s.s.A.p.A.p.s.s.s.A.s.A.p.a.s.A.s.A.p.p.r.1.1.1.p.s.s.j.j.s.s.Z.a.s.a.s.s.Z.r.0.1.1.1.",
"1.0.A.J.J.J.J.J.J.J.J.J.A.0.1.1.s.s.j.s.k.s.s.p.s.s.A.s.p.A.p.s.s.s.p.A.p.a.s.a.j.1.1.1.r.s.j.s.s.s.s.Z.s.s.s.Z.a.Z.s.s.r.0.1.1.",
"1.A.J.J.J.J.J.J.J.J.J.J.J.A.1.1.r.s.j.j.s.A.a.A.s.a.p.a.s.s.s.j.A.s.A.s.a.p.A.p.p.1.0.0.s.j.s.s.Z.s.s.s.Z.a.Z.s.s.a.s.a.s.r.1.1.",
"A.J.J.J.J.J.J.J.J.J.J.J.J.J.d.1.0.a.p.a.s.s.s.s.A.p.A.s.s.k.s.s.p.s.p.a.s.A.s.a.0.1.0.0.j.s.s.j.s.s.s.Z.s.s.a.s.s.Z.s.Z.s.r.1.1.",
"J.J.J.J.J.J.J.J.J.J.J.J.J.J.J.t.1.0.d.j.s.j.j.s.p.a.p.j.s.j.j.s.s.j.p.j.A.s.A.r.0.<.0.r.d.j.d.j.s.s.Z.a.s.s.Z.a.s.s.s.j.s.a.1.Z.",
"J.J.J.J.J.J.J.J.J.J.J.J.J.J.J.A.1.1.r.d.s.s.s.s.A.s.j.s.s.s.s.s.s.s.j.s.p.a.r.1.<.0.<.0.j.p.j.d.s.Z.s.s.a.Z.s.s.s.Z.s.s.j.r.p.J.",
"J.J.J.J.J.J.J.J.J.J.J.J.J.J.J.J.p.0.1.t.j.s.j.j.p.j.a.j.j.s.s.j.j.s.j.j.s.a.0.1.0.<.0.1.0.j.d.j.s.a.s.a.s.a.s.a.Z.s.s.s.p.1.Z.J.",
"J.J.J.J.J.J.J.J.J.J.J.J.J.J.J.J.p.1.1.1.p.s.4.4.Y ! ! ! ! ! ! ! U l.! ! Y U U U 7.f.0.0.0.p.d.s.s.Z.s.Z.s.Z.s.Z.s.s.s.a.0.1.j.J.",
"J.J.J.J.J.J.J.J.J.J.J.J.J.J.J.J.d.1.<.1.U m V V V V V V V V V V C V V V V V V V V V N Q -.<.s.s.s.j.p.j.j.s.s.j.Z.s.a.r.1.1.r.J.",
"J.J.J.J.J.J.J.J.J.J.J.J.J.J.J.J.w.1.1.W C C V V V V V V V V V V C m V V V V V V V V V V V V E 5.s.s.j.s.s.s.j.p.s.a.0.1.1.1.1.j.",
"A.J.J.J.J.J.J.J.J.J.J.J.J.J.J.p.1.9.2.V C V V V V V V V V V V V V V V V V V V V V V V V V V V V E f.s.j.s.j.a.j.s.0.1.1.1.1.1.0.",
"r.J.J.J.J.J.J.J.J.J.J.J.J.J.p.1.,.,.U V C m V V V V V V V V V V V V V V V V V V V V V V V V V V C m 5.j.s.s.j.p.r.1.1.1.1.1.1.1.",
"1.p.J.J.J.J.J.J.J.J.J.J.A.p.1.1.1.1.n.M.F V V V V V V V V V V V V V V V V V V V V V V V V V V V C C m ;.a.j.p.0.1.0.r.s.r.s.r.r.",
"1.1.p.J.J.J.J.J.J.J.J.J.0.1.1.1.1.1.|..X.X[.M.V V V V V V V V V V V V V V V V V V V V V V V V V C C V V 3.0.<.0.r.p.A.s.s.s.a.p.",
"d.1.1.j.J.J.J.J.J.J.A.0.1.1.1.p.k.s.|..X.X.X.XR.V V V V V V V V V V V V V V V V V V V V V V V V V V V V N 1.0.r.s.s.p.s.s.k.a.s.",
"j.p.1.1.j.S.J.J.J.j.1.1.1.r.d.d.s.j. X.X.X.X.X.XB.V V V V V V V V V V V V V V V V V V V V V V V V V V V m Y r.a.A.s.A.s.s.s.s.j.",
"a.j.s.r.1.r.1.r.1.1.1.1.p.p.s.j.s.s..X.X.X.X.X.X.XM.C m V V V V V V V V V V V V V V V V V V V V V V V V V B A.A.p.a.a.a.s.j.s.s.",
"j.d.j.s.0.1.1.1.1.1.1.p.s.j.s.j.s.j..X.X.X.X.X.X.X{.C C V V V V V V V V V V V V V V V V V V V V V V V V V V A.a.p.Z.Z.a.s.s.s.j.",
"a.p.p.s.a.0.1.1.1.1.0.s.j.s.s.m.m.b.}.}.}.}.}.}.}.}.C m V V V V V V V V V V V V V V V V V V m V V V V V V V 6.s.a.a.a.a.s.s.s.j.",
"j.j.j.s.j.a.0.1.1.1.p.k.x.^ ] ] ] ] ] ] ] ] ] ] ] ] ' ] ] ] ) ) S S S Z Z V V V V V V V V V C C V V V V V V 5.s.Z.a.Z.a.s.Z.s.s.",
"a.p.s.p.p.s.s.0.1.1.l.[ ] ] ] ] ] ] ] ] ] ] ] ] ] ] ] ] ] ] ] ] ] ] ] ] ] ] ] ) S S A V C C C C V V V V V V 5.s.s.a.s.a.Z.s.Z.s.",
"s.A.s.A.j.p.s.s.1.1.' ] ] ] ] ' ] ] ] ] ] ] ] ] ] ] ] ] ] ] ] ] ] ] ] ] ] ] ] ] ] ] ] ] ` ) A A V V V V V V j.s.s.Z.s.Z.s.s.s.s.",
"A.p.s.s.s.p.s.j.p.<.[ ' ] ] { ' ] ] ] ] ] ] ] ] ] ] ] ] ] ] ] ] ] ] ] ] ] ] ] ] ] ] ] ] ] ] ] ] ' _ ( A V N s.s.Z.a.s.s.s.a.Z.a.",
"s.a.p.A.s.A.s.s.j.1.1.c.c.~ ~ ~ G { ] ] ] ] ] ] ] ] ] ] ] ] ] ' ] ] ] ] ] ] ] ] ] ] ] ] ] ] ] ] ' ] ' ] ) [ s.j.s.s.a.Z.s.Z.s.s.",
"A.s.A.p.s.A.p.A.p.r.0.r.1.d.d.j.j.d.j.].].^.~.~.~.T.Y.Y.Y.U.N.N.N.M.] ] ] ] ] ] ] ] ] ] ] ] ] ] ] ` ` ` ` l.Z.r.Z.a.s.s.Z.s.Z.a.",
"p.a.s.a.a.p.a.s.a.r.1.1.1.1.a.a.s.p.0.].].].].].].].].].].].].].].].].].].].L 2 2 2 H J J J I M F M M M K r.Z.Z.s.s.a.Z.a.s.s.s.",
"a.p.A.p.s.A.s.a.p.r.1.1.1.1.1.r.0.1.0.].].].].].].].].].].].].].].].].].].].O.# # # # # # # # # # # # # $ d.Z.r.Z.s.Z.s.s.a.Z.a.",
"s.A.s.a.a.p.A.a.d.r.1.1.1.1.1.1.1.1.1.].].].].].].].].].L.# , E.].].].].].]./.# # # # # # # # # # # # # # g.r.Z.a.s.a.s.s.Z.s.s.",
"A.p.a.s.A.p.s.A.a.0.1.1.1.1.1.1.1.1.1.].].].].].].].].].< # # p ].].].].].].].+.I.].].].I.i # # # # # # # Z.r.Z.s.a.s.a.Z.s.Z.a.",
"s.a.p.A.s.a.s.a.1.r.1.1.1.1.1.1.1.1.1.].].].].].].].].].# # # # ].].].].].].].].].].].].]./.$ # # # # # # r.Z.r.s.Z.s.Z.a.s.s.s.",
"A.s.A.s.A.s.A.0.1.1.1.1.1.1.1.1.1.1.r.].].].].].].].].].# # # # ].].].].].].].].].].].].].].I.# # # # # # Z.s.a.Z.a.s.s.s.a.Z.a.",
"p.a.p.a.p.a.0.1.1.1.1.1.1.1.1.1.r.F.Q.].].].].].].].].].i # # a ].].].].].].].].].].].].].].].# # # # # $ Z.s.Z.s.s.a.Z.s.Z.s.s.",
"s.j.j.j.s.r.1.1.1.1.1.1.1.1.1.1.G.].].].].].].].].].].].I.$ < ).].].].].].].].].].].].].].].].# # # # # > k.d.d.d.j.s.A.p.A.p.s.",
"s.p.p.a.r.1.1.1.1.1.1.1.1.1.1.1.`.].].E.a $ p p a @./.].].].].].].].].].].].].].].].].].].].L.# # # # # > d.d.j.j.p.s.p.s.s.A.s.",
"k.s.p.r.r.1.1.1.1.1.0.r.1.r.0.r.H.!.].< $ # # # # # # P.].].].].].].].].].].].].].].].].]./., $ # # # # 4 p.a.j.j.k.s.A.s.s.p.s.",
"s.s.r.1.1.1.1.1.1.1.r.d.a.p.r.0.<.9.w # # # # # # # # # I.].].].].].].].].].].].].].].].].].I.o.$ # # # 7 1.p.p.p.p.s.s.A.p.A.s.",
"s.r.1.1.1.1.1.1.1.r.j.j.s.A.p.A.d.1.7 # # # # # # # # # i ).].].].].].].].].].].].].].].].].].].].I.+.+.V.w.1.p.s.p.a.p.p.A.p.a.",
"r.0.1.1.1.1.1.1.r.p.a.p.a.p.a.s.Z.d.7 # # # # # # # # # $ ].].].].].].].].].].].].].].].].].].].].].].].C.9.1.1.r.A.s.A.a.s.s.s.",
"1.1.1.1.1.1.1.r.s.p.A.p.s.A.s.a.i.Z.a.3 # # # # # # p +./.].].].].].].].].].].].].].].].].].].].].].].^.A.r.1.1.0.r.r.p.s.s.r.0.",
"1.1.1.1.1.1.0.s.s.A.s.s.a.p.A.p.Z.d.d.d. .(.].].].].].].].].].].].].].].].].].].].].].].].].].].].].'.K.J.A.1.1.1.1.1.1.r.1.1.1.",
"1.1.1.1.1.1.r.p.a.A.p.k.p.a.s.A.i.d.Z.c.` }  .N.N.N.N.N.N.N.N.#.v v v v v %. .N.N.N.N.N.N.N.$.v v v b J.J.J.A.1.1.1.1.1.1.1.1.1.",
"1.1.1.1.1.r.j.j.a.p.a.j.A.s.a.p.Z.d.d.{ ] ] ] ] ] ] ] ] ] ] / k u u u u u T ] ] ] ] ] ] ] ] ] s u u u D.J.J.J.Z.1.1.1.1.1.1.1.1.",
"1.1.1.1.0.s.p.s.d.A.a.a.p.A.p.A.i.d.m.] ] ] ] ] ' ] ' _ ] X.u u u u u u u ] ] ] } Y.'.].].].Y./ u u u j J.J.J.J.k.0.0.1.1.1.1.1.",
"1.1.1.1.r.s.s.k.a.p.A.p.a.s.a.s.Z.i.z.] ] ] ] ] ' ' ' P k u u u u u u u u ] ] ] ~.].].].].].].~.z u u g J.J.J.J.J.A.1.1.1.1.1.1.",
"1.1.1.1.r.s.j.s.a.Z.d.A.s.s.s.s.s.k.v.] ] ] ] T X.d z u u u u u u u u u u R ] Y.].].].].].].].].W.u u c J.J.J.J.J.J.r.1.1.1.1.1.",
"1.1.1.1.r.s.Z.s.d.d.a.d.k.s.k.s.s.j.h u u u u u u u z u u u u u u u u u u X.| ].].].].].].].].].].&.u c J.J.J.J.J.J.J.1.1.1.1.1.",
"1.1.1.1.0.a.a.s.d.Z.d.d.s.s.s.k.j.s.g u u u u u u u u u u u u u u u u u u y ..].].].].].].].].].].*.u c J.J.J.J.J.J.J.1.1.1.1.1.",
"1.1.1.1.1.0.s.s.d.d.Z.d.k.s.s.j.s.<.f u u u u u u u u u u u u u u u u u u u %.].].].].].].].].].].*.u l J.J.J.J.J.J.A.1.1.1.1.1.",
"1.1.1.1.1.1.1.p.j.j.s.s.j.j.s.0.:   e u u u u u u u u u u u u u u u u u u u z _.].].].].].].].].].&.u r X 8 J.J.J.J.r.1.1.1.1.1.",
"1.1.1.1.1.1.1.1.p.s.j.s.s.s.j.;     + u u u u u u u u u u u u u u u u u u u u &._.].].].].].].].=.u u e     0 J.J.p.1.1.1.0.0.0.",
"r.1.1.1.1.1.0.<.1.0.p.j.j.k.j.      O u u u u u u u u u u u u u u u u u u u u u z v *.*.*.*.n x u u u @     - J.a.1.1.1.j.J.J.J.",
"J.s.1.1.1.0.<.0.1.1.1.p.p.d.p.%     . e u u u u u u u u u u u u u u u u u u u u u u u u u u u u u u t .     - a.1.1.1.j.J.J.J.J.",
"J.J.j.0.<.r.0.<.1.1.1.1.r.r.p.9       . e u u u u u u u u u u u u u u u u u u u u u u u u u u u u t O     X q r.1.1.j.J.J.J.J.J.",
"J.J.J.Z.0.>.<.0.1.1.1.1.1.1.1.1.-       .           6 s.p.A.s.a.a.0.1.r.1.1.1.1.1.1.1.&                   9 1.1.1.j.J.J.J.J.J.J.",
"J.J.J.J.a.<.0.<.1.1.1.1.1.1.1.1.1.5                 5 s.s.p.a.p.j.a.r.1.1.1.1.1.1.1.1.&               X 9 1.1.1.d.J.J.J.J.J.J.J.",
"J.J.J.J.Z.0.<.0.1.1.1.1.1.1.1.1.1.1.q o             9 p.s.A.s.A.d.p.j.r.1.1.1.1.1.1.0.;             - >.0.1.1.1.j.J.J.J.J.J.J.J.",
"J.J.J.J.A.1.1.1.1.1.1.1.1.1.1.1.1.1.1.0.0 ;       5 a.p.a.p.a.p.a.k.s.s.r.0.0.1.1.1.1.>.*     o = :.1.1.1.1.1.1.A.J.J.J.J.J.J.J.",
"J.J.J.J.j.1.1.1.1.1.1.1.1.1.1.1.1.1.1.0.a.a.A.s.p.A.s.A.s.A.s.A.p.j.k.s.A.r.1.1.1.1.1.1.1.1.1.1.1.1.1.1.1.1.1.1.j.J.J.J.J.J.J.J.",
"J.J.J.j.1.1.1.1.1.1.1.1.1.1.1.1.1.1.0.r.j.s.s.s.a.s.a.s.A.p.a.s.p.s.s.s.a.p.r.1.1.1.1.1.1.1.1.1.1.1.0.1.1.1.r.1.1.j.J.J.J.J.J.J.",
"J.J.j.1.1.1.1.1.1.1.1.1.1.1.1.1.1.r.s.p.k.a.A.p.p.A.p.A.s.a.p.A.k.s.k.s.k.j.a.1.1.1.1.1.1.1.1.1.1.1.a.s.s.p.r.0.1.1.j.J.J.J.J.J.",
"J.p.1.1.1.1.1.1.1.1.1.1.1.1.1.1.1.r.A.A.A.s.A.s.a.p.a.s.a.s.A.s.a.p.a.p.s.A.p.s.0.1.1.1.1.1.1.1.1.a.s.s.j.s.s.a.1.1.1.j.J.J.J.J.",
"p.1.1.1.1.1.1.1.1.1.1.1.1.1.1.1.0.p.a.a.p.a.p.a.s.A.p.A.p.A.p.a.s.A.s.A.s.s.s.s.r.0.1.1.1.1.1.1.r.s.s.j.s.s.A.p.p.1.1.1.p.J.J.J.",
"1.1.1.1.1.0.j.A.A.a.0.1.1.1.1.1.a.A.A.s.a.s.A.p.A.s.a.s.a.s.a.p.A.p.s.s.s.p.A.p.s.r.1.1.1.1.0.a.p.A.s.k.s.j.s.j.j.p.0.1.1.0.0.0.",
"1.1.1.1.p.A.J.J.J.J.A.1.1.1.1.r.s.a.p.a.p.A.s.a.p.a.p.A.p.A.s.A.s.a.p.A.s.A.s.s.s.r.1.1.1.1.a.s.s.s.s.s.s.j.s.p.p.j.p.1.1.1.1.1."
};
