/* XPM */
static char *img_p_fs[] = {
/* columns rows colors chars-per-pixel */
"64 64 190 2 ",
"   c gray20",
".  c #373839",
"X  c #3B3E3E",
"o  c #4A3A39",
"O  c #4B3A3A",
"+  c #694C39",
"@  c #6A503F",
"#  c #3F4344",
"$  c #43494A",
"%  c #4A5253",
"&  c #4E5758",
"*  c #725540",
"=  c #7B5E48",
"-  c #545F60",
";  c #5C6B6C",
":  c #617072",
">  c #647577",
",  c #687B7D",
"<  c #6A7C7E",
"1  c #803B34",
"2  c #CD4335",
"3  c #CE4335",
"4  c #C8473A",
"5  c #D14436",
"6  c #D34536",
"7  c #D64637",
"8  c #DA4738",
"9  c #DD4839",
"0  c #DB543F",
"q  c #E34A3B",
"w  c #E74C3C",
"e  c #B15A51",
"r  c #B35C53",
"t  c #85674F",
"y  c #8E7157",
"u  c #A16761",
"i  c #A46A65",
"p  c #CF5C42",
"a  c #EA5E4A",
"s  c #C46445",
"d  c #EB6751",
"f  c #ED7159",
"g  c #EE7A60",
"h  c #2CAE64",
"j  c #32AC67",
"k  c #3BA76D",
"l  c #3CA76D",
"z  c #32AC68",
"x  c #3DA96F",
"c  c #28B162",
"v  c #29B664",
"b  c #29B765",
"n  c #2ABB67",
"m  c #2BBE69",
"M  c #35B56B",
"N  c #739C5D",
"B  c #539C7A",
"V  c #50B467",
"C  c #40A570",
"Z  c #42A873",
"A  c #50A07A",
"S  c #53A37D",
"D  c #42BA75",
"F  c #4BB77F",
"G  c #50BF7F",
"H  c #67A460",
"J  c #7CB77F",
"K  c #39C46D",
"L  c #2ECC71",
"P  c #38C575",
"I  c #33C873",
"U  c #48CE79",
"Y  c #8A8C56",
"T  c #A38557",
"R  c #A18366",
"E  c #A68B6B",
"W  c #AA8C6D",
"Q  c #B49675",
"!  c #B49976",
"~  c #BD9F7C",
"^  c #90B173",
"/  c #F18C6F",
"(  c #F49F7D",
")  c #5D9880",
"_  c #5D9F83",
"`  c #758C8E",
"'  c #768D8F",
"]  c #669386",
"[  c #669987",
"{  c #6C9189",
"}  c #768E90",
"|  c #778E90",
" . c #778E91",
".. c #788F92",
"X. c #798F92",
"o. c #749390",
"O. c #719790",
"+. c #789092",
"@. c #7A9295",
"#. c #7B9295",
"$. c #7B9396",
"%. c #7C9396",
"&. c #7C9497",
"*. c #7C9597",
"=. c #739992",
"-. c #7D9598",
";. c #7D9698",
":. c #7F989B",
">. c #5CA685",
",. c #4EBA83",
"<. c #62A589",
"1. c #64A68C",
"2. c #69A38E",
"3. c #64B080",
"4. c #6EAA95",
"5. c #7EA19F",
"6. c #62D181",
"7. c #6FD285",
"8. c #78CE9C",
"9. c #81928F",
"0. c #87958F",
"q. c #949C8F",
"w. c #839490",
"e. c #8D9C96",
"r. c #8E9D97",
"t. c #80999C",
"y. c #819A9D",
"u. c #829B9E",
"i. c #839C9F",
"p. c #8FA29E",
"a. c #99A296",
"s. c #95A49D",
"d. c #9CA69C",
"f. c #B8AD92",
"g. c #BEB092",
"h. c #BFB092",
"j. c #BAB095",
"k. c #BAB69F",
"l. c #849EA1",
"z. c #9BABA4",
"x. c #A5ADA0",
"c. c #A2AFA5",
"v. c #AAB3A6",
"b. c #BCB8A2",
"n. c #BEBBA4",
"m. c #C6A884",
"M. c #D0B18B",
"N. c #C0B294",
"B. c #CFBA97",
"V. c #D7B692",
"C. c #D1BA93",
"Z. c #D7BD93",
"A. c #D9BB93",
"S. c #D0BB98",
"D. c #F6A885",
"F. c #C1BFA9",
"G. c #87C191",
"H. c #89C494",
"J. c #E1C59A",
"K. c #E2C49A",
"L. c #E6CA9E",
"P. c #EECC9E",
"I. c #FAC49B",
"U. c #D5C8A7",
"Y. c #D8CCAC",
"T. c #E8CCA0",
"R. c #ECCDA2",
"E. c #FCCDA2",
"W. c #E7D2AC",
"Q. c #E8D3AD",
"!. c #EFD7AD",
"~. c #E4DDA9",
"^. c #F0D2A5",
"/. c #F2D5A7",
"(. c #F5D6A9",
"). c #F5D7A9",
"_. c #FDD6A9",
"`. c #F0D8AE",
"'. c #F1DEAD",
"]. c #F7DCAF",
"[. c #FADBAD",
"{. c #FCDDAF",
"}. c #FFE0B1",
"|. c #AEE1C4",
" X c #BBE6CD",
".X c #C9EBD7",
"XX c #D6F0E1",
"oX c #E4F5EB",
"OX c #F1FAF5",
"+X c white",
/* pixels */
"` ` ` *.l.l.l.l.l.l.l.y.} ` ` } &.t.#.#.&.t.#.&.t.t.#.&.&.&.t.t.#.&.t.#.&.&.t.#.;...` ` ` ..&.t.#.#.&.t.&.t.#.#.&.t.#.#...` ` ` ",
"` } y.l.l.l.l.l.l.l.l.l.y.} ` ` #.t.&.t.&.#.t.&.#.&.#.t.&.t.#.&.#.t.&.#.t.#.t.&.;.} ` ` ..;.#.t.&.t.&.#.#.t.&.t.&.#.t.&.....` ` ",
"` y.l.l.l.l.l.l.l.l.l.l.l.y.` ` ..&.&.;.t.t.#.#.&.#.&.t.&.&.;.&.&.&.t.t.#.t.#.&.#.` ` } &.&.t.&.t.&.t.#.#.&.t.&.t.t.#.#.#...` ` ",
"y.l.l.l.l.l.l.l.l.l.l.l.l.l.*.` ` #.t.&.#.&.&.t.t.t.&.#.&.t.&.;.t.#.#.&.&.&.#.t.} ` ` } ;.;.&.&.#.#.t.&.t.&.#.#.#.&.&.t.;.X.` ` ",
"l.l.l.l.l.l.l.l.l.l.l.l.l.l.l.+.` } ;.&.;.&.;.;.#.&.&.;.&.;.;.&.t.&.t.&.t.t.#...` ` ` o.&.;.&.;.&.t.#.&.t.#.&.t.&.#.;.&.;.#...t.",
"l.l.l.l.l.l.l.l.l.l.l.l.l.l.l.y.` ` ..;.&.;.&.;.#.t.;.&.t.&.;.;.#.&.&.;.#.&.X. .` ` ` ` ;.&.;.&.&.#.t.&.t.&.#.t.t.t.&.;.&...#.l.",
"l.l.l.l.l.l.l.l.l.l.l.l.l.l.l.l.#.` | ..;.&.;.;.&.*.;.;.&.&.&.;.&.t.;.;.;.X. .' ` ` ` | ..;.;.;.t.t.#.#.#.#.&.&.#.&.;.;.#...;.l.",
"l.l.l.l.l.l.l.l.l.l.l.l.l.l.l.l.;.` ` { [ S S S Z Z x x x x C x x l x x l l l l >.S B ) ] #.;.*.#.&.&.t.&.t.t.#.#.t.#.#.` ..;.l.",
"l.l.l.l.l.l.l.l.l.l.l.l.l.l.l.l.O.B C j c c c c c c c c c c c c h c c c c c c c c c c c h k S =.&.#.#.t.#.t.&.;.&.t.#.| ` ` ` l.",
"l.l.l.l.l.l.l.l.l.l.l.l.l.l.l.>.h c c c c c c c c c c c c c c c h c c c c c c c c c c c c c c h S t.&.&.&.&.;.&.&.#...` ` ` ..t.",
"y.l.l.l.l.l.l.l.l.l.l.l.l.l.<.c c c c c c c c c c c c c c c c c c c c c c c c c c c c c c c c c c [ t.#.t.#.*.;.#...` ` ` ` ` ` ",
"..l.l.l.l.l.l.l.l.l.l.l.l.l.z c c c c c c c c c c c c c c c c c c c c c c c c c c c c c c c c c c j &.#.t.&.#.#...} ` ` ` ` ` ` ",
"` #.l.l.l.l.l.l.l.l.l.l.l.o.c c c c c c c c c c c c c c c c c c c c c c c c c c c c c c c c c c c c o.;.#.#.#... ...#.....#.+...",
"` ` #.l.l.l.l.l.l.l.l.l.` ` c c c c c c c c c c c c c M 8. X.X.X.X.X X8.c c c c c c c c c c c c c c ..} | | ..} ..#.t.#.#.;.;.#.",
"*.` ` :.l.l.l.l.l.l.y.} ` ` c c c c c c c c c c c c 8.oX+X+X+X+X+X+X+X+XXXG c c c c c c c c c c c c } ` ` ` ....#.&.&.t.&.;.;.;.",
";.*.` ` ;.i.l.l.l.;.} ` ` +.c c c c c c c c c c c G OX+X+X+X+X+X+X+X+X+X+XoXG c c c c c c c c c c c ` ` | | ..#.t.&.&.&.t.&.;.&.",
";.;.&...` ` ....` ` ` ` ..;.c c c c c c c c c c D OX+X+X+X+X+X+X+X+X+X+X+X+XXXM c c c c c c c c c c ` `  ...t.t.#.t.&.t.#.#.&.t.",
";.;.;.&...` ` ` ` ` ` #.&.&.c c c c c c c c c c |.+X+X+X+X+X+X+X+X+X+X+X+X+X+X|.c c c c c c c c c c ` `  .t.#.#.#.#.#.t.&.t.&.#.",
"&.;.&.;.#.} ` ` ` ` ..&.;.&.h c c h c c c c c c OX+X+X+X+X+X+X+X+X+X+X+X+X+X+XOXc c c c c c c c c c ` ..#.&.t.&.t.#.&.&.t.&.t.#.",
";.&.;.&.;.#.| ` ` | &.;.&.;.c c b b b b b m m m m m m m m m m m m m m m m m m m m m m n b b b b c c ..#.t.&.#.#.#.t.t.#.#.#.t.&.",
"t.&.&.#.&.t.&.` ` ` } &.;.;.L L L L L L L L L L L L L L L L L L L L L L L L L L L L L L L L L L L L ;.&.;.&.&.t.#.t.t.&.&.&.t.#.",
"#.#.t.t.;.&.&.#.` ` ..&.;.;.L L L L L L L L L L L L L L L L L L L L L L L L L L L L L L L L L L L L &.;.&.t.#.t.&.&.#.#.t.#.t.&.",
"&.t.#.&.t.&.t.#.#.| | } ;.;.L L L L L L L L L L L L L L L L L L L L L L L L L L L L L L L L L L L L t.&.&.#.&.&.t.#.&.t.#.t.#.&.",
"&.#.t.&.#.#.t.&.&.} ` | &.;.P L L L L L L L L L L L L L L L L L L L L L L L L L L L L L L L L L L P ;.;.&.t.t.#.t.&.#.t.&.&.#.t.",
"t.t.#.&.&.t.#.#.&...' ` ` ;.1.L L L L L L L L L L L L L L L L L L L L L L L L L L L L L L L L L I 1.t.&.&.&.&.&.#.&.t.#.&.&.t.#.",
"#.&.#.t.#.t.&.t.t.X.` ` ` ` *.+ + + R.}.}.}.}.}.}.}.}.}.}.}.}.}.}.}.}.}.}.}.}.}.}.}.}.}.}.}.R + + &.#.#.&.t.&.t.#.t.&.#.t.#.t.&.",
"&.#.&.t.#.&.t.&.;.#.` ` ` ` ` + + W }.}.}.}.}.}.}.}.}.}.}.}.}.}.}.}.}.}.}.}.}.}.}.}.}.}.}.}.R.+ + ;.&.t.t.#.;.&.&.&.t.t.#.t.#.&.",
"t.t.&.#.t.&.#.#.&...` ` q.f.g.+ t (.}.}.}.J.y y K.}.}.}.}.}.}.}.}.}.}.}.}.}.}.K.y y Z.}.}.}.}.Q + f.f.a.t.&.&.;.t.#.#.&.&.&.#.t.",
"#.&.t.#.&.t.&.t.#.' ` 0.C.A.Z.= J.}.}.}.}.y + + y }.}.}.}.}.}.}.}.}.}.}.}.}.}.y + + y }.}.}.}.}.t A.Z.S.e.t.#.;.&.#.#.t.t.t.#.&.",
"#.t.&.#.&.#.&.&...` ` f.Z.A.Z.(.}.}.}.}.}.+ + + + }.}.}.}.}.}.}.}.}.}.}.}.}.}.+ + + + }.}.}.}.}.).A.Z.Z.N.;.;.#.t.t.&.&.#.&.#.t.",
"&.&.t.t.t.t.#...` ` ` Z.Z.Z.Z.}.}.}.}.}.}.+ + + + }.}.}.}.}.}.}.}.}.}.}.}.}.}.+ + + + }.}.}.}.}.}.Z.Z.Z.Z.#.#.t.#.&.t.#.&.#.&.t.",
"t.#.#.&.#.&...` ` ` ` A.Z.Z.Z.}.}.}.}.}.}.t + + t }.}.}.}.}.L.J.J.L.{.}.}.}.}.t + + t }.}.}.}.}.}.Z.Z.Z.A.t.&.&.#.t.&.#.t.t.&.#.",
"t.&.&.;.;.` ` ` ` ` ..f.Z.Z.Z.[.}.}.}.}.}.K.* * K.}.}.}.}.^.Z.Z.Z.Z.T.}.}.}.}.K.* + A.}.}.}.}.}.(.Z.Z.Z.g.;.;.;.*.;.t.&.&.#.&.t.",
"#.#.t.;...` ` ` ` | ` w.C.Z.Z.(.}.}.}.}.}.}.}.}.}.}.}.R.~ Z.Z.Z.Z.Z.Z.~ K.}.}.}.}.}.}.}.}.}.}.}.(.Z.Z.C.e.*.;.;.;.;.&.;.&.t.&.#.",
"&.t.#.....| ` ` ` ` ` ` w.h.Z.^.}.}.}.}.}.}.}.}.}.}.M.+ + E Z.Z.Z.Z.! + + M.}.}.}.}.}.}.}.}.}.}./.A.f.9.} $.$.:.;.&.;.&.t.&.t.#.",
"&.#.| ` ` ` ` ` ` ` #.;.&.&.#.b.}.}.}.}.}.}.}.}.}.V.+ + + + + + + + + + + + m.}.}.}.}.}.}.}.}.}.k.` ` | ` ` $.$.;.;.&.;.#.#.t.&.",
"#...` ` ` ` ` ` ` #.;.;.;.;.;.z.}.}.}.}.}.}.}.}.}.= + + + + + + + + + + + + * }.}.}.}.}.}.}.}.}.k.` ` ` ` ` ` #.&.#.#.t.&.&.t.#.",
"....` ` ` ` ` ` ..w.;.&.;.;.&.s.}.}.}.}.}.}.}.}.}.* + + + + + + + + + + + + * }.}.}.}.}.}.}.}.}.s.t.:.$.` ` ` ` X.t.&.&.t.#.;.#.",
"` ` ` ` ` ` ..` &.#.&.t.;.;.*.*.W.}.}.}.}.}.}.}.}.R.Q y + + + + + + + + y Q R.}.}.}.}.}.}.}.}.Q.l.l.l.l.:.` ` ` ..| ..*.#.#.....",
"` ` ` ` ` ` | #.t.t.&.#.#.*.2.F 3.E.}.}.}.}.}.}.}.}.}.}.}.}.}.}.}.}.}.}.}.}.}.}.}.}.}.}.}.}.E.J ,.4.l.l.l.i.} ` ` | ` ` ..` ` ..",
"` ` ` ` ` ` ..;.&.t.#.#.&.2.L L L T f f f f f f ^ 6.6.6.6.6.6.6.6.6.6.6.6.6.6.^ f f f f f f T L L L 4.l.l.l.t.| ` ` ` ` ` ` ` ` ",
"` ` ` ` ` | t.&.#.t.&.t.*.P L L L L Y w w w w w p K L L L L L L L L L L L L K p w w w w w Y L L L L I :.l.l.l.t.| ` ` ` ` ` ` ` ",
"` ` ` ` ..#.#.&.#.&.t.&.,.L L L 6.6.U N p w w w w p V L L L L L L L L L L V p w w w w 0 N U 6.6.L L L ,.l.l.l.l.t.` ` ` ` ` ` ` ",
"` ` ` ` ..&.#.t.t.&.#.;.I L 7.'.}.}.}.}.I.d w w w w w s H K L L L L K H s w w w w w d P.}.}.}.}.'.7.L I l.l.l.l.l.t.` ` ` ` ` ` ",
"` ` ` ` ..&.t.#.;.;.;.&.L 7.}.}.}.}.}.}.}.E.w w w w w w w w w w w w w w w w w w w w E.}.}.}.}.}.}.}.7.L l.l.l.l.l.l...` ` ` ` ` ",
"` ` ` ` ..;.t.&.;.;.&.;.I ~.}.}.}.}.}.}.}.}.w w w w w w w w w w w w w w w w w w w w }.}.}.}.}.}.}.}.~.I l.l.l.l.l.l.l.` ` ` ` ` ",
"` ` ` ` | ..#.&.;.;.;.w.p.}.}.}.}.}.}.}.}.}.w w w w w w q 8 6 5 6 6 8 q w w w w w w }.}.}.}.}.}.}.}.}.H.l.l.l.l.l.l.l.} ` ` ` ` ",
"` ` ` ` | ' #.t.*.;.;.4.n.}.}.}.}.}.}.}.}.I.w w w w w 8 2 2 2 2 2 2 2 2 8 w w w w w I.}.}.}.}.}.}.}.].U.l.l.l.l.l.l.t.` ` ` ` ` ",
"` ` ` ` ` ` ` #.#.;.;.;.x.}.}.}.}.}.}.}.}.( w w w w 9 3 3 2 2 2 2 2 2 2 2 9 w w w w ( }.}.}.}.}.}.}.}.c.l.l.l.l.l.l.o.} ` ` ` ` ",
"` ` ` ` ` ` ` ` #.;.;.;.z.{.}.}.}.}.}.}._.a w w w q 3 3 3 3 2 2 2 2 2 2 2 2 q w w w a _.}.}.}.}.}.}.}.z.l.l.l.l.l.&.` ` ` } } } ",
"....` ` ` ` ` ` } ..#.#.&.!.}.}.}.}.}.}.f w w w w 6 3 4 3 3 3 3 2 2 2 2 5 2 5 w w w w g }.}.}.}.}.}.`.l.l.l.l.l.&.` ` } &.l.l.l.",
"l.#.` ` ` ` ` ` ` ` ..#.;.z.(.}.}.}.}.D.w w w w 9 2 2 4 r i i u u u u e 2 2 2 9 w w w w D.}.}.}.}.].c.l.l.l.l.&.` ` ` &.l.l.l.l.",
"l.l.*...` ` ` ` ` ` ` ` } ..d.U.S.V./ w w w w w 7 2 1 O ;.&.&.t.` ` ` ` O + 5 8 w w w w w / V.C.Y.c.l.l.l.l.&.} } o.&.l.l.l.l.l.",
"l.l.i.t.` ` ` ` ` ` ` ` ` ` ` ..                        , ;.&.&.#...` >                         l.l.l.l.l.#.` ` ` ;.l.l.l.l.l.l.",
"l.l.l.l.#.` ` ` ` ` ` ` ` ` ` `                         < ;.&.t.#.#. .>                         l.l.l.l.@.` ` ` #.l.l.l.l.l.l.l.",
"l.l.l.l.t.` ` ` ` ` ` ` ` ` ` ` -                     % ..&.;.&.t.y.#.#.#                     ; &.&.&.} } } ` ` :.l.l.l.l.l.l.l.",
"l.l.l.l.y.` ` ` ` ` ` ` ` ` ` ` ` , - $ X       . % : #.&.#.#.t.&.&.&.t.X.: % $         X - , ` ` ` ` ` ` ` ` ` y.l.l.l.l.l.l.l.",
"l.l.l.l.*.` ` ` ` ` ` ` ` ` ` ` ` ` `  .t.&.#.t.t.t.&.t.t.t.&.&.t.&.#.t.#.&.' ' ` ` ` ` ` ` ` ` ` ` ` ` ` ` ` ` &.l.l.l.l.l.l.l.",
"l.l.l.;.` ` ` ` ` ` ` ` ` ` ` ` ` ` ' t.#.#.&.&.#.t.#.&.#.&.t.#.#.#.&.&.&.#. .` ` ` ` ` ` ` ` ` ` ` ..| ` ` ` ` } &.l.l.l.l.l.l.",
"l.l.;.` ` ` ` ` ` ` ` ` ` ` ` ` ` ' #.#.&.t.t.#.&.#.t.&.#.t.&.#.&.t.t.#.t.t.&. .` ` ` ` ` ` ` ` ` ` ..&.&.&.&.} | ` ;.l.l.l.l.l.",
"l.#.} ` ` ` ` ` ` ` ` ` ` ` ` `  ...t.t.&.#.#.t.t.t.#.&.#.&.t.t.t.&.&.#.#.#.&.#.' ` ` ` ` ` ` ` ` X.t.&.&.:.&.&.` ` ` &.l.l.l.l.",
"#.` ` ` ` ` ` ` ` ` ` ` ` ` ` `  .#.#.#.t.t.&.&.#.&.#.t.t.&.#.&.#.#.t.t.&.t.#.t.....` ` ` ` `  .X.&.;.&.;.&.&.&.#.} ` ` #.l.l.l.",
"` ` ` ` ` ..;.y.t.#.} ..` ` ` ` #.t.#.t.#.&.t.#.&.#.&.t.t.#.&.#.&.t.#.&.t.&.t.#.;...` ` ` ` ..X.&.t.&.t.&.;.;.;.&.&.} ` ` } #.` ",
"` ` ` ` ..l.l.l.l.l.y.` ` ` ` ` #.t.&.&.#.t.&.#.t.t.&.#.&.#.t.t.&.#.t.&.#.#.t.&.#...` ` ` ` #.&.&.&.&.&.;.&.;.;.;.;.#.` ` ` ` ` "
};
