/* XPM */
static char *img_g[] = {
/* columns rows colors chars-per-pixel */
"64 64 18 1 ",
"  c #758C8E",
". c #768D8F",
"X c #768E90",
"o c #778E90",
"O c #778E91",
"+ c #788F92",
"@ c #789092",
"# c #7B9396",
"$ c #7C9396",
"% c #7C9497",
"& c #7C9597",
"* c #7E9799",
"= c #7F989B",
"- c #80999C",
"; c #819A9D",
": c #829B9E",
"> c #839C9F",
", c #849EA1",
/* pixels */
"   &,,,,,,,;X  X%-%-$%%-$-$%%-$-$%%-$-$%$+   $$%;%;#$%;%;#$$    ",
" X;,,,,,,,,,;X  %%%%-%%$%%-%%$%%-%%$%%-%*   +%#;#$%$#;#$%$#;$   ",
" ;,,,,,,,,,,,;  +*%%$-$-%%$%%-%%$-$-%%$%$  +%%;%$#;#$%$#;%;%$X  ",
";,,,,,,,,,,,,,&  $**%%%%-$-%%$-$%%%%-$-%   +*%#$%;%$#;%;#$#$%#  ",
",,,,,,,,,,,,,,,@ +%$;%;%$%%-$%%-%$%$$-$+   +*%%%;#$%;#$%#;*%*$ ;",
",,,,,,,,,,,,,,,;  +*#$#%-%%$-%%$%-%-%%++    %%**%$#;%$#;%%%%%+$,",
",,,,,,,,,,,,,,,,$ X+$%;$$-$-$-$--$$%-+X     +;*%;%;%;%;%%;%*# ;,",
",,,,,,,,,,,,,,,,$   X;%%%%%%%%%%%%$-+  $-*+  #$*#$#$#$#$$#$#  *,",
",,,,,,,,,,,,,,,,$    +%*%$%$%$$$-%-+  $,,,,-  **-%-%-%-%%;$   +,",
",,,,,,,,,,,,,,,,X     +$%-%-%-%-$%+  -,,,,,,;  #$%$%$%$%$#X    -",
";,,,,,,,,,,,,,,#       X%-%%-$$$-+o -,,,,,,,,-  $%-$%%-$$+      ",
"+,,,,,,,,,,,,,#          $$-%%-$+  $,,,,,,,,,,*  $%%$-$#X       ",
" #,,,,,,,,,,;#            +$$%$    ,,,,,,,,,,,,#  +*$-+o  ++$$+ ",
"  #,,,,,,,,>X                     +,,,,,,,,,,,,*   oX o +--%%*%$",
"$  *,,,,,,;+   #$*$                -,,,,,,,,,,,       X+%-%-%%%*",
"*&  *>,,,*   +&&$-$$               +,,,,,,,,,,$     oo+%$$%%-*%%",
"&*%+ + +    +%%-$%%-+               #,,,,,,,,$      o#%%%-$%%%%-",
"*$*%X      #%*%%-%%$%X               #,,,,,,%       +$%*%$-%-$%$",
"&*#%$X    +*%%*-$-$--$         ++++   #,,,,-       +%-%%%%%%$-%-",
"$**#&$+   $$*%%%%%%%$%+    O $%-%*%#   +-=+      o+*%$-$-$-$%%%$",
"$#$#$##X  +*$-$-%**%$$+o   +$-$-**%%$            +%-$%%-$-$-%%%-",
"%;%;**%$  +$%%%%%%%%%-$   +%%%%%%%$-*$X         +-%$-%%$%%%%-$%$",
";#%%%%%*$  +%-$%-%%*%$  O$-%%%$%-%%%*%$+       +$-$-$-$-%-$%$-%-",
"%$#;%;%%$+  $$-%%%*$$   $%$%$--%$%$-$*$$       $%%%%%%%%%$-%%%%$",
";%;#%-$-$$o o$%%--%+   +%$%-$%%%%%-$%$%%%+     #$-$-$-$-%-$%%%%-",
"#$%$%$%%%+    $*$+oo O$-%-%$-%-$$-%%%-$-%$    o-%%%%%%%%%$-%-$%$",
"$#;#%-%%-+     Xo    %%%$-%-$%$-%$%$-%%%$%$    %%-$%%-$%%%%%$-%-",
"%;%$%$-$$+          $$-$%%%$-%%%%-%-$%$--%%+   $%$-%%$-%-$-$%%%$",
";#$%;#%-$          O%-%-%-$%%-$%-%-%%$%%-$%$o  +%%-$$%%%$-$-%%%-",
"%$#;%$%$o         O%+%%$%$-%%$-%$%$%%-$-%%%-#   $%%%-%-$%%%%-$%$",
";%;%;%;X          o%--%-%%%%%%%%%%-$-%%%-%%%%+   $-$$%$-%-$%$-%-",
"#$#$#$X           X-%%%%-$-$-$-$$-%%$%$-%%**%+    $%-%%%%$-%%%%$",
"$-*$$+             $-%-%%$%$%$%$%%-$%$%%-$%$%+     $*%%%*%#%%%%;",
"%%%*$              $$%$%%-%-%-%-$-%%%-$-%%%--+      $**%*%;%;#%#",
"%-$+        +      +%%%*-$%%-$%%%$%$-%%%-$%*$        $$*%%%%#;%;",
"%$+       $%*%$+    +-%*%%$-%%$-%-%-$%$-%%*%o         $$%*;#$%$#",
"$+       +-$-$%$$+   $$%-%-$%%-%-%-%%$%%*%%+           #-%-%%$%;",
"+       +*%%%%%-*%+   $*$%%%$-$%$%$%%-$-%*+X   +---$    +%$%;#;X",
"       +%$-$-$-%%%$+  +$%$-$%%%$%%-$-%%%*X    #;,,,,;    oX-%$Xo",
"      o%%-%%%%$%-*%*$  +%-%%$-%-$-%%$%$-#    #,,,,,,,;     oX   ",
"      +*-$%$%%-$$%%-$$  X-%-$$%%%$%%*%%+    #,,,,,,,,,-O        ",
"     +%%%%%-$-%%-%%$%%+ o+$%-%$-%-$-%%+o   $,,,,,,,,,,,-        ",
"     $-$-$-%%$%$$-$-%*+   +$$%-%$-%%$X    $,,,,,,,,,,,,,-O      ",
"    +-%%%%$%%-%-%%%%%$$   o+$%$%%%%$     +,,,,,,,,,,,,,,,-      ",
"    +*%%-$%$-%-%-%-%*%+      +-%%$       ;,,,,,,,,,,,,,,,,+     ",
"    +$$-%%%-$%$%$%$%%$                  #,,,,,,,,,,,,,,,,,,     ",
"     $%%-$-%%%-$%%%*%+                  %,,,,,,,,,,,,,,,,,,     ",
"      $-%%$%$-%%$-$-+                   +,,,,,,,,,,,,,,,,,-     ",
"       #$*%%**%%%-$$                     -,,,,,,,,,,,,,,,,+     ",
"        #%*%%%%*%*$                      o;,,,,,,,,,,,,,,#   oX ",
"#        X$*%%%*$%          o              ;,,,,,,,,,,,,$   *,,,",
",$         $%-%%#o        +$%++            o,,,,,,,,,,,*   *,,,,",
",,*         +X%$         $-%%%-$++          X,,,,,,,,,*  o*,,,,,",
",,,*        Xo         o%%%%%-%%$             ;,,,,,,$   *,,,,,,",
",,,,$                 +$%%**%%%$*$+           +;,,,,#   #,,,,,,,",
",,,,;               oX%$*%%%%-%-&&*+            +%$o    =,,,,,,,",
",,,,-               +$%--%-%-%-%$-#%+X                  -,,,,,,,",
",,,,%              +-%%$$%$%$%$%&$;%;X                  %,,,,,,,",
",,,*              o$$-$-%%-$%%-$$*#%$#+           X+  +oo=,,,,,,",
",,*               #$%%%%$-%%$-%%;#=%$;$+          +%$$+X  %,,,,,",
",#               +---%-%%$%%-$%$-%-%;%;XX      X $$%%*%%   *,,,,",
"$               +$%%$%$%%-$-%%%-$%$%#$$;+      ++$%*%*%*#   %,,,",
"     +*--$+o    $--%%%-$-%%%-$-%%%-$-%%%$+    X+#;%;%%*%*#o   X ",
"    %-,,,,-    O%%$%$-%%$%$-%%$%$-%%$%$-$+    $%%%%#*%%*%*%     "
};
