/* XPM */
static char *img_p_ls[] = {
/* columns rows colors chars-per-pixel */
"64 64 190 2 ",
"   c gray20",
".  c #3E3433",
"X  c #373839",
"o  c #3C3F3F",
"O  c #603935",
"+  c #6B3A35",
"@  c #694C39",
"#  c #69503E",
"$  c #4C4842",
"%  c #43494A",
"&  c #454B4C",
"*  c #4B5454",
"=  c #535D5F",
"-  c #6D594B",
";  c #725540",
":  c #7B5E48",
">  c #5A6C47",
",  c #6E6155",
"<  c #6F6C63",
"1  c #706E65",
"2  c #7F7362",
"3  c #617072",
"4  c #647577",
"5  c #717873",
"6  c #813D36",
"7  c #BA4539",
"8  c #C5473A",
"9  c #D0483A",
"0  c #E74C3C",
"q  c #85674F",
"w  c #8E7157",
"e  c #977A5E",
"r  c #AD744C",
"t  c #A17C4F",
"y  c #B4675F",
"u  c #8A7562",
"i  c #BB6F68",
"p  c #B2716A",
"a  c #B5756F",
"s  c #A97F7B",
"d  c #CF5C42",
"f  c #D45B4E",
"g  c #CE6155",
"h  c #EB6751",
"j  c #ED7159",
"k  c #C37369",
"l  c #EE7A60",
"z  c #2DAE64",
"x  c #32AC67",
"c  c #3CAC63",
"v  c #33AD68",
"b  c #28B162",
"n  c #28B262",
"m  c #29B765",
"M  c #29B966",
"N  c #2ABC68",
"B  c #2BBE69",
"V  c #35B56B",
"C  c #3BBF76",
"Z  c #4F8451",
"A  c #4B8C55",
"S  c #76875D",
"D  c #7E9459",
"F  c #739C5D",
"G  c #40A45F",
"H  c #4F9E78",
"J  c #589A7D",
"K  c #5CAC63",
"L  c #45A372",
"P  c #45A373",
"I  c #42A772",
"U  c #49A878",
"Y  c #53A37D",
"T  c #52AC7F",
"R  c #41BE7A",
"E  c #46BB7D",
"W  c #67A460",
"Q  c #69AD67",
"!  c #2BC16B",
"~  c #2CC36C",
"^  c #2CC66E",
"/  c #39C46D",
"(  c #2DCA70",
")  c #2ECC71",
"_  c #38C575",
"`  c #33C873",
"'  c #3BCD75",
"]  c #48CE79",
"[  c #55CF7D",
"{  c #6DC97D",
"}  c #968453",
"|  c #998972",
" . c #A18366",
".. c #AA8C6D",
"X. c #B39969",
"o. c #B49675",
"O. c #BD9F7C",
"+. c #8FA76C",
"@. c #9CA970",
"#. c #E59472",
"$. c #F49F7D",
"%. c #5D9881",
"&. c #5D9F83",
"*. c #6F8385",
"=. c #758C8E",
"-. c #768D8F",
";. c #7C8889",
":. c #669386",
">. c #649784",
",. c #689C8A",
"<. c #6C998C",
"1. c #6D9B8E",
"2. c #6A9F8D",
"3. c #70908D",
"4. c #71908D",
"5. c #768E90",
"6. c #778E90",
"7. c #778E91",
"8. c #788F91",
"9. c #788F92",
"0. c #789092",
"q. c #7D9291",
"w. c #7A9295",
"e. c #7B9396",
"r. c #7C9396",
"t. c #7C9497",
"y. c #7C9597",
"u. c #739992",
"i. c #7D9598",
"p. c #7E9799",
"a. c #7F989B",
"s. c #59AB85",
"d. c #5BAD87",
"f. c #5FA989",
"g. c #55B083",
"h. c #56B184",
"j. c #69A38E",
"k. c #63B68A",
"l. c #6EA091",
"z. c #5DC489",
"x. c #62D181",
"c. c #6FD285",
"v. c #78CE9C",
"b. c #848585",
"n. c #858E88",
"m. c #968280",
"M. c #8E9D96",
"N. c #80999C",
"B. c #819A9D",
"V. c #829B9E",
"C. c #839C9F",
"Z. c #8A999B",
"A. c #909494",
"S. c #A38481",
"D. c #A8AC9B",
"F. c #B1B19D",
"G. c #BAB69F",
"H. c #849EA1",
"J. c #8BA3A3",
"K. c #C6A884",
"L. c #D1B787",
"P. c #D0B18B",
"I. c #D9BB93",
"U. c #F6A885",
"Y. c #F9BB93",
"T. c #89D48D",
"R. c #96D691",
"E. c #B0D899",
"W. c #BDD99D",
"Q. c #93D8B0",
"!. c #E2C49A",
"~. c #D5C7A7",
"^. c #DCCBA8",
"/. c #CADBA1",
"(. c #D7DCA5",
"). c #E5CAA1",
"_. c #ECCDA2",
"`. c #E0D0AC",
"'. c #EED6AC",
"]. c #E4DDA9",
"[. c #F5D6A9",
"{. c #FDD6A9",
"}. c #F0D8AE",
"|. c #FFE0B1",
" X c #AEE1C4",
".X c #BBE6CD",
"XX c #CAF2DB",
"oX c #DEE4E4",
"OX c #EFF2F2",
"+X c white",
/* pixels */
"=.=.=.y.H.H.H.H.H.H.H.B.5.=.=.5.t.t.p.t.t.p.t.t.t.t.t.N.t.t.t.t.p.t.t.t.t.t.t.N.y.9.9.=.=.9.t.p.t.t.t.p.t.t.N.t.N.r.t.t.7.7.=.=.",
"=.5.B.H.H.H.H.H.H.H.H.H.B.5.=.=.t.p.t.p.t.t.N.t.N.t.t.t.p.t.p.t.p.t.N.t.N.t.t.r.r.-.-.=.9.r.t.p.t.p.t.t.r.N.r.t.t.t.r.N.9.7.=.=.",
"=.B.H.H.H.H.H.H.H.H.H.H.H.B.=.=.9.t.e.p.p.p.t.t.r.N.t.N.p.t.r.p.t.t.t.t.r.N.t.N.9.9.=.9.y.y.p.t.t.t.N.t.t.t.t.r.N.t.N.t.r.-.=.=.",
"B.H.H.H.H.H.H.H.H.H.H.H.H.H.y.=.5.t.r.p.t.t.t.p.t.t.t.r.r.r.p.r.t.p.N.t.t.t.t.r.=.=.=.9.p.r.r.p.t.N.t.t.r.N.t.N.r.t.r.t.N.9.=.=.",
"H.H.H.H.H.H.H.H.H.H.H.H.H.H.H.0.=.5.r.r.e.p.y.y.t.N.t.N.t.t.t.N.t.r.t.r.t.t.t.t.=.=.=.=.t.p.e.e.N.r.t.t.N.r.t.t.t.e.r.p.r.r.9.N.",
"H.H.H.H.H.H.H.H.H.H.H.H.H.H.H.B.=.=.5.p.p.y.p.y.t.r.t.t.N.t.t.r.t.N.t.N.N.r.9.7.=.=.=.9.t.t.p.p.t.t.r.N.t.t.r.N.t.B.t.e.r.9.9.H.",
"H.H.H.H.H.H.H.H.H.H.H.H.H.H.H.H.e.5.5.9.e.p.y.y.t.t.t.t.t.N.r.N.N.r.t.t.r.r.7.7.5.=.=.=.r.t.e.p.N.t.N.t.N.t.N.t.B.e.r.p.r.9.B.H.",
"H.H.H.H.H.H.H.H.H.H.H.H.H.H.H.H.e.=.9.5.5.y.,.,.s.H s.H J Y Y Y H s.H s.H H H H 2.u.5.9.5.e.p.e.r.t.r.t.r.t.r.t.t.t.y.r.=.5.r.H.",
"H.H.H.H.H.H.H.H.H.H.H.H.H.H.H.H.w.=.=.=.H z b b b b b b b b b b z b b b b b b b b b x U %.3.e.p.t.p.p.t.a.e.r.y.B.e.t.6.=.=.9.H.",
"H.H.H.H.H.H.H.H.H.H.H.H.H.H.H.H.=.=.=.L b b b b b b b b b b b b z b b b b b b b b b b b b b L <.t.t.t.p.t.p.p.p.t.t.5.=.=.=.=.N.",
"B.H.H.H.H.H.H.H.H.H.H.H.H.H.H.e.=.=.:.b b b b b b b b b b b b b b b b b b b b b b b b b b b b b I u.p.r.t.t.e.r.t.5.=.=.=.=.=.=.",
"9.H.H.H.H.H.H.H.H.H.H.H.H.H.e.=.=.=.H b b b b b b b b b b b b b b b b b b b b b b b b b b b b b n z <.r.e.B.p.y.5.6.=.=.=.=.=.=.",
"=.e.H.H.H.H.H.H.H.H.H.H.B.e.=.=.=.=.k.z.V b b b b b b b b b b b b b b b b b b b b b b b b b b b z n n &.p.y.e.=.6.5.9.9.9.r.9.=.",
"=.=.e.H.H.H.H.H.H.H.H.C.5.=.=.=.=.-.oX+X+X Xz.b b b b b b b b b b b b b b b b b b b b b b b b b n n z n :.=.=.=.5.t.N.N.N.r.r.r.",
"r.=.=.p.H.H.H.H.H.H.B.9.=.=.=.e.p.y.oX+X+X+X+XQ.b b b b b b b b b b b b b b b b b b b b b b b b b b b b x =.=.9.N.t.t.t.t.t.t.p.",
"p.y.=.=.p.C.H.H.H.p.=.=.=.9.y.y.y.t.OX+X+X+X+X+Xv.b b b b b b b b b b b b b b b b b b b b b b b b b b b z J 9.N.t.r.r.N.t.N.t.t.",
"y.p.t.9.=.9.=.9.=.=.=.=.e.e.e.t.p.t.+X+X+X+X+X+X+Xz.n n n n b b b b b b b b b b b b b b b b b b b b b b b c a.p.t.p.t.a.t.a.t.t.",
"p.r.p.t.5.=.=.=.=.=.=.w.e.t.p.a.p.t.+X+X+X+X+X+X+X.Xn n n n b b b b b b b b b b b b b b b b b b b b b b z n t.t.p.t.t.p.t.t.a.t.",
"y.p.e.t.r.5.=.=.=.=.5.t.p.e.t.l.l.l.XXXXXXXXXXXXXXXXn n n z b b b b b b b b n z b b b b b b b b b b b b n n <.t.t.p.t.t.t.t.t.t.",
"r.p.p.e.y.r.9.=.5.5.e.p.f.E ( ) ( ) ) ) ) ) ) ) ) ` ( ) ( ( ^ ^ B B N m m b n n b b b b b b b b b b b b n n <.r.p.e.p.t.N.t.a.t.",
"r.e.r.e.r.e.e.5.=.=.s._ ) ) ` ( ) ) ) ) ) ) ) ) ) ) ) ) ) ) ) ) ) ) ) ) ) ) ( ^ ~ N M b z b b b b b b b b b <.e.9.N.t.N.t.N.t.t.",
"t.B.t.B.p.p.t.r.=.5.^ ( ) ) ) ( ) ) ) ) ) ) ) ) ) ) ) ) ) ) ) ) ) ) ) ) ) ) ) ) ( ( ( ( ^ ~ N M b b b b b b B.t.N.9.N.9.t.t.N.t.",
"B.e.t.t.t.t.t.p.w.5._ ^ ) ) ` ( ) ) ) ) ) ) ) ) ) ) ) ) ) ) ) ) ) ) ) ) ) ) ) ) ) ) ) ) ) ) ) ) ( ^ N M b v e.t.N.9.t.N.t.t.t.t.",
"t.r.e.B.t.B.t.t.e.=.=.g.g.] R R C ` ) ) ) ) ) ) ) ) ) ) ) ) ( ) ) ) ) ) ) ) ) ) ) ) ) ) ) ) ) ) ) ) ) ) ^ _ B.e.N.N.N.9.N.t.N.t.",
"B.t.B.e.t.N.r.N.r.r.6.=.6.r.t.t.t.t.a.|.|.(./././.E.R.R.R.T.x.x.x.x.( ( ( ( ) ) ) ) ) ) ) ) ^ ) ` ( ( ( ( s.i.i.9.N.N.N.9.N.N.9.",
"e.r.t.r.t.r.t.t.t.9.=.=.=.=.r.p.t.y.-.|.|.|.|.|.|.|.|.|.|.|.|.|.|.|.|.|.|.|.S > > > Z A A A c c c c c c c t.i.i.N.9.9.N.N.9.N.N.",
"r.e.B.e.t.N.t.t.N.9.=.=.=.=.=.5.=.=.5.|.|.|.|.|.|.|.|.|.|.|.|.|.|.|.|.|.|.|...# @ @ @ @ @ @ @ @ @ @ @ @ @ w.i.i.N.N.9.N.N.9.9.N.",
"t.B.t.r.t.r.N.r.r.9.=.=.=.=.=.=.-.-.-.|.|.|.|.|.|.|.|.|.K.@ # !.|.|.|.|.|.|.).@ @ @ @ @ @ @ @ @ @ @ @ @ @ r.i.i.9.N.N.9.n.N.N.9.",
"B.e.r.t.B.e.t.N.r.=.=.=.=.=.=.=.-.=.=.|.|.|.|.|.|.|.|.|.: @ @ w |.|.|.|.|.|.|.o.I.|.|.|.I.q @ @ @ @ @ @ @ i.i.i.i.i.i.i.t.i.i.i.",
"t.r.e.B.t.r.t.r.6.=.=.=.=.=.=.=.=.=.-.|.|.|.|.|.|.|.|.|.@ @ @ @ |.|.|.|.|.|.|.|.|.|.|.|.|._.; @ @ @ @ @ @ i.i.i.i.i.i.i.t.i.i.i.",
"B.t.B.t.B.t.B.5.=.=.=.=.=.=.=.=.=.-.5.|.|.|.|.|.|.|.|.|.@ @ @ @ |.|.|.|.|.|.|.|.|.|.|.|.|.|.I.@ @ @ @ @ @ i.i.i.i.i.i.i.i.i.i.i.",
"e.r.e.r.e.r.5.=.=.=.=.=.=.=.=.=.5.D.~.|.|.|.|.|.|.|.|.|.q @ @ e |.|.|.|.|.|.|.|.|.|.|.|.|.|.|.@ @ @ @ @ @ i.i.i.i.i.i.i.i.i.i.i.",
"t.r.r.t.t.5.=.=.=.=.=.=.=.=.=.=.D.|.|.|.|.|.|.|.|.|.|.|.I.@ : [.|.|.|.|.|.|.|.|.|.|.|.|.|.|.|.@ @ @ @ @ - y.a.y.p.y.p.t.t.t.p.t.",
"t.N.t.N.9.=.=.=.=.=.=.=.=.=.=.=.'.|.|.!.} # w w e O._.|.|.|.|.|.|.|.|.|.|.|.|.|.|.|.|.|.|.|.K.@ @ @ @ @ - a.y.y.y.p.r.p.p.t.p.t.",
"N.r.t.9.6.6.=.=.=.=.6.=.5.9.=.=.G.^.|.: @ @ @ @ @ @ @ P.|.|.|.|.|.|.|.|.|.|.|.|.|.|.|.|.|.!.# @ @ @ @ @ , y.y.y.e.e.p.p.t.p.t.t.",
"t.t.5.=.=.=.=.=.=.=.5.B.t.t.r.9.5.5.5 @ @ @ @ @ @ @ @ @ I.|.|.|.|.|.|.|.|.|.|.|.|.|.|.|.|.|.!. .# @ @ @ < -.y.y.p.y.y.r.t.t.t.p.",
"t.9.=.=.=.=.=.=.=.9.r.N.e.r.t.r.t.5.< @ @ @ @ @ @ @ @ @ : |.|.|.|.|.|.|.|.|.|.|.|.|.|.|.|.|.|.|.|.I.o.o.n.u.=.0.t.p.p.t.N.t.N.t.",
"9.=.=.=.=.=.=.=.9.N.r.r.B.t.B.e.t.p.< @ @ @ @ @ @ @ @ @ ; |.|.|.|.|.|.|.|.|.|.|.|.|.|.|.|.|.|.|.|.|.|.|.M.3.=.=.t.t.t.r.t.t.t.t.",
"=.=.=.=.=.=.=.9.r.N.t.N.e.r.e.B.e.p.9., ; @ @ @ @ @ w o._.|.|.|.|.|.|.|.|.|.|.|.|.|.|.|.|.|.|.|.|.|.|.^.a.5.-.-.9.9.9.r.r.r.9.7.",
"=.=.=.=.=.=.6.r.t.t.t.r.B.t.r.t.p.p.p.t.z.].|.|.|.|.|.|.|.|.|.|.|.|.|.|.|.|.|.|.|.|.|.|.|.|.|.|.|.|.}.J.J.a.-.-.=.=.=.=.9.=.7.7.",
"=.=.=.=.=.=.9.N.e.r.t.r.t.B.e.r.t.p.p.h.( ' x.x.x.x.x.x.x.x.x.@.j j j j X.x.x.x.x.x.x.x.{ j j j j j k H.H.H.H.9.=.=.=.=.=.=.=.=.",
"=.=.=.=.=.9.r.r.B.t.B.e.r.e.B.t.t.t.p.` ( ( ) ) ) ) ) ) ) ) W d 0 0 0 0 / ) ) ) ) ) ) ) ) e 0 0 0 0 0 Z.H.H.H.t.=.=.=.=.=.=.=.=.",
"=.=.=.=.=.r.p.t.e.r.e.B.t.r.t.r.p.p.l.( ) ) ) ) ) ) ) ( ) } 0 0 0 0 0 r ) ) ' x.x.x.' ) ) F 0 0 0 0 0 s H.H.H.H.N.6.6.=.=.=.=.=.",
"=.=.=.=.9.r.N.t.B.t.r.t.B.e.B.e.t.t.d.( ) ) ) ) ) ) ) F d 0 0 0 0 0 0 D ] W.|.|.|.|.|.c.) K 0 0 0 0 0 i H.H.H.H.H.N.=.=.=.=.=.=.",
"=.=.=.=.9.t.t.N.e.r.t.r.e.B.e.B.p.p.h.) ) ) ) K } t 0 0 0 0 0 0 0 0 0 Q ].|.|.|.|.|.|.|.R.K 0 0 0 0 0 g H.H.H.H.H.H.9.=.=.=.=.=.",
"=.=.=.=.9.p.t.r.B.t.B.e.t.t.t.t.e.p.p 0 0 0 0 0 0 0 0 0 0 0 0 0 0 0 0 L.|.|.|.|.|.|.|.|.|.+.0 0 0 0 0 g H.H.H.H.H.H.H.=.=.=.=.=.",
"=.=.=.=.=.r.t.N.e.r.e.B.t.B.p.t.p.t.p 0 0 0 0 0 0 0 0 0 0 0 0 0 0 0 0 Y.|.|.|.|.|.|.|.|.|.#.0 0 0 0 0 g H.H.H.H.H.H.H.9.=.=.=.=.",
"=.=.=.=.=.=.r.r.B.t.t.t.t.e.t.t.p.t.p 0 0 0 0 0 0 0 0 0 0 0 0 0 0 0 0 U.|.|.|.|.|.|.|.|.|.U.0 0 0 0 0 g H.H.H.H.H.H.t.=.=.=.=.=.",
"=.=.=.=.=.=.=.r.t.t.t.p.t.t.t.p.p.t.p 0 0 0 0 0 0 0 0 0 0 0 0 0 0 0 0 h |.|.|.|.|.|.|.|.|.Y.0 0 0 0 0 g H.H.H.H.H.H.5.5.=.=.=.=.",
"=.=.=.=.=.=.=.=.e.p.t.p.t.p.t.t.t.p.m.0 0 0 0 0 0 0 0 0 0 0 0 0 9 6 O O u |.|.|.|.|.|.|.|.$.0 0 0 0 0 a H.H.H.H.H.e.=.=.=.5.5.5.",
"9.=.=.=.=.=.=.=.=.6.r.t.t.t.N.t.r.r.b.0 0 0 0 0 0 0 0 0 0 0 0 7           2 |.|.|.|.|.|.|.h 0 0 0 0 0 S.H.H.H.H.r.=.=.=.p.H.H.H.",
"H.p.=.=.=.=.=.=.=.=.=.r.t.N.t.t.e.5.*.i 0 0 0 0 0 0 0 0 0 0 8 .             $ | ).|.|.{.l 0 0 0 0 0 f Z.H.H.H.e.5.=.=.p.H.H.H.H.",
"H.H.p.=.=.=.=.=.=.=.=.=.9.6.e.9.=.=.=.;.i 0 0 0 0 0 0 0 0 0 +                     . 0 0 0 0 0 0 0 f A.H.H.H.p.=.=.=.p.H.H.H.H.H.",
"H.H.H.p.=.=.=.=.=.=.=.=.6.6.6.6.=.=.=.=.*.=.=.=.t.t.e.B.t.r.                        4 =.=.5.B.H.H.H.H.H.H.r.=.=.=.p.H.H.H.H.H.H.",
"H.H.H.H.p.=.=.=.=.=.=.=.=.=.=.=.=.=.=.=.=.=.5.t.B.t.B.t.B.t.X                       4 =.=.=.=.B.H.H.H.H.e.=.=.=.r.H.H.H.H.H.H.H.",
"H.H.H.H.N.=.=.=.=.=.=.=.=.=.=.=.=.=.=.=.=.9.N.t.e.r.e.r.e.r.3                     % =.=.=.=.=.=.9.e.e.5.=.=.=.=.p.H.H.H.H.H.H.H.",
"H.H.H.H.a.=.=.=.=.=.=.=.=.=.=.=.=.=.=.=.9.r.r.t.r.N.r.N.r.N.r.*.= & o       X * 3 =.=.=.=.=.=.=.=.=.=.=.=.=.=.=.N.H.H.H.H.H.H.H.",
"H.H.H.H.e.=.=.=.=.=.=.=.=.=.=.=.=.=.=.9.r.p.N.t.t.t.t.t.t.t.t.N.p.r.t.p.t.t.=.5.=.=.=.=.=.=.=.=.=.=.=.=.=.=.=.=.p.H.H.H.H.H.H.H.",
"H.H.H.p.6.6.=.=.=.=.=.=.=.=.=.=.=.=.9.r.t.t.t.t.t.N.r.t.t.N.t.t.t.t.t.t.t.t.9.=.=.=.=.=.=.=.=.=.=.=.9.6.=.=.7.=.5.p.H.H.H.H.H.H.",
"H.H.t.=.=.=.=.=.=.=.=.=.=.=.=.=.=.=.r.r.N.r.N.r.t.r.N.t.t.r.r.N.t.p.p.t.N.t.t.5.=.=.=.=.=.=.=.=.=.=.9.t.t.r.t.5.=.=.p.H.H.H.H.H.",
"H.9.6.6.=.=.=.=.=.=.=.=.=.=.=.=.=.9.N.r.r.N.r.N.t.t.t.N.t.t.N.t.t.r.t.r.t.N.r.r.5.=.=.=.=.=.=.5.=.r.r.t.t.p.t.t.=.=.=.p.H.H.H.H.",
"e.6.=.=.=.6.=.=.=.=.=.6.=.=.=.=.9.r.t.N.t.t.t.t.N.r.t.r.r.N.r.t.t.N.t.N.t.t.t.t.9.=.=.=.=.=.=.9.9.r.t.p.t.p.t.p.e.=.=.=.e.H.H.H.",
"=.=.=.=.=.6.a.N.i.e.7.6.=.=.=.=.9.N.r.N.t.N.r.t.r.N.t.N.t.t.t.r.N.r.t.t.t.r.N.t.r.9.=.=.=.=.5.9.t.N.t.N.t.t.p.t.p.e.5.=.=.=.5.5.",
"=.=.=.=.6.H.H.H.H.H.N.=.=.=.6.6.N.t.t.t.t.r.N.t.t.t.t.r.r.N.t.N.t.t.r.N.t.N.t.t.r.9.=.=.=.=.r.t.t.t.t.t.p.t.t.t.p.t.e.=.=.=.=.=."
};
