/* XPM */
static char *img_p_rr[] = {
/* columns rows colors chars-per-pixel */
"64 64 193 2 ",
"   c gray20",
".  c #3E3433",
"X  c #363838",
"o  c #373839",
"O  c #3B3E3E",
"+  c #493634",
"@  c #543734",
"#  c #603935",
"$  c #694C39",
"%  c #69503E",
"&  c #424747",
"*  c #43494A",
"=  c #484F50",
"-  c #4B5454",
";  c #4F595A",
":  c #515A5C",
">  c #6A5443",
",  c #6B5C4E",
"<  c #725540",
"1  c #7B5E48",
"2  c #5A6C47",
"3  c #6D6054",
"4  c #545F60",
"5  c #586667",
"6  c #5D6A6C",
"7  c #6F6D64",
"8  c #607071",
"9  c #617072",
"0  c #647577",
"q  c #6A7C7E",
"w  c #717873",
"e  c #757974",
"r  c #8D3F37",
"t  c #984138",
"y  c #AE4439",
"u  c #C5473A",
"i  c #E74C3C",
"p  c #85674F",
"a  c #8E7157",
"s  c #977A5E",
"d  c #B86C49",
"f  c #AD744C",
"g  c #AB6761",
"h  c #B86B64",
"j  c #B5756F",
"k  c #A47975",
"l  c #CF5C42",
"z  c #C8584D",
"x  c #CC5E53",
"c  c #E85543",
"v  c #EA5E4A",
"b  c #ED7159",
"n  c #EE7A60",
"m  c #2DAE64",
"M  c #2DAF65",
"N  c #32AC67",
"B  c #3CAC63",
"V  c #28B162",
"C  c #28B262",
"Z  c #29B765",
"A  c #29B966",
"S  c #2ABB67",
"D  c #2ABC68",
"F  c #2BBE69",
"G  c #35B56B",
"H  c #3EB675",
"J  c #4F8451",
"K  c #4B8C55",
"L  c #449C5C",
"P  c #76875D",
"I  c #7E9459",
"U  c #739C5D",
"Y  c #4F9E78",
"T  c #589A7E",
"R  c #5CAC63",
"E  c #50B467",
"W  c #45A372",
"Q  c #41A772",
"!  c #4AA878",
"~  c #52A17C",
"^  c #53A37D",
"/  c #50A87E",
"(  c #48B47B",
")  c #45B97B",
"_  c #41BE7A",
"`  c #67A460",
"'  c #2BC16B",
"]  c #2CC36C",
"[  c #2CC66E",
"{  c #2DC86F",
"}  c #2DCA70",
"|  c #2ECC71",
" . c #38C575",
".. c #32C872",
"X. c #3BCD75",
"o. c #3DC178",
"O. c #48CE79",
"+. c #55CF7D",
"@. c #59CC7E",
"#. c #6DC97D",
"$. c #968453",
"%. c #A18366",
"&. c #AA8C6D",
"*. c #B49675",
"=. c #BD9F7C",
"-. c #9CA970",
";. c #84B977",
":. c #CA8963",
">. c #F08367",
",. c #F39676",
"<. c #F49F7D",
"1. c #6D8183",
"2. c #718789",
"3. c #748889",
"4. c #748A8B",
"5. c #708F8C",
"6. c #758C8E",
"7. c #629583",
"8. c #669386",
"9. c #679587",
"0. c #639C87",
"q. c #679889",
"w. c #689C8A",
"e. c #699E8B",
"r. c #70908D",
"t. c #768E90",
"y. c #778E90",
"u. c #778F91",
"i. c #788F92",
"p. c #6F9E91",
"a. c #789092",
"s. c #799193",
"d. c #7A9295",
"f. c #7B9396",
"g. c #7C9396",
"h. c #7C9597",
"j. c #739992",
"k. c #789896",
"l. c #7D9598",
"z. c #7D9698",
"x. c #7F989B",
"c. c #54AF83",
"v. c #5BAD87",
"b. c #56B184",
"n. c #59B589",
"m. c #61A488",
"M. c #67BB8E",
"N. c #6DA190",
"B. c #6DA391",
"V. c #74A798",
"C. c #79A199",
"Z. c #5DC489",
"A. c #62D181",
"S. c #78CE9C",
"D. c #8B958F",
"F. c #849092",
"G. c #869793",
"H. c #859A9A",
"J. c #80999C",
"K. c #819A9D",
"L. c #829B9E",
"P. c #95A49D",
"I. c #BAB69F",
"U. c #849EA1",
"Y. c #C6A884",
"T. c #D0B18B",
"R. c #D9BB93",
"E. c #89D48D",
"W. c #96D691",
"Q. c #A3D795",
"!. c #B0D899",
"~. c #93D8B0",
"^. c #E2C49A",
"/. c #FAC49B",
"(. c #CBC1A3",
"). c #DDCCA9",
"_. c #DECDAA",
"`. c #CADBA1",
"'. c #D7DCA5",
"]. c #ECCDA2",
"[. c #EFD7AD",
"{. c #E4DDA9",
"}. c #F5D6A9",
"|. c #FDD6A9",
" X c #F6DBAE",
".X c #F1DEAD",
"XX c #FFE0B1",
"oX c #AEE1C4",
"OX c #BBE6CD",
"+X c #CAF2DB",
"@X c #E0E7E7",
"#X c #F0F3F3",
"$X c white",
/* pixels */
"6.6.6.h.U.U.U.U.U.U.U.K.t.6.6.t.l.l.l.l.l.l.l.l.l.l.l.l.l.l.l.l.l.l.l.l.l.l.l.l.h.i.i.6.6.i.l.l.l.l.l.l.l.l.l.l.l.l.l.g.i.6.6.6.",
"6.t.K.U.U.U.U.U.U.U.U.U.K.t.6.6.l.l.l.l.l.l.l.l.l.l.l.l.l.l.l.l.l.l.l.l.l.l.l.l.h.y.6.6.i.h.l.l.l.l.l.l.l.l.l.l.l.l.l.l.i.y.6.6.",
"6.K.U.U.U.U.U.U.U.U.U.U.U.K.6.6.a.l.l.l.l.l.l.l.l.l.l.l.l.l.l.l.l.l.l.l.l.l.l.l.a.y.6.i.h.l.l.l.l.l.l.l.l.l.l.l.l.l.l.l.l.6.6.6.",
"K.U.U.U.U.U.U.U.U.U.U.U.U.U.h.6.6.l.l.l.l.l.l.l.l.l.l.l.l.l.l.l.l.l.l.l.l.l.l.l.y.6.6.a.l.l.l.l.l.l.l.l.l.l.l.l.l.l.l.l.l.i.6.6.",
"U.U.U.U.U.U.U.U.U.U.U.U.U.U.U.a.6.t.l.l.h.h.l.h.l.l.l.l.l.l.l.l.l.l.l.l.l.l.l.a.6.6.6.6.l.l.l.l.l.l.l.l.l.l.l.l.l.l.l.l.l.g.y.J.",
"U.U.U.U.U.U.U.U.U.U.U.U.U.U.U.K.6.6.t.l.l.h.x.h.l.l.l.l.l.l.l.l.l.l.l.l.l.l.g.i.6.6.6.i.l.l.l.l.l.l.l.l.l.l.l.l.l.l.l.l.l.a.d.U.",
"U.U.U.U.U.U.U.U.U.U.U.U.U.U.U.U.d.t.i.a.l.l.h.h.l.l.l.l.l.l.l.l.l.l.d.l.h.h.6.6.i.6.6.6.a.l.l.l.l.l.l.l.l.l.l.l.l.l.h.l.d.6.J.U.",
"U.U.U.U.U.U.U.U.U.U.U.U.U.U.U.U.d.6.6.t.u.l.j.w.~ ^ ^ ^ ^ ^ ^ ^ ^ ~ T c.Y Y Y Y e.e.6.6.i.h.l.l.l.l.l.l.l.l.l.l.l.l.h.d.y.i.h.U.",
"U.U.U.U.U.U.U.U.U.U.U.U.U.U.U.U.h.6.5.T W N V V V V V V V V V V C C C m V V V V V V m c.6.r.g.l.l.l.l.l.l.l.l.l.l.l.h.y.6.6.y.U.",
"U.U.U.U.U.U.U.U.U.U.U.U.U.U.U.U.9.W V V V V V V V V V V V V V V C C V V V V V V V V V m ! u.t.d.l.l.l.l.l.l.l.l.l.l.y.6.6.6.6.J.",
"L.U.U.U.U.U.U.U.U.U.U.U.U.U.C.Q V V V V M V V V V V V V V V V V V V V V V V V V V V V V C j.6.t.d.l.l.l.l.l.l.l.l.i.6.6.6.6.6.y.",
"u.U.U.U.U.U.U.U.U.U.U.U.U.B.m C V V V V V V V V V V V V V V V V V V V V V V V V V V V V C / l.6.6.l.l.l.l.l.g.d.6.6.6.6.6.6.6.6.",
"6.d.U.U.U.U.U.U.U.U.U.U.m.C m C V V V V V V V V V V V V V V V V V V V V V V V V V V V G Z.M.U.d.6.6.i.l.h.h.g.y.y.i.d.i.i.g.i.i.",
"6.6.h.U.U.U.U.U.U.U.U.N.C C C C V V V V V V V V V V V V V V V V V V V V V V V V V Z.oX$X$X@XU.h.6.6.6.i.y.y.6.6.i.l.l.l.g.l.h.g.",
"d.t.6.z.U.U.U.U.U.U.x.N V V m V V V V V V V V V V V V V V V V V V V V V V V V V ~.$X$X$X$X@XU.t.6.6.6.6.6.6.i.i.g.l.l.l.l.l.h.l.",
"z.h.6.6.h.L.U.U.U.x.T V V V V V V V V V V V V V V V V V V V V V V V V V V V V S.$X$X$X$X$X#Xt.6.6.6.6.6.6.y.i.l.l.l.l.l.l.l.l.l.",
"z.z.d.t.6.i.t.i.6.6.B V V V V V V V V V V V V V V V V V V V V V V V V V C C Z.$X$X$X$X$X$X$X6.6.6.6.6.6.i.d.h.l.l.l.l.l.l.l.l.l.",
"z.z.l.l.t.6.6.6.6.6.M V V V V V V V V V V V V V V m V V V V V V V V V V m C OX$X$X$X$X$X$X$X6.6.6.6.6.6.a.l.h.l.l.l.l.l.l.l.l.l.",
"z.z.h.l.l.6.6.6.6.8.V V V V V V V V V V V V V V C C C V V V V V V V V V V V +X+X+X+X+X+X+X+X0.0.q.t.6.i.l.l.l.l.l.l.l.l.l.l.l.l.",
"z.z.l.l.l.l.t.6.6.7.V V V V V V V V V V V V V V C V C Z Z S D ' ' ' | | | } | | | | | | | | | | | } ) m.l.l.l.l.l.l.l.l.l.l.l.l.",
"l.l.l.l.l.l.d.t.6.7.C V V V C C V V V V V Z D D [ { | | | | | | | | | | | | | | | | | | | | | | | | | |  .v.h.l.l.l.l.l.l.l.l.l.",
"l.l.l.l.l.l.l.g.6.6.m V V V V V Z S [ } } | | | | | | | | | | | | | | | | | | | | | | | | | | | | | | | | | h.h.l.l.l.l.l.l.l.l.",
"l.l.l.l.l.l.l.l.l.6.N C A D [ | | | | | | | | | | | | | | | | | | | | | | | | | | | | | | | | | | | | | | o.l.x.l.l.l.l.l.l.l.l.",
"l.l.l.l.l.l.l.l.l.6.H } | | | | | | | | | | | | | | | | | | | | | | | | | | | | | | | | | | .._ _ _ _ b.b.k.l.l.l.l.l.l.l.l.l.l.",
"l.l.l.l.l.l.l.l.l.i.( ..| | | | | ....{ | | | | | | | | | | +.A.A.A.E.W.W.W.!.`.`.`.'.XXXXt.6.l.l.l.l.l.l.l.l.l.l.l.l.l.l.l.l.l.",
"l.l.l.l.l.l.l.l.l.d.6.L B B B B B B K K K J 2 2 2 P XXXXXXXXXXXXXXXXXXXXXXXXXXXXXXXXXXXXXX6.i.l.l.l.l.l.l.l.l.l.l.l.l.l.l.l.l.l.",
"l.l.l.l.l.l.l.l.h.h.6.$ $ $ $ $ $ $ $ $ $ $ $ $ $ &.XXXXXXXXXXXXXXXXXXXXXXXXXXXXXXXXXXXXXX6.t.l.l.l.l.l.l.l.l.l.l.l.l.l.l.l.l.l.",
"l.l.l.l.l.l.l.l.h.u.6.$ $ $ $ $ $ $ $ $ $ $ $ $ $ ].XXXXXXXXXXXX^.% % Y.XXXXXXXXXXXXXXXXXX6.4.d.l.l.l.l.l.l.l.l.l.l.l.l.l.l.l.l.",
"l.l.l.l.l.l.l.l.s.6.6.$ $ $ $ $ $ $ p R.XXXXXXR.*.XXXXXXXXXXXXXXa $ $ 1 XXXXXXXXXXXXXXXXXX6.6.y.l.l.l.l.l.l.l.l.l.l.l.l.l.l.l.l.",
"l.l.l.l.l.l.l.g.t.6.6.$ $ $ $ $ $ > ].XXXXXXXXXXXXXXXXXXXXXXXXXX$ $ $ $ XXXXXXXXXXXXXXXXXX6.6.6.i.l.l.l.l.l.l.l.l.l.l.l.l.l.l.l.",
"l.l.l.l.l.l.l.i.6.6.6.> $ $ $ $ $ R.XXXXXXXXXXXXXXXXXXXXXXXXXXXX$ $ $ $ XXXXXXXXXXXXXXXXXX6.6.6.y.g.l.l.l.l.l.l.l.l.l.l.l.l.l.l.",
"l.l.l.l.l.l.i.6.6.6.6., $ $ $ $ $ XXXXXXXXXXXXXXXXXXXXXXXXXXXXXXs $ $ p XXXXXXXXXXXXXXXXXX_.(.G.6.6.l.l.l.l.l.l.l.l.l.l.l.l.l.l.",
"l.l.l.l.l.t.6.6.6.6.6., $ $ $ $ $ XXXXXXXXXXXXXXXXXXXXXXXXXXXXXX}.1 $ R.XXXXXXXXXXXXXXXXXXXXXX(.6.6.6.d.l.l.l.l.l.l.l.l.l.l.l.l.",
"l.l.l.l.d.6.6.6.6.6.6.7 $ $ $ $ $ Y.XXXXXXXXXXXXXXXXXXXXXXXXXXXXXXXXXXXXXX].=.s a a < s ^.XXXXXX6.6.6.t.l.l.l.l.l.l.l.l.l.l.l.l.",
"l.l.g.i.t.6.6.6.6.6.6.7 $ $ $ $ $ < ].XXXXXXXXXXXXXXXXXXXXXXXXXXXXXXXXXXT.$ $ $ $ $ $ $ 1 XX XI.6.6.6.6.t.d.h.h.l.l.l.l.l.l.l.l.",
"l.l.i.6.6.6.6.6.6.6.h.e $ $ $ < %.R.XXXXXXXXXXXXXXXXXXXXXXXXXXXXXXXXXXR.$ $ $ $ $ $ $ $ $ w 6.6.6.6.6.6.6.6.d.h.l.l.l.l.l.l.l.l.",
"l.i.6.6.6.6.6.6.6.d.z.D.*.*.R.XXXXXXXXXXXXXXXXXXXXXXXXXXXXXXXXXXXXXX Xp $ $ $ $ $ $ $ $ $ 7 6.6.6.6.6.6.6.6.6.h.l.l.l.l.l.l.l.l.",
"6.6.6.6.6.6.6.6.d.h.z.P.XXXXXXXXXXXXXXXXXXXXXXXXXXXXXXXXXXXXXXXXXXXXXX% $ $ $ $ $ $ $ $ $ 7 6.y.l.K.K.x.6.6.6.6.i.l.l.l.l.l.h.h.",
"6.6.6.6.6.6.t.t.l.l.z.z._.XXXXXXXXXXXXXXXXXXXXXXXXXXXXXXXXXXXXXXXXXXXX].*.a $ $ $ $ $ $ 3 3.k.U.U.U.U.U.K.6.6.6.t.t.d.l.l.l.i.6.",
"6.6.6.6.6.6.6.d.l.l.l.h.H.[.XXXXXXXXXXXXXXXXXXXXXXXXXXXXXXXXXXXXXXXXXXXXXXXXXXXXXXXX{.@.5.k.U.U.U.U.U.U.U.K.6.6.6.6.6.6.6.6.6.6.",
"6.6.6.6.6.6.g.g.l.l.l.l.l.h b b b ;.A.A.A.A.A.A.A.A.:.b b b b b -.@.#.A.@.A.A.A.A.A.X.| b.U.U.U.U.U.U.U.U.U.K.t.6.6.6.6.6.6.6.6.",
"6.6.6.6.6.i.l.l.l.l.l.l.F.i i i d | | | | | | | | | R i i i i i c ` | | | | | | | | | | ..U.U.U.U.U.U.U.U.U.U.K.6.6.6.6.6.6.6.6.",
"6.6.6.6.6.l.l.l.l.l.l.l.k i i i ` W.XXXXXX.XW.X.| | } i i i i i i i $.| | | | | | | | | { V.U.U.U.U.U.U.U.U.U.U.K.i.6.6.6.6.6.6.",
"6.6.6.6.i.l.l.l.l.l.l.l.h i i c `.XXXXXXXXXXXX`.| | } i i i i i i i i l U | | | | | | | { M.U.U.U.U.U.U.U.U.U.U.U.K.6.6.6.6.6.6.",
"6.6.6.6.i.l.l.l.l.l.l.l.x i i /.XXXXXXXXXXXXXXXXQ.} E i i i i i i i i i i i f I E ..| | | n.U.U.U.U.U.U.U.U.U.U.U.U.d.6.6.6.6.6.",
"6.6.6.6.i.l.l.l.l.l.l.l.x i >.XXXXXXXXXXXXXXXXXXXXO.$.i i i i i i i i i i i i i i i i i i j U.U.U.U.U.U.U.U.U.U.U.U.K.6.6.6.6.6.",
"6.6.6.6.6.d.l.l.l.l.l.z.x i ,.XXXXXXXXXXXXXXXXXXXX#.c i i i i i i i i i i i i i i i i i i j U.U.U.U.U.U.U.U.U.U.U.U.U.6.6.6.6.6.",
"6.6.6.6.6.6.g.l.l.l.l.l.z i ,.XXXXXXXXXXXXXXXXXX X:.i i i i i i i i i i i i i i i i i i i g k.U.U.U.U.U.U.U.U.U.U.U.l.6.6.6.6.6.",
"6.6.6.6.6.6.6.h.h.l.6 o y i >.XXXXXXXXXXXXXXXXXX|.c i i i i i i i i i i i i i i i i i i i t   : K.U.U.U.U.U.U.U.U.U.a.6.6.6.6.6.",
"6.6.6.6.6.6.6.6.d.9     r i i <.XXXXXXXXXXXXXX|.>.i i i i i i i i i i i i i i i i i i i i #     : U.U.U.U.U.U.U.U.h.6.6.6.t.t.t.",
"d.6.6.6.6.6.6.6.6.=     @ i i i v b ,.,.,.,.b c i i i i i i i i i i i i i i i i i i i i i +       U.U.U.U.U.U.U.h.6.6.6.l.U.U.U.",
"U.l.6.6.6.6.6.6.6.=       u i i i i i i i i i i i i i i i i i i i i i i i i i i i i i i t       & U.U.U.U.U.U.l.6.6.6.l.U.U.U.U.",
"U.U.l.t.6.6.6.6.6.0 o     + u i i i i i i i i i i i i i i i i i i i i i i i i i i i i t .       q U.U.U.U.U.l.t.6.6.x.U.U.U.U.U.",
"U.U.U.l.6.6.6.6.6.6.8                   & 6.6.i.x.x.l.l.l.l.l.l.h.t.6.6.6.;                   : U.U.U.U.U.d.6.6.6.J.L.U.U.U.U.U.",
"U.U.U.U.l.6.6.6.6.6.6.q O               * y.t.l.h.z.z.l.l.l.l.l.l.l.t.t.6.5                 5 J.U.U.U.U.d.6.6.6.z.U.U.U.U.U.U.U.",
"U.U.U.U.K.6.6.6.6.6.6.6.2.;             : 6.l.l.z.z.z.h.l.l.l.l.l.l.l.u.t.8             O q 6.6.a.l.d.t.6.6.6.6.L.U.U.U.U.U.U.U.",
"U.U.U.U.L.6.6.6.6.6.6.6.6.6.1.- O     = 3.l.l.l.l.l.l.l.l.l.l.l.l.l.l.l.d.t.5       - 0 6.6.6.6.6.6.6.6.6.6.6.6.x.U.U.U.U.U.U.U.",
"U.U.U.L.h.6.6.6.6.6.6.6.6.6.6.6.6.6.6.i.l.l.l.l.l.l.l.l.l.l.l.l.l.l.l.l.l.d.6.4.6.6.6.6.6.6.6.6.6.6.6.6.6.6.6.6.h.U.U.U.U.U.U.U.",
"U.U.U.x.6.6.6.6.6.6.6.6.6.6.6.6.6.6.i.l.l.l.l.l.l.l.l.l.l.l.l.l.l.l.l.l.l.l.t.6.6.6.6.6.6.6.6.6.6.6.6.6.6.6.6.6.6.h.U.U.U.U.U.U.",
"U.U.l.6.6.6.6.6.6.6.6.6.6.6.6.6.6.6.h.l.l.l.l.l.l.l.l.l.l.l.l.l.l.l.l.l.l.l.l.6.6.6.6.6.6.6.6.6.6.6.i.l.l.h.d.y.6.6.z.U.U.U.U.U.",
"U.h.6.6.6.6.6.6.6.6.6.6.6.6.6.6.6.i.l.l.l.l.l.l.l.l.l.l.l.l.l.l.l.l.l.l.l.l.l.g.6.6.6.6.6.6.6.6.6.i.l.l.l.l.l.h.6.6.6.x.U.U.U.U.",
"h.6.6.6.6.6.6.6.6.6.6.6.6.6.6.6.i.l.l.l.l.l.l.l.l.l.l.l.l.l.l.l.l.l.l.l.l.l.l.l.g.6.6.6.6.6.6.6.g.l.l.l.l.l.l.l.h.6.6.6.h.L.U.U.",
"6.6.6.6.6.a.l.x.K.l.6.6.6.6.6.6.g.l.l.l.l.l.l.l.l.l.l.l.l.l.l.l.l.l.l.l.l.l.l.l.l.i.6.6.6.6.6.g.l.l.l.l.l.l.l.l.h.h.6.6.6.6.a.u.",
"6.6.6.6.a.U.U.U.U.U.K.6.6.6.6.6.l.l.l.l.l.l.l.l.l.l.l.l.l.l.l.l.l.l.l.l.l.l.l.l.h.i.6.6.6.6.h.l.l.l.l.l.l.l.l.l.h.h.l.6.6.6.6.6."
};
