/* XPM */
static char *img_ps_fs[] = {
/* columns rows colors chars-per-pixel */
"64 64 196 2 ",
"   c gray20",
".  c #353636",
"X  c #383B3B",
"o  c #4A3A39",
"O  c #4B3A3A",
"+  c #694C39",
"@  c #6A503F",
"#  c #3F4344",
"$  c #444B4C",
"%  c #4A5253",
"&  c #4A5455",
"*  c #505C5E",
"=  c #725540",
"-  c #7B5E48",
";  c #59686A",
":  c #5B7D75",
">  c #617072",
",  c #627577",
"<  c #647577",
"1  c #647779",
"2  c #667A7C",
"3  c #697D7F",
"4  c #6A7C7E",
"5  c #803B34",
"6  c #CD4335",
"7  c #CE4335",
"8  c #C8473A",
"9  c #D14436",
"0  c #D34536",
"q  c #D64637",
"w  c #DA4738",
"e  c #DD4839",
"r  c #E34A3B",
"t  c #E74C3C",
"y  c #B15A51",
"u  c #B35C53",
"i  c #85674F",
"p  c #8E7157",
"a  c #A16761",
"s  c #A46A65",
"d  c #CF5C42",
"f  c #EA5E4A",
"g  c #C46445",
"h  c #EB6751",
"j  c #ED7159",
"k  c #EE7A60",
"l  c #3A9E68",
"z  c #2BAC62",
"x  c #2FA964",
"c  c #37A167",
"v  c #3BA76D",
"b  c #32AC68",
"n  c #3DA96F",
"m  c #28B162",
"M  c #29B664",
"N  c #29B765",
"B  c #2ABB67",
"V  c #2BBE69",
"C  c #35B56B",
"Z  c #739C5D",
"A  c #488F6D",
"S  c #45936D",
"D  c #548472",
"F  c #50B467",
"G  c #42BA75",
"H  c #4BB77F",
"J  c #50BF7F",
"K  c #67A460",
"L  c #7CB77F",
"P  c #39C46D",
"I  c #2ECC71",
"U  c #38C575",
"Y  c #33C873",
"T  c #33C973",
"R  c #48CE79",
"E  c #8A8C56",
"W  c #A38557",
"Q  c #A18366",
"!  c #A68B6B",
"~  c #AA8C6D",
"^  c #B49675",
"/  c #B49976",
"(  c #BD9F7C",
")  c #90B173",
"_  c #F18C6F",
"`  c #F49F7D",
"'  c #5D9F83",
"]  c #6B8082",
"[  c #6C8183",
"{  c #6E8385",
"}  c #708688",
"|  c #758C8E",
" . c #768D8F",
".. c #768E90",
"X. c #778E90",
"o. c #788F92",
"O. c #798F92",
"+. c #749390",
"@. c #789092",
"#. c #7A9194",
"$. c #7B9295",
"%. c #7C9396",
"&. c #7C9497",
"*. c #7C9597",
"=. c #789896",
"-. c #7D9598",
";. c #7D9698",
":. c #7E9699",
">. c #7F979A",
",. c #7F989A",
"<. c #7F989B",
"1. c #4EBA83",
"2. c #62A589",
"3. c #64A68C",
"4. c #69A38E",
"5. c #64B080",
"6. c #6EAA95",
"7. c #7EA19F",
"8. c #62D181",
"9. c #6FD285",
"0. c #78CE9C",
"q. c #81928F",
"w. c #87958F",
"e. c #949C8F",
"r. c #839490",
"t. c #8D9C96",
"y. c #8E9D97",
"u. c #80999B",
"i. c #80999C",
"p. c #819A9D",
"a. c #829C9F",
"s. c #839C9F",
"d. c #8FA29E",
"f. c #99A296",
"g. c #95A49D",
"h. c #9CA69C",
"j. c #9DA89E",
"k. c #B8AD92",
"l. c #BEB092",
"z. c #BFB092",
"x. c #BAB095",
"c. c #BAB69F",
"v. c #849EA1",
"b. c #859FA2",
"n. c #86A0A3",
"m. c #87A2A4",
"M. c #89A4A6",
"N. c #9BABA4",
"B. c #A5ADA0",
"V. c #A2AFA5",
"C. c #AAB3A6",
"Z. c #BCB8A2",
"A. c #BEBBA4",
"S. c #C6A884",
"D. c #D0B18B",
"F. c #C0B294",
"G. c #CFBA97",
"H. c #D7B692",
"J. c #D1BA93",
"K. c #D7BD93",
"L. c #D9BB93",
"P. c #D0BB98",
"I. c #F6A885",
"U. c #C1BFA9",
"Y. c #89C494",
"T. c #E2C49A",
"R. c #E6CA9E",
"E. c #EECC9E",
"W. c #FAC49B",
"Q. c #D5C8A7",
"!. c #D8CCAC",
"~. c #E8CCA0",
"^. c #ECCDA2",
"/. c #FCCDA2",
"(. c #E7D2AC",
"). c #E8D3AD",
"_. c #EFD7AD",
"`. c #E4DDA9",
"'. c #F0D2A5",
"]. c #F2D5A7",
"[. c #F5D7A9",
"{. c #FDD6A9",
"}. c #F0D8AE",
"|. c #F7DBAF",
" X c #F1DEAD",
".X c #F7DCAF",
"XX c #FADBAD",
"oX c #FCDDAF",
"OX c #FFE0B1",
"+X c #AEE1C4",
"@X c #BBE6CD",
"#X c #C9EBD7",
"$X c #D6F0E1",
"%X c #E4F5EB",
"&X c #F1FAF5",
"*X c white",
/* pixels */
"| | | *.v.v.v.v.v.v.v.p.| | | +.-.-.-.-.-.-.-.-.-.-.-.-.-.-.-.-.-.-.-.-.-.-.-.-.%.O...| | O.-.$.-.$.-.<.<.-.$.-.$.-.<.%.| | | | ",
"| ..p.v.v.v.v.v.v.v.v.v.a.| | | -.-.-.-.-.-.-.-.-.-.-.-.-.-.-.-.-.-.-.-.-.-.-.-.*...| | O.-.<.*.<.-.$.-.&.&.-.<.-.<.-.%.O...| | ",
"| p.v.v.v.v.v.v.v.v.v.v.v.p.| | O.-.-.-.-.-.-.-.-.-.-.-.-.-.-.-.-.-.-.-.-.-.-.-.O...| ..%.-.$.-.*.u.-.<.p.*.*.-.$.*.*.$.$.$.| | ",
"p.v.v.v.v.v.v.v.v.v.v.v.v.v.-.| | *.-.-.-.-.-.-.-.-.-.-.-.-.-.-.-.-.-.-.-.-.-.-...| | O.p.$.p.$.%.*.*.*.$.-.%.-.-.<.*.p.-...| | ",
"v.v.v.v.v.v.v.v.n.n.n.M.M.M.M.M.M.M.M.M.M.M.M.M.M.M.-.-.-.-.-.-.-.-.-.-.-.-.M.M.M.M.M.M.M.M.M.M.M.M.M.M.v.n.v.v.%.$.&.&.&.O...v.",
"v.v.v.v.v.v.n.M.M.M.M.M.M.M.M.M.M.M.M.M.M.M.M.M.M.M.-.-.-.-.-.-.-.-.-.-.-.-.M.M.M.M.M.M.M.M.M.M.M.M.M.M.M.M.M.M.M.v.p.&.<...O.v.",
"v.v.v.v.v.n.M.M.u.} ] ] , , , , , , , , , , , , , , -.-.-.-.-.-.-.-.*.-.-.$., , , , , , , , , , < , , , [ [ } -.M.M.v.%.O...p.v.",
"v.v.v.v.n.M.M.} , , , , , , , , , , , : D S S S l c n n n n n n n n n n n v c c S S S A : , , , , , , , < , , , } M.M.p.....&.v.",
"v.v.v.v.n.M.$., , , , , , , , , : A l x m m m m m m m m m m m m m m m m m m m m m m m m z c S : , , , , , , , , 1 O.M.v...| O.v.",
"v.v.v.v.M.M.3 , , , , , , , , A z m m m m m m m m m m m m m m m m m m m m m m m m m m m m m m z S , , 1 , , , , , 3 M.v.| | | u.",
"p.v.v.v.M.M., , , , | $.v.v.2.m m m m m m m m m m m m m m m m m m m m m m m m m m m m m m m m m z ' %.%.| } , , , , M.M.| | | | ",
"@.v.v.v.M.M., , , , v.v.v.v.b m m m m m m m m m m m m m m m m m m m m m m m m m m m m m m m m m m b p.&.&.&., , , , M.M.| | | | ",
"| $.v.v.M.M., , , , v.v.a.+.m m m m m m m m m m m m m m m m m m m m m m m m m m m m m m m m m m m m $.*.&.&.1 , , , M.M.O.&.O...",
"| | $.v.M.M., , , , v.a...| m m m m m m m m m m m m m C 0.@X#X#X#X#X@X0.m m m m m m m m m m m m m m | ......, , , 1 M.M.&.-.&.&.",
"*.| | ,.M.M., , , , a...| | m m m m m m m m m m m m 0.%X*X*X*X*X*X*X*X*X$XJ m m m m m m m m m m m m | | | | , , , , M.M.-.-.&.&.",
"-.*.| | M.M., , , , | | | O.m m m m m m m m m m m J &X*X*X*X*X*X*X*X*X*X*X%XJ m m m m m m m m m m m | | | .., , , , M.M.-.-.-.&.",
"-.-.-...M.M., , , , ....O.-.m m m m m m m m m m G &X*X*X*X*X*X*X*X*X*X*X*X*X$XC m m m m m m m m m m | | | $., , , , M.M.-.-.-.-.",
"-.-.-.%.M.M., , , , | $.-.-.m m m m m m m m m m +X*X*X*X*X*X*X*X*X*X*X*X*X*X*X+Xm m m m m m m m m m | | $.-., , , , M.M.-.-.-.-.",
"-.-.-.-.M.M., , , , ..-.-.-.m m m m m m m m m m &X*X*X*X*X*X*X*X*X*X*X*X*X*X*X&Xm m m m m m m m m m | $.-.-., , , , m.M.-.-.-.-.",
"-.-.-.-.M.M., , , , %.-.-.-.m m M M M M M V V V V V V V V V V V V V V V V V V V V V V M V M M M m m $.-.-.-., , , , M.M.-.-.-.-.",
"-.-.-.-.M.M., , , , %.&.-.-.I I I I I I I I I I I I I I I I I I I I I I I I I I I I I I I I I I I I -.-.-.-., , , , M.M.-.-.-.-.",
"-.-.-.-.M.M., , , , | &.-.,.I I I I I I I I I I I I I I I I I I I I I I I I I I I I I I I I I I I I -.-.-.-., , , , M.M.-.-.-.-.",
"-.-.-.-.M.M., , , , ..+.,.*.I I I I I I I I I I I I I I I I I I I I I I I I I I I I I I I I I I I I %.-.-.-., , , , M.M.-.-.-.-.",
"-.-.-.-.M.M., , , , | | $.*.U I I I I I I I I I I I I I I I I I I I I I I I I I I I I I I I I I I U -.-.-.-., , , , M.M.-.-.-.-.",
"-.-.-.-.M.M., , , , | | | -.3.T I I I I I I I I I I I I I I I I I I I I I I I I I I I I I I I I T 3.-.-.-.-., , , , M.M.-.-.-.-.",
"-.-.-.-.M.M., , , , | | | | *.+ + + ^.OXOXOXOXOXOXOXOXOXOXOXOXOXOXOXOXOXOXOXOXOXOXOXOXOXOXOXQ + + -.-.-.-.-., < , , M.M.-.-.-.-.",
"-.-.-.-.-.-.-.-.*.$.| | | | | + + ~ OXOXOXOXOXOXOXOXOXOXOXOXOXOXOXOXOXOXOXOXOXOXOXOXOXOXOXOXR.+ + -.-.-.-.-.-.-.-.-.-.-.-.-.-.-.",
"-.-.-.-.-.-.-.-.-.O.| | e.k.l.+ i [.OXOXOXT.p p T.OXOXOXOXOXOXOXOXOXOXOXOXOXOXT.p p L.OXOXOXOX^ + l.k.f.-.-.-.-.-.-.-.-.-.-.-.-.",
"-.-.-.-.-.-.-.-.$.| | w.J.K.K.- T.OXOXOXOXp + + p OXOXOXOXOXOXOXOXOXOXOXOXOXOXp + + p OXOXOXOXOXi K.K.J.y.u.*.%.-.-.-.-.-.-.-.-.",
"-.-.-.-.-.-.-.*...| | k.K.K.K.[.OXOXOXOXOX+ + + + OXOXOXOXOXOXOXOXOXOXOXOXOXOX+ + + + OXOXOXOXOX.XK.K.K.k.-.u.%.-.-.-.-.-.-.-.-.",
"-.-.-.-.-.-.-...| | | K.K.K.K.OXOXOXOXOXOX+ + + + OXOXOXOXOXOXOXOXOXOXOXOXOXOX+ + + + OXOXOXOXOXOXK.K.K.K.-.-.-.-.-.-.-.-.-.-.-.",
"-.-.-.-.-.-.O.| | | | K.K.K.K.OXOXOXOXOXOXi + + i OXOXOXOXOX~.T.T.R.oXOXOXOXOXi + + i OXOXOXOXOXOXK.K.K.K.-.-.-.-.-.-.-.-.-.-.-.",
"-.-.-.-.*.O.| | | | | F.K.K.K.XXOXOXOXOXOXT.= = T.OXOXOXOX'.K.L.K.K.~.OXOXOXOXT.= + L.OXOXOXOXOX[.K.K.K.k.u.%.-.-.-.-.-.-.-.-.-.",
"-.-.-.*.%.| | | | | | w.J.K.K.[.OXOXOXOXOXOXOXOXOXOXOX~.( K.K.L.K.K.K.( T.OXOXOXOXOXoXOXOXOXOXOX[.K.K.G.t.-.-.-.-.-.-.-.-.-.-.-.",
"-.-.%.O.| | | | | | | | r.k.K.'.OXOXOXOXOXOXOXOXOXOXD.+ + ! L.L.K.K./ + + D.OXOXOXOXOXOXOXOXOXOX].K.k.O...$.-.-.-.-.-.-.-.-.-.-.",
"-.-.O.| | | | | | | O.u.*.u.*.Z.OXOXOXOXOXOXOXOXOXL.+ + + + + + + + + + + + S.OXOXOXOXOXOXOXOXOXc.| |  .| | $.*.-.-.-.-.-.-.-.-.",
"%.O.| | | | | | | $.$.-.-.-.-.h.OXOXOXOXOXOXOXOXOX- + + + + + + + + + + + + = OXOXOXOXOXOXOXOXOXc.| | | | | | $.-.-.-.-.-.-.-.-.",
"| | | | | | | | O.%.-.-.-.-.-.g.OXOXOXOXOXOXOXOXOX= + + + + + + + + + + + + = OXOXOXOXOXOXOXOXOXg.u.<.$.+.| | ..%.-.-.%.-.-.-.-.",
"| | | | M.M., , , , -.-.-.-.*.*.(.OXOXOXOXOXOXOXOX^.^ p + + + + + + + + p ^ ~.OXOXOXOXOXOXOXOX(.s.d.v.v.<..., , , , M.M.*.%.%.| ",
"| | | | M.M., , , 1 -.-.-.-.4.H 5./.OXOXOXOXOXOXOXOXOXOXOXOXOXOXOXOXOXOXOXOXOXOXOXOXOXOXOXOX/.L 1.6.v.v.v.<., , , , M.M.| | | | ",
"| | | | M.M., , , , %.u.%.4.I I I W j j j j j j ) 8.8.8.8.8.8.8.8.8.8.8.8.8.8.) j j j j j j W I I I 6.v.v.v., , , , M.M.| | | | ",
"| | | | M.M., , , , *.*.*.Y I I I I E t t t t t d P I I I I I I I I I I I I P d t t t t t E I I I I T 7.v.v., , , , M.M.| | | | ",
"| | | | M.M., , , , *.*.H I I I 8.8.R Z d t t t t d F I I I I I I I I I I F d t t t t d Z R 8.8.I I I 1.v.v., , , , M.M.| | | | ",
"| | | | M.M., , , , u.*.Y I 9. XOXOXOXOXE.h t t t t t g K P I I I I P K g t t t t t h E.OXOXOXOX X9.I T v.v., , , , M.M.| | | | ",
"| | | | M.M., , , , %.u.I 9.OXOXOXOXOXOXoX/.t t t t t t t t t t t t t t t t t t t t /.OXOXOXOXOXOXOX9.I v.v., , , , M.M.| | | | ",
"| | | | M.M., , > : *.*.Y `.OXOXOXOXOXOXOXOXt t t t t t t t t t t t t t t t t t t t OXOXOXOXOXOXOXOX`.T v.v., , , , M.M.| | | | ",
"| | | | M.M., , < < =.=.d.OXOXOXOXOXOXOXOXOXt t t t t t r w q 9 0 0 w r t t t t t t OXOXOXOXOXOXOXOXOXY.v.v., , , , M.M.| | | | ",
"| | | | M.M., , 1 , *.7.A.OXOXOXOXOXOXOXOXW.t t t t t w 6 6 6 6 6 6 6 6 w t t t t t W.OXOXOXOXOXOXOXOXU.v.v., , , , M.M.| | | | ",
"| | | | M.M., , , , -.-.B.OXOXOXOXOXOXOXOX` t t t t e 6 6 6 6 6 6 6 6 6 9 e t t t t ` OXOXOXOXOXOXOXOXC.v.v., , , , M.M.| | | | ",
"| | | | M.M., , , , -.-.g.OXOXOXOXOXOXOX{.f t t t r 6 6 6 6 6 6 6 6 6 6 6 6 t t t t f {.OXOXOXOXOXOXOXN.v.v., , , , M.M.| ......",
"$.| | | M.M., , , , *.-.-._.OXOXOXOXOXOXk t t t t 9 6 6 6 6 6 6 6 6 6 6 6 6 6 t t t t k OXOXOXOXOXOX}.v.v.v., , , , n.M.-.v.v.v.",
"v.-.| | M.M., , , , | *.-.j.|.OXOXOXOXI.t t t t e 6 6 8 u s s a a a a y 6 9 6 e t t t t I.OXOXOXOX|.V.v.v.v., , , , M.M.v.v.v.v.",
"v.v.-.| M.M., , , , | | ..$.h.Q.J.H._ t t t t t q 6 5 O &.&.i.&.| | | | o + 0 w t t t t t _ H.P.!.V.v.v.v.v., , , , M.M.v.v.v.v.",
"v.v.v.-.M.M.1 , , , ] | | | | |                         4 &.&.&.%.| | <                         v.v.v.v.v.| , , , , M.M.v.v.v.v.",
"v.v.v.v.M.M.{ , , , , , , , , ,                         4 &.&.&.*.%.O.<                         , , , , , , , , , { M.m.v.v.v.v.",
"v.v.v.v.n.M.*., , , , , , , , , &                     & O.<.&.i.p.%.p.O.#                     * , , , , , , , , , -.M.m.v.v.v.v.",
"v.v.v.v.p.M.M.{ , , , , , , , , , ; & $ .       . $ > -.-.-.-.-.%.%.&.<.O.> $ $         X & ; , , , , , , , , , } M.M.v.v.v.v.v.",
"v.v.v.v.-.p.M.M.+.2 , , , , , , < 1 , , , , , , , , -.-.-.-.-.-.p.%.-.%.-.O., > , , , , , , , , , , , , , , 2 ..M.M.m.v.v.v.v.v.",
"v.v.v.,.| | p.M.M.M.M.M.M.M.M.M.M.M.M.M.M.M.M.M.M.M.-.-.-.-.-.-.$.p.$.<.-.-.v.M.M.M.M.M.M.M.M.M.M.M.M.M.M.M.M.M.M.n.v.v.v.v.v.v.",
"v.v.,.| | | | %.a.M.M.M.M.M.M.M.M.M.M.v.M.M.M.M.M.M.-.-.-.-.-.-.-.$.-.*.-.-.M.M.M.M.M.m.M.M.M.M.M.M.M.M.M.M.M.v.$.| -.v.v.v.v.v.",
"v.*.| | | | | | | | | | | | | | ..&.&.p.-.-.-.-.-.-.-.-.-.-.-.-.-.-.-.-.-.-.-.-.| | | | | | | | | $.-.-.-.-.-.$.| | | -.v.v.v.v.",
"$.| | | | | | | | | | | | | | | ..&.&.&.-.-.-.-.-.-.-.-.-.-.-.-.-.-.-.-.-.-.-.-.$.| | | | | | | $.-.-.-.-.-.-.-.$...| | $.v.v.v.",
"| | | | | O.-.p.p.%...| | | | | -.-.-.-.-.-.-.-.-.-.-.-.-.-.-.-.-.-.-.-.-.-.-.-.-...| | | | | $.-.-.-.-.-.-.-.-.-.*...| | ..+...",
"| | | | @.v.v.v.v.v.p.| | | | O.-.-.-.-.-.-.-.-.-.-.-.-.-.-.-.-.-.-.-.-.-.-.-.-.-.O.| | | | $.-.-.-.-.-.-.-.-.-.-.-.$.| | | | | "
};
