/* XPM */
static char *img_wd[] = {
/* columns rows colors chars-per-pixel */
"64 64 50 1 ",
"  c #313D3F",
". c #374546",
"X c #3B4A4C",
"o c #3D4D4E",
"O c #405153",
"+ c #415354",
"@ c #45595A",
"# c #475C5D",
"$ c #4C6365",
"% c #656C61",
"& c #696F63",
"* c #6E7165",
"= c #727568",
"- c #797F76",
"; c #916132",
": c #926232",
"> c #956433",
", c #9B6836",
"< c #9C6935",
"1 c #AA733C",
"2 c #AB733C",
"3 c #AD753D",
"4 c #B2783E",
"5 c #B77B40",
"6 c #BB7F41",
"7 c #BD8042",
"8 c #B88146",
"9 c #B98147",
"0 c #B4824C",
"q c #B6844D",
"w c #AC8557",
"e c #A8865C",
"r c #AE8859",
"t c #9D8563",
"y c #94876C",
"u c #94886D",
"i c #968A6F",
"p c #99937D",
"a c #AA8A60",
"s c #A88B66",
"d c #A08F72",
"f c #7E8B85",
"g c #758C8E",
"h c #798C8A",
"j c #768E90",
"k c #789092",
"l c #7A9295",
"z c #849087",
"x c #8B9B95",
"c c #849EA1",
/* pixels */
"ggghyew87777777777777777777787777777777767777777777767779raifjgg",
"gku8777777777777557777557777567777787777667777777777667777666tgg",
"cd775431111111111111511111511111222111111111211111111111515579yk",
"x77411111111111111111111111111112222111111111111111111111111595c",
"s75111111111111111111111111111111111111111111111111111111111155z",
"r73111111111111111111111111111111111111111111111111111111111117r",
"q73111,:;;;;;;::;;;;;;;;;;;;;;;;;;;;;;::;;;;;;;;:;;;;;;;:>22237q",
"771111::;;;;;:::;;;;;;;;;;;;;;;;;;;;;;;:;;;;;;;;::;;;;;;::222477",
"661111;;;;;;;;;;;;;;;;;;;;;;;;;;;;;;;;;;;;;;;;;;;;;;;;;;::111166",
"661111;;;;;;;;;;;;;;;;;;;;;;;;;;;;;;;;;;;;;;;;;;;;;;;;;;;;111166",
"671111;;;;;;;;;;;;;;;;;;;;;;;;;;;;;;;;;;;;;;;;;;;;;;;;;;;;112266",
"771111;;;;;;;;;;;;;;;;;;;;;;;;;;;;;;;;;;;;;;;;;;;;;;;;;;;;112277",
"772211;;;;;;;;;;;;;;;;;;;;;;;;;;;;;;;;;;;;;;;;;;;;;;;;;;::112177",
"771111;;;;;;;;;;;;;;;;;;;;;;;;;;;;;;;;;;;;;;;;;;;;;;;;;;;:112177",
"771111;;;;;;;;;;;;;;;;;;;;;;;;;;;;;;;;;;;;;;;;;;;;;;;;;;;;111177",
"771111;;;;;;;;;;;;;;;;;;;;;;;;;;;;;;;;;;;;;;;;;;;;;;;;;;;;111177",
"771111::;;;;;;;;;;;;;;;;;;;;;;;;;;;;;;;;;;;;;;;;;;;;;;;;;;111166",
"771111;:;;;;;;;;;;;;;;;;;;;;;;;;;;;;;;;;;;;;;;;;;;;;;;;;;;111176",
"771111;;;;;;;;;;;;;;;;;;;;;;;;;;;;;;;;;;;;;;;;;;;;;;;;;;;;112277",
"771111;;;;;;;;;;;;;;;;;;;;;;;;;;;;;;;;;;;;;;;;;;;;;;;;;;;;111277",
"661111;;;;;;;;;;;;;;;;;;;;;;;;;;;;;;;;;;;;;;;;;;;;;;;;;;::111177",
"761111;;;;;;;;;;;;;;;;;;;;;;;;;;;;;;;;;;;;;;;;;;;;;;;;;;;:111177",
"771111;;;;;;;;;;;;;;;;;;;;;;;;;;;;;;;;;;;;;;;;;;;;;;;;;;;;111177",
"771111;;;;;;;;;;;;;;;;;;;;;;;;;;;;;;;;;;;;;;;;;;;;;;;;;;;;111177",
"775111;;;;;;;;;;;;;;;;;;;;;;;;;;;;;;;;;;;;;;;;;;;;;;;;;;;;111166",
"771111;;;;;;;;;;;;;;;;;;;;;;;;;;;;;;;;;;;;;;;;;;;;;;;;;;;;111176",
"661111;;;;;;;;;;;;;;;;;;;;;;;;;;;;;;;;;;;;;;;;;;;;;;;;;;;;111177",
"651111;;;;;;;;;;;;;;;;;;;;;;;;;;;;;;;;;;;;;;;;;;;;;;;;;;;;111577",
"771111;;;;;;;;;;;;;;;;;;;;;;;;;;;;;;;;;;;;;;;;;;;;;;;;;;;;111156",
"771111;;;;;;;;;;;;;;;;;;;;;;;;;;;;;;;;;;;;;;;;;;;;;;;;;;;;111166",
"775111;;;;;;;;;;;;;;;;;;;;;;;;;;;;;;;;;;;;;;;;;;;;;;;;;;;;111177",
"771111;;;;;;;;;;;;;;;;;;;;;;;;;;;;;;;;;;;;;;;;;;;;;;;;;;;;111577",
"661111;;;;;;;;;:;;;;;;;:;;;;;:::;;;;;;;;;;;;;;;;;;;;;;;;;;111177",
"651111;;;;;;;;;:;;;;;;;:;;;;;:::;;;;;;;;;;;;;;;;;;;;;;;;;;111177",
"7711111111111111111111111111111111111111111111111111111111111177",
"7711111111111111111111111111111111111111111111111111111111111177",
"7751111111111111111121111111111111111111111111111111111111111277",
"7755151111111111111122111111211111151111111111111111111111144767",
"7555777777667777776677777766776855777755777777777777777747667777",
"7555677777777777777777777666768877777777777777777777777777774477",
"7711111111111111221111111111111:,1111111111111111111111143111147",
"7711111111111111111111111111115,<5111111111111111111111111111177",
"7752111111111111111111111111111,,111111111111111111111111111,676",
"7722111111111111111111111111111:,1111111111111111111111111114476",
"6711111111111111111111111111115,,1111111111111111111111111113147",
"6811111111111111111111111111111,,1111111111111111111111111111177",
"661111111111111111111111111111,,,1111111111111111111111111111168",
"6611111111111111111111111111115,,1111111111111111111111111111477",
"786155,5,5,55,5,5,5,5,5,5,5,5,5:,,,56<4,55,422241111111111111177",
"o+                                .                           oo",
"oo                                                           .o+",
"$$XXXXXX.XXXXXX..XXXoooXXoooXXXXooXXXXXX..XXo.X..XXXXXXXXXXXXo$$",
"$$XXXXXXXXXXXXX..XXXXXXXXXXXXXXXoXXXXXXXoXXXXXX..XXXXXXXXXXXXX$$",
"$$XXXXXXXXXXXXX..XXXXXXXXXXXXXXXXXXXXXXXXXXXXXX..XXXXXXXXXXXXX$$",
"$$oXXXXXXXXXXXX..XXXXXXXXXXXXXXXXXXXXXXXXXXXXXX..XXXXXXXXXXXXX$$",
"$$XXXXXXXXXXXXX..XXXXXXXXXXXXXXXXXXXXXXXXXXXXXX..XXXXXXXXXXXXX$$",
"$$XXXXXXXXXXXXX..XXXXXXXXXXXXXXXXXXXXXXXXXXXXXX..XXXXXXXXXXXXX$$",
"$$oXXXXXXXXXXXX..XXXXXXXXXXXXXXXXXXXXXXXXXXXXXX..XXXXXXXXXXXXo$$",
"%$ooXXXXXXXXXXX..XXXXXXXXXXXXXXXXXXXXXXXXXXXXXX..XXXXXXXXXXXoo$%",
"=$#XXXXXXXXXXXX..XXXXXXXXXXXXXXXXXXXXXXXXXXXXXX..XXXXXXXXXXXo#$*",
"h$$oXXXXXXXXXXX..XXXXXXXXXXXXXXXXXXXXXXXXXXXXXo..XXXXXXXXXXXo$$z",
"g*$$#oXXXXXXXXX.XoXXXXXXXXXXXXXXXXXXXXXXXXXXXXXX.XXXXXXXXXo@$$=l",
"gj&$$$$$$$$$$$$oo$$$$$$$$$$$$$$$$$$$$$$$$$$$$$$+o$$$$$$$$$$$$*jj",
"gjj-%$$$$$$$$$$@o$$$$$$$$$$$$$$$$$$$$$$$$$$$$$$o+$$$$$$$$$$&-jjj"
};
