/* XPM */
static char *img_wur[] = {
/* columns rows colors chars-per-pixel */
"64 64 46 1 ",
"  c #313D3F",
". c #374546",
"X c #3B4A4C",
"o c #3D4D4E",
"O c #405153",
"+ c #415354",
"@ c #45595A",
"# c #475C5D",
"$ c #4C6365",
"% c #5B6965",
"& c #586966",
"* c #636C62",
"= c #656C61",
"- c #696F63",
"; c #6E7165",
": c #6B7368",
"> c #6B736A",
", c #787867",
"< c #727668",
"1 c #707C76",
"2 c #916132",
"3 c #956433",
"4 c #9C6935",
"5 c #AA733C",
"6 c #AB733C",
"7 c #AD753D",
"8 c #B77B40",
"9 c #B97D40",
"0 c #BB7F41",
"q c #7C847B",
"w c #BD8042",
"e c #B98247",
"r c #B6844D",
"t c #AE8859",
"y c #94876C",
"u c #968A6F",
"i c #99937D",
"p c #AA8A60",
"a c #738785",
"s c #758C8E",
"d c #7C8D89",
"f c #768E90",
"g c #789092",
"h c #7A9295",
"j c #849087",
"k c #849EA1",
/* pixels */
"sssq-$$$$$$$$$$oo$$$$$$$$$$$$$$$$$$$$$$$$$$$$$$o@@o$$$$$$$$&1sff",
"sf;$$$$$$$$$$$$+o$$$$$$$$$$$$$$$$$$$$$$$$$$$$$$ooo@$$$$$$$$$$%ss",
"s,$$@oXXXXXXXXX..XXXoXXXXXXXXXXXXXXXXXXXXXXXXXX..  XXXXXXoo#$$%s",
"j$$+XXXXXXXXXXX..XXXooXXXXXXXXXXXXXXXXXXXXXXXXX..  XXXXXXXXX+$$1",
"<$#XXXXXXXXXXXX..XXXXXXXXXXXXXXXXXXXXXXXXXXXXXX..  XXXXXXXXXX#$%",
"=$+XXXXXXXXXXXX..XXXXXXXXXXXXXXXXXXXXXXXXXXXXXX..  XXXXXXXXXXX$$",
"$$oXXXXXXXXXXXX..XXXXXXXXXXXXXXXXXXXXXXXXXXXXXX..  XXXXXXXXXXX$$",
"$$XXXXXXXXXXXXX..XXXXXXXXXXXXXXXXXXXXXXXXXXXXXX..  XXXXXXXXXXX$$",
"$$XXXXXXXXXXXXX..XXXXXXXXXXXXXXXXXXXXXXXXXXXXXX..  XXXXXXXXXXX$$",
"$$XXXXXXXXXXXXX..XXXXXXXXXXXXXXXXXXXXXXXXXXXXXX..  XXXXXXXXXXX$$",
"$$XXXXXXXXXXXXX..XXXXXXXXXXXXXXXXXXXXXXXXXXXXXX..  XXXXXXXXXXX$$",
"$$XXXXXXXXXXXXX..XXXXXXXXXXXXXXXXXXXXXXXXXXXXXX..  XXXXXXXXXXX$$",
"$$ooXXXXXXXXXXX..XXXXXXXXXXXXXXXXXXXXXXXXXXXXXX..  XXXXXXXXXXX$$",
"oo                                                 XXXXXXXXXXX$$",
"oo                                                 XXXXXXXXXXo$$",
"r858566666666666555555555555555445555555555555555  ..........Xoo",
"ww55555555555555555555555555555435555555555555555  ...........oo",
"ww55555555555555555555555555555435555555555555555  XXXXXXXXXXX$$",
"ww85555555555555555555555555555449555555555555555  XXXXXXXXXoo$$",
"ww55555555555555555555555555555435555555555555555  XXXXXXXXXXo$$",
"w855555555555555555555555555555445555555555555555  XXXXXXXXXXX$$",
"w855555555555555555555555555555448555555555555555  XXXXXXXXXXX$$",
"ww55555555555555555555555555555435555555555555575  XXXXXXXXXXX$$",
"ww55555555555555555555555555555435555555555555575  XXXXXXXXXXX$$",
"ww88wwwwwwwwwwwwwwwwwwwwwwwwwwwwwwwwwwwwwwwwwwwwe  XXXXXXXXXXX$$",
"ww98wwwwwwwwwwwwwwwwwwwwwwwwwwwwwww8wwwww9wwww889  XXXXXXXXXXX$$",
"ww88555555555555555555555555555585555577555585556  XXXXXXXXXXX$$",
"we55555555555555555555555555555555555557555555556  XXXXXXXXXXX$$",
"ww55555555555555555555555555555555555555555555666  XXXXXXXXXXX$$",
"ww55555555555555555555555555555555555555555555566  XXXXXXXXXXX$$",
"ww55552222222222222222222222222222222222222222222  XXXXXXXXXXX$$",
"ww55552222222222222222222222222222222222222222222  XXXXXXXXXXX$$",
"ww55552222222222222222222222222222222222222222222  .XXXXXXXXXX$$",
"ww55552222222222222222222222222222222222222222222  XXXXXXXXXXX$$",
"ww55552222222222222222222222222222222222222222222  XXXXXXXXXXX$$",
"ww55552222222222222222222222222222222222222222222  XXXXXXXXXXX$$",
"ww55552222222222222222222222222222222222222222222  XXXXXXXXXXX$$",
"ww55552222222222222222222222222222222222222222222  XXXXXXXXXXX$$",
"ww55552222222222222222222222222222222222222222222  XXXXXXXXXXX$$",
"ww55552222222222222222222222222222222222222222222  XXXXXXXXXXX$$",
"ww55552222222222222222222222222222222222222222222  XXXXXXXXXXX$$",
"ww55552222222222222222222222222222222222222222222  XXXXXXXXXXX$$",
"ww55552222222222222222222222222222222222222222222  XXXXXXXXXXX$$",
"ww55552222222222222222222222222222222222222222222  XXXXXXXXXXX$$",
"ww55552222222222222222222222222222222222222222222  XXXXXXXXXXX$$",
"ww55552222222222222222222222222222222222222222222  XXXXXXXXXXX$$",
"ww55552222222222222222222222222222222222222222222  XXXXXXXXXXX$$",
"ww55552222222222222222222222222222222222222222222  ..........Xoo",
"ww55552222222222222222222222222222222222222222222  ...........oo",
"ww55552222222222222222222222222222222222222222222  XXXXXXXXXXX$$",
"ww55552222222222222222222222222222222222222222222  XXXXXXXXXoo$$",
"ww55552222222222222222222222222222222222222222222  XXXXXXXXXXo$$",
"ww55552222222222222222222222222222222222222222222  XXXXXXXXXXX$$",
"ww55552222222222222222222222222222222222222222222  XXXXXXXXXXX$$",
"ww55552222222222222222222222222222222222222222222  XXXXXXXXXXX$$",
"ww55552222222222222222222222222222222222222222222  XXXXXXXXXXX$$",
"ww55552222222222222222222222222222222222222222222  XXXXXXXXXXX$$",
"rw55553222222222222222222222222222222222222222222  XXXXXXXXXXX$$",
"te75555555555555555555555555555555555555555555555  XXXXXXXXXXX$$",
"iw85555555555555555555555555555555555555555555557  XXXXXXXXXX@$>",
"krw5555555555555555555555555777555575555777555775  XXXXXXXXXo$$g",
"hyww885555555555555555555555775555575555777755775  XXXXXXoo#$$>k",
"ssp8wwwwwwwwwwwwwwwwwwwwwwwwwwww7wwwww7wwwww7wwweoo$$$$$$$$$$>hf",
"sffduttewwwwwwwwwwwwwwwwwwwwwwwwwwwwwwwewwwwwwwwwo@$$$$$$$*:afff"
};
