/* XPM */
static char *img_elrm[] = {
/* columns rows colors chars-per-pixel */
"64 64 69 1 ",
"  c #387A9F",
". c #3C7B9D",
"X c #2F79A3",
"o c #2A78A5",
"O c #2678A8",
"+ c #4E7E94",
"@ c #417C9A",
"# c #457C98",
"$ c #5C808D",
"% c #6E8385",
"& c #60808B",
"* c #658189",
"= c #758C8E",
"- c #758D8F",
"; c #768E90",
": c #789092",
"> c #7A9294",
", c #7F979A",
"< c #569BBD",
"1 c #5C9CBB",
"2 c #7498A1",
"3 c #709EAF",
"4 c #6C9FB3",
"5 c #7DA2AB",
"6 c #78A1AD",
"7 c #66A2BF",
"8 c #72A0B0",
"9 c #3495CD",
"0 c #3A96CA",
"q c #3F97C8",
"w c #2F95D0",
"e c #3399D5",
"r c #359CD7",
"t c #39A0DD",
"y c #3FA8E5",
"u c #4598C5",
"i c #4B99C2",
"p c #509AC0",
"a c #5CA2C5",
"s c #59A4CC",
"d c #48A7DC",
"f c #50A6D3",
"g c #54A5D0",
"h c #50ABDD",
"j c #60A1C1",
"k c #79B3CC",
"l c #67B0D3",
"z c #44A9E2",
"x c #849EA1",
"c c #87A2A4",
"v c #89A3A5",
"b c #89A4A6",
"n c #89A4A7",
"m c #83A3A8",
"M c #8AA6A8",
"N c #8BA6A8",
"B c #8DA9AB",
"V c #8EABAD",
"C c #90ACAE",
"Z c #92AFB1",
"A c #93B0B2",
"S c #94B1B3",
"D c #94B2B4",
"F c #96B4B5",
"G c #99B7B9",
"H c #96B9BF",
"J c #9CBBBD",
"K c #8AB7C4",
"L c #90B8C2",
/* pixels */
"===2jgffyyyyyyyyyyyyyyyyyyyyyyyykLJJJJJJJJJJJJJJJJJJJJJJSSAM>===",
"=;jyyzzyyyyyyyyyyzyyyyyyyyyyyyyyzlJLJJJJJJJJJJJJJJJJJJJJJJJJJv==",
"=ayytreewwwwwwwwwwwwwwwwwwwwwwwwwwpnvvNNvNNvvvvvNvNvnvnvBBVFJJM=",
"3yyrwwwwwwwwwwwwwwwwwwwwwwwwwwwwwwwumvvNvvmvvNNmmvNvvnvnnvMvBJJ,",
"sytwwwwwwwwwwwwwwwwwwwwwwwwwwwwwwwww9wwwwwwwwww91vvvvvnvvMvMMFJZ",
"dyewwwwwwwwwwwwwwwwwwwwwwwwwwwwwwwwwwwwwwwwwwwwwwq7vnnnnMcMcvBJG",
"yywwwwwwwwwwwwwwwwwwwwwwwwwwwwwwwwwwwwwwwwwwwwwwwwwq48888885vvJJ",
"yywwwwwwwwwwwwwwwwwwwwwwwwwwwwwwwwwwwwwwwwwwwwwwwwwwwwwwwwwuMvJJ",
"yywwwwwwwwwwwwwwwwwwwwwwwwwwwwwwwwwwwwwwwwwwwwwwwwwwwwwwwwww5MJJ",
"yywwwwwwwwwwwwwwwwwwwwwwwwwwwwwwwwwwwwwwwwwwwwwwwwwwwwwwwwww<cJJ",
"yywwwwwwwwOOOOOOOOOOOOOOOOOOOOOOOOOOOOOOOOOOOOOOOOOOOOwwwwww9mJJ",
"yywwwwwwwwOOOOOOOOOOOOOOOOOOOOOOOOOOOOOOOOOOOOOOOOOOOOwwwwwww8JJ",
"yywwwwwwwwOOOOOOOOOOOOOOOOOOOOOOOOOOOOOOOOOOOOOOOOOOOOwwwwwwwuJJ",
"yywwwwwwwwOOOOOOOOOOOOOOOOOOOOOOOOOOOOOOOOOOOOOOOOOOOOwwwwwwwwHJ",
"yywwwwwwwwOOOOOOOOOOOOOOOOOOOOOOOOOOOOOOOOOOOOOOOOOOOOwwwwwwwwlH",
"yywwwwwwwwOOOOOwwwwOOOOOOOOOOOOOOOOOOOOOOOOOOwwwwOOOOOwwwwwwwwdJ",
"yywwwwwwwwOOOOOwwwwOOOOOOOOOOOOOOOOOOOOOOOOOOwwwwOOOOOwwwwwwwwyk",
"yywwwwwwwwOOOOOwwwwOOOOOOOOOOOOOOOOOOOOOOOOOOwwwwOOOOOwwwwwwwwyh",
"yywwwwwwwwOOOOOwwwwOOOOOOOOOOOOOOOOOOOOOOOOOOwwwwOOOOOwwwwwwwwyy",
"yywwwwwwwwOOOOOOOOOOOOOOOOOOOOOOOOOOOOOOOOOOOOOOOOOOOOwwwwwwwwyy",
"yywwwwwwwwOOOOOOOOOOOOOOOOOOOOOOOOOOOOOOOOOOOOOOOOOOOOwwwwwwwwyy",
"yywwwwwwwwOOOOOOOOOOOOOOOOOOOOOOOOOOOOOOOOOOOOOOOOOOOOwwwwwwwwyy",
"yywwwwwwwwOOOOOOOOOOOOOOOOOOOOOOOOOOOOOOOOOOOOOOOOOOOOwwwwwwwwyy",
"yywwwwwwwwOOOOOOOOOOOOOOOOOOOOOOOOOOOOOOOOOOOOOOOOOOOOwwwwwwwwyy",
"yywwwwwwwwOOOOOOOOOOOOOOOOOOOOOOOOOOOOOOOOOOOOOOOOOOOOwwwwwwwwyy",
"yywwwwwwwwOOOOOOOOOOOOOOOOOOOOOOOOOOOOOOOOOOOOOOOOOOOOwwwwwwwwyy",
"yywwwwwwwwOOOOOOOOOOOOOOOOOOOOOOOOOOOOOOOOOOOOOOOOOOOOwwwwwwwwyy",
"yywwwwwwwwOOOOOOOOOOOOOOOOOOOOOOOOOOOOOOOOOOOOOOOOOOOOwwwwwwwwyy",
"yywwwwwwwwOOOOOOOOOOOOOOOOOOOOOOOOOOOOOOOOOOOOOOOOOOOOwwwwwwwwyy",
"yywwwwwwwwOOOOOOOOOOOOOOOOOOOOOOOOOOOOOOOOOOOOOOOOOOOOwwwwwwwwyy",
"yywwwwwwww.OOOOOOOOOOOOOOOOOOOOOOOOOOOOOOOOOOOOOOOOOOOwwwwwwwwyy",
"yywwwwwwww+OOOOOOOOOOOOOOOOOOOOOOOOOOOOOOOOOOOOOOOOOOOwwwwwwwwyy",
"yywwwwwwww*OOOOOOOOOOOOOOOOOOOOOOOOOOOOOOOOOOOOOOOOOOOwwwwwwwwyy",
"yywwwwwww9%XOOOOOOOOOOOOOOOOOOOOOOOOOOOOOOOOOOOOOOOOOOwwwwwwwwyy",
"yywwwwwwww%@OOOOOOOOOOOOOOOOOOOOOOOOOOOOOOOOOOOOOOOOOOwwwwwwwwyy",
"yywwwwwwww&$OOOOOOOOOOOOOOOOOOOOOOOOOOOOOOOOOOOOOOOOOOwwwwwwwwyy",
"yywwwwwwww%&OOOOOOOOOOOOOOOOOOOOOOOOOOOOOOOOOOOOOOOOOOwwwwwwwwyy",
"yywwwwwwww%%.OOOOOOOOOOOOOOOOOOOOOOOOOOOOOOOOOOOOOOOOOwwwwwwwwyy",
"yywwwwwwww%%$OOOOOOOOOOOOOOOOOOOOOOOOOOOOOOOOOOOOOOOOOwwwwwwwwyy",
"yywwwwwww9%%&OOOOOOOOOOOOOOOOOOOOOOOOOOOOOOOOOOOOOOOOOwwwwwwwwyy",
"yywwwwwwww%%%oOOOOOOOOOOOOOOOOOOOOOOOOOOOOOOOOOOOOOOOOwwwwwwwwyy",
"yywwwwwwww%%%$.OOOOOOOOOOOOOOOOOOOOOOOOOOOOOOOOOOOOOOOwwwwwwwwyy",
"kdwwwwwwww%%%%%%$oOOOOOOOOOOOOOOOOOOOOOOOOOOOOOOOOOOOOwwwwwwwwyy",
"JKwwwwwwww%%%%%%%%$@OOOOOOOOOOOOOOOOOOOOOOOOOOOOOOOOOOwwwwwwwwyy",
"JJ6uwwwwww%%%%%%%%%%%$OOOOOOOOOOOOOOOOOOOOOOOOOOOOOOOOwwwwwwwwyy",
"JJmmqwwwww%%%%%vMvv%%%.OOOOOOOOOOOOOOOOOOOOOOwwwwOOOOOwwwwwwwwyy",
"JJmn1wwwww%%%%%Mvvn%%%$OOOOOOOOOOOOOOOOOOOOOOwwwwOOOOOwwwwwwwwyy",
"JJmM8wwww9%%%%%vmMm%%%%oOOOOOOOOOOOOOOOOOOOOOwwwwOOOOOwwwwwwwwyy",
"JJNv89wwww%%%%%cmMm%%%%$OOOOOOOOOOOOOOOOOOOOOwwwwOOOOOwwwwwwwwyy",
"JJvMnwwwww%%%%%%%%%%%%%*OOOOOOOOOOOOOOOOOOOOOOOOOOOOOOwwwwwwwwyy",
"JJnvvwwwww%%%%%%%%%%%%%%.OOOOOOOOOOOOOOOOOOOOOOOOOOOOOwwwwwwwwyy",
"JJcMMuwwww%%%%%%%%%%%%%%$oOOOOOOOOOOOOOOOOOOOOOOOOOOOOwwwwwwwwyy",
"JJMvnuwwww%%%%%%%%%%%%%%%%$#XOOOOOOOOOOOOOOOOOOOOOOOOOwwwwwwwwyy",
"JJcMv1wwww%%%%%%%%%%%%%%%%%%%$@OOOOOOOOOOOOOOOOOOOOOOOwwwwwwwwyk",
"JJMvM1wwwwwwwwwwwwwwwwwwwwwwwwwwwwwwwwwwwwwwwwwwwwwwwwwwwwwwwwkJ",
"JJvnc8wwwwwwwwwwwwwwwwwwwwwwwwwwwwwwwwwwwwwwwwwwwwwwwwwwwwwww7JJ",
"JJvMMm19wwwwwwwwwwwwwwwwwwwwwwwwwwwwwwwwwwwwwwwwwwwwwwwwwwww7cJJ",
"JJMvvcM5<wwwwwwwwwww01uwwwwwwwwwwwwwwwwwwwwwwwwwwwwwwwwwwww8ccJJ",
"FJBvnvnvm5<wwwww0<8mnvmuwwwwwwwwwwwwwwwwwwwwwwwwwwwwwwwww98nnVJF",
"ZJFMcMvMMmm8iu85vMmcmvvmqwwwwwwwwwwwwwwwwwwwwwwwwwwwwwww96mcnAJZ",
"vJJBvvncMcMcmvvMcMvMvMvMmqwwwwwwwwwwwwwwwwwwwwwwwwwwwww96MMcVJJv",
">MJJAMvMvMvMvMvvMvnvncMcMmqwwwwwwwwwwwwwwwwwwwwwwwwwww96vcMFJJZx",
"==BJJJJJJJJJJJJJJJJJJJJJJJHhyyyyyyyyyyyyyyyyyyyyyyyyyzKJJJJJJB:=",
"===xZJJJJJJJJJJJJJJJJJJJJJJHhyyyyyyyyyyyyyyyyyyyyyyyhLJJJJJB,==-"
};
