/* XPM */
static char *img_p_bs[] = {
/* columns rows colors chars-per-pixel */
"64 64 169 2 ",
"   c gray20",
".  c #373839",
"X  c #3B3E3E",
"o  c #4D3B39",
"O  c #4E3B3A",
"+  c #5C5C3F",
"@  c #694C39",
"#  c #64513B",
"$  c #6A503F",
"%  c #43494A",
"&  c #4A5253",
"*  c #4B5454",
"=  c #4E5758",
"-  c #765A44",
";  c #7B5E48",
":  c #586543",
">  c #546B45",
",  c #46794A",
"<  c #7D6149",
"1  c #696458",
"2  c #766659",
"3  c #545F60",
"4  c #5C6B6C",
"5  c #617072",
"6  c #647577",
"7  c #687B7D",
"8  c #6A7C7E",
"9  c #8D3F37",
"0  c #AE4439",
"q  c #BA4539",
"w  c #CD4335",
"e  c #D04435",
"r  c #D14436",
"t  c #D34536",
"y  c #D84638",
"u  c #DA4738",
"i  c #DD4839",
"p  c #E0493A",
"a  c #E54B3B",
"s  c #E74C3C",
"d  c #85674F",
"f  c #84684F",
"g  c #8E7157",
"h  c #A17C4F",
"j  c #AE6C65",
"k  c #B16F69",
"l  c #CF5C42",
"z  c #E05041",
"x  c #E85543",
"c  c #C46445",
"v  c #C36056",
"b  c #ED7159",
"n  c #E37860",
"m  c #EE7A60",
"M  c #24A65B",
"N  c #2CAA5F",
"B  c #2FA462",
"V  c #2CAE64",
"C  c #3CA76D",
"Z  c #32AC68",
"A  c #3DA96F",
"S  c #28B162",
"D  c #408B52",
"F  c #739C5D",
"G  c #539C7A",
"H  c #45BC6A",
"J  c #50B467",
"K  c #40A570",
"L  c #42A873",
"P  c #52A27D",
"I  c #53A37D",
"U  c #53A47E",
"Y  c #54A57F",
"T  c #4BB77F",
"R  c #67A460",
"E  c #39C46D",
"W  c #2ECC71",
"Q  c #33C873",
"!  c #33C973",
"~  c #8A8C56",
"^  c #A18366",
"/  c #AA8C6D",
"(  c #B49675",
")  c #88AF7B",
"_  c #90B173",
"`  c #E48B6B",
"'  c #F39676",
"]  c #5D9880",
"[  c #5D9F83",
"{  c #758C8E",
"}  c #758D8F",
"|  c #768D8F",
" . c #669386",
".. c #619A85",
"X. c #669987",
"o. c #6C9189",
"O. c #768E90",
"+. c #778E91",
"@. c #788F92",
"#. c #798F92",
"$. c #769593",
"%. c #789092",
"&. c #799193",
"*. c #7A9294",
"=. c #7C9396",
"-. c #7C9497",
";. c #7C9597",
":. c #739992",
">. c #7D9698",
",. c #7E9799",
"<. c #7F989B",
"1. c #4EBA83",
"2. c #62A589",
"3. c #69A38E",
"4. c #6EAA95",
"5. c #7EA19F",
"6. c #62D181",
"7. c #6FD285",
"8. c #81928F",
"9. c #87958F",
"0. c #949C8F",
"q. c #839490",
"w. c #8D9C96",
"e. c #8E9D97",
"r. c #80999C",
"t. c #819A9D",
"y. c #839C9F",
"u. c #8FA29E",
"i. c #99A296",
"p. c #95A49D",
"a. c #9CA69C",
"s. c #9DA89E",
"d. c #B8AD92",
"f. c #BEB092",
"g. c #BFB092",
"h. c #BAB095",
"j. c #BAB69F",
"k. c #849EA1",
"l. c #9BABA4",
"z. c #A5ADA0",
"x. c #A2AFA5",
"c. c #AAB3A6",
"v. c #B3B3A0",
"b. c #BEBBA4",
"n. c #C6A884",
"m. c #D0B18B",
"M. c #C0B294",
"N. c #D0BA92",
"B. c #D1BA93",
"V. c #D7BD93",
"C. c #D9BB93",
"Z. c #F7B18C",
"A. c #C1BFA9",
"S. c #87C191",
"D. c #89C494",
"F. c #E2C49A",
"G. c #D5C8A7",
"H. c #D8CCAC",
"J. c #EBCEA2",
"K. c #FCCDA2",
"L. c #E7D2AC",
"P. c #E8D3AD",
"I. c #EFD7AD",
"U. c #E4DDA9",
"Y. c #F0D2A5",
"T. c #F2D5A7",
"R. c #F5D7A9",
"E. c #F7DCAF",
"W. c #FFE0B1",
/* pixels */
"{ { { ;.k.k.k.k.k.k.k.t.O.{ { O.=.;.,.,.*.-.t.*.-.=.-.-.-.-.r.-.r.=.-.-.r.-.r.=.,.@.O.{ { @.-.-.-.,.=.<.=.-.-.-.-.k.-.@.@.O.O.O.",
"{ O.t.k.k.k.k.k.k.k.k.k.t.O.{ { =.r.=.,.-.t.-.-.-.t.=.r.-.r.=.-.-.-.=.r.=.-.-.-.-.{ { { @.,.<.-.t.*.-.-.<.-.<.-.=.=.<.-.@.@.{ { ",
"{ t.k.k.k.k.k.k.k.k.k.k.k.t.{ { @.=.=.;.-.*.-.-.r.-.-.-.-.-.-.,.r.-.r.-.-.=.r.=.*.O.{ O.=.,.-.-.,.<.-.t.=.>.=.<.=.=.-.-.=.+.{ { ",
"t.k.k.k.k.k.k.k.k.k.k.k.k.k.;.{ { ;.,.,.-.t.-.t.=.-.=.r.-.r.-.-.=.-.=.-.-.r.-.-.O.{ { O.,.=.-.,.=.-.=.=.<.=.>.=.<.=.<.=.<.O.{ { ",
"k.k.k.k.k.k.k.k.k.k.k.k.k.k.k.%.{ @.=.=.;.<.>.;.-.-.=.-.-.r.,.-.-.-.-.-.r.-.r.@.{ { { *.,.-.-.-.=.<.,.=.=.<.,.=.-.-.-.-.=.=.O.<.",
"k.k.k.k.k.k.k.k.k.k.k.k.k.k.k.t.{ { @.,.=.;.;.>.=.r.r.-.-.=.-.-.r.-.r.,.=.-.@.{ { { { { -.-.,.,.-.-.<.-.-.=.<.-.-.r.-.r.=.@.-.k.",
"k.k.k.k.k.k.k.k.k.k.k.k.k.k.k.k.=.{ +.%.;.;.;.=.-.-.r.-.-.,.-.,.=.-.,.-.-.=.@.{ o.O.{ { @.,.,.-.-.=.=.-.-.=.=.-.r.=.-.-.@.{ r.k.",
"k.k.k.k.k.k.k.k.k.k.k.k.k.k.k.k.;.{ { o.X.I P P L A C A K A A A A A A A C C C C [ U G ]  .-.*.,.<.,.<.=.<.,.<.=.-.-.-.-.O.O.<.k.",
"k.k.k.k.k.k.k.k.k.k.k.k.k.k.k.k.$.G C Z S S S S S S S S S S S S V S S S S S S S S S S S V C P :.-.-.-.-.-.-.=.,.r.=.#.+.O.{ +.k.",
"k.k.k.k.k.k.k.k.k.k.k.k.k.k.k.2.V S V S S S S S S S S S S S S S V S S S S S S S S S S S S S S V P =.t.*.t.,.-.=.-.=.+.{ { { O.r.",
"t.k.k.k.k.k.k.k.k.k.k.k.k.k.2.S S S S S S S S S S S S S S S S S S S S S S S S S S S S S S S S S V [ -.t.=.-.r.=.-.O.{ { { { { { ",
"O.k.k.k.k.k.k.k.k.k.k.k.k.k.Z S S S S S S S S S S S S S S S S S S S S S S S S S S S S S S S S S S Z =.=.t.-.=.=.O.O.{ { { { { { ",
"{ *.k.k.k.k.k.k.k.k.k.k.k.*.S S S S S S S S S S S S S S S S S S S S S S S S S S S S S S S S S S S S *.,.=.=.=.@.{ +.@.@.#.-.@.+.",
"{ { ;.k.k.k.k.k.k.k.k.y.{ { S S S S S S S S S S S S S S S S S S S S S S S S S S S S S S S S S S S S { { @.| { { @.-.r.r.-.-.r.#.",
"=.O.{ ,.k.k.k.k.k.k.y.O.{ { S S S S S S S S S S S S S S S S S S S S S S S S S S S S S S S S S S S S { { { { +.@.-.-.-.-.-.,.-.-.",
",.*.O.{ ,.y.k.k.k.,.{ { { @.S S S S S S S S S S S S S S S S S S S S S S S S S S S S S S S S S S S S { { { +.@.-.=.r.-.r.-.=.=.r.",
",.=.-.@.O.{ @.@.{ { { { @.=.S S S S S S S S S S S S S S S S S S S S S S S S S S S S S S S S S S S S { { O.@.-.-.-.-.r.=.-.=.-.-.",
",.,.,.-.O.{ { { { { { =.;.,.S S S S S S S S S S S S S S S S S V S S S S S S S S S S S S S S S S S S { { @.t.-.r.-.r.-.-.-.r.=.r.",
"*.-.-.-.=.O.{ { { { @.,.=.=.S S S S S S S S S S S S S S V D : : : : D N S S S S S S S S S S S S S S { *.-.-.-.*.-.=.-.=.r.-.-.-.",
"-.,.,.-.-.=.O.{ { { =.;.,.;.S S S S S S S S S S S S S V > @ @ @ @ @ @ > S S S V S S S S S S S S S V *.-.-.t.-.t.-.r.-.r.=.-.=.r.",
"=.r.=.r.-.-.-.O.{ { %.;.<.>.M M M M M M M M M M M M M , @ @ @ @ @ @ @ @ , M M M M M M M M M M M M M -.-.,.-.-.-.r.-.r.-.-.=.-.-.",
"-.-.-.-.-.,.-.-.{ { { <.=.<.M M M M M M M M M M M M M @ @ @ @ @ @ @ @ @ @ M M M M M M M M M M M M M ,.,.,.-.=.r.=.-.=.-.-.r.=.r.",
"-.r.=.-.=.r.-.t.=.{ { @.>.;.M M M M M M M M M M M M M : @ @ @ @ @ @ @ @ : M M M M M M M M M M M M M ,.*.-.-.-.-.-.-.r.=.r.-.-.-.",
"-.=.r.-.-.-.-.-.=.@.{ { ;.;.B M M M M M M M M M M M M M M M M M M M M M M M M M M M M M M M M M M B -.,.-.,.,.-.=.r.-.-.=.-.=.r.",
"-.-.-.r.-.r.=.r.=.@.O.{ { ;...M M M M M M M M M M M M M M M M M M M M M M M M M M M M M M M M M M X.t.-.-.-.-.,.-.-.r.=.-.=.-.-.",
"r.=.-.=.-.=.-.-.-.=.{ { { { ;.@ @ @ @ @ @ @ @ @ @ @ @ @ @ @ @ @ @ @ @ @ @ @ @ @ @ @ @ @ @ @ @ @ @ -.-.-.-.r.-.-.=.r.-.-.-.r.=.r.",
"=.r.-.r.-.r.-.-.=.=.{ { { { { @ @ @ @ @ @ @ @ @ @ @ @ @ @ @ @ @ @ @ @ @ @ @ @ @ @ @ @ @ @ @ @ @ @ -.t.-.r.-.,.-.-.=.-.=.r.-.-.-.",
"-.-.-.=.-.=.r.=.-.@.{ { 0.d.M.@ @ @ @ @ @ @ @ @ @ @ @ @ @ @ @ @ @ @ @ @ @ @ @ @ @ @ @ @ @ @ @ @ @ M.d.i.-.-.-.-.-.r.-.r.=.-.=.r.",
"-.r.=.-.-.r.-.r.=.{ { q.B.C.V.@ @ @ @ @ @ @ @ @ @ @ @ @ @ @ @ @ @ @ @ @ @ @ @ @ @ @ @ @ @ @ @ @ @ C.V.B.e.-.,.,.r.-.r.-.-.=.-.-.",
"-.=.r.-.-.=.=.=.O.{ O.d.V.C.V.@ @ @ @ @ @ @ @ @ @ @ @ @ @ @ @ @ @ @ @ @ @ @ @ @ @ @ @ @ @ @ @ @ @ C.V.V.M.-.-.-.=.-.=.-.-.r.=.r.",
"-.-.-.-.-.-.-.@.{ { { C.V.V.V.@ @ @ @ @ @ @ @ @ @ @ @ @ @ @ @ @ @ @ @ @ @ @ @ @ @ @ @ @ @ @ @ @ @ V.V.V.C.,.r.-.-.-.r.=.r.-.-.-.",
"r.=.r.=.r.=.@.O.{ { { C.V.V.V.< @ @ @ @ @ @ @ @ @ @ @ @ @ @ @ @ @ @ @ @ @ @ @ @ @ @ @ @ @ @ @ @ - V.V.V.C.-.=.-.=.r.-.-.=.-.=.r.",
"t.-.t.-.=.@.{ { { { { d.V.V.V.f @ @ @ @ @ @ @ @ @ @ @ @ @ @ @ @ @ @ @ @ @ @ @ @ @ @ @ @ @ @ @ @ d V.V.V.d.r.,.-.,.-.-.,.-.=.-.-.",
"=.=.=.=.@.{ { { { { { q.B.V.V.Y.F.C.( g @ @ @ @ @ @ @ @ @ @ @ @ @ @ @ @ @ @ @ @ @ @ @ @ d ( C.F.R.V.V.B.w.,.=.,.,.-.-.,.-.r.=.t.",
"=.-.,.@.O.{ { { { { { O.q.f.V.J.W.W.W.W.W.C.m./ g g ; @ @ @ @ @ @ @ @ @ @ @ g g ^ n.C.R.W.W.W.W.Y.V.d.q.{ =.,.=.-.-.-.-.<.=.-.-.",
"*.t.@.{ { { { { { { *.-.,.,.$.j.W.W.W.W.W.W.W.W.W.W.W.W.W.W.W.W.W.W.W.W.W.W.W.W.W.W.W.W.W.W.W.W.b.{ { O.{ O.*.=.-.,.,.-.-.,.*.t.",
"-.@.{ { { { { { { @.,.=.>.>.>.l.W.W.W.W.W.W.W.W.W.W.W.W.W.W.W.W.W.W.W.W.W.W.W.W.W.W.W.W.W.W.W.W.j.{ O.O.{ { { =.r.-.r.-.-.=.=.-.",
"O.{ { { { { { { %.t.;.,.-.>.-.p.W.W.W.W.W.W.W.W.W.W.W.W.W.W.W.W.W.W.W.W.W.W.W.W.W.W.W.W.W.W.W.W.e.,.<.,.{ { { { @.-.=.-.-.t.<.-.",
"{ { { { { { { { -.-.,.=.=.-.>.=.L.W.W.W.W.W.W.W.W.W.W.W.W.W.W.W.W.W.W.W.W.W.W.W.W.W.W.W.W.W.W.P.k.k.k.k.<.O.{ { { O.@.r.-.*.@.O.",
"{ { { { { { O.=.t.*.t.;.<.=.3.1.I K.W.W.W.W.W.W.W.W.W.W.W.W.W.W.W.W.W.W.W.W.W.W.W.W.W.W.W.W.K.) 1.4.k.k.k.t.{ { { { { O.O.{ { { ",
"{ { { { { { =.=.=.;.<.=.<.3.W W ~ x b b b b b b _ 6.6.6.6.6.6.6.6.6.6.6.6.6.6._ b b b b b b x h W W 4.k.k.k.r.O.{ { { { { { { { ",
"{ { { { { @.,.=.>.=.=.>.-.! W W l s s s s s s s l E W W W W W W W W W W W W E l s s s s s s s s H W ! <.k.k.k.r.{ { { { { { { { ",
"{ { { { @.-.-.-.=.<.<.>.1.W W E s s s s s s s s s l J Q W W W W W W W W W J l s s s s s s s s s F W W 1.k.k.k.k.r.@.{ { { { { { ",
"{ { { { @.-.-.,.<.=.=.=.! W 7.' s s s s s s s s s s s c R E W W W W E R c s s s s s s s s s s s ` 7.Q Q k.k.k.k.k.r.{ { { { { { ",
"{ { { { @.t.*.-.<.>.>.=.W 7.W.' s s s s s s s s s s s s s s s s s s s s s s s s s s s s s s s s b W.7.W k.k.k.k.k.k.@.{ { { { { ",
"{ { { { @.=.t.-.=.>.;.<.! U.W.' s s s s s s s s s s s s s s s s s s s s s s s s s s s s s s s s b W.U.! k.k.k.k.k.k.k.{ { { { { ",
"{ { { { { =.=.-.<.-.-.-.S.W.W.' s s s i t y u u t t s s s s s s s s s s s s t t t t t t i s s s b W.W.D.k.k.k.k.k.k.k.{ { { { { ",
"{ { { { { { =.-.>.-.-.-.b.W.W.' s s s u w w w w w w s s s s s s s s s s s s w w w w w w u s s s b W.E.G.k.k.k.k.k.k.r.{ { { { { ",
"{ { { { { { { *.,.-.-.-.z.W.W.' s s s i w w w w w r s s s s s s s s s s s s r w w w w w i s s s n W.W.c.k.k.k.k.k.k.O.O.{ { { { ",
"{ { { { { { { { =.-.,.-.l.W.W.Z.s s s s r w w w w i s s s s s s s s s s s s i w w w w r a s s s ' W.W.l.k.k.k.k.k.*.{ { { O.O.O.",
"*.{ { { { { { { { O.-.-.-.I.W.Z.s s s s s y r r p s s s s s s s s s s s s s s p r r y a s s s s K.W.I.k.k.k.k.k.=.{ { O.,.k.k.k.",
"k.,.{ { { { { { { { O.=.-.l.W.W.n s s s s s s s s s s z v k k j j j j v p s s a s s s s s s s b W.E.x.k.k.k.k.,.O.O.{ -.k.k.k.k.",
"k.k.,.{ { { { { { { { { @.*.a.G.1 0 s s s s s s s s 9 O =.-.t.=.@.{ { { O 9 a a s s s s s s q 2 H.x.k.k.k.k.-.O.{ { ,.k.k.k.k.k.",
"k.k.k.,.{ { { { { { { { O.O.{ {                         7 ,.-.=.r.+.{ 6                         k.k.k.k.k.*.{ { { ,.k.k.k.k.k.k.",
"k.k.k.k.-.{ { { { { { { { { { {                         7 =.-.=.=.r.@.6                         k.k.k.k.*.O.{ { =.k.k.k.k.k.k.k.",
"k.k.k.k.t.{ { { { { { { { { { { 3                     & @.t.-.t.=.=.;.@.%                     4 =.-.*.O.O.O.{ { <.k.k.k.k.k.k.k.",
"k.k.k.k.r.{ { { { { { { { { { { { 7 3 % X       . = 5 -.r.-.r.-.,.=.-.t.@.5 * %         X 3 7 { { { { { { { { { <.k.k.k.k.k.k.k.",
"k.k.k.k.=.{ { { { { { { { { { { { { { @.,.=.-.=.-.=.r.-.=.-.=.-.t.=.-.*.-.@.{ O.{ { { { { { { { { { { { { { { { -.k.k.k.k.k.k.k.",
"k.k.k.,.{ { { { { { { { { { { { { { @.=.-.-.,.r.-.r.r.=.-.-.r.=.=.t.=.<.,.=.@.{ { { { { { { { { { { O.O.{ { @.O.O.,.k.k.k.k.k.k.",
"k.k.,.{ { { { { { { { { { { { { { { =.-.,.-.-.-.-.=.-.-.=.r.-.-.=.=.=.,.-.,.=.@.{ { { { { { { { { { @.<.=.=.@.@.{ { ,.k.k.k.k.k.",
"k.*.O.{ { { { { { { { { { { { { { =.-.=.=.r.=.r.-.-.-.r.r.=.-.=.r.-.r.-.-.=.-.-.O.O.{ { { { { { { @.<.-.-.<.=.=.{ { O.*.k.k.k.k.",
"@.O.{ { { O.{ { { { { { { { { { @.-.-.r.-.-.-.-.r.=.-.=.-.-.-.r.=.-.=.-.t.=.*.t.@.O.{ { { { { O.*.=.-.-.=.,.-.-.*.O.{ { *.k.k.k.",
"{ { { { O.O.<.<.,.-.O.{ { { { { =.=.=.r.-.r.=.-.=.r.-.r.r.=.r.-.-.-.r.=.r.-.-.-.-.@.{ { { { O.*.-.-.t.=.-.<.-.=.=.-.O.O.{ { $.O.",
"{ { { { $.k.k.k.k.k.t.O.{ { { O.r.-.-.-.-.=.r.-.-.-.-.=.-.-.=.-.=.r.-.-.=.-.=.t.,.O.{ { { { @.t.-.<.=.=.-.-.<.<.-.-.=.{ { { { { "
};
