/* XPM */
static char *img_p_rs[] = {
/* columns rows colors chars-per-pixel */
"64 64 196 2 ",
"   c gray20",
".  c #3E3433",
"X  c #373839",
"o  c #3C3F3F",
"O  c #603935",
"+  c #6B3A35",
"@  c #694C39",
"#  c #4C4842",
"$  c #454B4C",
"%  c #4E5758",
"&  c #535D5F",
"*  c #6A5443",
"=  c #6B5C4E",
"-  c #725540",
";  c #7B5E48",
":  c #5A6C47",
">  c #6D6054",
",  c #6F6C63",
"<  c #6F6D64",
"1  c #7F7362",
"2  c #617072",
"3  c #647577",
"4  c #657678",
"5  c #717873",
"6  c #757974",
"7  c #813D36",
"8  c #BA4539",
"9  c #C5473A",
"0  c #D0483A",
"q  c #E74C3C",
"w  c #85674F",
"e  c #8E7157",
"r  c #977A5E",
"t  c #AD744C",
"y  c #A17C4F",
"u  c #B4675F",
"i  c #8A7562",
"p  c #B86B64",
"a  c #BB6F67",
"s  c #B2716A",
"d  c #B5756F",
"f  c #A47975",
"g  c #CF5C42",
"h  c #D3594D",
"j  c #CC5E53",
"k  c #C56359",
"l  c #EB6751",
"z  c #ED7159",
"x  c #C07065",
"c  c #EE7A60",
"v  c #2DAE64",
"b  c #2DAF65",
"n  c #32AC67",
"m  c #3CAC63",
"M  c #28B162",
"N  c #28B262",
"B  c #29B765",
"V  c #29B966",
"C  c #2ABB67",
"Z  c #2ABC68",
"A  c #2BBE69",
"S  c #35B56B",
"D  c #3EB675",
"F  c #4F8451",
"G  c #4B8C55",
"H  c #449C5C",
"J  c #76875D",
"K  c #7E9459",
"L  c #739C5D",
"P  c #4F9E78",
"I  c #589A7E",
"U  c #5CAC63",
"Y  c #45A372",
"T  c #41A772",
"R  c #4AA878",
"E  c #52A17C",
"W  c #53A37D",
"Q  c #50A87E",
"!  c #48B47B",
"~  c #45B97B",
"^  c #41BE7A",
"/  c #69AD67",
"(  c #2BC16B",
")  c #2CC36C",
"_  c #2CC66E",
"`  c #2DC86F",
"'  c #39C46D",
"]  c #2DCA70",
"[  c #2ECC71",
"{  c #38C575",
"}  c #32C872",
"|  c #33C973",
" . c #3BCD75",
".. c #3DC178",
"X. c #48CE79",
"o. c #55CF7D",
"O. c #59CC7E",
"+. c #6DC97D",
"@. c #968453",
"#. c #998972",
"$. c #A18366",
"%. c #AA8C6D",
"&. c #B39969",
"*. c #B49675",
"=. c #BD9F7C",
"-. c #8FA76C",
";. c #9CA970",
":. c #E59472",
">. c #F49F7D",
",. c #6F8385",
"<. c #748889",
"1. c #708F8C",
"2. c #758C8E",
"3. c #7E8B8B",
"4. c #629583",
"5. c #669386",
"6. c #679587",
"7. c #639C87",
"8. c #679889",
"9. c #689C8A",
"0. c #699E8B",
"q. c #70908D",
"w. c #768E90",
"e. c #778E90",
"r. c #778F91",
"t. c #788F92",
"y. c #6F9E91",
"u. c #789092",
"i. c #7A9295",
"p. c #7B9396",
"a. c #7C9396",
"s. c #7C9597",
"d. c #739992",
"f. c #789896",
"g. c #7D9598",
"h. c #7D9698",
"j. c #7F989B",
"k. c #54AF83",
"l. c #5BAD87",
"z. c #56B184",
"x. c #59B589",
"c. c #5FB28C",
"v. c #61A488",
"b. c #67BB8E",
"n. c #6DA190",
"m. c #6DA391",
"M. c #74A798",
"N. c #79A199",
"B. c #5DC489",
"V. c #62D181",
"C. c #6FD285",
"Z. c #78CE9C",
"A. c #878889",
"S. c #918887",
"D. c #9C8A88",
"F. c #8B958F",
"G. c #849092",
"H. c #869793",
"J. c #859A9A",
"K. c #80999C",
"L. c #819A9D",
"P. c #829B9E",
"I. c #909494",
"U. c #95A49D",
"Y. c #BAB69F",
"T. c #849EA1",
"R. c #C6A884",
"E. c #D1B787",
"W. c #D0B18B",
"Q. c #D9BB93",
"!. c #F6A885",
"~. c #F9BB93",
"^. c #89D48D",
"/. c #96D691",
"(. c #B0D899",
"). c #BDD99D",
"_. c #93D8B0",
"`. c #E2C49A",
"'. c #CBC1A3",
"]. c #DDCCA9",
"[. c #CADBA1",
"{. c #D7DCA5",
"}. c #E5CAA1",
"|. c #ECCDA2",
" X c #EFD7AD",
".X c #E4DDA9",
"XX c #F5D6A9",
"oX c #FDD6A9",
"OX c #F6DBAE",
"+X c #FFE0B1",
"@X c #AEE1C4",
"#X c #BBE6CD",
"$X c #CAF2DB",
"%X c #E0E7E7",
"&X c #F0F3F3",
"*X c white",
/* pixels */
"2.2.2.s.T.T.T.T.T.T.T.L.w.2.2.w.g.g.g.g.g.g.g.g.g.g.g.g.g.g.g.g.g.g.g.g.g.g.g.g.g.u.t.2.2.t.g.g.g.g.g.g.g.g.g.g.g.g.g.a.t.2.2.2.",
"2.w.L.T.T.T.T.T.T.T.T.T.L.w.2.2.g.g.g.g.g.g.g.g.g.g.g.g.g.g.g.g.g.g.g.g.g.g.g.g.g.2.2.2.t.s.g.g.g.g.g.g.g.g.g.g.g.g.g.g.t.2.2.2.",
"2.L.T.T.T.T.T.T.T.T.T.T.T.L.2.2.t.g.g.g.g.g.g.g.g.g.g.g.g.g.g.g.g.g.g.g.g.g.g.g.u.t.2.t.s.g.g.g.g.g.g.g.g.g.g.g.g.g.g.g.s.t.2.2.",
"L.T.T.T.T.T.T.T.T.T.T.T.T.T.s.2.2.g.g.g.g.g.g.g.g.g.g.g.g.g.g.g.g.g.g.g.g.g.g.g.2.2.2.u.g.g.g.g.g.g.g.g.g.g.g.g.g.g.g.g.s.u.2.2.",
"T.T.T.T.T.T.T.T.T.T.T.T.T.T.T.u.2.w.g.g.h.h.s.s.g.g.g.g.g.g.g.g.g.g.g.g.g.g.g.u.2.2.2.2.g.g.g.g.g.g.g.g.g.g.g.g.g.g.g.g.g.a.2.L.",
"T.T.T.T.T.T.T.T.T.T.T.T.T.T.T.L.2.2.w.g.h.h.h.s.g.g.g.g.g.g.g.g.g.g.g.g.g.g.a.t.2.2.2.t.g.g.g.g.g.g.g.g.g.g.g.g.g.g.g.g.g.t.a.T.",
"T.T.T.T.T.T.T.T.T.T.T.T.T.T.T.T.i.w.t.t.h.s.s.s.g.g.g.g.g.g.g.g.g.g.i.g.g.g.2.2.w.w.2.2.r.j.g.g.g.g.g.g.g.g.g.g.g.g.g.g.i.2.K.T.",
"T.T.T.T.T.T.T.T.T.T.T.T.T.T.T.T.i.2.2.w.w.g.d.9.E W W W W W W W W E I k.P P P P 0.0.w.2.2.s.g.g.g.g.g.g.g.g.g.g.g.g.s.a.2.t.s.T.",
"T.T.T.T.T.T.T.T.T.T.T.T.T.T.T.T.g.2.2.I T n M M M M M M M M M M N N v M M M M M M M v k.w.r.i.g.g.g.g.g.g.g.g.g.g.g.g.t.2.2.2.T.",
"T.T.T.T.T.T.T.T.T.T.T.T.T.T.T.T.6.Y M M N N M M M M M M M M M M N N M M M M M M M M M v R u.w.i.g.g.g.g.g.g.g.g.g.g.2.2.2.2.2.K.",
"P.T.T.T.T.T.T.T.T.T.T.T.T.T.N.T M M M M v v M M M M M M M M M M M M M M M M M M M M M M M d.2.w.a.s.g.g.g.g.s.g.g.t.2.2.2.2.2.2.",
"r.T.T.T.T.T.T.T.T.T.T.T.T.m.v N M M M M N N M M M M M M M M M M M M M M M M M M M M M M M R g.2.2.g.g.g.g.g.s.a.2.2.2.2.2.2.2.2.",
"2.i.T.T.T.T.T.T.T.T.T.T.v.N v N M M M M M M M M M M M M M M M M M M M M M M M M M M M S B.b.T.i.2.2.t.g.K.a.a.2.2.t.a.t.u.s.t.t.",
"2.2.s.T.T.T.T.T.T.T.T.n.N N N N M M M M M M M M M M M M M M M M M M M M M M M M M B.@X*X*X%XT.s.2.2.2.t.2.t.2.2.t.g.s.g.g.g.s.a.",
"i.w.2.h.T.T.T.T.T.T.j.n M M v M M M M M M M M M M M M M M M M M M M M M M M M M _.*X*X*X*X%XT.w.2.2.2.2.2.2.t.t.g.g.g.g.g.g.s.g.",
"h.s.2.2.s.P.T.T.T.j.I M M M M M M M M M M M M M M M M M M M M M M M M M M M M Z.*X*X*X*X*X&Xw.2.2.2.2.2.2.2.t.g.g.g.g.g.g.g.g.g.",
"h.h.i.w.2.t.w.t.2.2.m M M M M M M M M M M M M M M M M M M M M M M M M M M M B.*X*X*X*X*X*X*X2.2.2.2.2.2.t.i.s.g.g.g.g.g.g.g.g.g.",
"h.h.g.g.w.2.2.2.2.2.b M M M M M M M M M M M M M M M M M M M M M M M M M M M #X*X*X*X*X*X*X*X2.2.2.2.2.2.t.g.s.g.g.g.g.g.g.g.g.g.",
"h.h.s.g.g.2.2.2.2.5.M M M M M M M M M M M M M M M M N N M M M M M M M M M M $X$X$X$X$X$X$X$X9.7.8.2.2.t.g.g.g.s.g.g.g.g.g.g.g.g.",
"h.h.g.g.g.g.w.2.2.4.M M M M M M M M M M M M M M M M N B B V A ( ) ) [ [ [ [ [ [ [ [ [ [ [ [ [ [ | ] ~ v.g.g.g.h.g.g.g.g.g.g.g.g.",
"g.g.g.g.g.g.i.w.2.4.N M M M N N M M M M M B Z Z ) ] [ [ [ [ [ [ [ [ [ [ [ [ [ [ [ [ [ [ [ [ [ [ [ [ [ [ { l.h.h.g.g.g.g.g.g.g.g.",
"g.g.g.g.g.g.g.a.2.2.v M M M M N B Z ) ] ] [ [ [ [ [ [ [ [ [ [ [ [ [ [ [ [ [ [ [ [ [ [ [ [ [ [ [ [ [ [ [ [ [ h.h.g.g.g.g.g.g.g.g.",
"g.g.g.g.g.g.g.g.g.2.n N V Z _ [ [ [ [ [ [ [ [ [ [ [ [ [ [ [ [ [ [ [ [ [ [ [ [ [ [ [ [ [ [ [ ] ] [ ] [ [ [ ..h.h.g.g.g.g.g.g.g.g.",
"g.g.g.g.g.g.g.g.g.2.D ] [ [ [ [ [ [ [ [ [ [ [ [ [ [ [ [ [ [ [ [ [ [ [ [ [ [ [ [ [ [ [ [ [ [ } ^ X.D D x.z.f.h.h.g.g.g.g.g.g.g.g.",
"g.g.g.g.g.g.g.g.g.t.! } [ [ [ [ [ } } ] [ [ [ [ [ [ [ [ [ [ o.V.V.V.^./././.(.[.[.[.{.+X+Xw.t.g.g.g.g.g.g.g.g.g.g.g.g.g.g.g.g.g.",
"g.g.g.g.g.g.g.g.g.i.2.H m m m m m m G G G F : : : J +X+X+X+X+X+X+X+X+X+X+X+X+X+X+X+X+X+X+X2.w.g.g.g.g.g.g.g.g.g.g.g.g.g.g.g.g.g.",
"g.g.g.g.g.g.g.g.s.s.2.@ @ @ @ @ @ @ @ @ @ @ @ @ @ %.+X+X+X+X+X+X+X+X+X+X+X+X+X+X+X+X+X+X+X2.w.g.g.g.g.g.g.g.g.g.g.g.g.g.g.g.g.g.",
"g.g.g.g.g.g.g.g.s.r.2.@ @ @ @ @ @ @ @ @ @ @ @ @ @ |.+X+X+X+X+X+X`.@ @ R.+X+X+X+X+X+X+X+X+X2.2.t.g.g.g.g.g.g.g.g.g.g.g.g.g.g.g.g.",
"g.g.g.g.g.g.g.g.i.2.2.@ @ @ @ @ @ @ w Q.+X+X+XQ.*.+X+X+X+X+X+X+Xe @ @ ; +X+X+X+X+X+X+X+X+X2.2.w.g.g.g.g.g.g.g.g.g.g.g.g.g.g.g.g.",
"g.g.g.g.g.g.g.a.2.2.2.@ @ @ @ @ @ * |.+X+X+X+X+X+X+X+X+X+X+X+X+X@ @ @ @ +X+X+X+X+X+X+X+X+X2.2.2.t.g.g.g.g.g.g.g.g.g.g.g.g.g.g.g.",
"g.g.g.g.g.g.g.t.2.2.2.* @ @ @ @ @ Q.+X+X+X+X+X+X+X+X+X+X+X+X+X+X@ @ @ @ +X+X+X+X+X+X+X+X+Xw.2.2.w.s.g.g.g.g.g.g.g.g.g.g.g.g.g.g.",
"g.g.g.g.g.g.t.2.2.2.2.= @ @ @ @ @ +X+X+X+X+X+X+X+X+X+X+X+X+X+X+Xr @ @ w +X+X+X+X+X+X+X+X+X].'.G.w.w.g.g.g.g.g.g.g.g.g.g.g.g.g.g.",
"g.g.g.g.g.t.2.2.2.2.2.= @ @ @ @ @ +X+X+X+X+X+X+X+X+X+X+X+X+X+X+XOX; @ Q.+X+X+X+X+X+X+X+X+X+X+X'.2.2.2.i.s.s.g.g.g.g.g.g.g.g.g.g.",
"g.g.g.g.u.2.2.2.2.2.2., @ @ @ @ @ R.+X+X+X+X+X+X+X+X+X+X+X+X+X+X+X+X+X+X+X|.=.r e e - r `.+X+X+X2.2.2.w.s.s.g.g.g.g.g.g.g.g.g.g.",
"g.g.g.u.2.2.2.2.2.2.2.< @ @ @ @ @ - |.+X+X+X+X+X+X+X+X+X+X+X+X+X+X+X+X+XW.@ @ @ @ @ @ @ ; +XOXY.2.2.2.2.t.i.g.s.g.g.g.g.g.g.g.g.",
"g.g.t.2.2.2.2.2.2.2.i.6 @ @ @ - $.Q.+X+X+X+X+X+X+X+X+X+X+X+X+X+X+X+X+XQ.@ @ @ @ @ @ @ @ @ 5 w.w.2.2.2.2.2.w.i.s.g.g.g.g.g.g.g.g.",
"g.u.2.2.2.2.2.2.2.i.g.F.*.*.Q.+X+X+X+X+X+X+X+X+X+X+X+X+X+X+X+X+X+X+X+X; @ @ @ @ @ @ @ @ @ , 2.2.2.2.w.2.2.2.2.i.g.g.g.g.g.g.g.g.",
"2.2.2.2.2.2.2.2.t.g.g.U.+X+X+X+X+X+X+X+X+X+X+X+X+X+X+X+X+X+X+X+X+X+X+X- @ @ @ @ @ @ @ @ @ < 2.r.j.j.j.g.w.2.2.2.t.g.g.s.g.g.g.a.",
"2.2.2.2.2.2.2.t.g.g.g.g.].+X+X+X+X+X+X+X+X+X+X+X+X+X+X+X+X+X+X+X+X+X+X|.*.e @ @ @ @ @ @ > <.i.T.T.T.T.T.j.w.2.2.t.2.t.s.s.i.t.t.",
"2.2.2.2.2.2.2.a.g.g.g.g.P. X+X+X+X+X+X+X+X+X+X+X+X+X+X+X+X+X+X+X+X+X+X+X+X+X+X+X+X+X.XO.q.i.T.T.T.T.T.T.T.j.w.2.2.t.2.2.t.2.2.2.",
"2.2.2.2.2.2.a.a.g.g.g.g.g.x z z z z z +.V.V.V.V.V.V.V.&.z z z z ;.V.V.V.V.V.V.V.V.V. .[ z.T.T.T.T.T.T.T.T.T.L.2.2.2.2.2.2.2.2.2.",
"2.2.2.2.2.t.g.g.g.g.g.g.G.q q q q q y [ [ [ [ [ [ ] [ ' q q q q g L [ [ [ [ [ [ [ [ [ [ | T.T.T.T.T.T.T.T.T.T.L.2.2.2.2.2.2.2.2.",
"2.2.2.2.2.g.g.g.g.g.g.g.f q q q q q L [ [ [  .V.V. .] ] t q q q q q @.[ [ [ [ [ [ [ [ [ [ M.T.T.T.T.T.T.T.T.T.T.K.2.2.2.2.2.2.2.",
"2.2.2.2.t.g.g.g.g.g.g.g.p q q q q q U [ C.[.+X+X+X+X).X.K q q q q q q g L [ [ [ [ [ [ [ [ c.T.T.T.T.T.T.T.T.T.T.T.K.2.2.2.2.2.2.",
"2.2.2.2.t.g.g.g.g.g.g.g.j q q q q q U /.+X+X+X+X+X+X+X.X/ q q q q q q q q q t K U [ [ [ [ x.T.T.T.T.T.T.T.T.T.T.T.T.s.2.2.2.2.2.",
"2.2.2.2.t.g.g.g.g.g.g.g.j q q q q q -.+X+X+X+X+X+X+X+X+XE.q q q q q q q q q q q q q q q q d T.T.T.T.T.T.T.T.T.T.T.T.L.2.2.2.2.2.",
"2.2.2.2.2.a.g.g.g.g.g.g.j q q q q q :.+X+X+X+X+X+X+X+X+X~.q q q q q q q q q q q q q q q q d T.T.T.T.T.T.T.T.T.T.T.T.T.2.2.2.2.2.",
"2.2.2.2.2.2.a.g.g.g.g.g.j q q q q q !.+X+X+X+X+X+X+X+X+X!.q q q q q q q q q q q q q q q q d T.T.T.T.T.T.T.T.T.T.T.T.L.2.2.2.2.2.",
"2.2.2.2.2.2.2.i.s.s.g.g.k q q q q q ~.+X+X+X+X+X+X+X+X+Xl q q q q q q q q q q q q q q q q d T.T.T.T.T.T.T.T.T.T.T.T.t.2.2.2.2.2.",
"2.2.2.2.2.2.2.2.s.g.g.g.s q q q q q >.+X+X+X+X+X+X+X+Xi O O 7 0 q q q q q q q q q q q q q D.T.T.T.T.T.T.T.T.T.T.T.s.2.2.2.t.r.2.",
"i.2.2.2.2.2.2.2.2.w.s.s.S.q q q q q l +X+X+X+X+X+X+X1           8 q q q q q q q q q q q q I.T.T.T.T.T.T.T.T.T.T.a.2.2.2.s.T.T.T.",
"T.g.2.2.2.2.2.2.2.2.2.a.g.h q q q q q c oX+X+X}.#.#             . 9 q q q q q q q q q q a T.T.T.T.T.T.T.T.T.T.s.t.2.2.s.T.T.T.T.",
"T.T.g.2.2.2.2.2.2.2.2.2.t.A.h q q q q q q q .                     + q q q q q q q q q u A.T.T.T.T.T.T.T.T.T.g.2.q.2.g.T.T.T.T.T.",
"T.T.T.g.2.2.2.2.2.2.2.2.2.2.2.2.2.2.2.2.2.3                         2.2.2.2.2.2.w.2.2.2.2.2.j.T.T.T.T.T.T.s.2.2.2.j.T.T.T.T.T.T.",
"T.T.T.T.j.2.2.2.2.2.2.2.2.2.2.2.2.2.2.2.2.3                       X r.2.2.2.2.2.2.2.2.2.2.2.2.K.T.T.T.T.a.2.2.2.s.T.T.T.T.T.T.T.",
"T.T.T.T.K.2.2.2.2.2.2.2.2.2.2.2.2.2.2.2.2.t.$                     2 h.r.2.2.2.2.2.2.2.2.2.2.2.2.t.s.s.2.2.2.2.2.K.T.T.T.T.T.T.T.",
"T.T.T.T.L.2.2.2.2.2.2.2.2.2.2.2.2.2.2.2.t.a.g.3 % X         o & ,.h.g.g.t.w.w.w.2.2.2.2.2.2.2.2.2.2.2.2.2.2.2.2.K.T.T.T.T.T.T.T.",
"T.T.T.T.s.2.2.2.2.2.2.2.2.2.2.2.2.2.2.t.a.K.g.g.g.g.g.g.g.g.g.g.h.h.g.g.j.t.2.2.2.2.2.2.2.2.2.2.2.2.2.2.2.2.2.2.s.T.T.T.T.T.T.T.",
"T.T.T.g.2.2.2.2.2.2.2.2.2.2.2.2.2.2.t.t.g.g.g.g.g.g.g.g.g.g.g.g.h.h.s.g.g.g.w.w.2.2.2.2.2.2.2.2.2.2.2.2.2.2.2.2.t.s.T.T.T.T.T.T.",
"T.T.g.2.2.2.2.2.2.2.2.2.2.2.2.2.2.2.g.g.g.g.g.g.g.g.g.g.g.g.g.g.h.h.s.g.g.g.g.w.2.2.2.2.2.2.2.2.2.2.u.g.s.s.i.t.2.2.K.P.T.T.T.T.",
"T.s.2.2.2.2.2.2.2.2.2.2.2.2.2.2.w.t.K.g.g.g.g.g.g.g.g.g.g.g.g.g.g.g.g.g.g.g.g.t.2.2.2.2.2.2.2.2.2.t.g.g.g.g.g.i.2.2.2.g.T.T.T.T.",
"i.2.2.2.2.2.2.2.2.2.2.2.2.2.2.2.t.g.g.g.g.g.g.g.g.g.g.g.g.g.g.g.g.g.g.g.g.g.g.g.a.2.2.2.2.2.2.2.a.g.g.g.g.g.g.g.i.t.2.2.a.P.T.T.",
"2.2.2.2.2.t.g.L.L.a.w.2.2.2.2.2.g.g.g.g.g.g.g.g.g.g.g.g.g.g.g.g.g.g.g.g.g.g.g.g.g.t.2.2.2.2.2.a.g.g.g.g.g.g.g.g.s.g.2.2.2.2.t.t.",
"2.2.2.2.u.T.T.T.T.T.L.w.2.2.2.2.g.g.g.g.g.g.g.g.g.g.g.g.g.g.g.g.g.g.g.g.g.g.g.g.s.t.2.2.2.2.s.g.g.g.g.g.g.g.g.g.g.g.s.2.2.2.2.2."
};
