/* XPM */
static char *img_xc[] = {
/* columns rows colors chars-per-pixel */
"64 64 6 1 ",
"  c gray7",
". c gray9",
"X c #181818",
"o c #1E1E1E",
"O c gray13",
"+ c #222222",
/* pixels */
"XXXXooXXooXoXXXX. .. .. .. .. .. .. .. .....X. .. .... .. .....X",
"XXooXooooXooXXXX.  .. .  .. .  .. .  .. XX.....  ..  ..  . ...XX",
"XXXoXoooooXXXoXX..XX. .. ..  .. . .. .. XXXX  ...  ..  ...  ..XX",
"ooXoooXXXoooooXX.. X .. .. ... . .. .. .XXXX.. ... .. ... .. .XX",
"oXooXooooOoOOOO+OOO++OOOOO. .. .. ..  OOOOO++OOOOOOOOooX.......X",
"ooXoXoOOOOOOOO++OOO++OOOOO .. . ..  ..OOOOO++OOOOOOOOOOOOX ...oX",
"XXooooOOoXX   X     X     ..  .. . ....     X       X..oOOX..XXo",
"oooXoOOX                  . .. .. . ..                  XOOX.XXo",
"oooXoOX                   . .. .. ..XX.                  XOOXXXO",
"XXooOOX    X               .  .. ...XX                   .OOXXXX",
"ooXoOO    XXoXXXXXXXXXX... .. . ....XooXXoXoXoXX.  .      OOXXXX",
"XXooOO    oXoooXXXXXXXXX. . .. ..XXXoXooooXoooXX.... .    OOXXXX",
"XoXo++X   ooXXXXXXXXXXXX.X.......XXoooXooXooXooX.X....    OO....",
"XXXo++    XoXXXXX.XXXXXXXX..XX..XXXooXooooXoXooXXX....   XOO... ",
".XXXOO    XX..XX. ..XXXXXX.XXXXXXXXXooXXXXoooooXXX.XXX    OO .. ",
".XXXOO    XXX.... ..XXXXXXXXXXXXXXXXXooooooXoXXXXXXX.X    OO.. .",
" ...OO    ... .. .. ....XXXXXXXXXXXXXooXoXXooXXXXXXX..    OOX ..",
". . OO    .. . .. . ..XXXXXXXXXXXXX.XXooooooXXXXXXXX..    OO... ",
". ..OO    ....  . .. .XXXX..X.......XXXoXooXXXXX..X..     OO.  .",
" .. OO    ... .. .. ...XXXX.X.. .....XXXoXXXXXXX.....     OO.. .",
" .. O+X   . . .. ..   ...XX. ..  .. ...XXXXXXXXXX. ..     OO .. ",
". ..O+    ....  .. ........... ..  .. ..XXXXXXXX...  .   X+O.  .",
". . OO    X. . . . ....X...  . ..... ...XXXXXX..  ....    OO....",
" .XXOO    X.. .. .. .XXX. .. ..   . .. ..XXXX..... ..     OO  . ",
".. .OOX   ..X.. .. .XX. .. .. ...  .  . ....XX...  . .    OO... ",
".  .OO    XXX. . ..XX... .. .  .......... ..XX.  .. ..    OO.  .",
" .. .  ...XXXXX.XXXX. .. ..  ..  .. .  . ...XX...... .. X ......",
". .. ..  .XXXXXXXXXX..  .. ... ..  . .. .. .XXX..  . . . X.   . ",
". .. .....XXXXXXXXX..  . .. .. ... ... ... ..XX.  .... . .. .. .",
" . ..  ..XXXXXXXXX. .... . .. .   ...  . .. .XXX...  .. . .. .. ",
"..  . ..XXXXXXXXXX.. .. .. .  ... .  .. .  ....X.. ..  .. .  .. ",
". .. ...XXXXXXXXXX...  . .. .. ... .. ... .. ........ .. .. .. .",
" .. ..XXXXXXXXX.XX.  .. .  . ..  .. .. ... ...XXXXX... .. .. .. ",
".. ..XXXXXXXXXX.XXX... . .. .. .. .  ..  ..  .XXXX.. ..  . ..  .",
" .....XXXX...X..XX.. . ..... . .. .. .. .  ....XXX.X... ..  ....",
" ..XX.XXXX. ....XX..... .  . ..  .. .. .. ....XXXXXX..... ..  . ",
"....XXXXX. .. .....XX...  . . ... ..  . .. .XXXXXXXXXXX..  ... .",
"..XXXXXX.. . .. . .XXX ......  ...  .... ...XXXXoXoXXXXX.... .. ",
"XXXXOO    .  .. . ...X...  . ..  . ..  ...XXXXXoooXXX.    OO....",
"XXXXOO    ... .. .. .... .. .. .. .. .. .XXXXXoXXooooo    OO.XX.",
"XXXXOO.   .. .. .. ........ .. .. ... ...XXXXooooooXoX    OOXXXX",
"XXXXOO     .. . . .  ...X. .. .  ..  ...XXXXoXXoXXoooo    OOXXXX",
"XXXXOO    ... ..  ... ..XX..  .. . ...XXX.XoooXoooXoXo    OOXXXX",
"XXXXOO       .. .. ....XX..... ... .XXXXXXooXooooXooXo    OOXXXX",
"XXXXOOX   ... .. ..  ...XXXX.... ..XXXXXXXooXooXooXoXo    ++XXXX",
"XXXXOO    . ..  . ... X.XXXX...XX.XXXXXXXoXoXooXXoXooo   X++XXXX",
"XXXXOO    .  . .. . ..XXXXXX.XXXXXXXXXXXXXoooooooXoooX    O+XXXX",
"XXXXOO     .. .. .. .XXXXXXXXXXXXXXXXXXXoooXoXXooooXoX    OOXXXX",
"XXXX++X    .  . .. ...XXXXXXXXXXXXXXXXXXXooooooXXXooXo    ++XXXX",
"XXXX+O    ...... ...XXXXXXXX..XXXXXXXXXXXXXXXXoooooXoo    OOXXOX",
"oXXXOO    X .  .. .XXXXXXXXX....XXXXXXXXXXXoooXooooXoX    OOXooX",
"oXXXOO    X. .. ..XXXXXXX.......XXXXXXXXXXXXoXooXXoooX    OOoXoo",
"XoXXOO    XX....XXXXXXXXX. .. ..X..XXXXXXXXXXoXXooooXo    OOooXo",
"XooXOO    ..XX..XXXXXXXX ..  . ...XXXXXXXXXXXXoooXXooX   .OOXoXo",
"ooooOOX                   ....  ...XXX                   .OOoXoo",
"oXXoOOo                    .. ..  ..XX                   XOooooX",
"oooXoOOX                  . .  ..  ...                  XOOooooX",
"XXooXoOOX  X     X     X  .. .. .... .   X     X   X   oOOoooXoo",
"oooXXXOOOOO++OOOO+OOOOO+OO. .... .. ..OOO+OOOOO+OO++OOOOOooXXoXo",
"oXoXXXXXoOOO+OOOOOOOOOO+OO. .  ..  . .OOOOOOOOO+OOOOOOOXoXXoooXo",
"oXXXXXXXXXXXXXXX... .. ... . .  .. ... ....XXX..X..  . .XXXXoXoo",
"XXXXXXXXXXXXXXXX.. .  ...  .....  ...  ...XXXXX.XX.......XXXXooX",
"XXXXXXXXXoXXXXXX.  .. .  .. .  .. .  .. ..XXXX...  ..  .. ..XXXX",
"XXXXXoooXoOXXXXX .. .. .. .. .. .. .. ....XXXX.. ..  .. ..XXXXXX"
};
