/* XPM */
static char *img_xo[] = {
/* columns rows colors chars-per-pixel */
"64 64 25 1 ",
"  c #001A14",
". c #001B15",
"X c #001E17",
"o c #001F18",
"O c #002119",
"+ c #00221A",
"@ c #00241B",
"# c #00251B",
"$ c #00251C",
"% c #00271D",
"& c #002A1F",
"* c #002C1F",
"= c #002C20",
"- c #002E21",
"; c #002F21",
": c #003022",
"> c #003424",
", c #003525",
"< c #003625",
"1 c #003826",
"2 c #003B28",
"3 c #003E29",
"4 c #003F29",
"5 c #004029",
"6 c #00442C",
/* pixels */
"&&&::1>>:1>:=&&&++++++++++++++++++++++++O$===@o@@o@@@o@@o@oo====",
"&&:>>1:1:>1:>=&&++++++++++++++++++++++++O$==$o@Oo@@o@oo@@oo====o",
"*:>>>:1:11>>>:&&+++o++++++++++++++++++++o===O@O@@oo@o@@o@o=oo@==",
":>>>1:>>>::1>>*&=++=++++++++++++++++++++@==$OO@O@@o@@@o@o@oooo==",
">>>>>>:>155566666666663226oo=o+++++o++26666666666666>22==$$oOo==",
">>>>>>36666666662266666266o=oo+++++o++6665666663666666663=o$@==>",
">>>>>3661#OO    ....o.  ..=o++++++=o=ooo    X       oo$>66=$o==,",
">>>>166#        ......  ..oo++++++ooo=..             o  =63===>,",
">>>>56:                 ..++++++++++==...   o            =6>===>",
">>>>56X               . ..++++++++===:....               X63====",
":1>>66    #=>>>*====+=+=o+++++o+oo==:,,:,,=-,>==O@o@o     66$===",
"*>>>66    >>>>=&+========+++++oo====:,,,>-,,>-===@@$o$    66====",
"&*>>66    >>>*&&======+===oo.o+====:,,:,,,>>>>>==@@oOo    66o$==",
"&&=>66    >>=&&&===+=============+=:,,,,,>>>>>>-====O$X  X66oooo",
"O&=:66    :*&&&O=.o==++==========+==:,::,,>>>>>=======    66$OoO",
"OO&&66    &&&&OOo+oo======+=+=======,,,,-,,,>>====@===    66OOO$",
"OOO&66    ==@ooo=o++===+==+==+=======,-,:,,::=+=@==o=o.   66@@o@",
"O#OO66 X  =.@oo=oo++o=================,-,,,,========@o..  66o@=o",
"OOO#66    =@@o=o++++++=+=++====+.=======,,=========oo=    36oooo",
"O##O63  ..ooo@oo+++++++=====++ooooo.====--====+=O==ooo    66=o=o",
"o#O$66X   .o@oo@+++++++=====++++oo++o=========+==oo@O@  ..66o@@o",
"OO$O66    =oo@@o+++++++===oo++++oo++o============ooo@O....66ooo@",
"$OOO66    ==@@@@+++++o===o++++++++++ooo=o====+==o=o=O@ ...66@@@@",
"OO$O65  ..==@oo@++++++==++++++++++++oooo=======ooooo@o .  66oo@o",
"$$oO66 .. ===ooo+++===++++++++++++++++++o===+==o++++=o..  66=o@o",
"OOO$66    ===o@@++====o+++++++++++++++++o======+++++oo..  66ooo@",
"o$OOO@O@o======o=+=+=o++++++++++++++++++++o===+o++++oo++oo=o@@@@",
"OOO$@O@Ooo=o@=======+++++++++++++++++++++oo=+==o++ooo=++o@oooo@o",
"$O=oooO@o=@======+=+++++++++++++++++++++++++o==o+oo=++++++++@@o@",
"OOOOo=Oo====o=@====+++++++++++++++++++++++++o====ooo++++++++o@=o",
"$$oOoooo======@===+++++++++++++++++++++++++++====oo=++++++o+oooo",
"OOO$o=====@======+++++++++++++++++++++++++++o+====oo++++++oo=o=o",
"++oooo========+=+==o++++++++++++++++++++@o@@o==@==ooo@@o@@o@@o@@",
"++oo=@====+=+======o++++++++++++++++++++o@@oo@======@oo@@o@oo@@o",
"++o=====+====+======++++++++++++++++++++o@@o@=======@@o@oo@@o=o=",
"++o=======++++o=+===++++++++++++++++++++@o@@===@=o====@.@@o@oooo",
"++=====o=+++++++o====oo+++++++++++++++++@o@@===========@@oooooo@",
"========oo++++++++o==+++++++++++++++++++oo@====-==>-=====@o==o@o",
"====66....++++++++o+===o++++++++++++++++o=@===-,-,----. . 66oo==",
"=+==62....++++++++++o===++++++++++++++++o===@=-,,,,,--..  33====",
"====26.....ooo+++++++===oo+++++++++++++o==+=--,,,>,-,,    66====",
"o=+=26....o=+++++++++++==.++++++++++++======,,,>,,,,--    66==@=",
"====66....+++++++++++++====o++++=o++o++====:,,,,>>,,,,    26====",
"===o62....++++++++++++o====o++++ooo=======,:,:,:>,-,,>    66=@==",
"====66o....+++++++++++====+==+ooo=+======-:,,,,,>>>>>,. ..66====",
"==o=66....o++++++++++++=============+=+==:,,:,:,>>>>,,. ..66o==@",
"====66....++++++++++o==========+======+=-,,,,:,,>>>>,,  ..66====",
"====62....++++++++++++====+==+==+==+=====,:,,,,:>>>>-- ...32==o=",
"====66..  o=o=oooo=o===============O==#==:>>>>>>>>>>>>o   66=&&&",
"o==o66..  @ooo=oo=o====@o==@===+====#=====>:>>>>>>>>>,    66===&",
"====66    o@o@ooooo==o==========O========$=:>>>>>>>>-,    36=>=>",
"====62    =o@o@oo@========@o+oo====O==$=====>>>>>>>>>>    66>>>1",
",=-=36. ..o==oo=========oo@o=o++o====&==&$====>1>>>>,>   X66>>>>",
",,,,66.. .o=====@=@==@==o@o@oo++o=O==$=$===&===>>>,->$    66>>>>",
"-,,,36=.      .         ..o@=o=o@O@===           .. .    O65>>>>",
",,-,36-.                ..@oooooO@Oo$=           .. .   X=65>>>>",
">>-,-66@  .     ..... ....++++++@O@@== .                $65>1>>>",
",,,,-,66=...    ....  ....++++++o@o@oo..             X =663>>>>>",
",->===,6666666666666266626++++++@@ooo=26666666666666666662>>>>>>",
",,======,66666666662666666++++++@o@@oo666663666666666663==:>>>>>",
",-======@==@=====oo=++++=ooo=oo+o@@oooo====@=$$=$&OO$OOO&===>>>>",
"=======@=======@=ooo++++o=o=ooo+@@o@=oooO=======OOO@O$O$o$&&=>>>",
"=$====--=========o++++oooooo=o=oo@o@@oo@O=&=&==o@O@OOOOOOO=&&&==",
"===$->,,,-=====o++++++o=ooo=ooo@o@@o@@o@oo==$=@@o@O@OO#O$Oo&&&=="
};
